<?xml version="1.0" encoding="UTF-8"?>
<svg width="30px" height="30px" viewBox="0 0 30 30" version="1.1" xmlns="http://www.w3.org/2000/svg" xmlns:xlink="http://www.w3.org/1999/xlink">
    <!-- Generator: Sketch 64 (93537) - https://sketch.com -->
    <title>svg/obstacleMonster1-1x1</title>
    <desc>Created with Sketch.</desc>
    <g id="obstacleMonster1-1x1" stroke="none" stroke-width="1" fill="none" fill-rule="evenodd">
        <rect fill="#4A90E2" x="0" y="0" width="30" height="30"></rect>
        <g id="Monster_1" transform="translate(-28.000000, -24.000000)">
            <path d="M78.7944376,23.8464604 L79.2542651,24.0847279 C82.7489542,26.9439378 85.9677467,24.5612629 81.9212647,21.1302111 L81.8522905,21.1063843 L81.8522905,20.9872506 C83.1857903,20.3677551 87.1403068,19.4146852 84.3353591,17.6038523 C82.9328852,17.2941045 80.4038339,19.6767794 79.4152047,18.7475362 C80.0129805,17.3894115 83.6456178,12.4334478 79.8750323,13.5771317 C77.8287999,14.4587214 77.9207654,17.9136 75.9894898,18.6522292 C74.1961626,17.6515058 76.0354726,11.5995116 72.6557404,13.1244235 C70.7704477,14.4825482 73.9662488,18.0803872 74.4260763,20.3439284 C73.4144558,24.5612629 68.7242153,27.7302205 64.7467073,28.445023 C64.5857677,26.4435761 61.5968889,21.0825576 60.4933029,19.6052992 C58.3321136,16.9843568 55.9410106,14.3634144 52.9521318,12.7670222 C51.9864941,12.219007 50.5610288,11.5995116 49.2505204,11.0514963 C48.2159085,10.6464416 46.1236934,10.1937334 44.8821591,10.0745996 C39.6631169,9.64571815 35.6166349,11.0753231 30.9493857,14.1251469 C30.1216962,14.6493354 29.4089636,15.1496971 28.8341792,15.6024054 C27.7535846,16.4363416 26.9029037,17.1749708 26.3281193,17.6753325 C26.3281193,17.6753325 25.8682918,18.104214 25.5004298,18.485442 C23.7760766,20.2009679 21.8218097,23.417579 21.3619822,24.2038617 C16.0739659,25.1807584 12.3263718,19.4861654 9.63638086,15.4117914 C7.72809671,12.5525815 6.48656245,14.3395877 6.85442445,16.2933811 C7.03835545,17.2702778 7.61313983,18.3186547 8.71672585,18.8190164 C7.33724333,18.6998827 5.63588156,18.1756942 4.00349392,17.8659465 C0.830684135,17.5561988 -0.778712133,18.4377885 0.37085663,20.0580074 C1.40546852,21.2493448 3.86554567,19.7006062 5.95776082,20.4392354 C5.98075219,20.4868889 3.22178716,21.9164938 2.02623565,22.2500683 C-0.203927751,22.8695637 -0.663755256,25.6572934 1.31350302,25.4666794 C2.71597691,25.1331049 4.18742492,23.6558465 5.63588156,23.417579 C0.186925628,28.8977312 5.15306268,32.5908773 7.75108809,24.1800349 C11.4986823,26.4197493 15.9360177,27.6349135 20.2124135,27.5634333 C19.9824997,29.6601872 19.936517,31.7331143 19.752586,33.8298682 C19.7295946,34.7829381 19.7295946,35.7836616 19.7755773,36.8320385 C19.9135256,40.2392636 20.4193359,43.2652607 21.0630944,45.8623763 L20.9711289,45.8862031 C17.5454139,46.1482973 15.039354,44.2659842 12.8091906,42.3360175 C11.2457771,41.0017196 9.98125149,38.8811389 7.72809671,38.9287924 C5.70485569,38.9287924 3.77358017,41.4544278 6.25664869,42.478978 C7.24527783,42.8840327 8.83168272,42.1692303 9.61338948,42.8363792 C8.92364822,42.955513 5.54391606,44.1468504 3.10683029,44.6472122 C-0.571789755,45.4096681 -0.226919127,48.8883734 2.55503728,47.88765 C4.37135592,47.0775405 5.01511443,45.6717624 7.42920883,45.8862031 C7.42920883,45.9338566 3.93451979,47.7685163 3.45170091,50.0320574 C3.12982166,51.5569693 3.72759742,53.1295347 6.02673494,51.6522763 C7.13032095,51.0327808 7.54416571,49.0075072 8.69373447,48.554799 C7.82006221,50.0082306 5.79682119,53.8205104 8.99262235,53.6298965 C10.441079,52.2955985 11.3147513,50.2464981 12.4873114,48.6977595 C15.9360177,47.8638232 20.120448,49.0075072 23.3852233,50.3418051 C23.7071025,50.9374738 24.1439386,51.4140088 24.4888093,51.962024 C24.902654,52.5100393 25.5234212,53.3201487 26.374102,54.1540849 C32.4668165,60.1822524 42.606013,61.4450701 50.6300029,58.419073 C52.7911922,57.6089635 57.2055363,55.8934376 60.8841563,51.8428903 L63.2292766,49.0551607 C66.0572157,44.5757319 71.2992493,46.5295253 75.5756451,46.1959508 C76.1964122,46.1482973 77.2310241,46.0529903 77.713843,45.9576833 C79.3002479,46.6010056 79.6911013,48.9360269 81.024601,49.8652701 C83.3697213,50.9613006 83.1168162,47.2681545 81.8982733,45.9576833 C83.3697213,46.1482973 85.1170658,46.3627381 85.9447553,46.2674311 C88.496798,46.0291636 88.5427807,44.1945039 86.7954362,43.2890875 C85.6918502,42.7410723 81.6683595,43.0269932 81.6683595,43.0269932 C82.9558765,41.9309628 84.5652728,41.907136 85.7148416,40.2869171 C86.657488,39.2147134 84.8181779,37.4753608 83.3697213,38.7858319 C82.3351094,39.7150752 80.5877649,41.8356558 79.553153,40.9302393 C80.288877,39.5959414 80.6337476,38.4760842 80.7027218,37.6183213 C80.8866528,35.5215674 79.2772565,35.0212056 78.1276877,36.7605583 C77.6678602,37.451534 77.4149551,38.499911 77.16205,39.9295159 C76.1274381,44.1706772 69.505922,43.1223002 65.8502934,42.6934188 L65.8502934,42.6934188 C66.2641381,41.5497348 66.6320001,37.1179595 66.0802071,35.5453941 C65.6663623,34.3540567 65.3904658,33.2580262 65.7123451,32.2573028 C69.7818185,29.0406917 74.7939383,28.0399682 77.7828171,23.6320197 C78.2426446,23.6320197 78.4955497,23.7273267 78.7944376,23.8464604 Z" id="body-bkg" fill="#4A90E2"></path>
            <path d="M78.7944376,23.8464604 L79.2542651,24.0847279 C82.7489542,26.9439378 85.9677467,24.5612629 81.9212647,21.1302111 L81.8522905,21.1063843 L81.8522905,20.9872506 C83.1857903,20.3677551 87.1403068,19.4146852 84.3353591,17.6038523 C82.9328852,17.2941045 80.4038339,19.6767794 79.4152047,18.7475362 C80.0129805,17.3894115 83.6456178,12.4334478 79.8750323,13.5771317 C77.8287999,14.4587214 77.9207654,17.9136 75.9894898,18.6522292 C74.1961626,17.6515058 76.0354726,11.5995116 72.6557404,13.1244235 C70.7704477,14.4825482 73.9662488,18.0803872 74.4260763,20.3439284 C73.4144558,24.5612629 68.7242153,27.7302205 64.7467073,28.445023 C64.5857677,26.4435761 61.5968889,21.0825576 60.4933029,19.6052992 C58.3321136,16.9843568 55.9410106,14.3634144 52.9521318,12.7670222 C51.9864941,12.219007 50.5610288,11.5995116 49.2505204,11.0514963 C48.2159085,10.6464416 46.1236934,10.1937334 44.8821591,10.0745996 C39.6631169,9.64571815 35.6166349,11.0753231 30.9493857,14.1251469 C30.1216962,14.6493354 29.4089636,15.1496971 28.8341792,15.6024054 C27.7535846,16.4363416 26.9029037,17.1749708 26.3281193,17.6753325 C26.3281193,17.6753325 25.8682918,18.104214 25.5004298,18.485442 C23.7760766,20.2009679 21.8218097,23.417579 21.3619822,24.2038617 C16.0739659,25.1807584 12.3263718,19.4861654 9.63638086,15.4117914 C7.72809671,12.5525815 6.48656245,14.3395877 6.85442445,16.2933811 C7.03835545,17.2702778 7.61313983,18.3186547 8.71672585,18.8190164 C7.33724333,18.6998827 5.63588156,18.1756942 4.00349392,17.8659465 C0.830684135,17.5561988 -0.778712133,18.4377885 0.37085663,20.0580074 C1.40546852,21.2493448 3.86554567,19.7006062 5.95776082,20.4392354 C5.98075219,20.4868889 3.22178716,21.9164938 2.02623565,22.2500683 C-0.203927751,22.8695637 -0.663755256,25.6572934 1.31350302,25.4666794 C2.71597691,25.1331049 4.18742492,23.6558465 5.63588156,23.417579 C0.186925628,28.8977312 5.15306268,32.5908773 7.75108809,24.1800349 C11.4986823,26.4197493 15.9360177,27.6349135 20.2124135,27.5634333 C19.9824997,29.6601872 19.936517,31.7331143 19.752586,33.8298682 C19.7295946,34.7829381 19.7295946,35.7836616 19.7755773,36.8320385 C19.9135256,40.2392636 20.4193359,43.2652607 21.0630944,45.8623763 L20.9711289,45.8862031 C17.5454139,46.1482973 15.039354,44.2659842 12.8091906,42.3360175 C11.2457771,41.0017196 9.98125149,38.8811389 7.72809671,38.9287924 C5.70485569,38.9287924 3.77358017,41.4544278 6.25664869,42.478978 C7.24527783,42.8840327 8.83168272,42.1692303 9.61338948,42.8363792 C8.92364822,42.955513 5.54391606,44.1468504 3.10683029,44.6472122 C-0.571789755,45.4096681 -0.226919127,48.8883734 2.55503728,47.88765 C4.37135592,47.0775405 5.01511443,45.6717624 7.42920883,45.8862031 C7.42920883,45.9338566 3.93451979,47.7685163 3.45170091,50.0320574 C3.12982166,51.5569693 3.72759742,53.1295347 6.02673494,51.6522763 C7.13032095,51.0327808 7.54416571,49.0075072 8.69373447,48.554799 C7.82006221,50.0082306 5.79682119,53.8205104 8.99262235,53.6298965 C10.441079,52.2955985 11.3147513,50.2464981 12.4873114,48.6977595 C15.9360177,47.8638232 20.120448,49.0075072 23.3852233,50.3418051 C23.7071025,50.9374738 24.1439386,51.4140088 24.4888093,51.962024 C24.902654,52.5100393 25.5234212,53.3201487 26.374102,54.1540849 C32.4668165,60.1822524 42.606013,61.4450701 50.6300029,58.419073 C52.7911922,57.6089635 57.2055363,55.8934376 60.8841563,51.8428903 L63.2292766,49.0551607 C66.0572157,44.5757319 71.2992493,46.5295253 75.5756451,46.1959508 C76.1964122,46.1482973 77.2310241,46.0529903 77.713843,45.9576833 C79.3002479,46.6010056 79.6911013,48.9360269 81.024601,49.8652701 C83.3697213,50.9613006 83.1168162,47.2681545 81.8982733,45.9576833 C83.3697213,46.1482973 85.1170658,46.3627381 85.9447553,46.2674311 C88.496798,46.0291636 88.5427807,44.1945039 86.7954362,43.2890875 C85.6918502,42.7410723 81.6683595,43.0269932 81.6683595,43.0269932 C82.9558765,41.9309628 84.5652728,41.907136 85.7148416,40.2869171 C86.657488,39.2147134 84.8181779,37.4753608 83.3697213,38.7858319 C82.3351094,39.7150752 80.5877649,41.8356558 79.553153,40.9302393 C80.288877,39.5959414 80.6337476,38.4760842 80.7027218,37.6183213 C80.8866528,35.5215674 79.2772565,35.0212056 78.1276877,36.7605583 C77.6678602,37.451534 77.4149551,38.499911 77.16205,39.9295159 C76.1274381,44.1706772 69.505922,43.1223002 65.8502934,42.6934188 L65.8502934,42.6934188 C66.2641381,41.5497348 66.6320001,37.1179595 66.0802071,35.5453941 C65.6663623,34.3540567 65.3904658,33.2580262 65.7123451,32.2573028 C69.7818185,29.0406917 74.7939383,28.0399682 77.7828171,23.6320197 C78.2426446,23.6320197 78.4955497,23.7273267 78.7944376,23.8464604 Z" id="body" stroke="#000000" stroke-width="0.9375" stroke-linecap="round" stroke-linejoin="round"></path>
            <g id="Virus_2" transform="translate(6.000000, 4.000000)">
                <g id="eyes" transform="translate(27.089458, 23.542187)" stroke="#000000" stroke-linecap="round" stroke-linejoin="round">
                    <path d="M11.9149641,7.17226563 C14.7453735,6.50507813 17.1155538,3.76484375 19.0255049,1.66796875 C21.4877309,12.8433594 10.304162,13.1054688 12.2831475,7.10078125" id="STROKE_97a1b2ca-a54e-4967-a7da-2bd2fc208453" stroke-width="0.78125" fill="#FFFFFF"></path>
                    <path d="M0.384815067,3.13073018 C2.22573176,5.56119893 3.97601087,6.3859375 6.99051196,7.48203125 C7.65784426,9.45976563 5.42573277,10.6511719 3.79191921,10.5796875 C0.984521246,10.484375 -0.419177733,6.36210938 0.110085816,3.9078125 L0.384815067,3.13073018 Z" id="STROKE_2a8ccad9-d38b-43b1-9eb1-e16eec8cb349" stroke-width="0.78125" fill="#FFFFFF"></path>
                    <path d="M10.9945058,5.19453125 L11.0865516,5.09921875 C13.6178121,4.40820313 15.2746371,1.85859375 17.0465194,0" id="STROKE_4fbc4749-1bdb-424e-ab24-9528bec75fbe" stroke-width="0.9375"></path>
                    <path d="M7.79591302,5.2421875 C4.89646922,4.43203125 2.73339211,3.05 1.19162437,0.071484375" id="STROKE_10114e09-db71-4aa2-a90d-eb9dccf6a978" stroke-width="0.9375"></path>
                    <path d="M16.3314883,6.79351417 C14.7321781,6.77911957 15.7695685,8.73678525 16.4035293,7.08140618" id="STROKE_777b726f-e13c-4f47-8096-1e812a79197c" stroke-width="0.9375"></path>
                    <path d="M3.37771295,7.55351563 C3.10157545,7.48203125 2.77941502,7.57734375 2.66435773,7.88710938 C2.54930044,8.45898438 3.88396504,8.50664063 3.49277024,7.86328125" id="STROKE_6076036a-1e77-4a85-801a-6664a388468f" stroke-width="0.9375"></path>
                </g>
                <g id="mouth" transform="translate(26.693292, 35.742188)">
                    <path d="M18.0409836,0.4765625 C14.9804596,0.262109375 10.4472022,2.0015625 2.37018024,0.166796875 C0.966481265,-0.14296875 0.184091669,1.59648437 0.0460229174,2.78789062 C0.644320843,6.88632812 8.42219388,9.22148437 11.9659585,8.55429687 C14.0369898,8.14921875 16.2921127,7.67265625 17.810869,6.02851562 C19.7898545,4.43203125 21.3546337,0.405078125 17.557743,0.42890625" id="STROKE_9396d6fb-e619-46cb-8d7b-83c3f619002c_1_" fill="#A01A84" fill-rule="nonzero"></path>
                    <path d="M2.85342088,1.09609375 C3.47473026,1.47734375 5.49973862,1.73945313 5.49973862,1.73945313 C5.45837675,1.79834408 5.41340085,1.85710139 5.36533292,1.91580512 C5.92786563,1.97071323 7.22996839,2.07868372 7.8970036,2.13395518 L7.89293033,2.12070313 C9.27361785,2.0015625 11.436695,1.69179688 11.4827179,1.64414063 C11.4499312,1.81389204 11.3955246,1.98484278 11.3248488,2.15668213 C12.1258957,1.98402633 14.1856473,1.97929027 14.6558116,2.00970456 C14.517025,1.75287648 14.4447241,1.60343424 14.4742075,1.64414063 C15.1185284,1.525 17.7418346,1.40585938 17.7418346,1.40585938 C17.5117201,2.21601563 16.8443878,4.81328125 16.8443878,4.95625 C16.5326633,5.31490267 15.269512,3.14984286 14.7223948,2.13779464 C14.4847786,3.15214108 14.0034278,4.54385387 13.7148294,5.64726563 C12.7736742,5.13783843 11.5740453,3.49605936 11.1878702,2.44429521 C10.6545915,3.51012499 9.61344923,4.60145579 9.31964077,5.64726563 L9.31964077,5.64726563 L9.31096048,5.62200553 C9.20998225,5.37046843 8.28683116,3.58327855 7.98195021,2.52592413 C7.29026658,3.28552789 6.51460451,4.17160597 6.09803655,5.07539063 C5.82189905,4.16992188 5.2926355,2.90703125 5.08553237,1.88242188 L5.15181933,2.1568616 C4.54163821,2.80163963 3.64470171,3.45318201 3.15256984,4.21757813 C3.15256984,4.19375 3.12955838,4.24140625 3.08353546,4.2890625 C2.99148963,3.240625 2.87643234,2.1921875 2.83040942,1.09609375 L2.83040942,1.09609375 Z" id="Combined-Shape" stroke="#000000" stroke-width="0.5" fill="#000000" fill-rule="nonzero" opacity="0.2" stroke-linecap="round" stroke-linejoin="round"></path>
                    <path d="M2.85342088,0.38125 C3.47473026,0.7625 5.49973862,1.02460938 5.49973862,1.02460938 C5.45837675,1.08350033 5.41340085,1.14225764 5.36533292,1.20096137 C5.92786563,1.25586948 7.22996839,1.36383997 7.8970036,1.41911143 L7.89293033,1.40585938 C9.27361785,1.28671875 11.436695,0.976953125 11.4827179,0.929296875 C11.4499312,1.09904829 11.3955246,1.26999903 11.3248488,1.44183838 C12.1258957,1.26918258 14.1856473,1.26444652 14.6558116,1.29486081 C14.517025,1.03803273 14.4447241,0.888590495 14.4742075,0.929296875 C15.1185284,0.81015625 17.7418346,0.691015625 17.7418346,0.691015625 C17.5117201,1.50117188 16.8443878,4.0984375 16.8443878,4.24140625 C16.5326633,4.60005892 15.269512,2.43499911 14.7223948,1.42295089 C14.4847786,2.43729733 14.0034278,3.82901012 13.7148294,4.93242188 C12.7736742,4.42299468 11.5740453,2.78121561 11.1878702,1.72945146 C10.6545915,2.79528124 9.61344923,3.88661204 9.31964077,4.93242188 L9.31964077,4.93242188 L9.31096048,4.90716178 C9.20998225,4.65562468 8.28683116,2.8684348 7.98195021,1.81108038 C7.29026658,2.57068414 6.51460451,3.45676222 6.09803655,4.36054688 C5.82189905,3.45507813 5.2926355,2.1921875 5.08553237,1.16757813 L5.15181933,1.44201785 C4.54163821,2.08679588 3.64470171,2.73833826 3.15256984,3.50273438 C3.15256984,3.47890625 3.12955838,3.5265625 3.08353546,3.57421875 C2.99148963,2.52578125 2.87643234,1.47734375 2.83040942,0.38125 L2.83040942,0.38125 Z" id="Combined-Shape" stroke="#FFFFFF" stroke-width="0.5" fill="#FFFFFF" fill-rule="nonzero" stroke-linecap="round" stroke-linejoin="round"></path>
                    <path d="M18.0409836,0.4765625 C14.9804596,0.262109375 10.4472022,2.0015625 2.37018024,0.166796875 C0.966481265,-0.14296875 0.184091669,1.59648437 0.0460229174,2.78789062 C0.644320843,6.88632812 8.42219388,9.22148437 11.9659585,8.55429687 C14.0369898,8.14921875 16.2921127,7.67265625 17.810869,6.02851562 C19.7898545,4.43203125 21.3546337,0.405078125 17.557743,0.42890625" id="STROKE_9396d6fb-e619-46cb-8d7b-83c3f619002c" stroke="#000000" stroke-width="0.9375" stroke-linecap="round" stroke-linejoin="round"></path>
                </g>
                <path d="M31.6637671,46.3941406 C35.4376464,47.990625 39.9478923,47.4902344 43.5837027,45.7746094" id="STROKE_0872b399-3531-4864-9ff1-4ca804e1d729" stroke="#000000" stroke-linecap="round" stroke-linejoin="round"></path>
            </g>
        </g>
        <rect id="Rectangle" stroke="#222222" stroke-width="0.03" x="0.015" y="0.015" width="29.97" height="29.97"></rect>
    </g>
</svg>