<?xml version="1.0" encoding="UTF-8"?>
<svg width="60px" height="60px" viewBox="0 0 60 60" version="1.1" xmlns="http://www.w3.org/2000/svg" xmlns:xlink="http://www.w3.org/1999/xlink">
    <!-- Generator: Sketch 64 (93537) - https://sketch.com -->
    <title>svg/obstacleMonster3-2x2</title>
    <desc>Created with Sketch.</desc>
    <g id="obstacleMonster3-2x2" stroke="none" stroke-width="1" fill="none" fill-rule="evenodd">
        <rect fill="#B2D48C" x="0" y="0" width="60" height="60"></rect>
        <rect id="Rectangle" fill="#A8CF7D" x="3" y="3" width="54" height="54"></rect>
        <g id="Monster_3" transform="translate(5.000000, 0.000000)">
            <path d="M12.606383,1.08510638 C16.8989362,1.43617021 18.4148936,7.19680851 18.7659574,10.8031915 L18.9734043,10.8989362 C24.6702128,9.15957447 31.8989362,9.90957447 36.1595745,15 C43.3882979,3.46276596 59.1702128,10.5638298 38.3617021,18.1914894 C41.0972455,23.1862985 41.6458149,29.6203983 40.8943244,35.5196891 L41.3776596,32.6648936 L41.4095745,32.6329787 C42.5585106,32.4414894 43.8670213,33.9095745 43.7393617,35.0265957 C43.2323329,36.8804198 42.237592,37.1452461 40.6301673,37.273869 C40.4231243,38.4663874 40.1643346,39.6271874 39.8617021,40.7393617 C53.3776596,45.1117021 48.143617,51.2393617 38.5053191,44.5053191 C37.1489362,48.0319149 35.6648936,51.6702128 33.5585106,54.8138298 C36.8776596,53.4574468 44.8882979,51.1595745 43.7553191,57.287234 C42.8776596,58.6755319 41.4414894,59.1542553 39.9734043,59.25 C35.5212766,59.6010638 32.0585106,57.5106383 28.356383,57.3510638 C28.643617,55.5319149 29.2659574,53.6648936 30.3989362,51.7819149 C26.7446809,53.2978723 22.0851064,53.25 17.9042553,52.2446809 C17.5949264,53.0842881 17.1768224,53.4616014 16.9135136,53.7908027 L16.866397,53.8511064 L17.112367,53.8324468 C18.3949468,53.7486702 19.6276596,53.8643617 20.3776596,54.0797872 C22.2925532,54.6223404 23.1861702,55.7553191 22.1010638,59.1542553 C17.0904255,60.8138298 12.462766,59.2180851 8.84042553,58.2446809 C8.80851064,55.3723404 13.2287234,52.7712766 13.7393617,50.1702128 C12.7021277,47.8723404 10.9946809,45.3510638 10.1968085,42.9095745 C8.34574468,44.6808511 6.49468085,46.8031915 4.21276596,48.0478723 C0.590425532,49.5478723 -1.38829787,46.8191489 1.45212766,43.9787234 C3.73404255,42.1117021 6.49468085,40.962766 8.87234043,39.2712766 C7.37965577,32.6643117 7.82885571,24.2374163 11.3923664,18.0473289 L11.0744681,18.4787234 C7.15404255,17.3765957 10.5660199,11.5985078 13.7078996,14.6174391 L13.8216837,14.7320656 C14.3539295,14.1602585 14.9270245,13.6254017 15.5425532,13.1329787 C13.643617,10.9148936 9.30319149,3.22340426 12.606383,1.08510638 Z M16.866397,53.8511064 L16.8156989,53.8553661 C15.6270616,53.9615699 14.4243044,54.2442717 13.5478723,54.7819149 C14.7606383,54.2553191 16.2287234,53.8882979 16.8510638,53.8723404 L16.8510638,53.8723404 L16.866397,53.8511064 Z M7.52358088,35.0203032 L7.70744681,35.0265957 L8.50531915,38.0106383 C5.24189853,40.2378069 3.73237316,35.1345927 7.34754292,35.0218506 L7.52358088,35.0203032 Z M8.01102319,28.0178211 L8.18617021,28.0691489 L7.5,31.9148936 C2.8492635,33.2504092 4.30926602,27.0364547 8.01102319,28.0178211 Z M41.4574468,30.1755319 L40.962766,25.5797872 C45.0638298,24.1755319 45.6861702,31.1329787 41.4574468,30.1755319 Z M9.66478241,21.0888623 L9.76595745,21.2234043 L8.39361702,24.8138298 C3.20538173,25.7442428 6.82221159,17.4644018 9.66478241,21.0888623 Z M41.2340426,19.7393617 C43.0212766,20.0904255 42.3510638,23.0265957 41.1702128,23.7765957 C41.1542553,23.7765957 41.0904255,23.8085106 40.9468085,23.856383 L39.606383,20.3776596 C39.893617,19.8031915 40.6117021,19.5957447 41.2340426,19.7393617 Z M32.3776596,11.2659574 L28.5319149,9.90957447 C30.0797872,6.97340426 34.4361702,7.89893617 32.3776596,11.2659574 Z M26.1382979,9.90957447 L21.143617,9.90957447 C21.3191489,6.79787234 25.6914894,6.38297872 26.1382979,9.90957447 Z" id="SHADOW" stroke="#000000" stroke-width="0.957446809" fill="#000000" opacity="0.2" stroke-linecap="round" stroke-linejoin="round"></path>
            <path d="M18.9734043,9.94148936 C24.6702128,8.20212766 31.8989362,8.95212766 36.1595745,14.0425532 C43.3882979,2.50531915 59.1702128,9.60638298 38.3617021,17.2340426 C41.9361702,23.7606383 41.7765957,32.7446809 39.8617021,39.7819149 C53.3776596,44.1542553 48.143617,50.2819149 38.5053191,43.5478723 C37.1489362,47.0744681 35.6648936,50.712766 33.5585106,53.856383 C36.8776596,52.5 44.8882979,50.2021277 43.7553191,56.3297872 C42.8776596,57.7180851 41.4414894,58.1968085 39.9734043,58.2925532 C35.5212766,58.643617 32.0585106,56.5531915 28.356383,56.393617 C28.643617,54.5744681 29.2659574,52.7074468 30.3989362,50.8244681 C26.7446809,52.3404255 22.0851064,52.2925532 17.9042553,51.287234 C17.5691489,52.1968085 17.106383,52.5638298 16.8510638,52.9148936 C16.2287234,52.9308511 14.7606383,53.2978723 13.5478723,53.8244681 C15.4468085,52.6595745 18.8776596,52.6914894 20.3776596,53.1223404 C22.2925532,53.6648936 23.1861702,54.7978723 22.1010638,58.1968085 C17.0904255,59.856383 12.462766,58.2606383 8.84042553,57.287234 C8.80851064,54.4148936 13.2287234,51.8138298 13.7393617,49.212766 C12.7021277,46.9148936 10.9946809,44.393617 10.1968085,41.9521277 C8.34574468,43.7234043 6.49468085,45.8457447 4.21276596,47.0904255 C0.590425532,48.5904255 -1.38829787,45.8617021 1.45212766,43.0212766 C3.73404255,41.1542553 6.49468085,40.0053191 8.87234043,38.3138298 C6.92553191,29.6968085 8.28191489,17.9840426 15.5425532,12.1755319 C13.643617,9.95744681 9.30319149,2.26595745 12.606383,0.127659574 C16.8989362,0.478723404 18.4148936,6.2393617 18.7659574,9.84574468" id="outline-bkg" fill="#87BC4B"></path>
            <path d="M20.3776596,53.1223404 C22.2925532,53.6648936 23.1861702,54.7978723 22.1010638,58.1968085 C20.3280137,58.7840608 18.6029182,58.9636987 16.953352,58.9075342 C18.2594787,58.8630286 19.6073042,58.6527983 20.9840426,58.1968085 C22.0691489,54.7978723 21.1755319,53.6648936 19.2606383,53.1223404 C18.7917838,52.9876694 18.1342855,52.8919745 17.3938894,52.8596209 C18.5735998,52.8087742 19.6828009,52.9227533 20.3776596,53.1223404 Z M43.7553191,56.3297872 C42.8776596,57.7180851 41.4414894,58.1968085 39.9734043,58.2925532 C39.4302978,58.3353788 38.9019141,58.3418724 38.3860227,58.3199711 L38.856383,58.2925532 C40.3244681,58.1968085 41.7606383,57.7180851 42.6382979,56.3297872 C43.1663681,53.4737456 41.7080789,52.4480666 39.6642821,52.3043072 C42.2548578,52.1455211 44.3756567,52.9747222 43.7553191,56.3297872 Z M38.3617021,17.2340426 C41.9361702,23.7606383 41.7765957,32.7446809 39.8617021,39.7819149 C53.3776596,44.1542553 48.143617,50.2819149 38.5053191,43.5478723 C37.2266879,46.8723136 35.8346132,50.2960179 33.9147005,53.3110177 C33.3653757,53.4947339 32.865205,53.68323 32.4414894,53.856383 C34.5478723,50.712766 36.4958266,45.8138298 37.8522096,42.287234 C47.4905075,49.0212766 52.2606383,44.1542553 38.7446809,39.7819149 C40.6595745,32.7446809 40.8191489,23.7606383 37.2446809,17.2340426 C49.6175037,12.698606 49.05364,8.34934933 45.0433855,7.99379676 C49.9749866,7.59489989 51.8096585,12.3045003 38.3617021,17.2340426 Z M15.7492653,52.8936596 L15.7340426,52.9148936 L15.7340426,52.9148936 C15.1117021,52.9308511 13.643617,53.2978723 12.4308511,53.8244681 C13.3072831,53.2868249 14.5100403,53.0041231 15.6986776,52.8979193 L15.7492653,52.8936596 Z M16.787234,51.287234 C17.1264698,51.368806 17.4688573,51.4440743 17.8136038,51.5127152 C17.5174304,52.1975914 17.1519865,52.5352056 16.9135136,52.8333559 L16.9032367,52.8477654 C16.6074486,52.8462953 16.3028302,52.8549155 15.9953457,52.875 L15.7492653,52.8936596 L15.7964923,52.8333559 C16.0378587,52.531588 16.409296,52.1893927 16.7077882,51.4877444 Z M29.2819149,50.8244681 C29.1836751,50.9877399 29.0892745,51.1508917 28.9985988,51.3139027 C27.2146353,51.8401397 25.2548404,52.0487841 23.2656336,52.0011897 C25.398317,51.9455733 27.4644546,51.5784363 29.2819149,50.8244681 Z M9.07978723,41.9521277 C9.16707824,42.2192381 9.26525631,42.4873036 9.37225268,42.7559271 C7.78980239,44.3309255 6.15779762,46.0294992 4.21276596,47.0904255 C3.26209346,47.4840961 2.42463074,47.5864987 1.75778172,47.4720567 C2.17047544,47.4120827 2.6188669,47.2878991 3.09574468,47.0904255 C5.37765957,45.8457447 7.2287234,43.7234043 9.07978723,41.9521277 Z M35.5162028,13.329208 L35.4861793,13.3725402 C35.3351234,13.5885191 35.1871277,13.8118085 35.0425532,14.0425532 C32.2448859,10.7000219 28.1674864,9.22892711 24.0843758,9.10520332 C28.2275053,8.98478576 32.4848304,10.2092161 35.5162028,13.329208 Z M12.606383,0.127659574 C16.8386871,0.473795968 18.3717915,6.0787179 18.7504822,9.6926378 C18.4487132,9.76852026 18.1505064,9.85168698 17.856383,9.94148936 L17.856383,9.94148936 L17.6489362,9.84574468 C17.3235389,6.50302728 15.9973541,1.30953836 12.3869634,0.288448998 C12.4547833,0.231641053 12.5284561,0.178104989 12.606383,0.127659574 Z" id="Combined-Shape" fill="#000000" opacity="0.2"></path>
            <g id="Scales" transform="translate(4.580485, 6.460340)" fill="#82B44A" stroke="#000000" stroke-linecap="round" stroke-linejoin="round" stroke-width="0.957446809">
                <path d="M9.25462173,7.32689438 C6.07908982,4.02370289 2.52057918,9.94391565 6.49398344,11.0609369" id="STROKE_73752eb0-eb27-49b2-8cce-ca40e57989c5_1_"></path>
                <path d="M5.1854728,13.8056178 C2.32908982,9.84817097 -1.43686763,18.3375327 3.81313237,17.3960433" id="STROKE_8a06c001-47e7-4279-8c67-7d3fb5a8a105_1_"></path>
                <path d="M3.60568556,20.6513625 C-0.224101671,19.4226391 -1.8038889,25.8534901 2.91951535,24.4971071" id="STROKE_df8dc73c-e7d3-499d-99b5-48b1f72322bd"></path>
                <path d="M3.12696216,27.6088093 C-0.942186777,27.385405 0.557813223,32.8907242 3.9248345,30.5928518" id="STROKE_e8342454-de43-4574-acca-991b41d337dd"></path>
                <path d="M16.5631324,2.49178799 C16.7386643,-0.619914136 21.1110047,-1.03480775 21.5578132,2.49178799" id="STROKE_6c4d95a6-db44-4eb3-a72d-f8ae88089eaa_1_"></path>
                <path d="M23.9514302,2.49178799 C25.4993026,-0.444382221 29.8556856,0.481149694 27.7971749,3.84817097" id="STROKE_a147e558-bac8-4a97-b3d3-a94288a9fd2f"></path>
                <path d="M35.0258983,12.9598731 C35.3131324,12.385405 36.0312175,12.1779582 36.6535579,12.3215752 C38.4407919,12.6726391 37.7705792,15.6088093 36.5897281,16.3588093 C36.5737707,16.3588093 36.5099409,16.3907242 36.3663239,16.4385965" id="STROKE_5f8ea3d8-eb88-468c-ae62-c34a2857f526"></path>
                <path d="M36.3822813,18.1620008 C40.4833451,16.7577454 41.1056856,23.7151922 36.8769622,22.7577454" id="STROKE_d30e99bd-0dcc-4478-98fe-481df72380d8"></path>
                <path d="M36.7971749,25.2471071 L36.8290898,25.2151922 C37.978026,25.0237029 39.2865366,26.491788 39.1588771,27.6088093 C38.6482388,29.4758305 37.6429196,29.7311497 36.01526,29.8588093" id="STROKE_118064da-df9a-4b7c-b0be-1dabbd4c9442"></path>
            </g>
            <path d="M18.9734043,9.94148936 C24.6702128,8.20212766 31.8989362,8.95212766 36.1595745,14.0425532 C43.3882979,2.50531915 59.1702128,9.60638298 38.3617021,17.2340426 C41.9361702,23.7606383 41.7765957,32.7446809 39.8617021,39.7819149 C53.3776596,44.1542553 48.143617,50.2819149 38.5053191,43.5478723 C37.1489362,47.0744681 35.6648936,50.712766 33.5585106,53.856383 C36.8776596,52.5 44.8882979,50.2021277 43.7553191,56.3297872 C42.8776596,57.7180851 41.4414894,58.1968085 39.9734043,58.2925532 C35.5212766,58.643617 32.0585106,56.5531915 28.356383,56.393617 C28.643617,54.5744681 29.2659574,52.7074468 30.3989362,50.8244681 C26.7446809,52.3404255 22.0851064,52.2925532 17.9042553,51.287234 C17.5691489,52.1968085 17.106383,52.5638298 16.8510638,52.9148936 C16.2287234,52.9308511 14.7606383,53.2978723 13.5478723,53.8244681 C15.4468085,52.6595745 18.8776596,52.6914894 20.3776596,53.1223404 C22.2925532,53.6648936 23.1861702,54.7978723 22.1010638,58.1968085 C17.0904255,59.856383 12.462766,58.2606383 8.84042553,57.287234 C8.80851064,54.4148936 13.2287234,51.8138298 13.7393617,49.212766 C12.7021277,46.9148936 10.9946809,44.393617 10.1968085,41.9521277 C8.34574468,43.7234043 6.49468085,45.8457447 4.21276596,47.0904255 C0.590425532,48.5904255 -1.38829787,45.8617021 1.45212766,43.0212766 C3.73404255,41.1542553 6.49468085,40.0053191 8.87234043,38.3138298 C6.92553191,29.6968085 8.28191489,17.9840426 15.5425532,12.1755319 C13.643617,9.95744681 9.30319149,2.26595745 12.606383,0.127659574 C16.8989362,0.478723404 18.4148936,6.2393617 18.7659574,9.84574468" id="outline" stroke="#000000" stroke-width="0.957446809" stroke-linecap="round" stroke-linejoin="round"></path>
            <g id="New_Layer_11" transform="translate(12.925532, 2.872340)" stroke="#000000" stroke-linecap="round" stroke-linejoin="round">
                <path d="M25.4361702,11.0904255 C27.2553191,9.44680851 30.75,6.2712766 33.2553191,7.9787234" id="STROKE_2d1f2bc2-16d0-4929-a198-43a3b971b6f0" stroke-width="0.957446809"></path>
                <path d="M4.38829787,6.95744681 C4.08510638,6.09574468 0.909574468,-2.85638298 0.303191489,0.957446809" id="STROKE_0dda5c46-c37d-4739-ac85-a545bbe39291" stroke-width="0.957446809"></path>
                <path d="M4.46808511,13.5957447 C0.574468085,15.0159574 0.39893617,26.0585106 5.93617021,22.212766 C9.92553191,19.3244681 5.90425532,9.07978723 2.92021277,15.8617021" id="STROKE_ba44fb7f-99eb-4766-8b4a-89c6d84ed66a" stroke-width="0.79787234" fill="#FFFFFF"></path>
                <path d="M1.40425532,23.1861702 L1.38829787,23.2340426 C2.7287234,25.7712766 6.59042553,24.5585106 7.2287234,22.0851064" id="STROKE_961fff18-9d3b-4f21-aad6-138da76422e0" stroke-width="0.5"></path>
                <path d="M19.5797872,13.7712766 C15.7819149,13.2606383 18.1276596,22.3882979 21.5904255,21.5904255 C24.8138298,20.9521277 23.393617,12.8617021 18.8138298,13.4361702 C18.7340426,13.5 18.7021277,13.5319149 18.6861702,13.5319149 L18.4946809,13.8031915" id="STROKE_dbed2dd9-d342-42f8-83a8-4a0370dccff1" stroke-width="0.79787234" fill="#FFFFFF"></path>
                <path d="M19.3882979,22.1010638 C20.712766,23.856383 23.7925532,22.6276596 23.9680851,20.5691489" id="STROKE_474d17ed-9804-4383-8f10-2f6935466565" stroke-width="0.5"></path>
                <path d="M15.8297872,13.2446809 C16.7553191,12.2234043 17.9202128,11.712766 19.2765957,11.2021277 L19.2606383,11.2021277 L19.2446809,11.2180851" id="STROKE_6e8d11ec-3a45-41d1-a16d-1358fd2b3b72" stroke-width="0.957446809"></path>
                <path d="M4.30851064,11.537234 L4.32446809,11.5531915 L4.37234043,11.5212766 C5.74468085,11.7606383 7.13297872,12.3670213 8.07446809,13.4840426 L8.20212766,13.5159574" id="STROKE_f9023376-ea85-4ae2-9c03-cf84443b9383" stroke-width="0.957446809"></path>
                <path d="M5.58510638,16.7393617 C5.56914894,16.643617 5.58510638,16.4042553 5.5212766,16.7074468 C5.50531915,18.462766 6.62234043,16.5478723 5.79255319,16.037234 C5.61702128,16.037234 5.64893617,16.1010638 5.42553191,16.1648936 C5.40957447,16.1808511 5.34574468,16.2606383 5.21808511,16.4042553" id="STROKE_b5b6b4e4-d006-4fcf-b525-fa5c7b980420" stroke-width="0.957446809"></path>
                <path d="M19.787234,15.8457447 C18.7659574,16.0851064 20.1542553,18.0319149 19.8989362,15.7659574 L19.8670213,15.8457447 C19.8670213,15.8776596 19.7553191,16.1968085 19.7393617,16.2446809" id="STROKE_3ee235b0-eb21-4fcf-b03f-1423e6e787a1" stroke-width="0.957446809"></path>
                <path d="M5.85638298,46.962766 C8.84042553,46.8510638 12.6702128,47.0744681 15.6542553,46.4202128 C15.6542553,46.4361702 15.6702128,46.4680851 15.7021277,46.5" id="STROKE_6157055d-a02e-4604-bcc3-200cebaa06f5" stroke-width="0.5"></path>
                <path d="M8.10638298,45.4148936 C9.14361702,45.7978723 12.7819149,45.3829787 13.8191489,45.143617" id="STROKE_33169e1c-3d81-46c6-a1c5-913703c46177" stroke-width="0.5"></path>
                <g id="Toenails" transform="translate(1.840603, 51.808308)" fill="#FDDB6E" stroke-width="0.5">
                    <path d="M24.6168442,0.276798054 C24.1700357,1.02679805 24.6328016,2.04807465 24.9359931,2.57467039 C26.324291,2.59062784 25.861525,0.165095926 24.6168442,0.276798054 Z" id="STROKE_f1f53f06-cf49-4485-a350-d92af23e9f8c_1_"></path>
                    <path d="M26.6753548,0.0533937987 C26.3402484,0.452329969 26.8030144,1.90445763 27.5210995,1.80871295 C28.4147165,1.3140321 27.680674,-0.313627478 26.6753548,0.0533937987 Z" id="STROKE_51b5fbb7-068f-4acb-9ebc-5ddfe6cb669a"></path>
                    <path d="M1.07961013,0.675734224 L1.04769524,0.691691671 C0.265780344,0.755521458 -0.356560081,2.44701082 0.233865451,2.97360656 C1.15939737,2.94169167 1.57429098,1.39381933 1.07961013,0.675734224 Z" id="STROKE_dfe0a2f1-7cab-4b29-aaa8-6cff56d03745_1_"></path>
                    <path d="M5.05301439,0.532117203 C5.83492928,0.0853086923 6.58492928,1.3140321 6.58492928,2.57467039 C5.54769524,2.97360656 4.54237609,2.46296827 5.05301439,0.532117203 Z" id="STROKE_1b0d3804-f838-40cb-a949-e4eb23c8bc5d"></path>
                    <path d="M2.62748247,0.883181033 C2.43599311,1.2821172 2.14875907,2.3033938 2.7391846,2.92573422 C3.77641864,2.70232997 3.68067396,1.60126614 3.53705694,1.07467039 C3.26578034,0.452329969 3.0104612,0.276798054 2.62748247,0.883181033 Z" id="STROKE_40bd7785-70ed-4d83-9dd6-b5d27d3185ee_1_"></path>
                </g>
                <g id="Mouth" transform="translate(0.000000, 24.414859)">
                    <g id="Teeth" transform="translate(1.684340, -0.000000)" stroke-width="0.957446809">
                        <path d="M1.82629879,2.45748163 C3.31034135,3.00003482 4.39544773,4.46811992 5.48055411,5.50535397 L0.661405176,6.78194971 C0.278426452,5.45748163 0.422043474,3.14365184 1.82629879,2.45748163 Z M16.330747,5.49424958 L16.3827284,5.41454943 C18.8945199,1.70938141 20.2907832,1.08096771 20.8475754,6.47875822 L16.1401286,5.77663056 C16.1985341,5.68849773 16.2563647,5.60189022 16.3136236,5.51684215 L12.2305541,5.01067312 C12.1028945,3.43088588 12.3901286,1.3564178 13.3794903,0.0479071576 C14.7875645,-0.537472002 15.6780061,4.41424882 16.330747,5.49424958 Z" id="shadow" fill="#000000" opacity="0.2"></path>
                        <path d="M1.34757539,2.61705609 C2.83161794,3.15960929 3.91672432,4.62769439 5.00183071,5.66492843 L0.182681771,6.94152418 C-0.200296952,5.61705609 -0.0566799306,3.30322631 1.34757539,2.61705609 Z M15.8520236,5.65382405 L15.904005,5.57412389 C18.4157965,1.86895588 19.8120598,1.24054218 20.368852,6.63833269 L15.6614052,5.93620503 C15.7198107,5.8480722 15.7776413,5.76146469 15.8349002,5.67641662 L11.7518307,5.17024758 C11.6241711,3.59046035 11.9114052,1.51599226 12.9007669,0.207481626 C14.3088411,-0.377897534 15.1992827,4.57382329 15.8520236,5.65382405 Z" id="Combined-Shape" fill="#FFFFFF"></path>
                    </g>
                    <path d="M0,8.18620503 C6.5106383,3.44684333 15.9255319,5.36173694 23.2180851,7.14897099" id="shadow" stroke-width="0.957446809" opacity="0.2"></path>
                    <path d="M0,8.50535397 C6.5106383,3.76599226 15.9255319,5.68088588 23.2180851,7.46811992" id="STROKE_8a27d5a6-d73e-47d0-bcfc-57dcabb213d0_1_" stroke-width="0.957446809"></path>
                    <path d="M5.5212766,9.36705609 C9.68617021,7.97875822 14.7765957,8.44152418 18.9734043,9.54258801" id="STROKE_e3e5c422-a60c-4f76-b022-c7a4c8fb2e6e" stroke-width="0.5"></path>
                </g>
            </g>
            <path d="M16.3417345,49.8351064 C17.3169143,51.2185838 18.7141857,51.9103225 20.5335489,51.9103225 C23.2625937,51.9103225 25.7458444,51.9103225 26.7446809,51.9103225 C27.4105718,51.9103225 28.6815509,51.5644531 30.5576181,50.8727144 C33.5050216,48.0639545 34.9787234,46.5199676 34.9787234,46.2407538 C34.9787234,45.8219332 30.979513,50.0312396 25.660229,50.5414727 C22.1140396,50.8816282 19.0078748,50.6461727 16.3417345,49.8351064 Z" id="Path" stroke="#000000" stroke-width="0.5" fill="#000000" opacity="0.2" stroke-linejoin="round"></path>
        </g>
        <rect id="Rectangle" stroke="#222222" stroke-width="0.03" x="0.015" y="0.015" width="59.97" height="59.97"></rect>
    </g>
</svg>