<?xml version="1.0" encoding="UTF-8"?>
<svg width="90px" height="60px" viewBox="0 0 90 60" version="1.1" xmlns="http://www.w3.org/2000/svg" xmlns:xlink="http://www.w3.org/1999/xlink">
    <!-- Generator: Sketch 64 (93537) - https://sketch.com -->
    <title>svg/obstacleMonster1-3x2</title>
    <desc>Created with Sketch.</desc>
    <g id="obstacleMonster1-3x2" stroke="none" stroke-width="1" fill="none" fill-rule="evenodd">
        <rect fill="#96BFEE" x="0" y="0" width="90" height="60"></rect>
        <rect id="Rectangle" fill="#84B4EB" x="3" y="3" width="84" height="54"></rect>
        <g id="Monster_1" transform="translate(14.000000, 3.000000)">
            <path d="M36.416268,4.4065017 C35.4605583,6.04681889 35.5253522,8.33676667 36.2866802,10.171973 L36.2310324,10.15143 C36.6306462,10.3300417 37.0015963,10.5076542 37.3071838,10.6754367 C39.4129848,11.7635679 41.0976255,13.550052 42.6202816,15.3365361 C42.6563796,15.3832844 42.6953406,15.4357387 42.7368323,15.4934049 C43.6706464,14.9580896 44.5810346,14.386534 45.4874106,13.9235896 C48.3545396,8.19059979 53.100691,16.1972966 47.60941,15.6775922 C46.6007312,15.3589594 44.7552085,16.2220577 43.6111155,16.8657212 C44.5006051,18.3665961 45.5383292,20.4153655 45.6169984,21.3618597 C48.4193335,20.8746367 51.7238211,18.7146151 52.4365538,15.8399998 C52.1125844,14.2971272 49.8609972,11.8447718 51.1892717,10.9190482 C53.5704466,9.87963928 52.2745691,14.0047934 53.5380497,14.6869055 C54.898721,14.1834418 54.8339272,11.828531 56.2755909,11.2276227 C58.9321398,10.448066 56.3727817,13.826145 55.9516215,14.7518686 C56.6481557,15.3852584 58.4299873,13.761182 59.4180939,13.9723119 C61.3943071,15.20661 58.6081704,15.8562406 57.6686592,16.2785004 L57.6686592,16.2785004 L57.6686592,16.3597043 L57.7172546,16.375945 C60.5681852,18.7146151 58.3003995,20.3386915 55.8382322,18.3897998 L55.8382322,18.3897998 L55.5142629,18.2273922 C55.3036828,18.1461883 55.1254996,18.0812253 54.8015302,18.0812253 C52.6957293,21.0857667 49.164463,21.7678788 46.297334,23.960382 C46.0705555,24.6424941 46.2649371,25.3895692 46.5565095,26.2016074 C46.5570688,26.2031493 46.5576266,26.2046952 46.5581832,26.2062451 C47.6881621,25.9782314 48.7788404,25.5500656 49.7962033,24.8049017 C50.1849666,24.1877527 50.5575314,23.2620291 51.3836533,23.2133068 C53.5704466,23.2782699 54.3317746,27.1110902 51.1244778,27.2085348 C50.7843099,27.2572571 50.6061268,26.9162011 50.2983559,26.8837195 C49.6828141,26.9974049 48.8890891,27.3059794 48.0791656,27.5983132 C47.7723268,27.6995106 47.3014641,27.899581 46.7526048,28.1560272 C46.7326373,29.3323987 46.5694085,30.6062626 46.3945249,31.0738368 L46.3945249,31.0738368 L46.5692582,31.093907 C49.175478,31.3961498 53.6514389,32.0165229 54.3641716,29.1899081 C54.5423547,28.2154622 54.7205379,27.5008686 55.0445073,27.0298864 C55.8544307,25.8443106 56.9883235,26.1853667 56.8587358,27.6145539 C56.8101404,28.1992215 56.5671633,28.9625374 56.0488123,29.8720202 C56.7777434,30.4891692 58.0088271,29.0437412 58.7377582,28.4103514 C59.7582617,27.5171094 61.0541392,28.7026852 60.390002,29.4335196 C59.5800786,30.5378915 58.4461857,30.5541323 57.5390715,31.3012075 C57.5390715,31.3012075 60.3738035,31.1063183 61.1513301,31.4798559 C62.3824137,32.0970049 62.3500168,33.3475438 60.5519867,33.5099514 C59.9688418,33.5749145 58.7377582,33.4287476 57.7010562,33.2988215 C58.559575,34.1920635 58.7377582,36.709382 57.0855144,35.9623068 C56.1460032,35.328917 55.8706292,33.7373221 54.7529348,33.2988215 C54.412767,33.3637845 53.6838359,33.4287476 53.2464772,33.4612291 C50.233562,33.6885998 46.5403111,32.3568571 44.5478994,35.4101208 L44.5478994,35.4101208 L44.458226,35.511789 C45.62068,37.2995101 47.2307574,38.8069143 48.9700814,40.1199425 C51.3674548,38.3009769 51.4808441,41.873945 50.1525697,43.0107985 C48.4355319,44.082689 47.3178376,42.7184648 47.3826315,41.0131845 C46.2717183,39.3829661 44.738938,37.9989533 42.9648717,37.2311231 L42.8956556,37.3102903 C40.3039005,40.0712202 37.1937945,41.2405552 35.6711384,41.7927412 C35.4450078,41.8752443 35.2164928,41.95307 34.9858711,42.0261977 L35.1985127,41.9616875 C39.4440318,40.62741 41.7131673,38.4471438 41.7131673,38.4471438 C42.2639153,40.3797947 44.1591361,43.5954661 45.9085708,44.6186342 C46.8642805,45.187061 48.2087534,45.8366915 49.2454554,46.2427106 C50.5251344,46.9573043 48.6137151,49.7669565 46.6860973,49.182289 C44.0457469,48.3702508 43.7541744,46.632489 41.7455643,45.7067654 C37.2747869,43.9365221 39.7207557,47.6718979 41.0652286,50.286661 C42.2315183,52.560368 38.7974429,54.6229451 37.177596,51.8782559 C35.9627109,49.8156788 35.6063446,46.2589514 33.9541007,46.5837667 C32.9497957,46.8273782 33.8731084,49.5720673 34.2456732,51.5696814 C34.9584058,55.4025017 31.4919334,55.2888164 31.0869717,53.112554 C30.7953993,51.5859221 31.1031702,48.9224368 29.5481172,47.2821196 C27.8634764,47.9642317 27.8796749,51.4235145 27.7176902,53.1450355 C27.4909116,55.451224 23.8300576,55.727317 24.2026224,53.2912024 C24.4132025,52.1218673 24.947752,51.2935884 25.1745306,50.351624 C25.6766831,48.5976215 25.70908,47.4120457 24.8343627,46.1452661 C24.0892331,46.5025629 23.9272485,47.4282864 23.5708821,48.4352138 C22.8905464,49.9456049 21.3030965,52.1381081 19.6994481,51.6184036 C17.2858762,50.1892164 23.1335235,45.8204508 20.493173,44.7648011 C19.213494,46.2751922 16.2491742,49.3934189 14.8723043,47.7206202 C13.9327931,45.6742839 20.0396159,43.530503 20.3149899,40.70461 L20.3149899,40.70461 L20.3141499,40.2732018 C19.6978881,39.8608777 19.1176078,39.3985692 18.5817537,38.8856444 C17.2638339,39.7837727 16.1304725,40.9041374 15.4716477,42.3286864 C16.3139681,46.080303 10.5959085,45.2682648 11.0656641,42.3286864 C11.5501312,39.2305037 14.0455641,42.4144275 17.2943209,37.4441456 L17.2534793,37.3914941 C17.0105022,37.0179565 16.7027313,36.6931412 16.4759528,36.2871221 C14.1757702,35.3776393 11.2276488,34.5980826 8.79787848,35.1665094 C7.97175656,36.222159 7.35621474,37.6188648 6.3357112,38.5283476 C4.08412402,38.6582737 5.50958929,36.0597514 6.1251311,35.0690648 C5.31520766,35.3776393 5.02363522,36.7581043 4.24610871,37.1803641 C2.62626182,38.1872915 2.20510162,37.1154011 2.43188019,36.0759922 C2.77204804,34.5331196 5.23421531,33.2825807 5.23421531,33.2500992 C3.53337608,33.1039323 3.07981895,34.0621374 1.8001399,34.6143234 C-0.159874839,35.2964355 -0.402851873,32.9252839 2.18890316,32.4055794 C3.90594086,32.0645234 6.28711579,31.2524852 6.77306986,31.1712813 C6.22232192,30.7165399 5.10462756,31.2037629 4.4080934,30.9276699 C2.65865875,30.229317 4.01933014,28.507796 5.44479541,28.507796 C7.03224536,28.4753145 7.92316116,29.9207425 9.02465704,30.8302253 C10.5959085,32.1457272 12.3615416,33.4287476 14.7751135,33.2500992 L14.7751135,33.2500992 L14.8399074,33.2338584 C14.3863503,31.4636151 14.0299839,29.401038 13.9327931,27.0786087 C13.931265,27.0449015 13.9298089,27.0112665 13.9284232,26.9777038 C13.9044,26.9666059 13.8781485,26.9574881 13.8518008,26.9486826 C12.3129462,26.4127374 9.62400039,25.746866 7.98795503,25.6981438 C6.93505455,27.3871832 4.42429187,26.1041629 4.50528421,24.3664011 C4.31090259,21.7353973 7.95555809,21.8166011 8.49010757,23.9928635 C9.96275968,24.7851303 12.0548731,25.1603872 13.9095905,25.0333803 C14.0461824,23.6030852 14.0785793,22.1901387 14.240564,20.7609514 C11.2276488,20.8096737 8.10134431,19.9813947 5.46099388,18.4547629 C3.63056689,24.1877527 0.131697602,21.6704342 3.97073474,17.9350584 C2.9502312,18.097466 1.91352918,19.1043934 0.925422579,19.3317641 C-0.467645749,19.4616902 -0.14367637,17.5615208 1.42757512,17.1392609 C2.2698955,16.9118902 4.21371177,15.9374444 4.1975133,15.9049629 C2.72345263,15.4014992 0.990216455,16.4571488 0.261285353,15.6451106 C-0.548638093,14.5407386 0.585254732,13.9398304 2.82064344,14.1509603 C3.97073474,14.3620902 5.16942144,14.7193871 6.14132957,14.8005909 C5.36380307,14.4595348 4.95884134,13.7449412 4.82925359,13.0790699 C4.57007809,11.7473272 5.44479541,10.5292699 6.78926833,12.4781616 C8.6844892,15.2553323 11.3248396,19.136875 15.0504875,18.4710036 C15.1718406,18.2702482 15.4409278,17.8370585 15.7938971,17.312276 L15.7956171,17.3828724 C15.8442125,15.3527769 13.997587,13.8748673 12.7503049,12.5106431 C10.3853284,13.485089 10.1261529,9.21376794 12.5235263,9.76595393 C13.5926253,10.0095654 13.6736176,10.9840113 13.6574192,12.0559017 C14.0785793,12.8378644 15.0404884,13.7403073 17.4833374,14.6037057 L17.7718303,14.7031463 L17.5405138,15.0153574 C17.6833263,14.8570758 17.8258502,14.7083192 17.9662119,14.5732202 C18.1735523,14.3653384 18.4223608,14.1366684 18.5135906,14.0535157 L18.5493568,14.0210342 C18.9543185,13.6799781 19.5536618,13.1765144 20.3149899,12.6080877 C20.3156296,12.6076002 20.3162696,12.6071126 20.3169099,12.606625 C19.7179382,11.1747434 18.8673155,9.85106936 17.7718303,8.88895265 C16.7837237,8.28804437 15.3582584,8.79150807 14.8723043,7.4110431 C13.9489916,4.73131698 18.9057231,3.15596284 19.2296925,6.63148641 C19.6070126,8.45842431 20.5646977,10.1333394 21.7789627,11.6175143 L21.805249,11.6011603 C23.1692801,10.7388359 24.4580543,10.0665422 25.761756,9.59587155 L25.7576754,9.65226858 C26.1788356,4.5851501 24.2836148,7.08622781 23.2631112,5.49463291 C22.4855847,3.78935265 24.9963474,1.66181252 26.4056142,3.2209259 C27.0859499,4.06544564 27.1021484,4.71507622 26.5514004,6.04681889 C26.7381091,7.18559565 27.0294319,8.27942069 28.2436013,8.95409071 C29.31183,8.78425879 30.4227752,8.74492741 31.6215212,8.84023036 C32.1085092,8.88543958 32.7812677,9.00112388 33.4077884,9.14244198 L33.2899635,9.10008259 C34.0512915,7.65465456 34.7316272,5.9980966 34.6992303,4.32529787 L34.1322839,4.00048259 C33.273765,3.33461125 33.4519482,1.74301634 34.5696425,1.15834883 C36.3352757,0.31382908 38.9432292,3.05851825 36.416268,4.4065017 Z M44.0781438,7.84954374 C46.605105,7.96322909 46.7670896,11.1626597 44.3049224,11.4225119 C43.5273959,12.3157539 42.4582969,13.9885527 42.5230908,15.20661 L40.9842362,13.4201259 C41.7131673,12.7867361 42.911854,11.5686788 43.2682204,10.659196 C42.2153199,9.99332463 42.7336709,7.78458068 44.0781438,7.84954374 Z" id="Combined-Shape" stroke="#000000" stroke-width="0.9375" fill="#000000" opacity="0.2" stroke-linecap="round" stroke-linejoin="round"></path>
            <path d="M55.5142629,17.4155931 L55.8382322,17.577615 C58.3003995,19.5218777 60.5681852,17.9016588 57.7172546,15.5685435 L57.6686592,15.5523413 L57.6686592,15.4713304 C58.6081704,15.0500735 61.3943071,14.4019859 59.4180939,13.1706195 C58.4299873,12.9599911 56.6481557,14.58021 55.9516215,13.9483246 C56.3727817,13.0247998 58.9321398,9.65474448 56.2755909,10.4324496 C54.8339272,11.0319306 54.898721,13.381248 53.5380497,13.8835159 C52.2745691,13.2030239 53.5704466,9.08766786 51.1892717,10.124608 C49.8609972,11.0481328 52.1125844,13.4946633 52.4365538,15.0338713 C51.7238211,17.9016588 48.4193335,20.0565499 45.6169984,20.5426156 C45.5036091,19.1816317 43.3978081,15.5361392 42.6202816,14.5316034 C41.0976255,12.7493626 39.4129848,10.9671218 37.3071838,9.88157513 C36.6268481,9.50892478 35.622543,9.08766786 34.6992303,8.71501751 C33.9702992,8.43958029 32.4962385,8.1317387 31.6215212,8.05072775 C27.9444688,7.75908834 25.0935382,8.7312197 21.805249,10.8050999 C21.2221041,11.1615481 20.7199516,11.501794 20.3149899,11.8096356 C19.5536618,12.3767123 18.9543185,12.8789801 18.5493568,13.2192261 C18.5493568,13.2192261 18.2253874,13.5108655 17.9662119,13.7701005 C16.7513267,14.9366582 15.3744569,17.1239537 15.0504875,17.6586259 C11.3248396,18.3229157 8.6844892,14.4505925 6.78926833,11.6800181 C5.44479541,9.73575543 4.57007809,10.9509196 4.82925359,12.2794991 C4.95884134,12.9437889 5.36380307,13.6566852 6.14132957,13.9969312 C5.16942144,13.9159202 3.97073474,13.5594721 2.82064344,13.3488436 C0.585254732,13.1382152 -0.548638093,13.7376962 0.261285353,14.839445 C0.990216455,15.6495545 2.72345263,14.5964122 4.1975133,15.09868 C4.21371177,15.1310844 2.2698955,16.1032158 1.42757512,16.3300464 C-0.14367637,16.7513033 -0.467645749,18.6469595 0.925422579,18.517342 C1.91352918,18.2905113 2.9502312,17.2859756 3.97073474,17.1239537 C0.131697602,20.8504572 3.63056689,23.3617965 5.46099388,17.6424238 C8.10134431,19.1654295 11.2276488,19.9917412 14.240564,19.9431346 C14.0785793,21.3689273 14.0461824,22.7785177 13.9165947,24.2043104 C13.9003962,24.8523979 13.9003962,25.5328899 13.9327931,26.2457862 C14.0299839,28.5626993 14.3863503,30.6203773 14.8399074,32.3864159 L14.7751135,32.4026181 C12.3615416,32.5808422 10.5959085,31.3008692 9.02465704,29.9884919 C7.92316116,29.0811693 7.03224536,27.6391745 5.44479541,27.6715789 C4.01933014,27.6715789 2.65865875,29.3890109 4.4080934,30.0857051 C5.10462756,30.3611423 6.22232192,29.8750766 6.77306986,30.3287379 C6.28711579,30.4097488 3.90594086,31.2198583 2.18890316,31.5601043 C-0.402851873,32.0785743 -0.159874839,34.4440939 1.8001399,33.763602 C3.07981895,33.2127276 3.53337608,32.2567984 5.23421531,32.4026181 C5.23421531,32.4350225 2.77204804,33.6825911 2.43188019,35.221799 C2.20510162,36.2587391 2.62626182,37.3280836 4.24610871,36.3235479 C5.02363522,35.902291 5.31520766,34.5251049 6.1251311,34.2172633 C5.50958929,35.2055968 4.08412402,37.7979471 6.3357112,37.6683296 C7.35621474,36.761007 7.97175656,35.3676187 8.79787848,34.3144764 C11.2276488,33.7473998 14.1757702,34.5251049 16.4759528,35.4324275 C16.7027313,35.8374822 17.0105022,36.161526 17.2534793,36.5341763 C17.5450517,36.9068267 17.9824104,37.4577011 18.5817537,38.0247778 C22.874348,42.1239316 30.0178728,42.9826476 35.6711384,40.9249696 C37.1937945,40.3740952 40.3039005,39.2075376 42.8956556,36.4531654 L44.5478994,34.5575093 C46.5403111,31.5114977 50.233562,32.8400772 53.2464772,32.6132466 C53.6838359,32.5808422 54.412767,32.5160334 54.7529348,32.4512247 C55.8706292,32.8886838 56.1460032,34.4764983 57.0855144,35.1083837 C58.7377582,35.8536844 58.559575,33.3423451 57.7010562,32.4512247 C58.7377582,32.5808422 59.9688418,32.7266619 60.5519867,32.6618531 C62.3500168,32.4998312 62.3824137,31.2522627 61.1513301,30.6365795 C60.3738035,30.2639291 57.5390715,30.4583554 57.5390715,30.4583554 C58.4461857,29.7130547 59.5800786,29.6968525 60.390002,28.5951036 C61.0541392,27.8660051 59.7582617,26.6832453 58.7377582,27.5743657 C58.0088271,28.2062511 56.7777434,29.6482459 56.0488123,29.0325628 C56.5671633,28.1252402 56.8101404,27.3637373 56.8587358,26.7804585 C56.9883235,25.3546658 55.8544307,25.0144198 55.0445073,26.1971796 C54.7205379,26.6670431 54.5423547,27.3799395 54.3641716,28.3520708 C53.6352405,31.2360605 48.9700814,30.5231642 46.3945249,30.2315248 C46.6860973,29.4538197 46.9452728,26.4402125 46.5565095,25.370868 C46.2649371,24.5607585 46.0705555,23.8154578 46.297334,23.1349659 C49.164463,20.9476703 52.6957293,20.2671784 54.8015302,17.2697734 C55.1254996,17.2697734 55.3036828,17.3345822 55.5142629,17.4155931 Z" id="body-bkg" fill="#4A90E2"></path>
            <g id="spines" transform="translate(11.000000, 0.000000)" fill="#4A90E2" stroke="#000000" stroke-linecap="round" stroke-linejoin="round" stroke-width="0.78125">
                <path d="M14.8229069,8.84448383 C14.4001181,4.14909503 13.3604069,6.22143695 12.3479069,4.59448383 C11.5764783,2.85131976 14.0675497,0.676515076 15.465764,2.27026508 C16.140764,3.13354633 16.1568354,3.79760883 15.6104069,5.15893695 C15.803264,6.37085101 16.1086212,7.53296039 17.4425497,8.21362445" id="STROKE_f5153565-8b15-4f2c-a128-8e78a8586d2a"></path>
                <path d="M6.89969259,14.0075698 L6.89969259,13.4160094 C4.2639783,12.5029235 3.2514783,11.5400328 2.81754973,10.7099547 C2.83362116,9.61425159 2.63210051,8.84448383 1.71602909,8.84448383 C-0.711753071,8.84448383 -0.428878838,12.7624526 1.91754973,11.7663588 C3.15504973,13.1608901 4.98719259,14.6716323 4.9389783,16.7468276" id="STROKE_a7c45538-b7ef-4196-83cd-997c7866a692"></path>
                <path d="M29.7211212,12.5317168 C30.4443354,11.8842559 31.6336212,10.6391387 31.9871926,9.70945117 C30.9425497,9.02878711 31.665764,6.93530414 32.9996926,7.00171039 C35.5068354,7.11792133 35.6675497,10.3884291 33.2246926,10.6540541 C32.453264,11.5671401 31.3925497,13.277101 31.4568354,14.5222182" id="STROKE_8697eea9-4b28-4623-9325-35b15b10866f"></path>
                <path d="M22.2961212,8.2800307 C23.0514783,6.80249164 23.7264783,5.10913226 23.6943354,3.39917133 L23.1318354,3.06714008 C22.2800497,2.38647601 22.4568354,0.759522889 23.565764,0.161866639 C25.3175497,-0.701414611 27.9050497,2.10424945 25.3979069,3.48217914 C24.4496926,5.15893695 24.5139783,7.49975726 25.2693354,9.37573383" id="STROKE_2ed7bd07-fe59-4ba1-8dd8-320e269fff26"></path>
            </g>
            <path d="M20.5588579,38.8681015 L20.5588579,39.3184474 C20.5588579,39.3184474 20.5588579,39.3017679 20.5588579,39.3184474 C20.282589,42.2206765 14.1559196,44.4223675 15.0984841,46.5239817 C16.4798287,48.2419679 19.4537823,45.0395082 20.7376202,43.4883168 C23.3865515,44.5724828 17.5198999,49.0592623 19.9413157,50.5270563 C21.5501758,51.0607996 23.1427848,48.8090701 23.8253316,47.2578787 C24.182856,46.2237511 24.3453672,45.2730209 25.0929184,44.9060724 C25.9704784,46.2070716 25.9379762,47.4246735 25.4341917,49.226057 C25.2066761,50.1934667 24.6703894,51.0441201 24.459125,52.2450425 C24.0853494,54.7469641 27.7581008,54.463413 27.9856164,52.0949272 C28.1481275,50.3269026 28.1318764,46.7741738 29.8219921,46.0736358 C31.3820989,47.758263 31.0733278,50.4936973 31.3658478,52.0615682 C31.7721256,54.2966182 35.2498637,54.4133746 34.5348148,50.4770179 C34.1610392,48.4254421 33.2347258,45.6066104 34.2422947,45.3564182 C35.8999082,45.0228287 36.2574327,48.6756343 37.4762661,50.7939279 C39.1013774,53.6127596 42.5466133,51.494466 41.3765332,49.1593391 C40.0276908,46.4739432 37.5737728,42.6376634 42.0590799,44.4557265 C44.0742178,45.4064567 44.3667379,47.1911608 47.0156692,48.0251347 C48.9495516,48.6255958 50.8671829,45.7400462 49.583345,45.0061492 C48.5432738,44.5891623 47.1944315,43.9219832 46.2356158,43.3382015 C44.4804957,42.2873944 42.5791155,38.9848578 42.0265777,37 C42.0265777,37 38.906364,40.0690239 33.1372191,41.2199078 C27.1893119,42.4208302 21.2414047,39.585319 20.5588579,38.8681015 Z" id="feet" stroke="#000000" stroke-width="0.9375" fill="#4A90E2" stroke-linecap="round" stroke-linejoin="round"></path>
            <path d="M20.0414199,40.4582438 C19.4582864,40.8898872 25.1306542,44.3347012 30.8604056,43.9735132 C34.6802398,43.7327212 38.3934379,42.121342 42,39.1393756 L41.6441395,38 C38.3627931,40.4025253 34.8551713,41.764261 31.1212744,42.0852068 C27.3873774,42.4061527 23.7930754,41.6255112 20.3383683,39.7432824 C20.5291583,39.9321611 20.4301755,40.1704816 20.0414199,40.4582438 Z" id="shadow" fill="#000000" opacity="0.2"></path>
            <path d="M55.5142629,17.4155931 L55.8382322,17.577615 C58.3003995,19.5218777 60.5681852,17.9016588 57.7172546,15.5685435 L57.6686592,15.5523413 L57.6686592,15.4713304 C58.6081704,15.0500735 61.3943071,14.4019859 59.4180939,13.1706195 C58.4299873,12.9599911 56.6481557,14.58021 55.9516215,13.9483246 C56.3727817,13.0247998 58.9321398,9.65474448 56.2755909,10.4324496 C54.8339272,11.0319306 54.898721,13.381248 53.5380497,13.8835159 C52.2745691,13.2030239 53.5704466,9.08766786 51.1892717,10.124608 C49.8609972,11.0481328 52.1125844,13.4946633 52.4365538,15.0338713 C51.7238211,17.9016588 48.4612217,19.8621237 45.6588866,20.3481893 C45.5454973,18.9872055 43.3978081,15.5361392 42.6202816,14.5316034 C41.0976255,12.7493626 39.4129848,10.9671218 37.3071838,9.88157513 C36.6268481,9.50892478 35.622543,9.08766786 34.6992303,8.71501751 C33.9702992,8.43958029 32.4962385,8.1317387 31.6215212,8.05072775 C27.9444688,7.75908834 25.0935382,8.7312197 21.805249,10.8050999 C21.2221041,11.1615481 20.7199516,11.501794 20.3149899,11.8096356 C19.5536618,12.3767123 18.9543185,12.8789801 18.5493568,13.2192261 C18.5493568,13.2192261 18.2253874,13.5108655 17.9662119,13.7701005 C16.7513267,14.9366582 15.5331512,16.7351012 15.2091819,17.2697734 C11.483534,17.9340632 8.6844892,14.4505925 6.78926833,11.6800181 C5.44479541,9.73575543 4.57007809,10.9509196 4.82925359,12.2794991 C4.95884134,12.9437889 5.36380307,13.6566852 6.14132957,13.9969312 C5.16942144,13.9159202 3.97073474,13.5594721 2.82064344,13.3488436 C0.585254732,13.1382152 -0.548638093,13.7376962 0.261285353,14.839445 C0.990216455,15.6495545 2.72345263,14.5964122 4.1975133,15.09868 C4.21371177,15.1310844 2.2698955,16.1032158 1.42757512,16.3300464 C-0.14367637,16.7513033 -0.467645749,18.6469595 0.925422579,18.517342 C1.91352918,18.2905113 2.9502312,17.2859756 3.97073474,17.1239537 C0.131697602,20.8504572 3.63056689,23.3617965 5.46099388,17.6424238 C8.10134431,19.1654295 11.2276488,19.9917412 14.240564,19.9431346 C14.0785793,21.3689273 14.0461824,22.7785177 13.9165947,24.2043104 C13.9003962,24.8523979 13.9003962,25.5328899 13.9327931,26.2457862 C13.9950111,27.7289895 14.1634417,29.1059558 14.3955889,30.3681841 C14.5260791,31.0776836 14.594647,31.2810673 14.7578533,31.9165524 L14.6666077,31.9165524 C12.2530359,32.0947765 10.5959085,31.3008692 9.02465704,29.9884919 C7.92316116,29.0811693 7.03224536,27.6391745 5.44479541,27.6715789 C4.01933014,27.6715789 2.65865875,29.3890109 4.4080934,30.0857051 C5.10462756,30.3611423 6.22232192,29.8750766 6.77306986,30.3287379 C6.28711579,30.4097488 3.90594086,31.2198583 2.18890316,31.5601043 C-0.402851873,32.0785743 -0.159874839,34.4440939 1.8001399,33.763602 C3.07981895,33.2127276 3.53337608,32.2567984 5.23421531,32.4026181 C5.23421531,32.4350225 2.77204804,33.6825911 2.43188019,35.221799 C2.20510162,36.2587391 2.62626182,37.3280836 4.24610871,36.3235479 C5.02363522,35.902291 5.31520766,34.5251049 6.1251311,34.2172633 C5.50958929,35.2055968 4.08412402,37.7979471 6.3357112,37.6683296 C7.35621474,36.761007 7.97175656,35.3676187 8.79787848,34.3144764 C11.2276488,33.7473998 14.1757702,34.5251049 16.4759528,35.4324275 C16.7027313,35.8374822 17.0105022,36.161526 17.2534793,36.5341763 C17.5450517,36.9068267 17.9824104,37.4577011 18.5817537,38.0247778 C22.874348,42.1239316 30.0178728,42.9826476 35.6711384,40.9249696 C37.1937945,40.3740952 40.3039005,39.2075376 42.8956556,36.4531654 L44.5478994,34.5575093 C46.5403111,31.5114977 50.233562,32.8400772 53.2464772,32.6132466 C53.6838359,32.5808422 54.412767,32.5160334 54.7529348,32.4512247 C55.8706292,32.8886838 56.1460032,34.4764983 57.0855144,35.1083837 C58.7377582,35.8536844 58.559575,33.3423451 57.7010562,32.4512247 C58.7377582,32.5808422 59.9688418,32.7266619 60.5519867,32.6618531 C62.3500168,32.4998312 62.3824137,31.2522627 61.1513301,30.6365795 C60.3738035,30.2639291 57.5390715,30.4583554 57.5390715,30.4583554 C58.4461857,29.7130547 59.5800786,29.6968525 60.390002,28.5951036 C61.0541392,27.8660051 59.7582617,26.6832453 58.7377582,27.5743657 C58.0088271,28.2062511 56.7777434,29.6482459 56.0488123,29.0325628 C56.5671633,28.1252402 56.8101404,27.3637373 56.8587358,26.7804585 C56.9883235,25.3546658 55.8544307,25.0144198 55.0445073,26.1971796 C54.7205379,26.6670431 54.5423547,27.3799395 54.3641716,28.3520708 C53.6352405,31.2360605 49.1320661,30.3611423 46.5565095,30.0695029 L46.7708862,29.1945846 C47.0624586,28.4168796 46.9452728,26.4402125 46.5565095,25.370868 C46.2649371,24.5607585 46.0705555,23.8154578 46.297334,23.1349659 C49.164463,20.9476703 52.6957293,20.2671784 54.8015302,17.2697734 C55.1254996,17.2697734 55.3036828,17.3345822 55.5142629,17.4155931 Z" id="body" stroke="#000000" stroke-width="0.9375" stroke-linecap="round" stroke-linejoin="round"></path>
            <g id="Virus_2" transform="translate(3.000000, 3.000000)">
                <g id="spines---foreground" transform="translate(0.106228, 0.079888)" fill="#4A90E2" stroke="#000000" stroke-linecap="round" stroke-linejoin="round" stroke-width="0.9375">
                    <path d="M36.3587723,16.7037053 C37.1387723,14.587299 38.4225223,13.5537053 39.7550223,12.6677678 C40.7625223,12.0443303 43.1025223,10.781049 44.2887723,11.1583928 C49.7975223,11.6833928 45.0362723,3.59511153 42.1600223,9.38651778 C39.5762723,10.715424 36.9600223,12.9302678 33.8887723,12.7333928" id="STROKE_07e51073-4b0a-4ad6-92a7-9596782fcbe7_1_"></path>
                    <path d="M17.9150223,12.881049 C17.6550223,10.1412053 16.4525223,6.95839278 14.3562723,5.10448653 C13.3650223,4.49745528 11.9506935,4.99692602 11.4475223,3.61151778 C10.1358426,2.8612529e-14 15.4937723,-1.49082597 15.8187723,2.02011153 C16.4850223,5.26854903 18.9550223,8.04120528 21.4575223,10.124799" id="STROKE_0f8f5398-5723-4d12-852e-d6ad31832322_1_"></path>
                    <path d="M15.9009109,27.6794865 C11.5134109,39.7380803 8.23002225,34.209174 7.62877225,38.081049 C7.15752225,41.0505803 12.8937723,41.8708928 12.0487723,38.081049 C13.3975223,35.1443303 16.7287723,33.487299 19.5887723,32.4208928" id="STROKE_dadc7b53-3cd0-400e-84c6-41edabe11c82"></path>
                    <path d="M36.1800223,32.2896428 C39.3975223,32.109174 42.2737723,34.1107365 44.0612723,36.7521428 C43.9962723,38.474799 45.1175223,39.852924 46.8400223,38.7701115 C48.4538504,37.9377507 48.8202371,34.4257055 45.9706473,35.2925177 C43.2081473,33.1925177 41.4937723,31.1576115 40.6487723,27.7287053" id="STROKE_0068a515-4e7b-404b-bbf4-153ddf6d865f"></path>
                    <path d="M14.6487723,17.5240178 C14.0475223,18.262299 13.2187723,18.9513615 12.3250223,19.2302678 C10.1800223,19.902924 7.04377225,19.5912053 5.04502225,18.5083928 C4.50877225,16.3099553 0.322873817,16.3076482 0.684690223,19.9334294 C0.603440223,21.6888982 3.48502225,22.987299 4.54127225,21.281049 C6.18252225,21.3302678 8.88002225,22.002924 10.4237723,22.5443303 C11.8375223,23.0201115 12.9750223,24.3982365 14.0962723,25.2677678" id="STROKE_b614452b-79ae-4a7a-83e6-13ef367ec65d"></path>
                    <path d="M37.4312723,21.8224553 C40.5350223,22.1177678 43.7687723,22.3802678 46.4825223,20.3787053 C46.8725223,19.7552678 47.2462723,18.8201115 48.0750223,18.7708928 C50.2687723,18.8365178 51.0325223,22.7083928 47.8150223,22.8068303 C47.4737723,22.856049 47.2950223,22.5115178 46.9862723,22.4787053 C46.3687723,22.593549 45.5725223,22.9052678 44.7600223,23.2005803 C43.5250223,23.6107365 39.6412723,25.6287053 38.6825223,26.4818303" id="STROKE_caed0330-75dd-4786-913d-8f84283837ad"></path>
                </g>
                <g id="eyes" transform="translate(20.169761, 16.209375)" stroke="#000000" stroke-linecap="round" stroke-linejoin="round">
                    <path d="M8.41398929,4.93828125 C10.4127393,4.47890625 12.0864893,2.5921875 13.4352393,1.1484375 C15.1739893,8.84296875 7.27648929,9.0234375 8.67398929,4.8890625" id="STROKE_97a1b2ca-a54e-4967-a7da-2bd2fc208453" stroke-width="0.78125" fill="#FFFFFF"></path>
                    <path d="M0.271744826,2.15558472 C1.57174483,3.82902222 2.80773929,4.396875 4.93648929,5.1515625 C5.40773929,6.51328125 3.83148929,7.33359375 2.67773929,7.284375 C0.695239292,7.21875 -0.296010708,4.38046875 0.0777392924,2.690625 L0.271744826,2.15558472 Z" id="STROKE_2a8ccad9-d38b-43b1-9eb1-e16eec8cb349" stroke-width="0.78125" fill="#FFFFFF"></path>
                    <path d="M7.76398929,3.5765625 L7.82898929,3.5109375 C9.61648929,3.03515625 10.7864893,1.2796875 12.0377393,0" id="STROKE_4fbc4749-1bdb-424e-ab24-9528bec75fbe" stroke-width="0.9375"></path>
                    <path d="M5.50523929,3.609375 C3.45773929,3.0515625 1.93023929,2.1 0.841489292,0.04921875" id="STROKE_10114e09-db71-4aa2-a90d-eb9dccf6a978" stroke-width="0.9375"></path>
                    <path d="M11.5328059,4.67750156 C10.4034211,4.66759052 11.135995,6.01549148 11.583679,4.87572229" id="STROKE_777b726f-e13c-4f47-8096-1e812a79197c" stroke-width="0.9375"></path>
                    <path d="M2.38523929,5.20078125 C2.19023929,5.1515625 1.96273929,5.2171875 1.88148929,5.43046875 C1.80023929,5.82421875 2.74273929,5.85703125 2.46648929,5.4140625" id="STROKE_6076036a-1e77-4a85-801a-6664a388468f" stroke-width="0.9375"></path>
                </g>
                <g id="mouth" transform="translate(19.890000, 24.609375)">
                    <path d="M12.74,0.328125 C10.57875,0.18046875 7.3775,1.378125 1.67375,0.11484375 C0.6825,-0.0984375 0.13,1.09921875 0.0325,1.91953125 C0.455,4.74140625 5.9475,6.34921875 8.45,5.88984375 C9.9125,5.6109375 11.505,5.2828125 12.5775,4.15078125 C13.975,3.0515625 15.08,0.27890625 12.39875,0.2953125" id="STROKE_9396d6fb-e619-46cb-8d7b-83c3f619002c_1_" fill="#A01A84" fill-rule="nonzero"></path>
                    <path d="M2.015,0.7546875 C2.45375,1.0171875 3.88375,1.19765625 3.88375,1.19765625 C3.85445197,1.23832839 3.82258615,1.27890795 3.78852457,1.31945056 C4.18048473,1.35644041 5.10664149,1.43131025 5.57864244,1.46944349 C6.54875,1.378125 8.07625,1.16484375 8.10875,1.13203125 C8.08559316,1.24892877 8.04716389,1.36665232 7.9972426,1.48498787 C8.55891763,1.36592754 10.0202165,1.36274924 10.3506072,1.38380162 C10.2512067,1.20633463 10.2004868,1.10408085 10.22125,1.13203125 C10.67625,1.05 12.52875,0.96796875 12.52875,0.96796875 C12.36625,1.52578125 11.895,3.3140625 11.895,3.4125 C11.6747313,3.65959629 10.7817493,2.16687091 10.395785,1.47061206 C10.2289531,2.16965552 9.88887091,3.12828909 9.685,3.88828125 C9.02034792,3.53750879 8.17314939,2.40699838 7.90049239,1.68283777 C7.52469638,2.41604682 6.7888337,3.16785105 6.58125,3.88828125 L6.58125,3.88828125 L6.57150806,3.86235273 C6.48420488,3.66058315 5.84755383,2.45410034 5.63605608,1.73727495 C5.14854896,2.26174133 4.60052033,2.87203633 4.30625,3.49453125 C4.11125,2.87109375 3.7375,2.0015625 3.59125,1.29609375 L3.63976458,1.48329482 C3.20884042,1.92781398 2.57423731,2.37690623 2.22625,2.90390625 C2.22625,2.8875 2.21,2.9203125 2.1775,2.953125 C2.1125,2.23125 2.03125,1.509375 1.99875,0.7546875 L1.99875,0.7546875 Z" id="Combined-Shape" stroke="#000000" stroke-width="0.5" fill="#000000" fill-rule="nonzero" opacity="0.2" stroke-linecap="round" stroke-linejoin="round"></path>
                    <path d="M2.015,0.2625 C2.45375,0.525 3.88375,0.70546875 3.88375,0.70546875 C3.85445197,0.746140894 3.82258615,0.78672045 3.78852457,0.827263062 C4.18048473,0.864252909 5.10664149,0.939122752 5.57864244,0.977255993 C6.54875,0.8859375 8.07625,0.67265625 8.10875,0.63984375 C8.08559316,0.756741266 8.04716389,0.874464815 7.9972426,0.992800374 C8.55891763,0.873740042 10.0202165,0.870561737 10.3506072,0.891614119 C10.2512067,0.714147129 10.2004868,0.611893345 10.22125,0.63984375 C10.67625,0.5578125 12.52875,0.47578125 12.52875,0.47578125 C12.36625,1.03359375 11.895,2.821875 11.895,2.9203125 C11.6747313,3.16740879 10.7817493,1.67468341 10.395785,0.978424563 C10.2289531,1.67746802 9.88887091,2.63610159 9.685,3.39609375 C9.02034792,3.04532129 8.17314939,1.91481088 7.90049239,1.19065027 C7.52469638,1.92385932 6.7888337,2.67566355 6.58125,3.39609375 L6.58125,3.39609375 L6.57150806,3.37016523 C6.48420488,3.16839565 5.84755383,1.96191284 5.63605608,1.24508745 C5.14854896,1.76955383 4.60052033,2.37984883 4.30625,3.00234375 C4.11125,2.37890625 3.7375,1.509375 3.59125,0.80390625 L3.63976458,0.991107315 C3.20884042,1.43562648 2.57423731,1.88471873 2.22625,2.41171875 C2.22625,2.3953125 2.21,2.428125 2.1775,2.4609375 C2.1125,1.7390625 2.03125,1.0171875 1.99875,0.2625 L1.99875,0.2625 Z" id="Combined-Shape" stroke="#FFFFFF" stroke-width="0.5" fill="#FFFFFF" fill-rule="nonzero" stroke-linecap="round" stroke-linejoin="round"></path>
                    <path d="M12.74,0.328125 C10.57875,0.18046875 7.3775,1.378125 1.67375,0.11484375 C0.6825,-0.0984375 0.13,1.09921875 0.0325,1.91953125 C0.455,4.74140625 5.9475,6.34921875 8.45,5.88984375 C9.9125,5.6109375 11.505,5.2828125 12.5775,4.15078125 C13.975,3.0515625 15.08,0.27890625 12.39875,0.2953125" id="STROKE_9396d6fb-e619-46cb-8d7b-83c3f619002c" stroke="#000000" stroke-width="0.9375" stroke-linecap="round" stroke-linejoin="round"></path>
                </g>
                <path d="M23.4,32.6320313 C26.065,33.73125 29.25,33.3867188 31.8175,32.2054688" id="STROKE_0872b399-3531-4864-9ff1-4ca804e1d729" stroke="#000000" stroke-width="0.5" stroke-linecap="round" stroke-linejoin="round"></path>
            </g>
        </g>
        <rect id="Rectangle" stroke="#222222" stroke-width="0.03" x="0.015" y="0.015" width="89.97" height="59.97"></rect>
    </g>
</svg>