<?xml version="1.0" encoding="UTF-8"?>
<svg width="60px" height="60px" viewBox="0 0 60 60" version="1.1" xmlns="http://www.w3.org/2000/svg" xmlns:xlink="http://www.w3.org/1999/xlink">
    <!-- Generator: Sketch 64 (93537) - https://sketch.com -->
    <title>svg/obstacleMonster2-2x2</title>
    <desc>Created with Sketch.</desc>
    <g id="obstacleMonster2-2x2" stroke="none" stroke-width="1" fill="none" fill-rule="evenodd">
        <rect fill="#E298C3" x="0" y="0" width="60" height="60"></rect>
        <rect id="Rectangle" fill="#DD88BA" x="3" y="3" width="54" height="54"></rect>
        <g id="Monster_2" transform="translate(1.000000, 0.000000)">
            <g id="SHADOW" transform="translate(0.000000, 1.135588)" fill="#000000" opacity="0.2" stroke="#000000" stroke-linecap="round" stroke-linejoin="round" stroke-width="1.10769231">
                <path d="M26.6584615,0.525950205 C28.2323077,2.96287328 29.6510256,5.57043738 30.7866346,8.22066174 L30.8448256,8.35920664 C31.1829525,8.38973697 31.5184375,8.42893526 31.8510344,8.47656637 C33.3740542,5.64329387 35.4265402,2.96795746 37.3292308,0.415180974 C37.5594919,3.42502258 37.276909,6.97701354 37.0558559,10.0007301 C40.3571928,11.5020953 43.1201598,13.9112267 44.993036,16.8892879 C47.5409091,16.8320828 50.180813,16.5851412 52.6892308,16.7721041 C50.96,18.6185708 49.0795464,20.453405 47.2048433,22.2119706 C47.2962572,22.6102684 47.3733108,23.0147693 47.4357386,23.4238024 L47.4646154,22.495181 C49.1261538,23.0674887 50.7507692,23.3444117 52.1169231,24.0459502 C50.9658725,24.8534036 48.9515153,25.7887543 47.6210868,26.5098252 C47.6036108,27.1804248 47.5448837,27.8418112 47.4492372,28.4918793 L47.1507692,28.2182579 C49.0707692,29.9721041 51.4153846,32.1136425 53.1692308,34.015181 C52.3130769,34.2413348 51.3225338,34.5693297 50.3462081,34.7220015 L50.2636002,34.7332018 C51.7333987,37.127927 52.9187906,39.7201425 53.9261538,42.1197964 C54.0553846,42.0274887 54.48,42.0644117 54.48,42.0644117 C56.8211734,42.1188576 59.3764391,48.0608425 56.0248129,48.121941 L55.8461538,48.1197964 L55.7907692,48.3413348 C55.4030769,49.375181 54,49.8736425 53.6123077,48.8028733 C53.0769231,49.3382579 50.9723077,49.5967194 52.2092308,47.7321041 C52.4676923,47.3259502 52.3569231,45.8859502 52.2646154,46.3290271 C52.1169231,47.0305656 51.3415385,47.6028733 50.5292308,47.0674887 C48.96,45.7567194 50.4369231,42.8582579 52.08,42.2674887 C50.8855381,39.7834308 49.497403,37.0330722 47.6210406,34.8307674 L45.1334955,34.8892988 C44.3907808,36.1111573 43.4995985,37.24046 42.4835386,38.2546732 L42.48,38.2428733 C43.1076923,40.3659502 43.8646154,43.2644117 44.7692308,45.295181 C45.0276923,45.9782579 43.8276923,45.2028733 43.5692308,45.0367194 C42.0634615,44.2405656 39.84375,42.6655656 38.4464919,41.4982429 L38.3070853,41.3806698 C38.105695,41.491205 37.9019276,41.5982343 37.6958743,41.7016704 C37.7480012,43.4233391 37.7361303,45.1394736 37.6246154,46.975181 C36.953835,46.337236 36.3021241,45.6385068 35.6703914,44.8998885 L35.6307692,44.7044117 C36.2215385,47.5844117 36.48,49.1167194 36.3507692,52.7721041 C38.7876923,52.1628733 42.9969231,49.7997964 44.4369231,51.775181 C44.4184615,51.7567194 44.4184615,51.7382579 44.4184615,51.7197964 C44.6030769,51.7197964 45.0646154,51.7197964 45.5630769,51.9967194 C46.1169231,52.3290271 46.3569231,52.8090271 46.4307692,52.975181 C46.2830769,53.1967194 45.8953846,53.3074887 45.6738462,53.2521041 C46.0615385,53.6028733 46.3384615,54.1382579 46.3938462,54.895181 C46.8,55.2828733 47.1138462,55.9474887 46.9846154,56.7228733 C46.6892308,56.4828733 46.4307692,56.1874887 46.1169231,55.9474887 C46.0615385,56.0397964 46.0061538,56.1136425 45.9507692,56.1874887 C45.8215385,56.3536425 45.5815385,56.4644117 45.3046154,56.5382579 C44.9521678,56.622174 44.492918,56.4009407 44.1210518,55.9993918 L44.0123077,55.8736425 L43.9753846,56.2613348 C43.9938462,56.3905656 43.9753846,56.7044117 43.8646154,56.9997964 C44.0492308,57.3321041 44.1046154,57.7382579 43.8461538,58.0890271 C43.7169231,57.9228733 43.5507692,57.7567194 43.3846154,57.6090271 C43.1446154,57.7567194 42.6092308,57.9044117 42.6092308,57.9044117 C42.6092308,57.9044117 41.2984615,58.2367194 41.2246154,56.7228733 C40.7076923,56.6859502 40.3938462,56.7228733 39.1938462,56.7413348 C37.2184615,56.7782579 36.1107692,56.6490271 34.8553846,56.8336425 C33.3784615,57.0367194 32.3076923,57.0921041 31.9569231,56.7413348 C30.6461538,55.4490271 31.4215385,53.7321041 32.4,53.215181 C33.1015385,52.8459502 33.5261538,53.1413348 34.0061538,52.6982579 C34.8184615,51.9782579 34.32,50.095181 33.7292308,47.9167194 C33.1111706,45.6387261 32.9153875,44.6613465 32.7702777,43.7566719 L32.7507692,43.6336425 L33.6541227,43.1825505 C32.1900425,43.5373909 30.6565352,43.7259502 29.0769231,43.7259502 C28.1598108,43.7259502 27.2582399,43.662389 26.3767749,43.5396267 L26.6215385,43.7628733 C26.0123077,46.5874887 26.0123077,49.135181 26.0861538,52.3659502 C27.9323077,53.0859502 28.3384615,54.3597964 28.1907692,55.5228733 C28.0246154,57.2213348 25.9384615,56.5936425 24.8676923,56.5936425 C23.0613018,56.5254768 21.0346837,56.8820358 19.252494,57.3874298 L18.8123077,57.5167194 L18.8861538,57.2397964 C18.5353846,58.1813348 17.6123077,58.6613348 16.8923077,58.4397964 C16.6892308,58.3844117 16.5230769,58.2736425 16.3938462,58.1628733 C16.0615385,58.3474887 15.7846154,58.5321041 15.6369231,58.6613348 C15.6553846,58.3105656 15.7846154,57.9228733 15.9692308,57.5905656 C15.9138462,57.4613348 15.8769231,57.3690271 15.8769231,57.3505656 C15.8353846,57.1428733 15.8146154,56.9559502 15.8146154,56.7820079 L15.8215385,56.6121041 L15.7476923,56.6121041 C15.5815385,56.9259502 14.7876923,56.9997964 14.2523077,56.7228733 C14.0676923,56.6305656 13.92,56.5197964 13.8092308,56.3905656 C13.5138462,56.5567194 13.2369231,56.7228733 12.9969231,56.9444117 C13.0523077,56.5567194 13.2184615,56.0397964 13.4953846,55.5967194 C13.4769231,54.7474887 13.8276923,54.1197964 14.4,53.6582579 C14.3076923,53.7136425 14.2338462,53.7690271 14.2153846,53.8059502 C13.7353846,53.5844117 13.6430769,53.5474887 13.3476923,53.455181 C13.3661538,53.3444117 13.4215385,53.1228733 13.5876923,52.9197964 C13.9384615,52.495181 14.4738462,52.495181 14.64,52.495181 C15.3639819,49.9974434 22.3695715,51.7406783 24.1053466,52.66244 L24.2030769,52.7167194 L24.24,52.7167194 C24.0026374,51.0077084 23.7110204,49.1223709 23.5162862,47.3164772 L23.4276923,46.4213348 L24.0656999,45.6272342 C23.3723692,46.4480162 22.6967963,47.2674903 22.1169231,48.0459502 C21.7778705,46.3789417 21.3955761,44.084927 21.1933948,42.0490535 C20.0034844,41.5169411 18.8819236,40.8649969 17.8458775,40.1112972 C15.7230592,41.1794185 13.5906603,42.320877 11.52,43.1536425 C12.2293946,41.1891651 13.771072,39.5150189 15.2792399,37.8527773 C14.6239496,37.1563496 14.0251078,36.4102079 13.4901938,35.620854 L14.5661538,37.5967194 C12.6276923,38.1136425 11.1692308,38.4274887 9.34153846,38.7228733 C9.97725444,36.9791952 11.3456366,35.3606064 12.5676229,34.0956631 C12.4645716,33.9073904 12.3660727,33.7160042 12.2711209,33.5227123 C8.83252464,35.0600273 6.11296478,38.0202961 4.98461538,41.6767194 C4.83692308,42.2859502 4.70769231,42.8397964 5.00307692,43.2459502 C7.82769231,42.175181 9.06461538,48.0090271 7.01538462,47.0305656 C6.72,46.5321041 6.77538462,45.7936425 6.20307692,45.4797964 C5.18769231,44.8890271 4.46769231,46.4028733 4.98461538,47.0674887 C6.11076923,47.5659502 5.57538462,48.5444117 4.61538462,48.8028733 L4.65230769,48.8028733 C4.30153846,48.8767194 3.87692308,48.895181 3.52615385,48.4890271 C3.52615385,48.4890271 2.25230769,48.7290271 1.77230769,47.935181 C-1.14461538,48.2121041 0.0369230769,42.6736425 2.27076923,42.7659502 C3.616848,37.9042304 6.62020353,33.1511845 11.1643109,30.6392188 C11.0992643,30.4091127 11.0387957,30.1768241 10.9831763,29.942776 L11.1507692,30.0090271 C3.06461538,26.7967194 -1.53230769,27.2028733 10.2646154,25.0797964 L10.5325183,26.5737026 C10.5262398,26.384162 10.5230769,26.1938704 10.5230769,26.0028733 C10.5230769,25.0512442 10.6015945,24.1171327 10.752779,23.2061276 C9.64929459,22.6575614 8.5470564,22.1092032 7.44,21.6090271 C8.63041707,21.2830796 9.9323395,21.1311892 11.2622601,21.0312267 C12.3345938,17.5218604 14.5118917,14.4627253 17.4104747,12.2210691 C15.8351733,9.31636825 14.6574777,5.9374525 13.6430769,2.9259502 C16.661355,4.60983164 20.1033785,7.08652724 23.0869976,9.22688503 C23.7239743,9.01621284 24.3784525,8.84047357 25.0464702,8.69913009 C25.1623918,7.16560034 25.1787868,-2.30860746 26.6584615,0.525950205 Z M31.6430769,44.0213348 C31.4030769,45.2397964 31.3476923,46.1628733 31.1261538,47.2521041 C30.1318681,46.4635326 28.7555416,45.1178183 27.9727428,44.2200924 L27.8030769,44.0213348 L31.6430769,44.0213348 Z M12.72,16.6982579 L11.3538462,20.5013348 C9.80307692,19.5044117 8.23384615,18.5074887 6.92307692,17.0859502 C7.86461538,16.9567194 11.2615385,16.5136425 12.72,16.6982579 Z M9.45230769,10.2367194 C11.8707692,10.5874887 14.3446154,11.935181 16.6892308,12.6921041 L16.7815385,12.6736425 L13.0153846,16.0521041 C11.8523077,14.2059502 10.2276923,12.3044117 9.45230769,10.2367194 Z M43.8485101,14.5020377 L43.8247518,14.56 L40.1723077,11.6767194 C46.7246853,6.76699916 46.5645677,7.63146832 43.8485101,14.5020377 Z" id="Combined-Shape"></path>
            </g>
            <ellipse id="Oval" fill="#BB3584" cx="29.0769231" cy="26.0307692" rx="18.5538462" ry="17.7230769"></ellipse>
            <g id="Group-2" transform="translate(10.523077, 8.307692)">
                <ellipse id="oval-shadow" fill="#000000" opacity="0.2" cx="18.5538462" cy="17.7230769" rx="18.5538462" ry="17.7230769"></ellipse>
                <ellipse id="Oval-Copy" fill="#BB3584" cx="17.7230769" cy="17.2615385" rx="17.7230769" ry="16.7076923"></ellipse>
            </g>
            <g id="background-spikes" transform="translate(3.113752, 0.027896)" fill="#BB3584" stroke="#000000" stroke-linecap="round" stroke-linejoin="round">
                <path d="M35.0647097,41.2705656 C36.4308635,42.4521041 38.8493251,44.1874887 40.4554789,45.0367194 C40.7139405,45.2028733 41.9139405,45.9782579 41.6554789,45.295181 C40.7508635,43.2644117 39.9939405,40.3659502 39.3662482,38.2428733" id="STROKE_f5c3b38d-c832-4d08-9695-dd48f2c102cd" stroke-width="1.10769231"></path>
                <path d="M9.90163277,16.0521041 C8.73855585,14.2059502 7.11394046,12.3044117 6.33855585,10.2367194 C8.75701739,10.5874887 11.2308635,11.935181 13.5754789,12.6921041 L13.6677866,12.6736425" id="STROKE_401f0712-0ecc-4c78-910b-960ef468b9a3" stroke-width="1.10769231"></path>
                <path d="M8.03701739,30.0090271 C-0.0491364599,26.7967194 -4.64605954,27.2028733 7.15086354,25.0797964" id="STROKE_5556b1a6-03b2-4a80-a684-75621e316176" stroke-width="1.10769231"></path>
                <path d="M21.9200943,8.83364251 C22.0493251,7.85518097 22.012402,-2.40943441 23.5447097,0.525950205 C25.2616328,3.18441174 26.7939405,6.0459502 27.9754789,8.94441174 C27.9939405,8.9259502 28.012402,8.90748867 28.0308635,8.88902713" id="STROKE_d4285c1d-4741-4fcd-ac90-86f339355a45" stroke-width="0.923076923"></path>
                <path d="M37.0585558,11.6767194 C43.6862482,6.71056559 43.4462482,7.65210405 40.6400943,14.7413348 C40.6770174,14.7413348 40.7693251,14.6859502 40.8247097,14.6490271" id="STROKE_14537928-0d0f-434b-90db-40249dd40634" stroke-width="0.923076923"></path>
                <path d="M24.6893251,44.0213348 C25.4277866,44.9074887 26.9416328,46.4028733 28.012402,47.2521041 C28.2339405,46.1628733 28.2893251,45.2397964 28.5293251,44.0213348" id="STROKE_d78ac0eb-7c60-4632-a9d1-7b114231e733_1_" stroke-width="0.923076923"></path>
                <path d="M9.51394046,34.0336425 C8.27701739,35.3074887 6.87394046,36.9505656 6.22778662,38.7228733 C8.05547892,38.4274887 9.51394046,38.1136425 11.452402,37.5967194" id="STROKE_33c2a9ea-545f-4972-be24-55949317c1cc" stroke-width="0.923076923"></path>
                <path d="M44.3508635,22.495181 C46.012402,23.0674887 47.6370174,23.3444117 49.0031712,24.0459502 C47.7662482,24.9136425 45.532402,25.9290271 44.2216328,26.6674887" id="STROKE_29f89da6-0f26-457e-9cbb-9a871b2367cd_1_" stroke-width="0.923076923"></path>
                <path d="M8.24009431,20.5013348 C6.68932508,19.5044117 5.12009431,18.5074887 3.80932508,17.0859502 C4.75086354,16.9567194 8.14778662,16.5136425 9.60624816,16.6982579" id="STROKE_e2c320d8-4f60-40d7-a13b-852d0ee2707f_2_" stroke-width="0.923076923"></path>
                <path d="M41.7108635,34.8961425 L46.8153347,34.7758901 C47.923027,34.6651209 49.0770174,34.2736425 50.0554789,34.015181 C48.3016328,32.1136425 45.9570174,29.9721041 44.0370174,28.2182579" id="STROKE_ab7c5d5b-df24-44c1-80f8-74d2fc4a0cf8" stroke-width="1.10769231"></path>
            </g>
            <g id="arms_bkg" transform="translate(0.000000, 27.323077)" fill="#BB3584">
                <path d="M42.48,3.85846154 C47.3169231,5.48307692 49.9938462,10.6338462 52.08,14.9723077 C50.4369231,15.5630769 48.96,18.4615385 50.5292308,19.7723077 C51.3415385,20.3076923 52.1169231,19.7353846 52.2646154,19.0338462 C52.3569231,18.5907692 52.4676923,20.0307692 52.2092308,20.4369231 C50.9723077,22.3015385 53.0769231,22.0430769 53.6123077,21.5076923 C54,22.5784615 55.4030769,22.08 55.7907692,21.0461538 L55.8461538,20.8246154 C59.4646154,20.9723077 56.8615385,14.8246154 54.48,14.7692308 C54.48,14.7692308 54.0553846,14.7323077 53.9261538,14.8246154 C51.6553846,9.41538462 48.48,3.02769231 43.1815385,0.129230769" id="STROKE_066835d0-cc6e-4db7-a092-b2543308290c_1_"></path>
                <path d="M15.4523077,5.26153846 C10.56,6.09230769 6.44307692,9.65538462 4.98461538,14.3815385 C4.83692308,14.9907692 4.70769231,15.5446154 5.00307692,15.9507692 C7.82769231,14.88 9.06461538,20.7138462 7.01538462,19.7353846 C6.72,19.2369231 6.77538462,18.4984615 6.20307692,18.1846154 C5.18769231,17.5938462 4.46769231,19.1076923 4.98461538,19.7723077 C6.11076923,20.2707692 5.57538462,21.2492308 4.61538462,21.5076923 L4.65230769,21.5076923 C4.30153846,21.5815385 3.87692308,21.6 3.52615385,21.1938462 C3.52615385,21.1938462 2.25230769,21.4338462 1.77230769,20.64 C-1.14461538,20.9169231 0.0369230769,15.3784615 2.27076923,15.4707692 C3.84,9.80307692 7.66153846,4.28307692 13.5507692,2.28923077" id="STROKE_9312e184-2d21-4e07-9744-cf7adb22d3da_1_"></path>
            </g>
            <g id="feet_bkg" transform="translate(12.923077, 42.830769)" fill="#BB3584" stroke="#000000" stroke-linecap="round" stroke-linejoin="round" stroke-width="0.553846154">
                <path d="M13.1630769,9.56307692 C13.0892308,6.33230769 13.0892308,3.78461538 13.6984615,0.96 L13.0892308,0.406153846 L10.5046154,3.61846154 C10.6892308,5.68615385 11.04,7.92 11.3169231,9.91384615 C11.2984615,9.91384615 11.2984615,9.91384615 11.28,9.91384615 C9.72923077,9.00923077 2.45538462,7.14461538 1.71692308,9.69230769 C1.55076923,9.69230769 1.01538462,9.69230769 0.664615385,10.1169231 C0.498461538,10.32 0.443076923,10.5415385 0.424615385,10.6523077 C0.72,10.7446154 0.812307692,10.7815385 1.29230769,11.0030769 C1.31076923,10.9661538 1.38461538,10.9107692 1.47692308,10.8553846 C0.904615385,11.3169231 0.553846154,11.9446154 0.572307692,12.7938462 C0.295384615,13.2369231 0.129230769,13.7538462 0.0738461538,14.1415385 C0.313846154,13.92 0.590769231,13.7538462 0.886153846,13.5876923 C0.996923077,13.7169231 1.14461538,13.8276923 1.32923077,13.92 C1.86461538,14.1969231 2.65846154,14.1230769 2.82461538,13.8092308 L2.89846154,13.8092308 C2.88,14.0307692 2.89846154,14.2707692 2.95384615,14.5476923 C2.95384615,14.5661538 2.99076923,14.6584615 3.04615385,14.7876923 C2.86153846,15.12 2.73230769,15.5076923 2.71384615,15.8584615 C2.86153846,15.7292308 3.13846154,15.5446154 3.47076923,15.36 C3.6,15.4707692 3.76615385,15.5815385 3.96923077,15.6369231 C4.68923077,15.8584615 5.61230769,15.3784615 5.96307692,14.4369231 L5.88923077,14.7138462 C7.77230769,14.1415385 9.98769231,13.7169231 11.9446154,13.7907692 C13.0153846,13.7907692 15.1015385,14.4184615 15.2676923,12.72 C15.4153846,11.5569231 15.0092308,10.2830769 13.1630769,9.56307692 Z" id="Path"></path>
                <path d="M33.4707692,12.0923077 C33.4153846,11.3353846 33.1384615,10.8 32.7507692,10.4492308 C32.9723077,10.5046154 33.36,10.3938462 33.5076923,10.1723077 C33.4338462,10.0061538 33.1938462,9.52615385 32.64,9.19384615 C32.1415385,8.91692308 31.68,8.91692308 31.4953846,8.91692308 C31.4953846,8.93538462 31.4953846,8.95384615 31.5138462,8.97230769 C30.0738462,6.99692308 25.8646154,9.36 23.4276923,9.96923077 C23.5569231,6.31384615 23.2984615,4.78153846 22.7076923,1.90153846 L21.1938462,0.147692308 L19.8276923,0.830769231 C19.9753846,1.77230769 20.16,2.73230769 20.8061538,5.11384615 C21.3969231,7.29230769 21.8953846,9.17538462 21.0830769,9.89538462 C20.6030769,10.3384615 20.1784615,10.0430769 19.4769231,10.4123077 C18.4984615,10.9292308 17.7230769,12.6461538 19.0338462,13.9384615 C19.3846154,14.2892308 20.4553846,14.2338462 21.9323077,14.0307692 C23.1876923,13.8461538 24.2953846,13.9753846 26.2707692,13.9384615 C27.4707692,13.92 27.7846154,13.8830769 28.3015385,13.92 C28.3753846,15.4338462 29.6861538,15.1015385 29.6861538,15.1015385 C29.6861538,15.1015385 30.2215385,14.9538462 30.4615385,14.8061538 C30.6276923,14.9538462 30.7938462,15.12 30.9230769,15.2861538 C31.1815385,14.9353846 31.1261538,14.5292308 30.9415385,14.1969231 C31.0523077,13.9015385 31.0707692,13.5876923 31.0523077,13.4584615 L31.0892308,13.0707692 C31.4769231,13.5507692 31.9938462,13.8276923 32.3815385,13.7353846 C32.6584615,13.6615385 32.8984615,13.5507692 33.0276923,13.3846154 C33.0830769,13.3107692 33.1384615,13.2369231 33.1938462,13.1446154 C33.5076923,13.3846154 33.7661538,13.68 34.0615385,13.92 C34.1907692,13.1446154 33.8769231,12.48 33.4707692,12.0923077 Z" id="Path"></path>
            </g>
            <g id="left_foot" transform="translate(12.923077, 43.753846)" stroke="#000000" stroke-linecap="round" stroke-linejoin="round">
                <path d="M10.4861538,2.49230769 C10.6707692,4.56 11.04,6.99692308 11.3169231,8.99076923 C8.62153846,8.71384615 0.424615385,7.82769231 0.572307692,11.9076923 C0.535384615,12.2215385 0.775384615,12.7015385 1.32923077,12.9784615 C1.86461538,13.2553846 2.65846154,13.1815385 2.82461538,12.8676923 C2.91692308,12.6830769 2.75076923,12.3692308 2.91692308,12.0184615 C2.97230769,11.9261538 3.41538462,11.8523077 3.43384615,11.8153846" id="STROKE_8ee5507e-155c-4871-88ef-65d7c23ecb6e" stroke-width="0.923076923"></path>
                <path d="M11.04,10.5969231 C8.89846154,10.7261538 2.16,10.1907692 2.95384615,13.6061538 C2.97230769,13.68 3.23076923,14.4923077 3.96923077,14.6953846 C4.68923077,14.9169231 5.61230769,14.4369231 5.96307692,13.4953846" id="STROKE_209c0a37-aaf2-4be3-b03b-9a1fa2d61755" stroke-width="0.923076923"></path>
                <path d="M13.6984615,0.0369230769 C13.0892308,2.86153846 13.0892308,5.40923077 13.1630769,8.64 C15.0092308,9.36 15.4153846,10.6338462 15.2676923,11.7784615 C15.1015385,13.4769231 13.0153846,12.8492308 11.9446154,12.8492308 C9.98769231,12.7753846 7.77230769,13.2 5.88923077,13.7723077" id="STROKE_f0c4bcf4-d496-49c8-b50a-90c833d586ce" stroke-width="0.923076923"></path>
                <path d="M11.3169231,9.00923077 C9.71076923,8.03076923 0.941538462,5.79692308 1.69846154,9.67384615" id="STROKE_7f25a34f-4d07-41a3-a506-4c26fadf7ad8" stroke-width="0.923076923"></path>
                <g id="toenails" transform="translate(0.073846, 8.767284)" fill="#38DEED" stroke-width="0.553846154">
                    <path d="M2.12307692,3.08502404 C2.14153846,2.84502404 1.82769231,2.12502404 1.38461538,2.30963942 C0.627692308,2.51271635 0.0923076923,3.73117788 1.63971401e-16,4.43271635 C0.553846154,3.91579327 1.23692308,3.74963942 2.12307692,3.08502404 Z" id="STROKE_5ccde9e9-02f7-4a60-ab60-e7e02690fc67" fill-rule="nonzero"></path>
                    <path d="M1.68,0.00194711538 C1.60615385,0.00194711538 0.978461538,-0.0534375 0.590769231,0.4265625 C0.424615385,0.629639423 0.369230769,0.851177885 0.350769231,0.961947115 C0.646153846,1.05425481 0.738461538,1.09117788 1.21846154,1.31271635 C1.29230769,1.16502404 2.45538462,0.555793269 2.45538462,0.555793269 C2.52923077,0.574254808 2.04923077,0.0942548077 1.68,0.00194711538 Z" id="STROKE_a9357748-8a09-43cf-8f3f-05c100f61071" fill-rule="nonzero"></path>
                    <path d="M4.00615385,4.08194712 C3.26769231,4.37733173 2.69538462,5.31887019 2.64,6.14963942 C3.04615385,5.78040865 4.70769231,4.94963942 4.70769231,4.94963942 C4.70769231,4.94963942 4.70769231,3.91579327 4.00615385,4.08194712 Z" id="Path"></path>
                </g>
            </g>
            <g id="right_foot" transform="translate(31.200000, 43.569231)" stroke="#000000" stroke-linecap="round" stroke-linejoin="round">
                <path d="M4.43076923,1.18153846 C5.02153846,4.06153846 5.28,5.59384615 5.15076923,9.24923077 C7.88307692,8.58461538 12.8307692,5.68615385 13.6246154,9.15692308" id="STROKE_401b1c12-62ff-4ad9-9667-c23924f04734" stroke-width="0.923076923"></path>
                <path d="M6.73846154,9.91384615 C9.30461538,9.76615385 15.0461538,7.36615385 15.2123077,11.5384615 C15.2307692,11.76 15.1015385,12.24 14.7507692,12.6646154 C14.6215385,12.8307692 14.3815385,12.9415385 14.1046154,13.0153846 C13.6430769,13.1261538 12.9969231,12.7015385 12.6092308,12.0553846" id="STROKE_cbfa5a8e-aabe-4097-889e-450b03e3b929" stroke-width="0.923076923"></path>
                <path d="M5.31692308,11.2615385 C6.97846154,11.2246154 12.5538462,9.76615385 12.7753846,12.7384615 C12.7938462,12.96 12.7384615,13.6984615 12.24,14.0492308 C12.0369231,14.1969231 11.4092308,14.3815385 11.4092308,14.3815385 C11.4092308,14.3815385 10.0984615,14.7138462 10.0246154,13.2 C9.50769231,13.1630769 9.19384615,13.2 7.99384615,13.2184615 C6.01846154,13.2553846 4.91076923,13.1261538 3.65538462,13.3107692 C2.17846154,13.5138462 1.10769231,13.5692308 0.756923077,13.2184615 C-0.553846154,11.9261538 0.221538462,10.2092308 1.2,9.69230769 C1.90153846,9.32307692 2.32615385,9.61846154 2.80615385,9.17538462 C3.61846154,8.45538462 3.12,6.57230769 2.52923077,4.39384615 C1.88307692,2.01230769 1.69846154,1.05230769 1.55076923,0.110769231" id="STROKE_172f7b34-a5f5-412c-afbd-768b2180db6e_1_" stroke-width="0.923076923"></path>
                <g id="toenails" transform="translate(11.147095, 8.196923)" fill="#38DEED" stroke-width="0.553846154">
                    <path d="M0.00367412627,5.29846154 C0.502135665,5.46461538 1.12982797,5.87076923 1.49905874,6.36923077 C2.32982797,5.22461538 -0.107095104,3.52615385 0.00367412627,5.29846154 Z" id="STROKE_b966ca4c-7207-46a4-b02e-5e2f34ac2c8d" fill-rule="nonzero"></path>
                    <path d="M2.86521259,3.87692308 C2.88367413,3.89538462 3.06828951,3.91384615 3.08675105,3.91384615 C3.7329049,4.02461538 4.15752028,4.63384615 4.63752028,5.00307692 C4.96982797,3.02769231 2.47752028,1.79076923 2.86521259,3.87692308 Z" id="STROKE_f59bca6c-dd84-4df7-8795-ea5f21b75c72" fill-rule="nonzero"></path>
                    <path d="M2.07136643,5.24708482e-15 C2.25598182,5.24708482e-15 2.71752028,5.24708482e-15 3.21598182,0.276923077 C3.76982797,0.609230769 4.00982797,1.08923077 4.08367413,1.25538462 C3.93598182,1.47692308 3.4929049,1.60615385 3.28982797,1.51384615 C3.14213566,1.45846154 2.88367413,1.05230769 2.47752028,0.96 C2.38521259,0.553846154 2.08982797,0.147692308 2.07136643,5.24708482e-15 Z" id="STROKE_ccdfa33d-3e96-4fb1-831f-213988bc35a0"></path>
                </g>
            </g>
            <g id="Virus_3" transform="translate(7.384615, 0.369231)">
                <g id="Front-spikes" transform="translate(0.055385, 0.073846)" fill="#BB3584" stroke="#000000" stroke-linecap="round" stroke-linejoin="round" stroke-width="1.10769231">
                    <path d="M23.7046154,9.47076923 C25.2553846,6.11076923 27.6738462,2.97230769 29.8892308,0 C30.1476923,3.37846154 29.76,7.44 29.5384615,10.6707692" id="STROKE_5969157d-2596-489a-9398-5e5b4a289d83"></path>
                    <path d="M36.1476923,16.4861538 C39.12,16.5230769 42.2769231,16.1353846 45.2492308,16.3569231 C43.0707692,18.6830769 40.6523077,20.9907692 38.3076923,23.1507692" id="STROKE_0ef5c349-5236-42a3-bd6b-52d8b5eaa834"></path>
                    <path d="M23.2061538,37.4769231 C25.2,40.5969231 27.5446154,44.0492308 30.1846154,46.56 C30.4246154,42.6092308 30.2030769,39.2123077 29.8892308,35.1138462" id="STROKE_d34d2c42-df21-4d47-96fa-554869012bef_1_"></path>
                    <path d="M10.6338462,33.9138462 C8.86153846,36.9230769 5.28,39.4153846 4.08,42.7384615 C7.47692308,41.3723077 11.04,39.1753846 14.4553846,37.8276923" id="STROKE_9ddcf768-e0a9-4939-bc81-0ce3aea8336e"></path>
                    <path d="M9.23076923,25.44 C6.09230769,24.3323077 3.06461538,22.5784615 -6.55885602e-16,21.1938462 C3.10153846,20.3446154 6.96,20.6769231 10.0984615,20.0307692" id="STROKE_53937af1-30c9-418c-a42d-0dada1da31dd"></path>
                    <path d="M10.7815385,13.2 C8.78769231,10.0246154 7.38461538,6.01846154 6.20307692,2.51076923 C9.71076923,4.46769231 13.7907692,7.49538462 17.0584615,9.82153846" id="STROKE_5c21b3de-1f8c-4fc7-8472-5464ddcff548_1_"></path>
                    <path d="M13.6615385,40.4492308 C13.5876923,40.4492308 13.6615385,39.8769231 13.6246154,39.8584615 C13.7169231,42.2030769 14.2338462,45.4523077 14.6769231,47.6307692 C16.0246154,45.8215385 17.8892308,43.7907692 19.2923077,42.0369231" id="STROKE_eea87a39-3d21-4b81-a4aa-4f20769beb56"></path>
                </g>
                <path d="M9.65538462,12.1846154 C6.66461538,13.9015385 4.87384615,17.1507692 3.71076923,20.2892308" id="STROKE_81e861f1-c5a8-43d8-8573-70ab905b88f1_1_" stroke="#000000" stroke-width="1.10769231" stroke-linecap="round" stroke-linejoin="round"></path>
                <path d="M3.41538462,23.0030769 C2.61382212,24.921875 3.43384615,29.28 4.13538462,29.9076923" id="STROKE_ab1e76cd-3190-4013-981a-f11172ef39b8" stroke="#000000" stroke-width="1.10769231" stroke-linecap="round" stroke-linejoin="round"></path>
                <path d="M5.15076923,33.4892308 C5.92615385,35.0769231 6.40615385,36.48 7.97538462,37.4215385" id="STROKE_8e46aa5f-f173-4a9d-8b01-70b38a79e911" stroke="#000000" stroke-width="1.10769231" stroke-linecap="round" stroke-linejoin="round"></path>
                <path d="M16.2276923,9.21230769 C18.5353846,8.47384615 21.3969231,8.4 23.7784615,8.67692308" id="STROKE_fe9ecc84-6253-4fd3-8bc6-cff0fb5b4770" stroke="#000000" stroke-width="1.10769231" stroke-linecap="round" stroke-linejoin="round"></path>
                <path d="M30.2584615,10.0984615 C33.2492308,11.1876923 36,13.2553846 37.8646154,16.3569231" id="STROKE_76a658b9-4bab-401a-8949-b93143f10450" stroke="#000000" stroke-width="1.10769231" stroke-linecap="round" stroke-linejoin="round"></path>
                <path d="M40.08,22.1538462 C40.3569231,24.2215385 39.8769231,27.2861538 39.36,29.6861538" id="STROKE_cc6a0db9-a6d0-4663-8fc3-a2b5a0f3018d" stroke="#000000" stroke-width="1.10769231" stroke-linecap="round" stroke-linejoin="round"></path>
                <path d="M38.4,32.7507692 C37.0153846,36.3138462 34.1723077,39.5630769 30.5538462,40.9292308" id="STROKE_f2fec57a-23cf-4780-911b-dd6ede963077" stroke="#000000" stroke-width="1.10769231" stroke-linecap="round" stroke-linejoin="round"></path>
                <path d="M19.0523077,43.3661538 L19.0523077,43.3846154 C21.4707692,43.8461538 24.3323077,43.92 26.6030769,42.8676923" id="STROKE_bae361d9-0fb9-4e38-a5de-8383ede42619" stroke="#000000" stroke-width="1.10769231" stroke-linecap="round" stroke-linejoin="round"></path>
                <path d="M11.1138462,39.6553846 C11.8892308,40.4123077 12.4984615,40.6892308 13.6615385,40.8923077" id="STROKE_2e7318f3-0b2a-422b-807f-637a92fb0034" stroke="#000000" stroke-width="1.10769231" stroke-linecap="round" stroke-linejoin="round"></path>
                <path d="M25.0338462,17.3169231 C26.5846154,16.5415385 28.8184615,15.6184615 30.5907692,15.5446154" id="STROKE_04746673-b224-4a39-a896-7272213663c6" stroke="#000000" stroke-width="1.10769231" stroke-linecap="round" stroke-linejoin="round"></path>
                <path d="M15.2492308,15.7476923 C17.5569231,15.5630769 19.5876923,16.8 21.6369231,17.6307692" id="STROKE_9080ef33-28e4-4f0b-af3a-4c2c4952fe17" stroke="#000000" stroke-width="1.10769231" stroke-linecap="round" stroke-linejoin="round"></path>
                <g id="Left-eye" transform="translate(13.852864, 18.039964)">
                    <path d="M8.63328989,4.7046518 C9.27944373,-2.10765589 -1.24363319,-1.16611743 0.122520658,5.24003641 C0.879443735,8.84003641 8.13482835,8.26772872 8.63328989,4.7046518 Z" id="STROKE_e3037c9f-e4b1-4e83-a6ba-f3b8bed8a3a5" stroke="#000000" stroke-width="1.10769231" fill="#FFFFFF" stroke-linecap="round" stroke-linejoin="round"></path>
                    <path d="M3.09482835,3.94772872 C3.05790527,3.96619026 2.98405912,4.00311334 2.9286745,4.05849795 C2.76252066,4.2246518 2.79944373,4.48311334 2.79944373,4.52003641 C2.81790527,4.79695949 2.9286745,4.9446518 3.05790527,5.00003641 C3.31636681,5.11080564 3.75944373,4.76003641 3.75944373,4.37234411 C3.75944373,4.16926718 3.63021297,4.02157487 3.57482835,3.96619026 C3.4086745,3.87388257 3.31636681,3.83695949 3.09482835,3.94772872 Z" id="STROKE_100e0c68-45c6-47b1-91ea-08498de673f2" stroke="#000000" stroke-width="1.10769231" stroke-linecap="round" stroke-linejoin="round"></path>
                    <path d="M3.79636681,3.24619026 C4.51636681,3.22772872 4.51636681,4.37234411 3.79636681,4.35388257 C3.07636681,4.37234411 3.07636681,3.24619026 3.79636681,3.24619026 Z" id="STROKE_8e5e0530-8c72-4963-9486-ca1ed27e0171" fill="#FFFFFF" fill-rule="nonzero"></path>
                </g>
                <g id="Right-eye" transform="translate(24.918380, 18.074286)">
                    <path d="M7.68469653,2.76879054 C6.72469653,-0.461978689 3.14315807,-0.609670996 1.24161961,1.01494439 C-0.179918856,2.23340593 -0.419918856,4.74417516 0.724696529,6.25802131 C2.23854268,8.270329 6.65085038,8.01186747 7.59238884,5.4826367 C7.88777345,4.63340593 7.90623499,3.52571362 7.68469653,2.76879054" id="STROKE_c1de529b-9b80-4009-8620-7952ccb96b87" stroke="#000000" stroke-width="1.10769231" fill="#FFFFFF" stroke-linecap="round" stroke-linejoin="round"></path>
                    <path d="M3.10623499,4.33802131 C2.57085038,3.98725208 2.09085038,4.70725208 2.66315807,5.02109823 C2.90315807,5.13186747 3.29085038,5.07648285 3.34623499,4.68879054 C3.36469653,4.50417516 3.2539273,4.430329 3.10623499,4.33802131" id="STROKE_dcda3163-2e51-4df1-ae65-a2c54a81e7b4" stroke="#000000" stroke-width="1.10769231" stroke-linecap="round" stroke-linejoin="round"></path>
                    <path d="M3.45700422,3.54417516 C4.17700422,3.52571362 4.17700422,4.670329 3.45700422,4.65186747 C2.73700422,4.670329 2.73700422,3.54417516 3.45700422,3.54417516 Z" id="STROKE_627d2b4c-6c09-4e2e-bc08-98ea755b4937" fill="#FFFFFF" fill-rule="nonzero"></path>
                </g>
                <g id="mouth" transform="translate(13.846154, 27.323077)">
                    <path d="M17.76,0.664615385 C12.5169231,-0.295384615 6.90461538,1.38777878e-17 1.60615385,0.775384615 C-0.646153846,1.31076923 0.0738461538,3.69230769 0.812307692,5.16923077 C6.14769231,5.26153846 11.7230769,5.40923077 17.0030769,4.63384615 C18.4615385,4.17230769 18.2215385,1.82769231 17.76,0.664615385" id="STROKE_f156c8ef-04f0-4760-9bd0-8254e2299538_1_" fill="#2D4060" fill-rule="nonzero"></path>
                    <path d="M11.3723077,5.31692308 C11.4092308,5.37230769 7.32923077,5.42769231 7.32923077,5.42769231 C7.32923077,5.42769231 8.84307692,2.47384615 9.04615385,2.34461538 C9.24923077,2.21538462 11.3353846,5.28 11.3723077,5.31692308 Z M6.97846154,0.369230769 C7.01538462,0.590769231 5.50153846,3.08307692 4.94769231,3.30461538 C4.32,2.82461538 3.37846154,0.738461538 3.37846154,0.738461538 C3.37846154,0.738461538 6.38769231,0.443076923 6.97846154,0.369230769 Z M12.0923077,0.295384615 C12.6276923,0.258461538 15.84,0.609230769 15.84,0.609230769 C15.84,0.609230769 13.8276923,3.19384615 13.6430769,3.12 C13.4738462,3.05230769 12.3117949,0.73525641 12.1192949,0.349551282 Z" id="Combined-Shape-Copy" stroke="#000000" stroke-width="0.738461538" fill="#000000" fill-rule="nonzero" opacity="0.2"></path>
                    <g id="teeth" transform="translate(3.323077, 0.000000)" fill="#FFFFFF" fill-rule="nonzero">
                        <path d="M8.04923077,5.13230769 C8.08615385,5.18769231 4.00615385,5.24307692 4.00615385,5.24307692 C4.00615385,5.24307692 5.52,2.28923077 5.72307692,2.16 C5.92615385,2.03076923 8.01230769,5.09538462 8.04923077,5.13230769 Z M3.65538462,0.184615385 C3.69230769,0.406153846 2.17846154,2.89846154 1.62461538,3.12 C0.996923077,2.64 0.0553846154,0.553846154 0.0553846154,0.553846154 C0.0553846154,0.553846154 3.06461538,0.258461538 3.65538462,0.184615385 Z M8.76923077,0.110769231 C9.30461538,0.0738461538 12.5169231,0.424615385 12.5169231,0.424615385 C12.5169231,0.424615385 10.5046154,3.00923077 10.32,2.93538462 C10.1507692,2.86769231 8.98871795,0.550641026 8.79621795,0.164935897 Z" id="Combined-Shape"></path>
                    </g>
                    <path d="M17.76,0.664615385 C12.5169231,-0.295384615 6.90461538,1.38777878e-17 1.60615385,0.775384615 C-0.646153846,1.31076923 0.0738461538,3.69230769 0.812307692,5.16923077 C6.14769231,5.26153846 11.7230769,5.40923077 17.0030769,4.63384615 C18.4615385,4.17230769 18.2215385,1.82769231 17.76,0.664615385" id="STROKE_f156c8ef-04f0-4760-9bd0-8254e2299538_2_" stroke="#000000" stroke-width="1.10769231" stroke-linecap="round" stroke-linejoin="round"></path>
                </g>
            </g>
            <g id="left_arm" transform="translate(0.000000, 29.538462)" stroke="#000000" stroke-linecap="round" stroke-linejoin="round" stroke-width="0.923076923">
                <path d="M13.5507692,0.0738461538 C7.66153846,2.06769231 3.84,7.58769231 2.27076923,13.2553846 C0.0369230769,13.1630769 -1.14461538,18.6830769 1.77230769,18.4246154" id="STROKE_87300f2b-1484-4e10-ab31-7fd0b875fd9f"></path>
                <path d="M1.88307692,16.2830769 C1.23692308,17.28 1.27384615,19.3107692 3.52615385,18.9784615" id="STROKE_c14a0d61-bb3a-431b-bcba-e960cd28b71d"></path>
                <path d="M15.4523077,3.04615385 C10.56,3.87692308 6.44307692,7.44 4.98461538,12.1661538 C4.83692308,12.7753846 4.70769231,13.3292308 5.00307692,13.7353846 C7.82769231,12.6646154 9.06461538,18.4984615 7.01538462,17.52 C6.72,17.0215385 6.77538462,16.2830769 6.20307692,15.9692308 C5.18769231,15.3784615 4.46769231,16.8923077 4.98461538,17.5569231 C6.11076923,18.0553846 5.57538462,19.0338462 4.61538462,19.2923077 L4.65230769,19.2923077 C3.15692308,19.68 2.86153846,17.5384615 3.54461538,16.5969231" id="STROKE_9312e184-2d21-4e07-9744-cf7adb22d3da"></path>
            </g>
            <g id="right_arm" transform="translate(42.461538, 27.323077)" stroke="#000000" stroke-linecap="round" stroke-linejoin="round" stroke-width="0.923076923">
                <path d="M0.0184615385,3.85846154 C4.85538462,5.48307692 7.53230769,10.6338462 9.61846154,14.9723077 C7.97538462,15.5630769 6.49846154,18.4615385 8.06769231,19.7723077 C9.37846154,20.6584615 10.6523077,18.5538462 9.17538462,17.8523077 C9.23076923,17.5015385 9.54461538,17.3353846 9.85846154,17.2430769" id="STROKE_30c9c603-00ab-4f41-ae15-38aff211551f"></path>
                <path d="M0.72,0.129230769 C6.01846154,3.02769231 9.19384615,9.41538462 11.4646154,14.8246154 C11.5938462,14.7323077 12.0184615,14.7692308 12.0184615,14.7692308 C14.4,14.8246154 17.0030769,20.9723077 13.3846154,20.8246154" id="STROKE_b82c3e23-3e2d-4716-81a4-c27bbe596023"></path>
                <path d="M12.8861538,17.9446154 C13.5876923,18.8307692 13.7169231,20.2707692 13.2184615,21.2861538 C12.7938462,22.1538462 11.5753846,22.4861538 11.1507692,21.5076923" id="STROKE_2c7f6fb9-0987-4ea4-86dd-b21954440e37_1_"></path>
                <path d="M9.96923077,19.0892308 C10.32,19.5507692 10.0061538,20.0307692 9.74769231,20.4369231 C7.97538462,22.7446154 12.6830769,22.5415385 11.6307692,18.6830769" id="STROKE_066835d0-cc6e-4db7-a092-b2543308290c"></path>
            </g>
        </g>
        <rect id="Rectangle" stroke="#222222" stroke-width="0.03" x="0.015" y="0.015" width="59.97" height="59.97"></rect>
    </g>
</svg>