<?xml version="1.0" encoding="UTF-8"?>
<svg width="60px" height="60px" viewBox="0 0 60 60" version="1.1" xmlns="http://www.w3.org/2000/svg" xmlns:xlink="http://www.w3.org/1999/xlink">
    <!-- Generator: Sketch 64 (93537) - https://sketch.com -->
    <title>svg/obstacleMonster4-2x2</title>
    <desc>Created with Sketch.</desc>
    <g id="obstacleMonster4-2x2" stroke="none" stroke-width="1" fill="none" fill-rule="evenodd">
        <rect fill="#BCB5E3" x="0" y="0" width="60" height="60"></rect>
        <rect id="Rectangle" fill="#AFA6DE" x="3" y="3" width="54" height="54"></rect>
        <g id="Monster_4" transform="translate(3.000000, 0.000000)">
            <path d="M10.751329,57.80302 C10.3715717,57.2395024 10.5988203,56.5979753 11.1532545,56.0795433 C9.64681677,52.4100154 14.6652361,52.5579399 16.248927,52.944206 C17.6909871,53.2918455 20.472103,54.4763948 22.2103004,55.1201717 C19.751073,49.248927 19.583691,51.5150215 23.4463519,47.2532189 L24.193133,46.3905579 C21.2317597,45.360515 23.3433476,46.3133047 21.8626609,47.3175966 C18.9656652,48.9399142 15.5793991,44.1502146 19.9313305,43.9184549 C19.944206,43.9055794 18.3862661,42.2060086 17.9613734,41.2918455 C16.8283262,44.1759657 12.1416309,41.9098712 13.9699571,39.7081545 C15.5922747,37.751073 16.4678112,40.9055794 16.9055794,36.4506438 C17.0343348,35.1759657 17.27897,33.72103 15.6695279,33.7339056 C11.4978541,33.7725322 6.86266094,30.3218884 4.54506438,26.8454936 C3.29613734,21.7467811 7.0944206,16.0686695 6.93991416,10.944206 C6.18025751,8.53648069 2.72961373,10.4034335 0.927038627,9.69527897 C-0.527896996,9.24463519 -0.0386266094,7.64806867 1.73819742,7.42918455 C3.32188841,7.22317597 4.7639485,8.70386266 6.4248927,8.27896996 C6.39914163,6.48927039 2.31759657,4.64806867 3.74678112,3.11587983 C5.56223176,1.17167382 7.36480687,5.5751073 8.03433476,8.16309013 C8.44635193,9.75965665 7.73819742,3.8111588 8.56223176,2.02145923 C9.72103004,-0.489270386 11.7167382,1.55793991 11.1502146,4.06866953 C10.6866953,6.10300429 9.97854077,8.70386266 10.0815451,10.6866953 C10.9055794,10.8154506 11.7682403,10.1845494 12.3090129,9.61802575 C12.7467811,8.98712446 12.4377682,8.24034335 12.6566524,7.50643777 C13.4935622,4.85407725 17.4463519,10.4935622 13.2360515,11.4592275 C12.3090129,11.6781116 10.5193133,12.2961373 9.87553648,12.9012876 C7.45493562,16.3776824 6.46351931,21.2832618 6.57939914,25.4678112 C8.90987124,29.4463519 14.1373391,32.9613734 18.6566524,31.1330472 C18.5922747,30.527897 18.4377682,29.9227468 18.0386266,29.4978541 C14.4978541,32.8583691 12.4635193,26.7553648 17.2145923,27.0772532 C16.7124464,25.8669528 16.0300429,24.5536481 15.9270386,23.1888412 C15.7339056,22.8154506 13.944206,24.7725322 12.3733906,23.3819742 C10.248927,21.8626609 12.8755365,17.832618 15.2188841,19.4034335 C15.2446352,19.416309 15.7854077,17.5879828 16.223176,16.7639485 C10.1201717,17.4463519 14.7296137,9.6695279 17.8841202,14.27897 C18.6566524,13.0944206 20.1888412,12.2832618 20.9613734,11.5751073 C16.223176,8.12446352 23.9742489,5.98712446 22.6866953,11.0729614 C23.6266094,11.0214592 24.0772532,10.8927039 24.8111588,10.5579399 L24.8111588,10.5450644 C21.1030043,8.17596567 27.5793991,5.43347639 26.8583691,10.0815451 C26.8583691,10.3905579 26.7296137,10.4549356 27.0386266,10.4291845 C27.7725322,10.3261803 28.8283262,10.9184549 29.2532189,10.055794 C29.111588,9.25751073 27.4763948,8.80686695 28.0686695,7.73819742 C30.0386266,5.472103 32.639485,9.23175966 30.3218884,10.751073 C30.3090129,10.751073 30.2961373,10.7639485 30.2832618,10.776824 C31.3648069,11.0214592 32.6652361,10.6480687 33.5150215,11.4849785 C31.9957082,8.29184549 37.1072961,7.81545064 38.2918455,10.1201717 C38.9098712,11.8712446 37.5708155,13.4806867 35.8583691,13.7253219 C36.3862661,14.5107296 37.1587983,15.193133 37.5708155,16.0944206 C41.4978541,10.8798283 44.7553648,19.4034335 38.7038627,18.9012876 C38.7553648,19.6094421 38.8841202,20.2145923 39.0257511,21.167382 C43.7639485,17.7038627 45.7081545,22.1974249 43.6223176,23.3690987 C41.0472103,24.5793991 39.0128755,21.2446352 38.6137339,25.9828326 C38.9871245,25.9184549 39.8626609,24.9656652 40.7639485,25.0171674 C42.6566524,25.1072961 43.1845494,26.8454936 41.3948498,27.8497854 C39.9270386,28.7381974 37.2618026,26.4463519 37.3519313,29.1502146 C41.0472103,29.9227468 45.193133,28.8669528 48.0643777,26.3175966 C48.0901288,21.5150215 46.3519313,16.1716738 44.0987124,12.0386266 C41.0858369,12.888412 39.9527897,8.5751073 42.2446352,8.0472103 C43.223176,8.02145923 43.3133047,9.38626609 44.0343348,9.69527897 C44.3690987,7.77682403 44.0214592,5.13733906 45.4120172,3.47639485 C46.1716738,2.72961373 47.0600858,3.1416309 47.0858369,3.96566524 C47.27897,5.24034335 46.0944206,6.72103004 46.2875536,8.03433476 C48,7.30042918 48.888412,1.93133047 51.2060086,3.63090129 C52.7639485,4.7639485 48.6824034,7.18454936 48.2703863,8.74248927 C49.4935622,8.26609442 50.9356223,6.77253219 52.3776824,6.9527897 C53.9227468,7.13304721 53.5236052,8.75536481 52.8025751,9.19313305 C51.2317597,10.1459227 48.4763948,9.92703863 46.6738197,11.7553648 C48.2703863,16.6480687 50.2017167,22.1459227 49.583691,27.4506438 C48.9012876,28.6351931 47.0214592,29.2918455 45.8240343,29.8583691 C43.9313305,30.9656652 41.6652361,31.1587983 39.5536481,31.3133047 C38.5493562,31.3776824 37.583691,31.6094421 38.0085837,32.5364807 C38.5751073,34.3261803 38.9613734,33.1802575 40.7124464,33.695279 C42.2188841,34.0815451 42.4635193,36.0901288 41.3175966,37.0171674 C40.7124464,37.5064378 39.7982833,37.0171674 39.1287554,37.0815451 C39.2575107,38.2532189 39.4120172,39.4248927 38.7424893,40.4549356 C45.3862661,42.167382 37.5321888,47.0987124 36.7081545,43.1974249 C36.6824034,43.055794 36.1545064,43.4806867 35.2660944,43.9957082 C34.3905579,44.5751073 32.5107296,45.7982833 32.5622318,45.7982833 C37.7896996,50.1630901 35.4849785,49.2875536 34.8540773,55.3519313 C36.6566524,54.8369099 38.7167382,53.6137339 40.6223176,53.1759657 C42.3862661,52.776824 48.0128755,52.2360515 45.7725322,55.4678112 C47.255336,56.0972785 48.0748082,57.1515176 46.0429185,57.9656652 C46.2278147,58.4968607 46.0757919,59.2602064 45.3862661,59.1630901 C41.5622318,57.2703863 36.9141631,57.9785408 32.8197425,58.3648069 L32.8197425,58.3519313 L32.806867,58.3648069 C32.6008584,58.055794 32.2660944,56.9227468 32.3819742,55.8154506 C33.0128755,50.639485 35.6909871,50.7167382 30.4248927,46.8283262 C29.4206009,47.4077253 27.7854077,47.3948498 26.8197425,47.0214592 L26.3690987,46.8798283 C22.4678112,51.6180258 22.7896996,49.3261803 24.888412,54.9527897 C25.3905579,55.9957082 25.583691,57.9270386 24.888412,58.944206 C21.1287554,57.7725322 16.944206,58.0171674 13.416309,59.806867 C12.0683535,60.209864 11.5715521,59.4054971 11.9360219,58.6139019 C11.3361105,58.3871313 10.9557643,58.1063793 10.751329,57.80302 Z" id="SHADOW" stroke="#000000" stroke-width="0.772532189" fill="#000000" opacity="0.2" stroke-linecap="round" stroke-linejoin="round"></path>
            <g id="outline" transform="translate(0.072299, 0.104621)" fill="#8779CD" stroke="#000000" stroke-linecap="round" stroke-linejoin="round" stroke-width="0.772532189">
                <path d="M10.6790295,56.9258666 C10.2992722,56.362349 10.5265208,55.7208219 11.0809551,55.2023898 C9.57451734,51.532862 14.5929366,51.6807865 16.1766276,52.0670526 C17.6186877,52.4146921 20.3998036,53.5992414 22.138001,54.2430183 C19.6787735,48.3717736 19.5113916,50.6378681 23.3740525,46.3760655 L24.1208336,45.5134045 C21.1594602,44.4833616 23.2710482,45.4361513 21.7903615,46.4404432 C18.8933658,48.0627608 15.5070997,43.2730612 19.859031,43.0413015 C19.8719066,43.028426 18.3139667,41.3288552 17.889074,40.4146921 C16.7560268,43.2988123 12.0693315,41.0327178 13.8976577,38.8310011 C15.5199752,36.8739196 16.3955117,40.028426 16.83328,35.5734904 C16.9620353,34.2988123 17.2066705,32.8438766 15.5972285,32.8567522 C11.4255546,32.8953788 6.79036152,29.444735 4.47276495,25.9683402 C3.22383791,20.8696277 7.02212117,15.1915161 6.86761473,10.0670526 C6.10795808,7.65932728 2.65731431,9.52628007 0.854739198,8.81812557 C-0.600196424,8.36748179 -0.110926038,6.77091527 1.665898,6.55203114 C3.24958898,6.34602256 4.69164907,7.82670926 6.35259328,7.40181655 C6.3268422,5.61211698 2.24529714,3.77091527 3.67448169,2.23872642 C5.48993233,0.294520415 7.29250744,4.69795389 7.96203534,7.28593672 C8.3740525,8.88250325 7.665898,2.93400539 8.48993233,1.14430582 C9.64873061,-1.36642379 11.6444388,0.68078651 11.0779152,3.19151612 C10.6143959,5.22585089 9.90624134,7.82670926 10.0092456,9.80954187 C10.83328,9.93829724 11.6959409,9.30739595 12.2367134,8.74087235 C12.6744817,8.10997106 12.3654688,7.36318994 12.5843529,6.62928436 C13.4212628,3.97692385 17.3740525,9.61640883 13.1637521,10.5820741 C12.2367134,10.8009582 10.4470139,11.4189839 9.80323705,12.0241341 C7.38263619,15.500529 6.39121988,20.4061084 6.50709971,24.5906578 C8.83757182,28.5691985 14.0650396,32.08422 18.5843529,30.2558938 C18.5199752,29.6507436 18.3654688,29.0455934 17.9663272,28.6207007 C14.4255546,31.9812157 12.3912199,25.8782114 17.1422928,26.2000998 C16.6401469,24.9897994 15.9577435,23.6764947 15.8547392,22.3116878 C15.6616062,21.9382972 13.8719066,23.8953788 12.3010911,22.5048208 C10.1766276,20.9855075 12.8032371,16.9554646 15.1465847,18.5262801 C15.1723358,18.5391556 15.7131083,16.7108294 16.1508765,15.8867951 C10.0478722,16.5691985 14.6573143,8.79237449 17.8118207,13.4018166 C18.5843529,12.2172672 20.1165418,11.4061084 20.889074,10.6979539 C16.1508765,7.24731011 23.9019495,5.10997106 22.6143959,10.195808 C23.55431,10.1443058 24.0049538,10.0155505 24.7388594,9.68078651 L24.7388594,9.66791097 C21.0307049,7.29881226 27.5070997,4.55632299 26.7860697,9.20439166 C26.7860697,9.51340454 26.6573143,9.57778222 26.9663272,9.55203114 C27.7002328,9.44902685 28.7560268,10.0413015 29.1809195,9.17864059 C29.0392886,8.38035733 27.4040954,7.92971355 27.9963701,6.86104402 C29.9663272,4.5949496 32.5671856,8.35460625 30.249589,9.87391956 C30.2367134,9.87391956 30.2238379,9.88679509 30.2109624,9.89967063 C31.2925074,10.1443058 32.5929366,9.77091527 33.442722,10.6078251 C31.9234087,7.41469209 37.0349967,6.93829724 38.2195461,9.24301827 C38.8375718,10.9940912 37.498516,12.6035333 35.7860697,12.8481685 C36.3139667,13.6335762 37.0864989,14.3159796 37.498516,15.2172672 C41.4255546,10.0026749 44.6830654,18.5262801 38.6315632,18.0241341 C38.6830654,18.7322887 38.8118207,19.3374389 38.9534516,20.2902286 C43.6916491,16.8267093 45.6358551,21.3202715 43.5500182,22.4919453 C40.9749109,23.7022457 38.9405761,20.3674818 38.5414345,25.1056792 C38.914825,25.0413015 39.7903615,24.0885118 40.6916491,24.140014 C42.5843529,24.2301427 43.1122499,25.9683402 41.3225504,26.972632 C39.8547392,27.861044 37.1895031,25.5691985 37.2796319,28.2730612 C40.9749109,29.0455934 45.1208336,27.9897994 47.9920783,25.4404432 C48.0178293,20.6378681 46.2796319,15.2945204 44.026413,11.1614732 C41.0135375,12.0112586 39.8804903,7.69795389 42.1723358,7.1700569 C43.1508765,7.14430582 43.2410053,8.50911269 43.9620353,8.81812557 C44.2967993,6.89967063 43.9491598,4.26018565 45.3397177,2.59924145 C46.0993744,1.85246033 46.9877864,2.2644775 47.0135375,3.08851183 C47.2066705,4.36318994 46.0221212,5.84387664 46.2152542,7.15718136 C47.9277006,6.42327578 48.8161126,1.05417707 51.1337092,2.75374788 C52.6916491,3.88679509 48.610104,6.30739595 48.1980868,7.86533587 C49.4212628,7.38894102 50.8633229,5.89537878 52.305383,6.0756363 C53.8504474,6.25589381 53.4513057,7.8782114 52.7302757,8.31597964 C51.1594602,9.26876934 48.4040954,9.04988522 46.6015203,10.8782114 C48.1980868,15.7709153 50.1294173,21.2687693 49.5113916,26.5734904 C48.8289881,27.7580397 46.9491598,28.4146921 45.7517349,28.9812157 C43.859031,30.0885118 41.5929366,30.2816449 39.4813486,30.4361513 C38.4770568,30.500529 37.5113916,30.7322887 37.9362843,31.6593273 C38.5028079,33.4490269 38.889074,32.3031041 40.6401469,32.8181256 C42.1465847,33.2043917 42.3912199,35.2129754 41.2452971,36.140014 C40.6401469,36.6292844 39.7259838,36.140014 39.0564559,36.2043917 C39.1852113,37.3760655 39.3397177,38.5477393 38.6701898,39.5777822 C45.3139667,41.2902286 37.4598894,46.221559 36.6358551,42.3202715 C36.610104,42.1786406 36.082207,42.6035333 35.193795,43.1185548 C34.3182585,43.6979539 32.4384302,44.9211299 32.4899323,44.9211299 C37.7174001,49.2859367 35.4126791,48.4104002 34.7817778,54.4747779 C36.5843529,53.9597565 38.6444388,52.7365805 40.5500182,52.2988123 C42.3139667,51.8996706 47.9405761,51.3588981 45.7002328,54.5906578 C47.1830366,55.2201251 48.0025088,56.2743642 45.970619,57.0885118 C46.1555153,57.6197072 46.0034924,58.383053 45.3139667,58.2859367 C41.4899323,56.3932329 36.8418637,57.1013874 32.7474431,57.4876535 L32.7474431,57.4747779 L32.7345675,57.4876535 C32.5285589,57.1786406 32.193795,56.0455934 32.3096748,54.9382972 C32.9405761,49.7623316 35.6186877,49.8395848 30.3525933,45.9511728 C29.3483014,46.5305719 27.7131083,46.5176964 26.7474431,46.1443058 L26.2967993,46.0026749 C22.3955117,50.7408723 22.7174001,48.4490269 24.8161126,54.0756363 C25.3182585,55.1185548 25.5113916,57.0498852 24.8161126,58.0670526 C21.0564559,56.8953788 16.8719066,57.140014 13.3440096,58.9297135 C11.9960541,59.3327105 11.4992527,58.5283437 11.8637225,57.7367485 C11.263811,57.5099779 10.8834649,57.2292259 10.6790295,56.9258666 Z" id="STROKE_2bbbeda9-c4bd-4b47-a5b7-b230b26d49b5-Copy"></path>
            </g>
            <g id="Virus_4">
                <path d="M33.6309013,14.3690987 C29.0343348,10.7639485 22.1974249,11.5236052 18.8626609,16.416309 C17.4978541,18.4120172 17.4077253,21.3347639 18.1416309,23.6523605 C18.6824034,25.1716738 19.776824,26.3948498 20.0729614,27.9914163 C21.6437768,32.3433476 15.4635193,37.1845494 19.7124464,40.9570815 C24.9527897,45.9785408 35.0729614,44.0214592 37.4420601,37.0171674 C37.9313305,34.4549356 35.9742489,32.3819742 35.2532189,30.1158798 C34.9828326,27.5407725 36.8111588,25.5064378 37.4420601,23.1373391 C38.5107296,19.7124464 36.2703863,16.4420601 33.6309013,14.3690987 Z" id="STROKE_11afe6b0-fdd9-42a9-851c-092641cfbfa9_2_" stroke="#000000" stroke-width="0.772532189" fill-opacity="0.2" fill="#000000" stroke-linecap="round" stroke-linejoin="round"></path>
                <path d="M32.9851046,14.7711486 C28.7892557,11.3240892 22.5483711,12.0504339 19.5043238,16.7285858 C18.2584975,18.6367794 18.1762259,21.4313596 18.8461514,23.6473263 C19.3397807,25.1000156 20.3387923,26.2695536 20.6091131,27.7961084 C22.0429887,31.9572014 16.4015111,36.5861096 20.280027,40.193211 C25.0635298,44.9944722 34.3014494,43.1232114 36.4640158,36.4260676 C36.9106328,33.9761933 35.1241649,31.9941342 34.4659925,29.8274112 C34.2191779,27.365226 35.888115,25.4200997 36.4640158,23.1548892 C37.4395213,19.8801829 35.3944857,16.7532077 32.9851046,14.7711486 Z" id="shadow" fill="#8779CD"></path>
                <g id="mouth-2" transform="translate(22.840921, 33.399758)" stroke-linecap="round" stroke-linejoin="round">
                    <path d="M7.45521618,6.96504915 C10.3007097,6.24401911 12.322169,1.40281739 7.64834923,0.321272329 C4.94448657,-0.271002349 0.759937213,0.75904057 0.103284852,3.81054272 C-0.836629311,7.969341 4.88010889,7.78908349 7.45521618,6.96504915 Z" id="STROKE_007ac5f2-e433-41b7-9068-c67d1a431b3b" stroke="#BB3E45" stroke-width="0.5" fill="#BB3E45" fill-rule="nonzero"></path>
                    <path d="M5.04749086,4.80195902 C5.08611747,4.80195902 7.03032348,7.10668005 7.03032348,7.10668005 C6.37367112,7.41569293 4.85435781,7.76333242 3.79856382,7.23543542 C4.19770545,6.52728091 4.69985138,5.57449121 5.04749086,4.80195902 Z M3.33504451,4.23543542 C2.75564537,4.95646546 2.17624623,6.05088606 1.59684708,6.8749204 C1.27495867,6.79766718 0.669808457,6.45002769 0.463799874,5.99938392 C0.129035925,5.26547834 0.000280560312,4.67320366 0.25779129,4.31268864 C1.23633206,4.1581822 2.43375696,4.13243113 3.33504451,4.23543542 Z M10.0689501,2.6388689 C10.4938428,4.04230237 10.4294651,5.03371868 9.24491575,5.89637963 C8.82002305,5.09809636 7.66122477,4.76333242 7.19770545,4.14530666 C8.24062391,3.55303199 9.0131561,3.19251696 10.0689501,2.6388689 Z M3.20628914,0.75904057 C3.91444365,0.166765891 4.73847799,0.153890355 5.84577412,0.437152158 C5.74276983,1.77620795 5.12474408,2.74187319 4.9187355,3.96504915 C4.22345653,3.35989894 2.92302734,1.8277101 3.20628914,0.75904057 Z M6.61830631,0.424276621 C6.61830631,0.398525548 8.84577412,1.31268864 8.84577412,1.2998131 C7.64834923,2.32985602 7.21058099,2.80625087 6.73418614,3.10238821 C6.5796797,2.83200194 6.54105309,2.35560709 6.55392863,0.862044861 C6.55392863,0.643160741 6.60543077,0.527280913 6.61830631,0.424276621 Z" id="Combined-Shape-Copy-2" stroke="#000000" stroke-width="0.515021459" fill="#000000" fill-rule="nonzero" opacity="0.17"></path>
                    <path d="M5.04749086,4.54444829 C5.08611747,4.54444829 7.03032348,6.84916932 7.03032348,6.84916932 C6.37367112,7.1581822 4.85435781,7.50582169 3.79856382,6.97792469 C4.19770545,6.26977018 4.69985138,5.31698048 5.04749086,4.54444829 Z M3.33504451,3.97792469 C2.75564537,4.69895473 2.17624623,5.79337533 1.59684708,6.61740967 C1.27495867,6.54015645 0.669808457,6.19251696 0.463799874,5.74187319 C0.129035925,5.00796761 0.000280560312,4.41569293 0.25779129,4.05517791 C1.23633206,3.90067147 2.43375696,3.8749204 3.33504451,3.97792469 Z M10.0689501,2.38135817 C10.4938428,3.78479164 10.4294651,4.77620795 9.24491575,5.6388689 C8.82002305,4.84058563 7.66122477,4.50582169 7.19770545,3.88779593 C8.24062391,3.29552126 9.0131561,2.93500623 10.0689501,2.38135817 Z M3.20628914,0.50152984 C3.91444365,-0.0907448382 4.73847799,-0.103620375 5.84577412,0.179641428 C5.74276983,1.51869722 5.12474408,2.48436246 4.9187355,3.70753842 C4.22345653,3.10238821 2.92302734,1.57019937 3.20628914,0.50152984 Z M6.61830631,0.166765891 C6.61830631,0.141014818 8.84577412,1.05517791 8.84577412,1.04230237 C7.64834923,2.07234529 7.21058099,2.54874014 6.73418614,2.84487748 C6.5796797,2.57449121 6.54105309,2.09809636 6.55392863,0.604534132 C6.55392863,0.385650012 6.60543077,0.269770183 6.61830631,0.166765891 Z" id="Combined-Shape" stroke="#FFFFFF" stroke-width="0.5" fill="#FFFFFF" fill-rule="nonzero"></path>
                    <path d="M9.06465824,6.05088606 C13.1719544,2.60024229 7.36508743,-0.914779173 3.61830631,0.218268037 C0.875817041,1.05517791 -1.73791686,5.32985602 1.54534494,6.84916932 C3.94019472,7.62170151 6.95307026,7.55732383 9.06465824,6.05088606 Z" id="STROKE_d01d07f4-531f-4bfd-b3a9-49737932e39a_1_" stroke="#000000" stroke-width="0.772532189"></path>
                </g>
                <g id="Mouth" transform="translate(21.115880, 14.678112)">
                    <path d="M6.70815451,0.0643776824 C5.31759657,-0.025751073 3.50214592,0.386266094 2.08583691,1.30042918 C0.270386266,2.24034335 -0.128755365,4.4806867 0.0772532189,6.18025751 C0.244635193,7.96995708 1.12017167,8.63948498 2.20171674,9.46351931 C5.35622318,11.639485 11.8841202,10.3261803 12.0643777,5.88412017 C12.0772532,4.7639485 12.0772532,3.51502146 11.3948498,2.45922747 C10.3004292,0.978540773 8.3304721,0.025751073 6.70815451,0.0643776824 Z" id="STROKE_1ec62fd8-1069-4665-91fc-4163af49bff4_2_" fill="#BB3E45" fill-rule="nonzero"></path>
                    <path d="M5.93562232,7.26180258 C6.1416309,9.18025751 6.37339056,10.2606873 6.18025751,10.492447 C5.84422361,10.492447 4.7639485,10.492447 3.16738197,10.1201717 C3.21888412,10.1072961 4.96995708,8.27896996 5.93562232,7.26180258 Z M11.9484979,5.7167382 C11.9877774,7.00429185 11.0302734,8.45107967 10.1720003,9.09012876 C9.70848096,8.20171674 8.96137339,6.56652361 8.36909871,5.70386266 C8.36909871,5.70386266 8.36909871,5.69098712 8.35622318,5.69098712 C9.41201717,5.87124464 10.9570815,5.472103 11.9484979,5.7167382 Z M3.68240343,4.73819742 C2.90987124,5.89699571 1.5193133,8.40772532 1.53218884,8.42060086 C1.50643777,8.40772532 1.32904708,8.72317597 1.32904708,8.7360515 C0.968532055,8.53004292 0.566523605,8.13733906 0.47639485,7.59656652 C0.128755365,6.83690987 -0.0515021459,5.94849785 0.115879828,5.1888412 C1.31330472,4.63519313 2.20171674,4.96995708 3.68240343,4.73819742 Z M7.57081545,0.386266094 C9.15450644,0.733905579 9.96566524,1.36480687 10.8154506,2.25321888 C9.64377682,2.87124464 8.48497854,3.50214592 7.31330472,4.12017167 C7.32618026,3.54077253 7.36480687,2.92274678 7.40343348,2.30472103 C7.44206009,1.64806867 7.50643777,1.00429185 7.57081545,0.386266094 Z M5.18561755,0.35929423 L5.36909871,0.360515021 C5.39484979,0.360515021 5.53648069,0.373390558 5.5751073,0.373390558 C4.98283262,1.40343348 4.87982833,2.53648069 4.7639485,3.64377682 C4.75107296,3.63090129 4.75107296,3.63090129 4.75107296,3.63090129 C4.08154506,2.90987124 2.96137339,2.13733906 2.06008584,1.64806867 C2.96137339,0.772532189 4.49356223,0.321888412 5.36909871,0.360515021 Z" id="Combined-Shape-Copy" stroke="#000000" stroke-width="0.515021459" fill="#000000" fill-rule="nonzero" opacity="0.2" stroke-linecap="round" stroke-linejoin="round"></path>
                    <path d="M5.93562232,7.00429185 C6.1416309,8.92274678 6.29613734,10.2360515 6.10300429,10.4678112 C5.6731578,10.4678112 4.82832618,10.371471 3.16738197,9.86266094 C3.21888412,9.84978541 4.96995708,8.02145923 5.93562232,7.00429185 Z M11.9484979,5.45922747 C12.1545064,6.72103004 11.5364807,8.58798283 10.416309,9.09012876 C9.9527897,8.20171674 8.96137339,6.30901288 8.36909871,5.44635193 C8.36909871,5.44635193 8.36909871,5.43347639 8.35622318,5.43347639 C9.41201717,5.61373391 10.9570815,5.21459227 11.9484979,5.45922747 Z M3.68240343,4.4806867 C2.90987124,5.63948498 1.5193133,8.15021459 1.53218884,8.16309013 C1.50643777,8.15021459 1.2360515,8.66523605 1.2360515,8.67811159 C0.875536481,8.472103 0.566523605,7.87982833 0.47639485,7.33905579 C0.128755365,6.57939914 -0.0515021459,5.69098712 0.115879828,4.93133047 C1.31330472,4.3776824 2.20171674,4.71244635 3.68240343,4.4806867 Z M7.57081545,0.128755365 C9.15450644,0.47639485 9.96566524,1.10729614 10.8154506,1.99570815 C9.64377682,2.61373391 8.48497854,3.24463519 7.31330472,3.86266094 C7.32618026,3.2832618 7.36480687,2.66523605 7.40343348,2.0472103 C7.44206009,1.39055794 7.50643777,0.746781116 7.57081545,0.128755365 Z M5.18561755,0.1017835 L5.36909871,0.103004292 C5.39484979,0.103004292 5.53648069,0.115879828 5.5751073,0.115879828 C4.98283262,1.14592275 4.87982833,2.27896996 4.7639485,3.38626609 L4.7639485,3.38626609 L4.75488794,3.37720553 C4.75107296,3.37339056 4.75107296,3.37339056 4.75107296,3.37339056 L4.75107296,3.37339056 L4.53736481,3.15587124 C3.85969957,2.5006867 2.87124464,1.83090129 2.06008584,1.39055794 C2.96137339,0.515021459 4.49356223,0.0643776824 5.36909871,0.103004292 Z" id="Combined-Shape" stroke="#FFFFFF" stroke-width="0.5" fill="#FFFFFF" fill-rule="nonzero" stroke-linecap="round" stroke-linejoin="round"></path>
                    <path d="M6.70815451,0.0643776824 C5.31759657,-0.025751073 3.50214592,0.386266094 2.08583691,1.30042918 C0.270386266,2.24034335 -0.128755365,4.4806867 0.0772532189,6.18025751 C0.244635193,7.96995708 1.12017167,8.63948498 2.20171674,9.46351931 C5.35622318,11.639485 11.8841202,10.3261803 12.0643777,5.88412017 C12.0772532,4.7639485 12.0772532,3.51502146 11.3948498,2.45922747 C10.3004292,0.978540773 8.3304721,0.025751073 6.70815451,0.0643776824 Z" id="STROKE_1ec62fd8-1069-4665-91fc-4163af49bff4_1_" stroke="#000000" stroke-width="0.772532189" stroke-linecap="round" stroke-linejoin="round"></path>
                </g>
                <path d="M28.6738197,28.0944206 C29.9098712,26.7424893 31.6480687,26.0472103 33.4892704,25.776824" id="STROKE_5200d716-f085-4e92-bb30-245ec39ad5f0" stroke="#000000" stroke-width="0.772532189" stroke-linecap="round" stroke-linejoin="round"></path>
                <path d="M21.9012876,26.5364807 C23.6523605,26.1244635 25.7639485,26.8712446 27.1416309,27.9785408 C27.1416309,27.9785408 27.1545064,27.9656652 27.167382,27.9785408" id="STROKE_578117c1-1b16-44c8-a59b-b4d0754c9c29" stroke="#000000" stroke-width="0.772532189" stroke-linecap="round" stroke-linejoin="round"></path>
                <path d="M41.7682403,54.3218884 C43.9828326,53.4978541 49.8025751,55.6866953 46.0429185,57.193133" id="STROKE_f04a224e-75ae-4d61-aa57-76433a44e714" stroke="#000000" stroke-width="0.772532189" stroke-linecap="round" stroke-linejoin="round"></path>
                <path d="M16.0429185,54.3991416 C12.8626609,53.1630901 8.22746781,56.3562232 11.9742489,57.7725322" id="STROKE_2bbbeda9-c4bd-4b47-a5b7-b230b26d49b5" stroke="#000000" stroke-width="0.772532189" stroke-linecap="round" stroke-linejoin="round"></path>
                <path d="M11.0858369,55.3519313 C9.57939914,51.6824034 14.6652361,51.7854077 16.248927,52.1716738 C17.6909871,52.5193133 20.472103,53.7038627 22.2103004,54.3476395 C19.751073,48.4763948 19.583691,50.7424893 23.4463519,46.4806867 L24.193133,45.6180258 C21.2317597,44.5879828 23.3433476,45.5407725 21.8626609,46.5450644 C18.9656652,48.167382 15.5793991,43.3776824 19.9313305,43.1459227 C19.944206,43.1330472 18.3862661,41.4334764 17.9613734,40.5193133 C16.8283262,43.4034335 12.1416309,41.1373391 13.9699571,38.9356223 C15.5922747,36.9785408 16.4678112,40.1330472 16.9055794,35.6781116 C17.0343348,34.4034335 17.27897,32.9484979 15.6695279,32.9613734 C11.4978541,33 6.86266094,29.5493562 4.54506438,26.0729614 C3.29613734,20.9742489 7.0944206,15.2961373 6.93991416,10.1716738 C6.18025751,7.7639485 2.72961373,9.63090129 0.927038627,8.92274678 C-0.527896996,8.472103 -0.0386266094,6.87553648 1.73819742,6.65665236 C3.32188841,6.45064378 4.7639485,7.93133047 6.4248927,7.50643777 C6.39914163,5.7167382 2.31759657,3.87553648 3.74678112,2.34334764 C5.56223176,0.399141631 7.36480687,4.80257511 8.03433476,7.39055794 C8.44635193,8.98712446 7.73819742,3.03862661 8.56223176,1.24892704 C9.72103004,-1.26180258 11.7167382,0.785407725 11.1502146,3.29613734 C10.6866953,5.3304721 9.97854077,7.93133047 10.0815451,9.91416309 C10.9055794,10.0429185 11.7682403,9.41201717 12.3090129,8.84549356 C12.7467811,8.21459227 12.4377682,7.46781116 12.6566524,6.73390558 C13.4935622,4.08154506 17.4463519,9.72103004 13.2360515,10.6866953 C12.3090129,10.9055794 10.5193133,11.5236052 9.87553648,12.1287554 C7.45493562,15.6051502 6.46351931,20.5107296 6.57939914,24.695279 C8.90987124,28.6738197 14.1373391,32.1888412 18.6566524,30.360515 C18.5922747,29.7553648 18.4377682,29.1502146 18.0386266,28.7253219 C14.4978541,32.0858369 12.4635193,25.9828326 17.2145923,26.304721 C16.7124464,25.0944206 16.0300429,23.7811159 15.9270386,22.416309 C15.7339056,22.0429185 13.944206,24 12.3733906,22.6094421 C10.248927,21.0901288 12.8755365,17.0600858 15.2188841,18.6309013 C15.2446352,18.6437768 15.7854077,16.8154506 16.223176,15.9914163 C10.1201717,16.6738197 14.7296137,8.89699571 17.8841202,13.5064378 C18.6566524,12.3218884 20.1888412,11.5107296 20.9613734,10.8025751 C16.223176,7.35193133 23.9742489,5.21459227 22.6866953,10.3004292 C23.6266094,10.248927 24.0772532,10.1201717 24.8111588,9.78540773 L24.8111588,9.77253219 C21.1030043,7.40343348 27.5793991,4.66094421 26.8583691,9.30901288 C26.8583691,9.61802575 26.7296137,9.68240343 27.0386266,9.65665236 C27.7725322,9.55364807 28.8283262,10.1459227 29.2532189,9.2832618 C29.111588,8.48497854 27.4763948,8.03433476 28.0686695,6.96566524 C30.0386266,4.69957082 32.639485,8.45922747 30.3218884,9.97854077 C30.3090129,9.97854077 30.2961373,9.99141631 30.2832618,10.0042918 C31.3648069,10.248927 32.6652361,9.87553648 33.5150215,10.7124464 C31.9957082,7.5193133 37.1072961,7.04291845 38.2918455,9.34763948 C38.9098712,11.0987124 37.5708155,12.7081545 35.8583691,12.9527897 C36.3862661,13.7381974 37.1587983,14.4206009 37.5708155,15.3218884 C41.4978541,10.1072961 44.7553648,18.6309013 38.7038627,18.1287554 C38.7553648,18.8369099 38.8841202,19.4420601 39.0257511,20.3948498 C43.7639485,16.9313305 45.7081545,21.4248927 43.6223176,22.5965665 C41.0472103,23.806867 39.0128755,20.472103 38.6137339,25.2103004 C38.9871245,25.1459227 39.8626609,24.193133 40.7639485,24.2446352 C42.6566524,24.3347639 43.1845494,26.0729614 41.3948498,27.0772532 C39.9270386,27.9656652 37.2618026,25.6738197 37.3519313,28.3776824 C41.0472103,29.1502146 45.193133,28.0944206 48.0643777,25.5450644 C48.0901288,20.7424893 46.3519313,15.3991416 44.0987124,11.2660944 C41.0858369,12.1158798 39.9527897,7.80257511 42.2446352,7.27467811 C43.223176,7.24892704 43.3133047,8.61373391 44.0343348,8.92274678 C44.3690987,7.00429185 44.0214592,4.36480687 45.4120172,2.70386266 C46.1716738,1.95708155 47.0600858,2.36909871 47.0858369,3.19313305 C47.27897,4.46781116 46.0944206,5.94849785 46.2875536,7.26180258 C48,6.527897 48.888412,1.15879828 51.2060086,2.8583691 C52.7639485,3.99141631 48.6824034,6.41201717 48.2703863,7.96995708 C49.4935622,7.49356223 50.9356223,6 52.3776824,6.18025751 C53.9227468,6.36051502 53.5236052,7.98283262 52.8025751,8.42060086 C51.2317597,9.37339056 48.4763948,9.15450644 46.6738197,10.9828326 C48.2703863,15.8755365 50.2017167,21.3733906 49.583691,26.6781116 C48.9012876,27.8626609 47.0214592,28.5193133 45.8240343,29.0858369 C43.9313305,30.193133 41.6652361,30.3862661 39.5536481,30.5407725 C38.5493562,30.6051502 37.583691,30.8369099 38.0085837,31.7639485 C38.5751073,33.5536481 38.9613734,32.4077253 40.7124464,32.9227468 C42.2188841,33.3090129 42.4635193,35.3175966 41.3175966,36.2446352 C40.7124464,36.7339056 39.7982833,36.2446352 39.1287554,36.3090129 C39.2575107,37.4806867 39.4120172,38.6523605 38.7424893,39.6824034 C45.3862661,41.3948498 37.5321888,46.3261803 36.7081545,42.4248927 C36.6824034,42.2832618 36.1545064,42.7081545 35.2660944,43.223176 C34.3905579,43.8025751 32.5107296,45.0257511 32.5622318,45.0257511 C37.7896996,49.3905579 35.4849785,48.5150215 34.8540773,54.5793991 C36.6566524,54.0643777 38.7167382,52.8412017 40.6223176,52.4034335 C42.3862661,52.0042918 48.0128755,51.4635193 45.7725322,54.695279" id="STROKE_cc35a933-2b44-4d3a-85c0-a5995e1b8d11_1_" stroke="#000000" stroke-width="0.772532189" stroke-linecap="round" stroke-linejoin="round"></path>
                <path d="M41.2532189,55.4678112 C43.3519313,55.6480687 44.4334764,55.7124464 45.7725322,56.832618 C46.3004292,57.2703863 46.3004292,58.5193133 45.3862661,58.3905579 C41.5622318,56.4978541 36.9141631,57.2060086 32.8197425,57.5922747 L32.8197425,57.5922747 L32.8197425,57.5793991 L32.8197425,57.5793991 L32.806867,57.5922747 C32.6008584,57.2832618 32.2660944,56.1502146 32.3819742,55.0429185 C33.0128755,49.8669528 35.6909871,49.944206 30.4248927,46.055794 C29.4206009,46.6351931 27.7854077,46.6223176 26.8197425,46.248927 L26.3690987,46.1072961 C22.4678112,50.8454936 22.7896996,48.5536481 24.888412,54.1802575 C25.3905579,55.223176 25.583691,57.1545064 24.888412,58.1716738 C21.1287554,57 16.944206,57.2446352 13.416309,59.0343348 C10.9184549,59.7811159 11.3433476,56.3819742 14.7553648,56.6008584" id="STROKE_2f93cfd1-26f4-45cd-8bb7-24bc96d88c4c" stroke="#000000" stroke-width="0.772532189" stroke-linecap="round" stroke-linejoin="round"></path>
            </g>
            <g id="eye" transform="translate(21.888412, 26.394850)">
                <path d="M4.85407725,4.69957082 C6.63090129,2.97424893 3.60515021,0.502145923 1.98283262,2.12446352 C0.154506438,3.8111588 3.27038627,6.29613734 4.85407725,4.69957082 Z" id="STROKE_afe11828-9ab9-45eb-93a6-81a24b87bab5" stroke="#000000" stroke-width="0.643776824" fill="#FFFFFF" stroke-linecap="round" stroke-linejoin="round"></path>
                <g id="Group" transform="translate(3.090129, 2.703863)" fill-rule="nonzero">
                    <circle id="Oval" fill="#000000" cx="0.965665236" cy="0.862660944" r="1"></circle>
                    <ellipse id="Oval" fill="#FFFFFF" cx="0.515021459" cy="0.515021459" rx="1" ry="1"></ellipse>
                </g>
                <path d="M0.0128755365,0.141630901 C1.7639485,-0.270386266 3.87553648,0.47639485 5.25321888,1.58369099 C5.25321888,1.58369099 5.26609442,1.57081545 5.27896996,1.58369099" id="STROKE_578117c1-1b16-44c8-a59b-b4d0754c9c29-Copy" stroke="#000000" stroke-width="0.772532189" stroke-linecap="round" stroke-linejoin="round"></path>
            </g>
            <g id="eye" transform="translate(28.583691, 25.751073)">
                <path d="M3.86266094,3.38626609 C2.83261803,1.45493562 0.025751073,2.22746781 0.785407725,4.58369099 C1.64806867,6.20600858 4.53218884,5.31759657 3.86266094,3.38626609 Z" id="STROKE_88ab0580-544f-451c-a036-90478ceb67b5" stroke="#000000" stroke-width="0.643776824" fill="#FFFFFF" stroke-linecap="round" stroke-linejoin="round"></path>
                <g id="Group" transform="translate(1.673820, 3.218884)" fill-rule="nonzero">
                    <circle id="Oval" fill="#000000" cx="1.00429185" cy="0.824034335" r="1"></circle>
                    <ellipse id="Oval" fill="#FFFFFF" cx="0.553648069" cy="0.489270386" rx="1" ry="1"></ellipse>
                </g>
                <path d="M0.0901287554,2.34334764 C1.32618026,0.991416309 3.06437768,0.296137339 4.9055794,0.025751073" id="STROKE_5200d716-f085-4e92-bb30-245ec39ad5f0-Copy" stroke="#000000" stroke-width="0.772532189" stroke-linecap="round" stroke-linejoin="round"></path>
            </g>
        </g>
        <rect id="Rectangle" stroke="#222222" stroke-width="0.03" x="0.015" y="0.015" width="59.97" height="59.97"></rect>
    </g>
</svg>