<?xml version="1.0" encoding="UTF-8"?>
<svg width="30px" height="30px" viewBox="0 0 30 30" version="1.1" xmlns="http://www.w3.org/2000/svg" xmlns:xlink="http://www.w3.org/1999/xlink">
    <!-- Generator: Sketch 64 (93537) - https://sketch.com -->
    <title>svg/obstacleMonster4-1x1</title>
    <desc>Created with Sketch.</desc>
    <g id="obstacleMonster4-1x1" stroke="none" stroke-width="1" fill="none" fill-rule="evenodd">
        <rect fill="#8779CD" x="0" y="0" width="30" height="30"></rect>
        <g id="Monster_4" transform="translate(-35.000000, -44.000000)">
            <g id="Virus_4" stroke-linecap="round" stroke-linejoin="round">
                <g id="mouth-2" transform="translate(41.029062, 58.661864)">
                    <path d="M13.3917772,12.4416415 C18.5031268,11.1536682 22.1342665,2.50584751 13.7387014,0.573887572 C8.88176291,-0.484090492 1.3650724,1.35587136 0.185530197,6.80675834 C-1.50283413,14.2356043 8.76612152,13.913611 13.3917772,12.4416415 Z" id="STROKE_007ac5f2-e433-41b7-9068-c67d1a431b3b" stroke="#BB3E45" stroke-width="0.5" fill="#BB3E45" fill-rule="nonzero"></path>
                    <path d="M9.06678914,8.57772162 C9.13617397,8.57772162 12.628544,12.6946363 12.628544,12.6946363 C11.4490018,13.2466248 8.71986496,13.8676119 6.82334612,12.9246315 C7.54032276,11.6596577 8.44232562,9.95769301 9.06678914,8.57772162 Z M5.9907281,7.5657426 C4.94995557,8.8537159 3.90918303,10.8086754 2.8684105,12.2806448 C2.29020354,12.1426477 1.20317445,11.5216606 0.833121995,10.7166773 C0.231786754,9.40570445 0.00050396945,8.34772639 0.463069539,7.70373974 C2.2208187,7.42774546 4.3717486,7.38174642 5.9907281,7.5657426 Z M18.0868178,4.71380173 C18.8500509,7.22074976 18.7344095,8.99171304 16.6066079,10.5326811 C15.8433747,9.10671065 13.7618297,8.50872305 12.9292116,7.40474594 C14.8026022,6.34676788 16.1902989,5.70278123 18.0868178,4.71380173 Z M5.75944531,1.35587136 C7.03150063,0.297893294 8.51171045,0.274893771 10.5007424,0.78088328 C10.3157162,3.17283369 9.20555881,4.89779792 8.83550635,7.08275262 C7.58657932,6.00177503 5.25062319,3.26483178 5.75944531,1.35587136 Z M11.8884391,0.757883757 C11.8884391,0.71188471 15.8896313,2.34485085 15.8896313,2.32185133 C13.7387014,4.16181318 12.9523399,5.01279554 12.0965936,5.54178457 C11.8190543,5.05879458 11.7496694,4.20781223 11.7727977,1.53986754 C11.7727977,1.14887565 11.8653108,0.941879942 11.8884391,0.757883757 Z" id="Combined-Shape-Copy-2" stroke="#000000" stroke-width="0.515021459" fill="#000000" fill-rule="nonzero" opacity="0.17"></path>
                    <path d="M9.06678914,8.11773116 C9.13617397,8.11773116 12.628544,12.2346458 12.628544,12.2346458 C11.4490018,12.7866344 8.71986496,13.4076215 6.82334612,12.464641 C7.54032276,11.1996673 8.44232562,9.49770255 9.06678914,8.11773116 Z M5.9907281,7.10575214 C4.94995557,8.39372544 3.90918303,10.3486849 2.8684105,11.8206544 C2.29020354,11.6826572 1.20317445,11.0616701 0.833121995,10.2566868 C0.231786754,8.94571399 0.00050396945,7.88773593 0.463069539,7.24374928 C2.2208187,6.967755 4.3717486,6.92175596 5.9907281,7.10575214 Z M18.0868178,4.25381127 C18.8500509,6.76075929 18.7344095,8.53172257 16.6066079,10.0726906 C15.8433747,8.64672019 13.7618297,8.04873259 12.9292116,6.94475548 C14.8026022,5.88677741 16.1902989,5.24279077 18.0868178,4.25381127 Z M5.75944531,0.895880896 C7.03150063,-0.162097168 8.51171045,-0.185096692 10.5007424,0.320892817 C10.3157162,2.71284322 9.20555881,4.43780746 8.83550635,6.62276215 C7.58657932,5.54178457 5.25062319,2.80484132 5.75944531,0.895880896 Z M11.8884391,0.297893294 C11.8884391,0.251894248 15.8896313,1.88486039 15.8896313,1.86186087 C13.7387014,3.70182272 12.9523399,4.55280507 12.0965936,5.0817941 C11.8190543,4.59880412 11.7496694,3.74782176 11.7727977,1.07987708 C11.7727977,0.688885187 11.8653108,0.481889479 11.8884391,0.297893294 Z" id="Combined-Shape" stroke="#FFFFFF" stroke-width="0.5" fill="#FFFFFF" fill-rule="nonzero"></path>
                    <path d="M16.282812,10.8086754 C23.6607329,4.64480317 13.2298793,-1.63406665 6.49955023,0.389891387 C1.57322691,1.88486039 -3.12181363,9.52070207 2.77589739,12.2346458 C7.07775719,13.6146172 12.4897744,13.4996196 16.282812,10.8086754 Z" id="STROKE_d01d07f4-531f-4bfd-b3a9-49737932e39a_1_" stroke="#000000"></path>
                </g>
            </g>
            <g id="eye" transform="translate(40.000000, 48.000000)">
                <path d="M8.09012876,7.93052575 C11.0515021,5.01904506 6.00858369,0.847371245 3.30472103,3.58503219 C0.25751073,6.43133047 5.45064378,10.6247318 8.09012876,7.93052575 Z" id="STROKE_afe11828-9ab9-45eb-93a6-81a24b87bab5" stroke="#000000" stroke-width="0.643776824" fill="#FFFFFF" stroke-linecap="round" stroke-linejoin="round"></path>
                <g id="Group" transform="translate(5.150215, 4.562768)" fill-rule="nonzero">
                    <ellipse id="Oval" fill="#000000" cx="1.60944206" cy="1.45574034" rx="1.24463519" ry="1.26019313"></ellipse>
                    <ellipse id="Oval" fill="#FFFFFF" cx="0.858369099" cy="0.869098712" rx="1" ry="1"></ellipse>
                </g>
                <path d="M0.0214592275,0.239002146 C2.93991416,-0.456276824 6.45922747,0.803916309 8.75536481,2.67247854 C8.75536481,2.67247854 8.77682403,2.65075107 8.79828326,2.67247854" id="STROKE_578117c1-1b16-44c8-a59b-b4d0754c9c29-Copy" stroke="#000000" stroke-width="0.772532189" stroke-linecap="round" stroke-linejoin="round"></path>
            </g>
            <g id="eye" transform="translate(51.000000, 47.000000)">
                <path d="M6.9527897,5.64377682 C5.09871245,2.4248927 0.0463519313,3.71244635 1.41373391,7.63948498 C2.96652361,10.3433476 8.15793991,8.86266094 6.9527897,5.64377682 Z" id="STROKE_88ab0580-544f-451c-a036-90478ceb67b5" stroke="#000000" stroke-width="0.643776824" fill="#FFFFFF" stroke-linecap="round" stroke-linejoin="round"></path>
                <g id="Group" transform="translate(3.012876, 5.364807)" fill-rule="nonzero">
                    <ellipse id="Oval" fill="#000000" cx="1.80772532" cy="1.37339056" rx="1.34420601" ry="1.24463519"></ellipse>
                    <ellipse id="Oval" fill="#FFFFFF" cx="0.996566524" cy="0.815450644" rx="1" ry="1"></ellipse>
                </g>
                <path d="M0.16223176,3.9055794 C2.38712446,1.65236052 5.51587983,0.493562232 8.83004292,0.0429184549" id="STROKE_5200d716-f085-4e92-bb30-245ec39ad5f0-Copy" stroke="#000000" stroke-width="0.772532189" stroke-linecap="round" stroke-linejoin="round"></path>
            </g>
        </g>
        <rect id="Rectangle" stroke="#222222" stroke-width="0.03" x="0.015" y="0.015" width="29.97" height="29.97"></rect>
    </g>
</svg>