<?xml version="1.0" encoding="UTF-8"?>
<svg width="43px" height="31px" viewBox="0 0 43 31" version="1.1" xmlns="http://www.w3.org/2000/svg" xmlns:xlink="http://www.w3.org/1999/xlink">
    <!-- Generator: Sketch 64 (93537) - https://sketch.com -->
    <title>MAP/10Grey</title>
    <desc>Created with Sketch.</desc>
    <g id="10Grey" stroke="none" stroke-width="1" fill="none" fill-rule="evenodd">
        <path d="M29.2521563,2.3515625 C30.4840488,2.3515625 31.6343435,2.54195208 32.703897,2.91791632 C33.7661807,3.29132516 34.7413292,3.80674283 35.6297504,4.46340198 C36.512575,5.11592449 37.296558,5.88650192 37.9810917,6.77575596 C38.6534297,7.649167 39.2221437,8.58852494 39.687127,9.59389437 C40.1505984,10.5959946 40.5047154,11.648125 40.7489815,12.7504538 C40.9935683,13.8542302 41.1154375,14.9517656 41.1154375,16.0429688 C41.1154375,17.1475274 40.9932164,18.2458336 40.7484536,19.3378521 C40.5042819,20.4272337 40.1504234,21.4727432 39.687127,22.474465 C39.2215746,23.481065 38.6521141,24.4183935 37.9789561,25.2865787 C37.2950274,26.168655 36.5118023,26.9354279 35.6297504,27.5873793 C34.7413292,28.2440384 33.7661807,28.7594561 32.703897,29.1328649 C31.6343435,29.5088292 30.4840488,29.6992188 29.2521563,29.6992188 C28.0089246,29.6992188 26.8504473,29.508958 25.7758281,29.1334887 C24.70538,28.7594767 23.7287871,28.2430102 22.8453999,27.5853059 C21.9718522,26.9349273 21.1904226,26.1700933 20.5017606,25.2901364 C19.8214561,24.4208583 19.2481664,23.4823292 18.7820292,22.474465 C18.3186442,21.4725514 17.964656,20.4237293 17.7204365,19.3278725 C17.4757159,18.2297672 17.3537188,17.134773 17.3537188,16.0429688 C17.3537188,14.9517656 17.475588,13.8542302 17.7201748,12.7504538 C17.9644408,11.648125 18.3185578,10.5959946 18.7820292,9.59389437 C19.2475958,8.58726386 19.8201329,7.64670406 20.4996076,6.77219495 C21.1888855,5.88506872 21.971078,5.11643037 22.8453999,4.46547535 C23.7290641,3.80756478 24.7091312,3.29081283 25.7863791,2.91667881 C26.8672097,2.54130052 28.0222298,2.3515625 29.2521563,2.3515625 Z M29.076375,12.1210938 C28.6820214,12.1210938 28.3399298,12.2256255 28.0583479,12.4566671 C27.6991457,12.7513971 27.4039278,13.1165296 27.1692076,13.5491511 C26.9141586,14.0192414 26.7272589,14.5245447 26.6072496,15.0645867 C26.4843332,15.6177105 26.420125,16.119441 26.420125,16.5703125 C26.420125,17.021184 26.4843332,17.5229145 26.6072496,18.0760383 C26.7272589,18.6160803 26.9141586,19.1213836 27.1692076,19.5914739 C27.4039278,20.0240954 27.6991457,20.3892279 28.0583479,20.6839579 C28.3399298,20.9149995 28.6820214,21.0195312 29.076375,21.0195312 C29.4614988,21.0195312 29.7971286,20.9134516 30.076824,20.6839579 C30.4336501,20.3911775 30.7246719,20.0285076 30.9532682,19.5987464 C31.2045148,19.1264028 31.38976,18.6186671 31.5103442,18.0760383 C31.6332606,17.5229145 31.6974688,17.021184 31.6974688,16.5703125 C31.6974688,16.119441 31.6332606,15.6177105 31.5103442,15.0645867 C31.38976,14.5219579 31.2045148,14.0142222 30.9532682,13.5418786 C30.7246719,13.1121174 30.4336501,12.7494475 30.076824,12.4566671 C29.7971286,12.2271734 29.4614988,12.1210938 29.076375,12.1210938 Z M8.41740312,1.98523871 L1.76546785,6.9639878 L5.206684,14.8099606 L7.39980603,13.3021892 L7.00281763,28.9501487 L16.6496144,29.3926623 L17.7507278,2.39639838 L8.41740312,1.98523871 Z" id="10" stroke="#595959" stroke-width="2" fill="#F0EEE9" fill-rule="nonzero"></path>
    </g>
</svg>