<?xml version="1.0" encoding="UTF-8"?>
<svg width="23px" height="31px" viewBox="0 0 23 31" version="1.1" xmlns="http://www.w3.org/2000/svg" xmlns:xlink="http://www.w3.org/1999/xlink">
    <!-- Generator: Sketch 64 (93537) - https://sketch.com -->
    <title>MAP/2Blue</title>
    <desc>Created with Sketch.</desc>
    <g id="2Blue" stroke="none" stroke-width="1" fill="none" fill-rule="evenodd">
        <path d="M17.0353411,20 C17.7720099,19.3416795 18.431032,18.6236193 19.01267,17.846061 C19.6222826,17.0311052 20.1129414,16.1582757 20.4851173,15.227836 C20.8720445,14.2605181 21.0664062,13.2432833 21.0664062,12.1757812 C21.0664062,10.6523324 20.7830771,9.23287222 20.2216011,7.91630765 C19.6591348,6.59742125 18.8884151,5.45739851 17.9123381,4.49424968 C16.9372969,3.53212293 15.791922,2.77528002 14.4744591,2.22633714 C13.1602655,1.67875646 11.7433595,1.40234375 10.2226562,1.40234375 C9.56026456,1.40234375 8.88535983,1.44590603 8.19796447,1.53339271 C7.50099712,1.62209765 6.81670773,1.76468382 6.14508592,1.96110151 C5.46055708,2.16129391 4.80839572,2.42301325 4.18845621,2.74589842 C3.54979299,3.07853551 2.97980939,3.48491462 2.05637707,4.38863301 L4.13659633,13.6550643 L5.42648054,12.303757 C5.62170335,12.0992379 5.8428303,11.9160722 6.08914747,11.7534099 C6.34349322,11.5854458 6.61471353,11.4440382 6.90264068,11.3288673 C7.19972947,11.2100318 7.50173021,11.1182833 7.80873047,11.0539123 C8.10248538,10.9923185 8.39146303,10.9609375 8.67578125,10.9609375 C8.99479137,10.9609375 9.29425305,11.0011004 9.57356289,11.0853367 C9.81277872,11.1574811 10.0248,11.2655297 10.207298,11.4138093 C10.3714868,11.5472127 10.4982505,11.7141235 10.5904883,11.912264 C10.6920008,12.130328 10.734375,12.3835785 10.734375,12.6679688 C10.734375,13.3097092 10.6276074,13.9083764 10.408712,14.4629116 C10.1812145,15.0392385 9.87263425,15.5724684 9.48337507,16.0628338 C9.07641168,16.575502 8.60562021,17.0481016 8.07184524,17.4814634 C7.51968523,17.9297518 6.93470463,18.3342756 6.31694299,18.6950921 C5.68913519,19.0617763 5.05025342,19.3868699 4.40021927,19.6702181 C3.74506343,19.9557988 3.12016195,20.1994335 1.83984375,20.6424669 L1.83984375,28.7163962 L20.2350474,29.3452921 L20.7741989,20 L17.0353414,20 Z" id="2" stroke="#000000" stroke-width="2" fill="#0CB2C0" fill-rule="nonzero"></path>
    </g>
</svg>