<?xml version="1.0" encoding="UTF-8"?>
<svg width="23px" height="33px" viewBox="0 0 23 33" version="1.1" xmlns="http://www.w3.org/2000/svg" xmlns:xlink="http://www.w3.org/1999/xlink">
    <!-- Generator: Sketch 64 (93537) - https://sketch.com -->
    <title>MAP/3Blue</title>
    <desc>Created with Sketch.</desc>
    <g id="3Blue" stroke="none" stroke-width="1" fill="none" fill-rule="evenodd">
        <path d="M6.66520217,21.1641101 L7.89727496,20.2251379 C8.07029204,20.1737004 8.25036834,20.134179 8.43740295,20.1061239 C8.64759547,20.074595 8.85515621,20.0509049 9.06009494,20.0351404 C9.25884774,20.0198517 9.42956087,20.0117188 9.57226562,20.0117188 C9.7423836,20.0117188 9.954088,20.0500601 10.2086362,20.1136972 C10.4940816,20.1850585 10.7699917,20.2850152 11.0364039,20.413464 C11.2647925,20.5235799 11.4623612,20.6538085 11.2520052,21.5098697 C11.0595213,21.6061116 10.8442984,21.6697245 10.6079911,21.7057713 C10.3138652,21.750638 10.0272351,21.7734375 9.74804688,21.7734375 C9.25265521,21.7734375 8.73934363,21.7156483 8.20790407,21.602137 C7.68897373,21.4912975 7.17475541,21.3452344 6.66520252,21.1641098 Z M6.08093107,20.9423443 C5.69053988,20.7852857 5.31002273,20.6141258 4.9394011,20.428815 C4.28083803,20.0995335 3.70398605,19.746 2.16093807,18.6827491 L1.27768424,28.0266448 C2.01514914,28.5291497 2.83078067,28.9904609 3.72518921,29.4094631 C4.41361628,29.7319695 5.12373479,30.0111041 5.85557801,30.2467824 C6.58869453,30.4828708 7.32803905,30.66919 8.07357838,30.8058722 C8.83835393,30.946081 9.58404291,31.015625 10.3105469,31.015625 C11.8912191,31.015625 13.3427315,30.8152078 14.6659806,30.4201145 C16.0432868,30.0088809 17.2256387,29.3785219 18.2173783,28.5368482 C19.2219224,27.6843075 20.0080419,26.6155786 20.5700163,25.3263432 C21.1171807,24.0710838 21.4003906,22.5887969 21.4003906,20.875 C21.4003906,20.3380751 21.3622479,19.7915434 21.285543,19.2354329 C21.2034405,18.64019 21.052291,18.0759344 20.8333717,17.5423186 C20.605996,16.9880903 20.3003205,16.4836952 19.9166352,16.0289572 C19.7927299,15.8821064 19.6586436,15.7439152 19.578979,15.5352458 C19.8909268,15.1487019 20.1623063,14.7317142 20.3928808,14.2841285 C20.62263,13.8381447 20.8048964,13.3785815 20.9400396,12.9055805 C21.0837702,12.4025234 21.1542969,11.9065322 21.1542969,11.4179688 C21.1542969,9.86451272 20.8495542,8.49819658 20.2577084,7.31450515 C19.66478,6.12864837 18.8666197,5.13148318 17.8653792,4.32126886 C16.8800795,3.52395395 15.7434408,2.91897452 14.4531863,2.51050198 C13.1911483,2.11096231 11.8689714,1.91015625 10.4863281,1.91015625 C8.98502436,1.91015625 7.49294979,2.158248 6.01045472,2.65661868 C4.51902983,3.1579913 3.18776439,3.8814661 1.52940415,5.22372789 L3.59895383,14.1917765 C4.41128818,12.8970159 5.51179881,12.0089586 6.89357352,11.5160963 C7.70326521,11.2272891 8.525753,11.0820312 9.36132812,11.0820312 C9.61624512,11.0820312 9.90167805,11.1033405 10.2177318,11.1441216 C10.489005,11.1791246 10.7410532,11.2432994 10.9730676,11.3396073 C11.1366783,11.4075211 11.2758283,11.5026517 11.4550781,11.9101562 C11.4550781,12.1849721 11.408937,12.421381 11.2650594,12.5989321 C11.0837528,12.8226721 10.8570201,12.9966186 10.5872526,13.1237947 C10.2600101,13.2780662 9.90435571,13.3842005 9.52115332,13.4449521 C9.09699881,13.5121961 8.70393075,13.546875 8.34179688,13.546875 C8.08601388,13.546875 7.85125978,13.5332223 6.23950319,13.3837396 L6.08093105,20.9423454 Z" id="3" stroke="#000000" stroke-width="2" fill="#0CB2C0" fill-rule="nonzero"></path>
    </g>
</svg>