<?xml version="1.0" encoding="UTF-8"?>
<svg width="24px" height="31px" viewBox="0 0 24 31" version="1.1" xmlns="http://www.w3.org/2000/svg" xmlns:xlink="http://www.w3.org/1999/xlink">
    <!-- Generator: Sketch 64 (93537) - https://sketch.com -->
    <title>MAP/5Grey</title>
    <desc>Created with Sketch.</desc>
    <g id="5Grey" stroke="none" stroke-width="1" fill="none" fill-rule="evenodd">
        <path d="M3.44086008,18.7691975 C3.74795783,18.6422121 4.0597895,18.5354868 4.37639866,18.4491388 C4.83451457,18.3241981 5.30567281,18.2410915 5.78980656,18.1994456 C6.30569177,18.1550683 6.81325436,18.1328125 7.3125,18.1328125 C7.56242826,18.1328125 7.87767702,18.138585 8.25824848,18.1499454 C8.61865276,18.1607037 9.00054298,18.1932971 9.40396909,18.2470873 C9.8084613,18.3010196 10.2102532,18.3765428 10.6093515,18.4736207 C10.9577368,18.5583631 11.2716167,18.6718434 11.5495205,18.8178607 C11.7598174,18.9283556 11.9341228,19.0658734 12.0954944,19.8842649 C11.9094224,20.054501 11.6839362,20.1857718 11.4231167,20.2845671 C11.1098082,20.4032446 10.7821778,20.4835569 10.4404184,20.5262768 C10.0673439,20.5729111 9.7513153,20.5976563 9.4921875,20.5976563 C9.05027897,20.5976563 8.59526207,20.5604044 8.12707226,20.4867566 C7.64285157,20.410587 7.16407282,20.3072087 6.69073369,20.1766324 C6.22115979,20.0470948 5.76505744,19.8906299 5.32246815,19.7071173 C4.88581602,19.5260664 4.47552398,19.328289 3.44086008,18.7691975 Z M3.05872033,18.5617683 C2.95580998,18.5056911 2.8476417,18.4465988 2.73379107,18.3842667 L1.85189547,27.6209628 C2.74458188,27.9939566 3.63181795,28.3341248 4.5135809,28.6415284 C5.17749233,28.8729838 5.84749743,29.0770205 6.52359048,29.2536575 C7.20860876,29.4326262 7.90288159,29.5745802 8.60641436,29.679493 C9.32269942,29.7863074 10.0515444,29.8398438 10.7929688,29.8398438 C12.3324876,29.8398438 13.7777933,29.6440739 15.129412,29.2561093 C16.5272182,28.8548871 17.7418498,28.2433099 18.7768917,27.4282144 C19.8320537,26.5972744 20.6683357,25.5501272 21.2818173,24.2835847 C21.8865346,23.0351359 22.1992188,21.5673518 22.1992188,19.875 C22.1992188,18.6028332 21.971919,17.4547784 21.5282669,16.428419 C21.0795001,15.3902271 20.4615968,14.5041113 19.6781402,13.7675282 C18.8975668,13.0336558 17.9843959,12.4683642 16.9367377,12.0746583 C15.9082043,11.6881394 14.7981212,11.4921875 13.6054688,11.4921875 C13.0376863,11.4921875 12.4699016,11.5268579 11.512015,11.6501383 L11.5595443,10.8041161 L20.4986073,11.3027092 L20.0020663,1.8684312 L3.86342348,2.3067647 L3.05872033,18.5617683 Z" id="5" stroke="#595959" stroke-width="2" fill="#F0EEE9" fill-rule="nonzero"></path>
    </g>
</svg>