<?xml version="1.0" encoding="UTF-8"?>
<svg width="25px" height="32px" viewBox="0 0 25 32" version="1.1" xmlns="http://www.w3.org/2000/svg" xmlns:xlink="http://www.w3.org/1999/xlink">
    <!-- Generator: Sketch 64 (93537) - https://sketch.com -->
    <title>MAP/6Grey</title>
    <desc>Created with Sketch.</desc>
    <g id="6Grey" stroke="none" stroke-width="1" fill="none" fill-rule="evenodd">
        <path d="M14.3251953,1.71875 C14.8543601,1.71875 15.3958348,1.74021277 15.9496139,1.78328447 C16.5164779,1.8273739 17.0833513,1.90604605 17.6502177,2.01941932 C18.2244418,2.13426414 18.7826889,2.28747806 19.3250076,2.47888467 C20.0877385,2.74808382 20.7956524,3.11475642 21.4490782,3.57820788 L21.4490782,3.57820788 L20.7653429,12.5579324 C18.9969179,11.6568421 18.0243994,11.2890116 16.9628321,11.0509631 C16.0710163,10.8509802 15.2035928,10.75 14.3603516,10.75 C13.7820593,10.75 13.2804615,10.8271167 12.8597251,11.0000861 C12.4748039,11.1583315 12.147954,11.3806692 11.8825105,11.6718007 C11.6603989,11.915407 11.4787283,12.198497 11.3343364,12.519108 C11.5829252,12.4289943 11.8356611,12.3462538 12.0925499,12.2708998 C13.0634409,11.9861051 14.0537539,11.84375 15.0634766,11.84375 C16.2105414,11.84375 17.292025,12.0214972 18.3085559,12.3733733 C19.3524518,12.7347219 20.2575675,13.2590177 21.0268371,13.9413264 C21.8032554,14.6299756 22.4192941,15.4660892 22.8717589,16.4520573 C23.3207907,17.4305445 23.5517578,18.5353625 23.5517578,19.7695313 C23.5517578,21.3456227 23.2690938,22.77497 22.7138463,24.059787 C22.1533269,25.3568028 21.3793406,26.463465 20.3953813,27.3822615 C19.4174158,28.2954611 18.2562403,29.0071887 16.9087406,29.5125011 C15.5817926,30.0101066 14.1467467,30.2617188 12.6025391,30.2617188 C11.3229438,30.2617188 10.1703858,30.0828257 9.14326132,29.733991 C8.10391529,29.3810055 7.1766023,28.8892628 6.35965267,28.2618455 C5.54318314,27.6347969 4.84075331,26.8904032 4.25287422,26.0281806 C3.68236992,25.1914409 3.20972711,24.2851599 2.8357176,23.3089317 C2.46622415,22.3444911 2.19323492,21.3238207 2.01787554,20.2466131 C1.84519443,19.1858577 1.75878906,18.1127714 1.75878906,17.0273438 C1.75878906,15.7089528 1.85668878,14.4241572 2.05200407,13.1729186 C2.25030291,11.9025666 2.5578036,10.7099024 2.97297398,9.59451931 C3.39562179,8.45904759 3.94178012,7.41218127 4.61041934,6.45337786 C5.29467034,5.47218776 6.10839543,4.63341364 7.05080714,3.93628717 C7.99003677,3.24151457 9.06658142,2.69572356 10.2826939,2.30322166 C11.4811766,1.91640976 12.8281914,1.71875 14.3251953,1.71875 Z M13.1650391,18.9414063 C12.9494888,18.9414063 12.7379308,18.9786022 12.5301484,19.0517108 C12.3250741,19.1238666 12.1403604,19.2255813 11.9769745,19.3585698 C11.825055,19.4822252 11.7016769,19.6308151 11.606307,19.8038938 C11.5263641,19.9489754 11.4931641,20.1145276 11.606307,20.7722781 C11.698916,20.9403463 11.8183636,21.0832721 11.9659387,21.1999594 C12.1325628,21.3317087 12.3210289,21.4333038 12.5301484,21.5068829 C12.7379308,21.5799915 12.9494888,21.6171875 13.1650391,21.6171875 C13.386224,21.6171875 13.6070915,21.5782077 13.8281177,21.5032166 C14.0429825,21.4303161 14.234114,21.3305682 14.3992957,21.1999594 C14.5468707,21.0832721 14.6663183,20.9403463 14.8720703,20.296875 C14.8720703,20.1145276 14.8388703,19.9489754 14.7589274,19.8038938 C14.6635575,19.6308151 14.5401793,19.4822252 14.3882599,19.3585698 C14.2262578,19.2267076 14.0388525,19.1268764 13.8281177,19.0553771 C13.6070915,18.9803861 13.386224,18.9414063 13.1650391,18.9414063 Z" id="6" stroke="#595959" stroke-width="2" fill="#F0EEE9" fill-rule="nonzero"></path>
    </g>
</svg>