<?xml version="1.0" encoding="UTF-8"?>
<svg width="25px" height="31px" viewBox="0 0 25 31" version="1.1" xmlns="http://www.w3.org/2000/svg" xmlns:xlink="http://www.w3.org/1999/xlink">
    <!-- Generator: Sketch 64 (93537) - https://sketch.com -->
    <title>MAP/8Blue</title>
    <desc>Created with Sketch.</desc>
    <g id="8Blue" stroke="none" stroke-width="1" fill="none" fill-rule="evenodd">
        <path d="M12.4443359,1.859375 C13.22274,1.859375 14.0043661,1.93569011 14.7891666,2.08882191 C15.5730996,2.24178444 16.3282964,2.46502243 17.0548581,2.75819644 C17.7953461,3.05698983 18.4870215,3.4338904 19.130065,3.88856766 C19.7906108,4.35562026 20.3640276,4.89977522 20.8510649,5.52024738 C21.3430711,6.14704984 21.7314061,6.84759824 22.0145109,7.62276594 C22.2988736,8.40137827 22.4443359,9.25067338 22.4443359,10.171875 C22.4443359,11.3447153 22.2221604,12.440283 21.782469,13.4595677 C21.5054782,14.1016827 21.1428083,14.6986277 20.6933598,15.2496564 C21.4534515,15.8185812 22.0301478,16.4861393 22.4327757,17.243463 C22.9960117,18.3028831 23.2880859,19.5414486 23.2880859,20.9648438 C23.2880859,22.0357339 23.1377479,22.993096 22.8470538,23.8387516 C22.5517465,24.6978274 22.1438922,25.4584662 21.6272428,26.1227297 C21.1098617,26.787934 20.4985159,27.3558346 19.7929814,27.8261909 C19.1119352,28.2802218 18.3663455,28.6538717 17.5555163,28.9457702 C16.763415,29.2309267 15.9302263,29.440502 15.0557154,29.5735798 C14.1976907,29.7041487 13.3272359,29.7695313 12.4443359,29.7695313 C11.171536,29.7695313 9.91445268,29.5996042 8.67314009,29.259346 C7.40234437,28.911006 6.2614692,28.3771714 5.24887627,27.6612618 C4.21105666,26.9275167 3.37154905,26.011986 2.73034863,24.9146739 C2.078761,23.7995858 1.74121094,22.4852826 1.74121094,20.9648438 C1.74121094,20.3495003 1.81427152,19.7307334 1.96142831,19.1086616 C2.10832511,18.4876887 2.32221186,17.8968521 2.60264312,17.3359895 C2.89262232,16.7560311 3.2586461,16.2313823 3.70051094,15.7619009 C3.85681997,15.5958226 4.0216333,15.4390839 4.19479726,15.2915763 C3.72924702,14.7290227 3.35509603,14.1180459 3.0710466,13.4595677 C2.63135518,12.440283 2.40917969,11.3447153 2.40917969,10.171875 C2.40917969,8.77029033 2.72833528,7.54585761 3.3466214,6.49273291 C3.95151772,5.46241501 4.74237631,4.59810996 5.71954306,3.90013372 C6.67115028,3.22041427 7.74184998,2.70741711 8.93317117,2.36426481 C10.1035594,2.02714211 11.2740209,1.859375 12.4443359,1.859375 Z M12.4443359,18.625 C12.2005756,18.625 11.9590661,18.6666304 11.7194768,18.7478471 C11.4765314,18.8302015 11.2557384,18.9446708 11.0580078,19.0929688 C10.8918657,19.2175753 10.7588672,19.3717993 10.6585122,19.5552067 C10.5665754,19.7232292 10.5263672,19.9128865 10.5263672,20.1210938 C10.5263672,20.3160656 10.5658701,20.4944298 10.6546139,20.6535567 C10.7558466,20.8350775 10.8904896,20.9884239 11.0580078,21.1140625 C11.2557384,21.2623604 11.4765314,21.3768297 11.7194768,21.4591841 C11.9590661,21.5404008 12.2005756,21.5820313 12.4443359,21.5820313 C12.6880963,21.5820313 12.9296058,21.5404008 13.1691951,21.4591841 C13.4038585,21.3796372 13.6136585,21.2698682 13.7967777,21.1265575 C13.9614793,20.9976605 14.0951195,20.839649 14.1989018,20.6535567 C14.2876456,20.4944298 14.3271484,20.3160656 14.3271484,20.1210938 C14.3271484,19.9128865 14.2869402,19.7232292 14.1950034,19.5552067 C14.0921225,19.367183 13.9601199,19.2083068 13.7967777,19.0804738 C13.6136585,18.9371631 13.4038585,18.827394 13.1691951,18.7478471 C12.9296058,18.6666304 12.6880963,18.625 12.4443359,18.625 Z M12.4443359,10.328125 C12.1881359,10.328125 11.9361793,10.3699625 11.6882981,10.4525895 C11.4497352,10.5321105 11.2344956,10.646556 11.0435545,10.7977177 C10.8691256,10.9358073 10.7287754,11.100825 10.623356,11.293488 C10.5314192,11.4615105 10.4912109,11.6511677 10.4912109,11.859375 C10.4912109,12.0675823 10.5314192,12.2572395 10.623356,12.425262 C10.723711,12.6086694 10.8567095,12.7628934 11.0228516,12.8875 C11.219891,13.0352796 11.4421448,13.1489531 11.6882981,13.2310042 C11.9361793,13.3136313 12.1881359,13.3554688 12.4443359,13.3554688 C12.6880963,13.3554688 12.9296058,13.3138383 13.1691951,13.2326216 C13.4121405,13.1502672 13.6329335,13.0357979 13.8306641,12.8875 C13.9968061,12.7628934 14.1298046,12.6086694 14.2301596,12.425262 C14.3220965,12.2572395 14.3623047,12.0675823 14.3623047,11.859375 C14.3623047,11.6511677 14.3220965,11.4615105 14.2301596,11.293488 C14.1247403,11.100825 13.9843901,10.9358073 13.8099611,10.7977177 C13.6183803,10.6460496 13.4046222,10.5307779 13.1691951,10.4509721 C12.9296058,10.3697554 12.6880963,10.328125 12.4443359,10.328125 Z" id="8" stroke="#000000" stroke-width="2" fill="#0CB2C0" fill-rule="nonzero"></path>
    </g>
</svg>