<?xml version="1.0" encoding="UTF-8"?>
<svg width="24px" height="30px" viewBox="0 0 24 30" version="1.1" xmlns="http://www.w3.org/2000/svg" xmlns:xlink="http://www.w3.org/1999/xlink">
    <!-- Generator: Sketch 64 (93537) - https://sketch.com -->
    <title>MAP/9Grey</title>
    <desc>Created with Sketch.</desc>
    <g id="9Grey" stroke="none" stroke-width="1" fill="none" fill-rule="evenodd">
        <path d="M12.4355469,1.10546875 C14.2407947,1.10546875 15.798802,1.45085586 17.1155633,2.11896632 C18.4440374,2.79301965 19.5421615,3.70400302 20.4123731,4.84901829 C21.2649119,5.97077986 21.9025924,7.27390434 22.3193662,8.76146613 C22.723987,10.2056512 22.9277344,11.7368487 22.9277344,13.3554688 C22.9277344,14.5195392 22.8359982,15.6928166 22.6521962,16.8752756 C22.4670472,18.0664013 22.1799161,19.2204548 21.7911061,20.3375121 C21.3973642,21.4687388 20.8939202,22.5279195 20.281447,23.5153763 C19.6522008,24.5298752 18.9003425,25.412161 18.0271674,26.1633484 C17.1450892,26.9221951 16.1308329,27.5236213 14.9826491,27.9647315 C13.8389457,28.4041203 12.5569959,28.6289063 11.1347656,28.6289062 C10.5450779,28.6289062 9.92773899,28.601435 9.28276292,28.5461513 C8.62903724,28.4901177 7.98153888,28.39672 7.34026543,28.2659749 C6.68432769,28.13224 6.04431757,27.9475371 5.42022258,27.7119094 C4.55639623,27.3857709 3.79728918,26.9369981 3.14064126,26.3697474 L3.14064126,26.3697474 L4.33209138,17.7088216 C5.77898887,18.5339469 6.21916981,18.756265 6.72285125,18.9564461 C7.15113696,19.1266622 7.59041647,19.2776233 8.04066438,19.4094032 C8.4797,19.5379014 8.91871247,19.6370669 9.35775293,19.7066708 C9.7833514,19.7741438 10.1881537,19.8085938 10.5722656,19.8085938 C11.1115327,19.8085938 11.5809363,19.7400909 11.9769502,19.5863443 C12.3314439,19.4487174 12.6337014,19.253133 12.8800765,18.9942304 C13.0521175,18.8134415 13.20111,18.6082255 13.3286001,18.3796075 C13.1970437,18.4187437 13.0645353,18.4554999 12.9310749,18.4898761 C12.0757336,18.7101913 11.2074295,18.8203125 10.3261719,18.8203125 C9.2283659,18.8203125 8.18311029,18.6491989 7.1899842,18.3094452 C6.17516773,17.9622712 5.28862027,17.4627318 4.52774506,16.8153205 C3.75541081,16.1581589 3.13746136,15.3563081 2.67666372,14.4076071 C2.21594221,13.4590628 1.97851563,12.3829477 1.97851563,11.1757812 C1.97851563,9.69367128 2.25230915,8.33622852 2.79162923,7.10164038 C3.33364413,5.86088339 4.07632157,4.79765328 5.01650147,3.9097056 C5.95247417,3.02573138 7.05948891,2.33456482 8.34026435,1.84045856 C9.60578695,1.35223664 10.9705382,1.10546875 12.4355469,1.10546875 Z M12.0136719,9.50390625 C11.8027647,9.50390625 11.5958323,9.53742991 11.3927701,9.60381564 C11.2015036,9.66634506 11.028234,9.75765725 10.8736809,9.87909178 C10.7384096,9.98537639 10.630393,10.1141179 10.5561458,11.1601294 C10.6512341,11.3291751 10.7722307,11.474053 10.9202139,11.5938489 C11.0794309,11.7227389 11.2621566,11.8216426 11.4666718,11.8936017 C11.6724427,11.9660025 11.8780254,12.0039062 12.0839844,12.0039062 C12.2893557,12.0039062 12.4908065,11.9691544 12.6885144,11.9007171 C12.8857981,11.8324266 13.0645581,11.736399 13.2239753,11.6111426 C13.3607636,11.5036661 13.4705625,11.3755294 13.5415104,10.330105 C13.4464222,10.1610592 13.3254256,10.0161814 13.1774424,9.8963855 C13.0227892,9.77119007 12.8453015,9.67700556 12.6466629,9.61079267 C12.4356659,9.54046034 12.224815,9.50390625 12.0136719,9.50390625 Z" id="9" stroke="#595959" stroke-width="2" fill="#F0EEE9" fill-rule="nonzero"></path>
    </g>
</svg>