<?xml version="1.0" encoding="UTF-8" standalone="no"?>
<svg
   xmlns:dc="http://purl.org/dc/elements/1.1/"
   xmlns:cc="http://creativecommons.org/ns#"
   xmlns:rdf="http://www.w3.org/1999/02/22-rdf-syntax-ns#"
   xmlns:svg="http://www.w3.org/2000/svg"
   xmlns="http://www.w3.org/2000/svg"
   xmlns:sodipodi="http://sodipodi.sourceforge.net/DTD/sodipodi-0.dtd"
   xmlns:inkscape="http://www.inkscape.org/namespaces/inkscape"
   width="36"
   height="27"
   viewBox="0 0 36 27"
   version="1.1"
   id="svg24"
   sodipodi:docname="backArrow.svg"
   inkscape:version="0.92.3 (2405546, 2018-03-11)">
  <metadata
     id="metadata30">
    <rdf:RDF>
      <cc:Work
         rdf:about="">
        <dc:format>image/svg+xml</dc:format>
        <dc:type
           rdf:resource="http://purl.org/dc/dcmitype/StillImage" />
        <dc:title>svg/backtoMap</dc:title>
      </cc:Work>
    </rdf:RDF>
  </metadata>
  <defs
     id="defs28" />
  <sodipodi:namedview
     pagecolor="#ffffff"
     bordercolor="#666666"
     borderopacity="1"
     objecttolerance="10"
     gridtolerance="10"
     guidetolerance="10"
     inkscape:pageopacity="0"
     inkscape:pageshadow="2"
     inkscape:window-width="1360"
     inkscape:window-height="757"
     id="namedview26"
     showgrid="false"
     inkscape:zoom="2.6511628"
     inkscape:cx="64.5"
     inkscape:cy="13.5"
     inkscape:window-x="612"
     inkscape:window-y="503"
     inkscape:window-maximized="0"
     inkscape:current-layer="svg24" />
  <!-- Generator: Sketch 64 (93537) - https://sketch.com -->
  <title
     id="title2">svg/backtoMap</title>
  <desc
     id="desc4">Created with Sketch.</desc>
  <g
     style="opacity:0.2;fill:none;fill-rule:evenodd;stroke:#000000;stroke-width:1"
     transform="translate(1,3)"
     id="SHADOW">
    <path
       style="fill:#000000;stroke-linejoin:round"
       inkscape:connector-curvature="0"
       id="Path-2"
       d="m 31.444824,6.0908203 c 0,0 -17.290527,0.7832031 -18.954101,0.7832031 0,-0.7832031 0,-2.5874023 0,-6.8740234 C 6.852529,3.59375 1.5424805,9.1647949 0,11.520752 c 1.3815104,2.319499 5.5450846,6.159749 12.490723,11.520752 0,-4.19633 0,-6.710165 0,-7.541504 2.154459,-0.333333 8.472493,0.08234 18.954101,1.247009 0,-7.1041257 0,-10.6561887 0,-10.6561887 z" />
    <path
       style="stroke-linecap:round;stroke-linejoin:round"
       inkscape:connector-curvature="0"
       id="Path-2-Copy"
       d="m 13.199097,23.041504 c 0,-3.781209 0,-6.087484 0,-6.918823 0.216381,-0.03348 1.510169,0.01837 1.810547,0 1.793608,-0.109677 7.605335,0.431766 17.43518,1.624328 L 32.726562,7.4057617 31.444824,6.0908203" />
    <line
       id="Path"
       y2="17.422729"
       x2="31.832031"
       y1="7.1119385"
       x1="32.089478" />
    <line
       style="stroke-width:2"
       id="Path-3"
       y2="23.514282"
       x2="13.438904"
       y1="16.015198"
       x1="13.199097" />
  </g>
  <g
     style="fill:none;fill-rule:evenodd;stroke:#000000;stroke-width:1"
     transform="translate(1,1)"
     id="Group">
    <path
       style="fill:#fab739;stroke-linejoin:round"
       inkscape:connector-curvature="0"
       id="path13"
       d="m 31.444824,6.0908203 c 0,0 -17.290527,0.7832031 -18.954101,0.7832031 0,-0.7832031 0,-2.5874023 0,-6.8740234 C 6.852529,3.59375 1.5424805,9.1647949 0,11.520752 c 1.3815104,2.319499 5.5450846,6.159749 12.490723,11.520752 0,-4.19633 0,-6.710165 0,-7.541504 2.154459,-0.333333 8.472493,0.08234 18.954101,1.247009 0,-7.1041257 0,-10.6561887 0,-10.6561887 z" />
    <path
       style="stroke-linecap:round;stroke-linejoin:round"
       inkscape:connector-curvature="0"
       id="path15"
       d="m 13.199097,23.041504 c 0,-3.781209 0,-6.087484 0,-6.918823 0.216381,-0.03348 1.510169,0.01837 1.810547,0 1.793608,-0.109677 7.605335,0.431766 17.43518,1.624328 L 32.726562,7.4057617 31.444824,6.0908203" />
    <line
       id="line17"
       y2="17.422729"
       x2="31.832031"
       y1="7.1119385"
       x1="32.089478" />
    <line
       style="stroke-width:2"
       id="line19"
       y2="23.514282"
       x2="13.438904"
       y1="16.015198"
       x1="13.199097" />
  </g>
</svg>
