<?xml version="1.0" encoding="UTF-8"?>
<svg width="129px" height="27px" viewBox="0 0 129 27" version="1.1" xmlns="http://www.w3.org/2000/svg" xmlns:xlink="http://www.w3.org/1999/xlink">
    <!-- Generator: Sketch 64 (93537) - https://sketch.com -->
    <title>svg/backtoMap</title>
    <desc>Created with Sketch.</desc>
    <g id="backtoMap" stroke="none" stroke-width="1" fill="none" fill-rule="evenodd">
        <g id="SHADOW" opacity="0.2" transform="translate(1.000000, 3.000000)" stroke="#000000">
            <path d="M31.4448242,6.09082031 C31.4448242,6.09082031 14.1542969,6.87402344 12.4907227,6.87402344 C12.4907227,6.09082031 12.4907227,4.28662109 12.4907227,0 C6.852529,3.59375 1.54248047,9.16479492 0,11.520752 C1.38151042,13.8402507 5.54508464,17.6805013 12.4907227,23.0415039 C12.4907227,18.8451742 12.4907227,16.3313395 12.4907227,15.5 C14.6451823,15.1666667 20.9632161,15.5823364 31.4448242,16.7470093 C31.4448242,9.6428833 31.4448242,6.09082031 31.4448242,6.09082031 Z" id="Path-2" fill="#000000" stroke-linejoin="round"></path>
            <path d="M13.1990967,23.0415039 C13.1990967,19.2602946 13.1990967,16.9540202 13.1990967,16.1226807 C13.4154781,16.0892026 14.709266,16.1410483 15.0096436,16.1226807 C16.8032518,16.0130042 22.6149787,16.5544471 32.4448242,17.7470093 L32.7265625,7.40576172 L31.4448242,6.09082031" id="Path-2-Copy" stroke-linecap="round" stroke-linejoin="round"></path>
            <line x1="32.0894775" y1="7.11193848" x2="31.8320312" y2="17.4227295" id="Path"></line>
            <line x1="13.1990967" y1="16.0151978" x2="13.4389038" y2="23.5142822" id="Path-3" stroke-width="2"></line>
        </g>
        <path d="M45.888,20 C46.8266667,20 47.6133333,19.8933333 48.248,19.68 C48.8826667,19.4666667 49.392,19.1946667 49.776,18.864 C50.16,18.5333333 50.432,18.168 50.592,17.768 C50.752,17.368 50.832,16.976 50.832,16.592 C50.832,16.2933333 50.7866667,15.9973333 50.696,15.704 C50.6053333,15.4106667 50.472,15.144 50.296,14.904 C50.12,14.664 49.9093333,14.4586667 49.664,14.288 C49.4186667,14.1173333 49.1466667,14.0053333 48.848,13.952 C49.3813333,13.7386667 49.7573333,13.4186667 49.976,12.992 C50.1946667,12.5653333 50.304,12.1013333 50.304,11.6 C50.304,10.6293333 49.9493333,9.88 49.24,9.352 C48.5306667,8.824 47.4613333,8.56 46.032,8.56 C45.4026667,8.56 44.8986667,8.61066667 44.52,8.712 C44.1413333,8.81333333 43.848,8.96 43.64,9.152 C43.432,9.344 43.2906667,9.57333333 43.216,9.84 C43.1413333,10.1066667 43.088,10.4053333 43.056,10.736 C43.0346667,10.9493333 43.0186667,11.2053333 43.008,11.504 C42.9973333,11.8026667 42.9893333,12.1253333 42.984,12.472 C42.9786667,12.8186667 42.9733333,13.1706667 42.968,13.528 C42.9626667,13.8853333 42.96,14.224 42.96,14.544 C42.96,15.2053333 42.968,15.8426667 42.984,16.456 C43,17.0693333 43.024,17.5626667 43.056,17.936 C43.088,18.256 43.1386667,18.544 43.208,18.8 C43.2773333,19.056 43.4106667,19.272 43.608,19.448 C43.8053333,19.624 44.0853333,19.76 44.448,19.856 C44.8106667,19.952 45.2906667,20 45.888,20 Z M45.584,13.456 L45.112,13.456 C44.9466667,13.456 44.7893333,13.4506667 44.64,13.44 L44.64,13.44 L44.64,11.2 C44.64,11.04 44.6586667,10.8906667 44.696,10.752 C44.7333333,10.6133333 44.808,10.496 44.92,10.4 C45.032,10.304 45.1973333,10.2266667 45.416,10.168 C45.6346667,10.1093333 45.92,10.08 46.272,10.08 C47.1146667,10.08 47.7306667,10.232 48.12,10.536 C48.5093333,10.84 48.704,11.232 48.704,11.712 C48.704,12.064 48.6133333,12.352 48.432,12.576 C48.2506667,12.8 48.0106667,12.976 47.712,13.104 C47.4133333,13.232 47.08,13.3226667 46.712,13.376 C46.344,13.4293333 45.968,13.456 45.584,13.456 L45.584,13.456 Z M46.288,18.512 C45.9466667,18.512 45.6666667,18.488 45.448,18.44 C45.2293333,18.392 45.0613333,18.3093333 44.944,18.192 C44.8266667,18.0746667 44.7466667,17.92 44.704,17.728 C44.6613333,17.536 44.64,17.296 44.64,17.008 L44.64,17.008 L44.6408889,16.5164444 C44.6420741,16.4014815 44.6444444,16.2746667 44.648,16.136 C44.6533333,15.928 44.6613333,15.7066667 44.672,15.472 C44.6826667,15.2373333 44.6933333,15.008 44.704,14.784 C44.9493333,14.7733333 45.216,14.768 45.504,14.768 L45.504,14.768 L46.336,14.768 C46.6773333,14.768 47.0186667,14.7893333 47.36,14.832 C47.7013333,14.8746667 48.0106667,14.9573333 48.288,15.08 C48.5653333,15.2026667 48.792,15.3813333 48.968,15.616 C49.144,15.8506667 49.232,16.16 49.232,16.544 C49.232,17.1946667 48.976,17.6853333 48.464,18.016 C47.952,18.3466667 47.2266667,18.512 46.288,18.512 Z M55.408,20.144 C56.0586667,20.144 56.5946667,20.032 57.016,19.808 C57.4373333,19.584 57.7813333,19.3066667 58.048,18.976 C58.0586667,19.1253333 58.0746667,19.2666667 58.096,19.4 C58.1173333,19.5333333 58.1546667,19.648 58.208,19.744 C58.2613333,19.84 58.3386667,19.9173333 58.44,19.976 C58.5413333,20.0346667 58.6773333,20.064 58.848,20.064 C58.9226667,20.064 58.9973333,20.0533333 59.072,20.032 C59.1466667,20.0106667 59.2106667,19.9653333 59.264,19.896 C59.3173333,19.8266667 59.3626667,19.72 59.4,19.576 C59.4373333,19.432 59.4666667,19.2373333 59.488,18.992 C59.5306667,18.4373333 59.5573333,17.9146667 59.568,17.424 C59.5786667,16.9333333 59.584,16.3946667 59.584,15.808 C59.584,15.328 59.576,14.864 59.56,14.416 C59.544,13.968 59.52,13.4613333 59.488,12.896 C59.4666667,12.4693333 59.3866667,12.192 59.248,12.064 C59.1093333,11.936 58.96,11.872 58.8,11.872 C58.6186667,11.872 58.4746667,11.9066667 58.368,11.976 C58.2613333,12.0453333 58.184,12.136 58.136,12.248 C58.088,12.36 58.0586667,12.4826667 58.048,12.616 C58.0373333,12.7493333 58.032,12.88 58.032,13.008 C57.6906667,12.56 57.3066667,12.2373333 56.88,12.04 C56.4533333,11.8426667 55.968,11.744 55.424,11.744 C54.8053333,11.744 54.2666667,11.8613333 53.808,12.096 C53.3493333,12.3306667 52.968,12.648 52.664,13.048 C52.36,13.448 52.1333333,13.9146667 51.984,14.448 C51.8346667,14.9813333 51.76,15.552 51.76,16.16 C51.76,16.9386667 51.872,17.584 52.096,18.096 C52.32,18.608 52.608,19.016 52.96,19.32 C53.312,19.624 53.704,19.8373333 54.136,19.96 C54.568,20.0826667 54.992,20.144 55.408,20.144 Z M55.648,18.736 C54.944,18.736 54.3866667,18.512 53.976,18.064 C53.5653333,17.616 53.36,16.9226667 53.36,15.984 C53.36,15.6 53.4,15.2453333 53.48,14.92 C53.56,14.5946667 53.6853333,14.312 53.856,14.072 C54.0266667,13.832 54.248,13.6426667 54.52,13.504 C54.792,13.3653333 55.12,13.296 55.504,13.296 C55.7493333,13.296 56.016,13.3333333 56.304,13.408 C56.592,13.4826667 56.8613333,13.6186667 57.112,13.816 C57.3626667,14.0133333 57.5706667,14.288 57.736,14.64 C57.9013333,14.992 57.984,15.4453333 57.984,16 C57.984,16.3733333 57.9386667,16.728 57.848,17.064 C57.7573333,17.4 57.6186667,17.6906667 57.432,17.936 C57.2453333,18.1813333 57.0053333,18.376 56.712,18.52 C56.4186667,18.664 56.064,18.736 55.648,18.736 Z M65.088,20.144 C65.376,20.144 65.6933333,20.112 66.04,20.048 C66.3866667,19.984 66.7093333,19.888 67.008,19.76 C67.3066667,19.632 67.5546667,19.472 67.752,19.28 C67.9493333,19.088 68.048,18.864 68.048,18.608 C68.048,18.3626667 67.992,18.2 67.88,18.12 C67.768,18.04 67.616,18 67.424,18 C67.2853333,18 67.16,18.0373333 67.048,18.112 C66.936,18.1866667 66.792,18.272 66.616,18.368 C66.44,18.464 66.2133333,18.5493333 65.936,18.624 C65.6586667,18.6986667 65.296,18.736 64.848,18.736 C64.1333333,18.736 63.5813333,18.48 63.192,17.968 C62.8026667,17.456 62.608,16.7786667 62.608,15.936 C62.608,15.168 62.8,14.544 63.184,14.064 C63.568,13.584 64.112,13.344 64.816,13.344 C65.1466667,13.344 65.424,13.3626667 65.648,13.4 C65.872,13.4373333 66.0586667,13.4746667 66.208,13.512 C66.3573333,13.5493333 66.488,13.5866667 66.6,13.624 C66.712,13.6613333 66.832,13.68 66.96,13.68 C67.4933333,13.68 67.76,13.4453333 67.76,12.976 C67.76,12.7946667 67.68,12.6346667 67.52,12.496 C67.36,12.3573333 67.152,12.24 66.896,12.144 C66.64,12.048 66.3546667,11.9733333 66.04,11.92 C65.7253333,11.8666667 65.4133333,11.84 65.104,11.84 C64.4213333,11.84 63.8213333,11.952 63.304,12.176 C62.7866667,12.4 62.352,12.704 62,13.088 C61.648,13.472 61.384,13.9173333 61.208,14.424 C61.032,14.9306667 60.944,15.4666667 60.944,16.032 C60.944,17.344 61.312,18.3573333 62.048,19.072 C62.784,19.7866667 63.7973333,20.144 65.088,20.144 Z M75.632,20.08 C75.8666667,20.08 76.0586667,20.0213333 76.208,19.904 C76.3573333,19.7866667 76.432,19.6106667 76.432,19.376 C76.432,19.216 76.384,19.072 76.288,18.944 L76.288,18.944 L73.664,15.136 L75.824,13.36 C75.9413333,13.2746667 76.0186667,13.1813333 76.056,13.08 C76.0933333,12.9786667 76.112,12.8693333 76.112,12.752 C76.112,12.5386667 76.0586667,12.3493333 75.952,12.184 C75.8453333,12.0186667 75.6853333,11.936 75.472,11.936 C75.2906667,11.936 75.1173333,11.9866667 74.952,12.088 C74.7866667,12.1893333 74.6453333,12.2933333 74.528,12.4 L74.528,12.4 L70.976,15.616 L70.976,14.32 C70.976,13.8186667 70.9733333,13.2906667 70.968,12.736 C70.9626667,12.1813333 70.9573333,11.648 70.952,11.136 C70.9466667,10.624 70.936,10.152 70.92,9.72 C70.904,9.288 70.8853333,8.944 70.864,8.688 C70.8213333,8.272 70.7573333,8.00266667 70.672,7.88 C70.5866667,7.75733333 70.448,7.696 70.256,7.696 C70.032,7.696 69.8613333,7.75733333 69.744,7.88 C69.6266667,8.00266667 69.5413333,8.22933333 69.488,8.56 C69.4346667,8.89066667 69.4026667,9.344 69.392,9.92 C69.3813333,10.496 69.376,11.2373333 69.376,12.144 L69.37664,14.83488 C69.3783467,15.40576 69.3834667,15.9408 69.392,16.44 C69.4026667,17.064 69.4133333,17.6133333 69.424,18.088 C69.4346667,18.5626667 69.4506667,18.9173333 69.472,19.152 C69.504,19.5146667 69.5653333,19.7546667 69.656,19.872 C69.7466667,19.9893333 69.9146667,20.048 70.16,20.048 C70.4053333,20.048 70.576,19.9893333 70.672,19.872 C70.768,19.7546667 70.8373333,19.5093333 70.88,19.136 C70.9013333,18.9546667 70.9173333,18.7093333 70.928,18.4 C70.9386667,18.0906667 70.9493333,17.7386667 70.96,17.344 L70.96,17.344 L72.416,16.144 L74.816,19.616 C74.9333333,19.7973333 75.056,19.92 75.184,19.984 C75.312,20.048 75.4613333,20.08 75.632,20.08 Z M83.296,20.016 C83.4026667,20.016 83.496,20.008 83.576,19.992 C83.656,19.976 83.728,19.9306667 83.792,19.856 C83.856,19.7813333 83.9066667,19.6746667 83.944,19.536 C83.9813333,19.3973333 84.0053333,19.2 84.016,18.944 C84.0373333,18.464 84.0533333,18.0106667 84.064,17.584 C84.0746667,17.1573333 84.0853333,16.728 84.096,16.296 C84.1066667,15.864 84.112,15.4133333 84.112,14.944 L84.112,14.944 L84.112,13.392 C84.2293333,13.4133333 84.3573333,13.424 84.496,13.424 L84.496,13.424 L84.864,13.424 C85.056,13.424 85.2346667,13.416 85.4,13.4 C85.5653333,13.384 85.7093333,13.3493333 85.832,13.296 C85.9546667,13.2426667 86.0533333,13.1653333 86.128,13.064 C86.2026667,12.9626667 86.24,12.8266667 86.24,12.656 C86.24,12.3786667 86.1333333,12.1786667 85.92,12.056 C85.7066667,11.9333333 85.4026667,11.872 85.008,11.872 C84.8586667,11.872 84.704,11.8746667 84.544,11.88 C84.384,11.8853333 84.2293333,11.9093333 84.08,11.952 C84.08,11.856 84.0826667,11.7466667 84.088,11.624 C84.0933333,11.5013333 84.096,11.3653333 84.096,11.216 C84.096,11.0026667 84.088,10.784 84.072,10.56 C84.056,10.336 84.0186667,10.1333333 83.96,9.952 C83.9013333,9.77066667 83.8186667,9.62133333 83.712,9.504 C83.6053333,9.38666667 83.4666667,9.328 83.296,9.328 C83.136,9.328 83.0053333,9.35733333 82.904,9.416 C82.8026667,9.47466667 82.7226667,9.59733333 82.664,9.784 C82.6053333,9.97066667 82.5653333,10.2346667 82.544,10.576 C82.5226667,10.9173333 82.512,11.3706667 82.512,11.936 C82.3946667,11.9146667 82.2506667,11.904 82.08,11.904 L82.08,11.904 L81.648,11.904 C80.88,11.904 80.496,12.16 80.496,12.672 C80.496,12.8533333 80.528,12.9946667 80.592,13.096 C80.656,13.1973333 80.7466667,13.2746667 80.864,13.328 C80.9813333,13.3813333 81.1173333,13.4133333 81.272,13.424 C81.4266667,13.4346667 81.6,13.44 81.792,13.44 L81.792,13.44 L82.136,13.44 C82.28,13.44 82.4053333,13.4346667 82.512,13.424 C82.512,14.5973333 82.5146667,15.6453333 82.52,16.568 C82.5253333,17.4906667 82.544,18.288 82.576,18.96 C82.5973333,19.3973333 82.6746667,19.6826667 82.808,19.816 C82.9413333,19.9493333 83.104,20.016 83.296,20.016 Z M91.008,20.192 C91.6053333,20.192 92.1573333,20.0906667 92.664,19.888 C93.1706667,19.6853333 93.608,19.3973333 93.976,19.024 C94.344,18.6506667 94.632,18.1973333 94.84,17.664 C95.048,17.1306667 95.152,16.528 95.152,15.856 C95.152,15.248 95.0613333,14.6986667 94.88,14.208 C94.6986667,13.7173333 94.44,13.3013333 94.104,12.96 C93.768,12.6186667 93.36,12.3546667 92.88,12.168 C92.4,11.9813333 91.856,11.888 91.248,11.888 C90.608,11.888 90.0266667,11.9893333 89.504,12.192 C88.9813333,12.3946667 88.536,12.68 88.168,13.048 C87.8,13.416 87.5173333,13.8533333 87.32,14.36 C87.1226667,14.8666667 87.024,15.424 87.024,16.032 C87.024,16.5866667 87.1093333,17.1146667 87.28,17.616 C87.4506667,18.1173333 87.704,18.56 88.04,18.944 C88.376,19.328 88.792,19.632 89.288,19.856 C89.784,20.08 90.3573333,20.192 91.008,20.192 Z M91.072,18.72 C90.2933333,18.72 89.704,18.4773333 89.304,17.992 C88.904,17.5066667 88.704,16.8746667 88.704,16.096 C88.704,15.712 88.7573333,15.3546667 88.864,15.024 C88.9706667,14.6933333 89.128,14.408 89.336,14.168 C89.544,13.928 89.8026667,13.7386667 90.112,13.6 C90.4213333,13.4613333 90.784,13.392 91.2,13.392 C91.6053333,13.392 91.9546667,13.4586667 92.248,13.592 C92.5413333,13.7253333 92.7813333,13.9093333 92.968,14.144 C93.1546667,14.3786667 93.2933333,14.6533333 93.384,14.968 C93.4746667,15.2826667 93.52,15.6213333 93.52,15.984 C93.52,16.336 93.4746667,16.6746667 93.384,17 C93.2933333,17.3253333 93.1493333,17.616 92.952,17.872 C92.7546667,18.128 92.5013333,18.3333333 92.192,18.488 C91.8826667,18.6426667 91.5093333,18.72 91.072,18.72 Z M109.792,20 C109.973333,20 110.122667,19.9493333 110.24,19.848 C110.357333,19.7466667 110.416,19.6106667 110.416,19.44 C110.416,19.1626667 110.386667,18.7653333 110.328,18.248 C110.269333,17.7306667 110.192,17.152 110.096,16.512 C110,15.872 109.893333,15.2 109.776,14.496 C109.658667,13.792 109.538667,13.1173333 109.416,12.472 C109.293333,11.8266667 109.178667,11.24 109.072,10.712 C108.965333,10.184 108.874667,9.77066667 108.8,9.472 C108.736,9.22666667 108.64,9.04266667 108.512,8.92 C108.384,8.79733333 108.197333,8.736 107.952,8.736 C107.685333,8.736 107.461333,8.86133333 107.28,9.112 C107.098667,9.36266667 106.909333,9.74666667 106.712,10.264 C106.514667,10.7813333 106.274667,11.432 105.992,12.216 C105.709333,13 105.338667,13.9253333 104.88,14.992 C104.410667,13.9253333 104.029333,12.9973333 103.736,12.208 C103.442667,11.4186667 103.192,10.7653333 102.984,10.248 C102.776,9.73066667 102.581333,9.34666667 102.4,9.096 C102.218667,8.84533333 102,8.72 101.744,8.72 C101.317333,8.72 101.034667,8.96533333 100.896,9.456 C100.810667,9.744 100.712,10.1546667 100.6,10.688 C100.488,11.2213333 100.370667,11.816 100.248,12.472 C100.125333,13.128 100.005333,13.808 99.888,14.512 C99.7706667,15.216 99.6666667,15.888 99.576,16.528 C99.4853333,17.168 99.4106667,17.7413333 99.352,18.248 C99.2933333,18.7546667 99.264,19.1306667 99.264,19.376 C99.264,19.5573333 99.32,19.7066667 99.432,19.824 C99.544,19.9413333 99.696,20 99.888,20 C100.005333,20 100.149333,19.9546667 100.32,19.864 C100.490667,19.7733333 100.608,19.5893333 100.672,19.312 C100.928,18.0853333 101.138667,16.8 101.304,15.456 C101.469333,14.112 101.674667,12.7786667 101.92,11.456 C102.186667,12.2453333 102.509333,13.144 102.888,14.152 C103.266667,15.16 103.701333,16.2026667 104.192,17.28 C104.256,17.4293333 104.349333,17.5386667 104.472,17.608 C104.594667,17.6773333 104.725333,17.712 104.864,17.712 C104.992,17.712 105.117333,17.6773333 105.24,17.608 C105.362667,17.5386667 105.461333,17.4346667 105.536,17.296 C105.738667,16.8906667 105.946667,16.4373333 106.16,15.936 C106.373333,15.4346667 106.581333,14.9253333 106.784,14.408 C106.986667,13.8906667 107.178667,13.376 107.36,12.864 C107.541333,12.352 107.701333,11.8826667 107.84,11.456 C107.936,12.1173333 108.026667,12.7813333 108.112,13.448 C108.197333,14.1146667 108.285333,14.7813333 108.376,15.448 C108.466667,16.1146667 108.562667,16.7733333 108.664,17.424 C108.765333,18.0746667 108.88,18.704 109.008,19.312 C109.072,19.5893333 109.189333,19.7733333 109.36,19.864 C109.530667,19.9546667 109.674667,20 109.792,20 Z M114.832,20.144 C115.482667,20.144 116.018667,20.032 116.44,19.808 C116.861333,19.584 117.205333,19.3066667 117.472,18.976 C117.482667,19.1253333 117.498667,19.2666667 117.52,19.4 C117.541333,19.5333333 117.578667,19.648 117.632,19.744 C117.685333,19.84 117.762667,19.9173333 117.864,19.976 C117.965333,20.0346667 118.101333,20.064 118.272,20.064 C118.346667,20.064 118.421333,20.0533333 118.496,20.032 C118.570667,20.0106667 118.634667,19.9653333 118.688,19.896 C118.741333,19.8266667 118.786667,19.72 118.824,19.576 C118.861333,19.432 118.890667,19.2373333 118.912,18.992 C118.954667,18.4373333 118.981333,17.9146667 118.992,17.424 C119.002667,16.9333333 119.008,16.3946667 119.008,15.808 C119.008,15.328 119,14.864 118.984,14.416 C118.968,13.968 118.944,13.4613333 118.912,12.896 C118.890667,12.4693333 118.810667,12.192 118.672,12.064 C118.533333,11.936 118.384,11.872 118.224,11.872 C118.042667,11.872 117.898667,11.9066667 117.792,11.976 C117.685333,12.0453333 117.608,12.136 117.56,12.248 C117.512,12.36 117.482667,12.4826667 117.472,12.616 C117.461333,12.7493333 117.456,12.88 117.456,13.008 C117.114667,12.56 116.730667,12.2373333 116.304,12.04 C115.877333,11.8426667 115.392,11.744 114.848,11.744 C114.229333,11.744 113.690667,11.8613333 113.232,12.096 C112.773333,12.3306667 112.392,12.648 112.088,13.048 C111.784,13.448 111.557333,13.9146667 111.408,14.448 C111.258667,14.9813333 111.184,15.552 111.184,16.16 C111.184,16.9386667 111.296,17.584 111.52,18.096 C111.744,18.608 112.032,19.016 112.384,19.32 C112.736,19.624 113.128,19.8373333 113.56,19.96 C113.992,20.0826667 114.416,20.144 114.832,20.144 Z M115.072,18.736 C114.368,18.736 113.810667,18.512 113.4,18.064 C112.989333,17.616 112.784,16.9226667 112.784,15.984 C112.784,15.6 112.824,15.2453333 112.904,14.92 C112.984,14.5946667 113.109333,14.312 113.28,14.072 C113.450667,13.832 113.672,13.6426667 113.944,13.504 C114.216,13.3653333 114.544,13.296 114.928,13.296 C115.173333,13.296 115.44,13.3333333 115.728,13.408 C116.016,13.4826667 116.285333,13.6186667 116.536,13.816 C116.786667,14.0133333 116.994667,14.288 117.16,14.64 C117.325333,14.992 117.408,15.4453333 117.408,16 C117.408,16.3733333 117.362667,16.728 117.272,17.064 C117.181333,17.4 117.042667,17.6906667 116.856,17.936 C116.669333,18.1813333 116.429333,18.376 116.136,18.52 C115.842667,18.664 115.488,18.736 115.072,18.736 Z M121.776,23.888 C121.978667,23.888 122.136,23.8426667 122.248,23.752 C122.36,23.6613333 122.445333,23.5413333 122.504,23.392 C122.562667,23.2426667 122.597333,23.0746667 122.608,22.888 C122.618667,22.7013333 122.624,22.5066667 122.624,22.304 C122.624,21.792 122.605333,21.28 122.568,20.768 C122.530667,20.256 122.485333,19.7013333 122.432,19.104 C122.602667,19.3493333 122.888,19.576 123.288,19.784 C123.688,19.992 124.138667,20.096 124.64,20.096 C125.226667,20.096 125.778667,20.008 126.296,19.832 C126.813333,19.656 127.264,19.4 127.648,19.064 C128.032,18.728 128.333333,18.3146667 128.552,17.824 C128.770667,17.3333333 128.88,16.768 128.88,16.128 C128.88,15.36 128.773333,14.7013333 128.56,14.152 C128.346667,13.6026667 128.061333,13.1546667 127.704,12.808 C127.346667,12.4613333 126.928,12.2053333 126.448,12.04 C125.968,11.8746667 125.456,11.792 124.912,11.792 C124.229333,11.792 123.629333,11.888 123.112,12.08 C122.594667,12.272 122.16,12.608 121.808,13.088 C121.456,13.568 121.192,14.2133333 121.016,15.024 C120.84,15.8346667 120.752,16.864 120.752,18.112 C120.752,18.4746667 120.76,18.8693333 120.776,19.296 C120.792,19.7226667 120.808,20.1493333 120.824,20.576 C120.84,21.0026667 120.858667,21.408 120.88,21.792 C120.901333,22.176 120.917333,22.5013333 120.928,22.768 C120.949333,23.184 121.037333,23.4746667 121.192,23.64 C121.346667,23.8053333 121.541333,23.888 121.776,23.888 Z M124.768,18.512 C124.384,18.512 124.058667,18.4426667 123.792,18.304 C123.525333,18.1653333 123.312,17.9786667 123.152,17.744 C122.992,17.5093333 122.877333,17.2346667 122.808,16.92 C122.738667,16.6053333 122.704,16.272 122.704,15.92 C122.704,15.5573333 122.744,15.2213333 122.824,14.912 C122.904,14.6026667 123.029333,14.336 123.2,14.112 C123.370667,13.888 123.592,13.712 123.864,13.584 C124.136,13.456 124.458667,13.392 124.832,13.392 C125.098667,13.392 125.368,13.4346667 125.64,13.52 C125.912,13.6053333 126.157333,13.752 126.376,13.96 C126.594667,14.168 126.770667,14.44 126.904,14.776 C127.037333,15.112 127.104,15.5253333 127.104,16.016 C127.104,16.496 127.037333,16.896 126.904,17.216 C126.770667,17.536 126.594667,17.792 126.376,17.984 C126.157333,18.176 125.909333,18.312 125.632,18.392 C125.354667,18.472 125.066667,18.512 124.768,18.512 Z" id="SHADOW" fill="#000000" fill-rule="nonzero" opacity="0.2"></path>
        <g id="Group" transform="translate(1.000000, 1.000000)" stroke="#000000">
            <path d="M31.4448242,6.09082031 C31.4448242,6.09082031 14.1542969,6.87402344 12.4907227,6.87402344 C12.4907227,6.09082031 12.4907227,4.28662109 12.4907227,0 C6.852529,3.59375 1.54248047,9.16479492 0,11.520752 C1.38151042,13.8402507 5.54508464,17.6805013 12.4907227,23.0415039 C12.4907227,18.8451742 12.4907227,16.3313395 12.4907227,15.5 C14.6451823,15.1666667 20.9632161,15.5823364 31.4448242,16.7470093 C31.4448242,9.6428833 31.4448242,6.09082031 31.4448242,6.09082031 Z" id="Path-2" fill="#FAB739" stroke-linejoin="round"></path>
            <path d="M13.1990967,23.0415039 C13.1990967,19.2602946 13.1990967,16.9540202 13.1990967,16.1226807 C13.4154781,16.0892026 14.709266,16.1410483 15.0096436,16.1226807 C16.8032518,16.0130042 22.6149787,16.5544471 32.4448242,17.7470093 L32.7265625,7.40576172 L31.4448242,6.09082031" id="Path-2-Copy" stroke-linecap="round" stroke-linejoin="round"></path>
            <line x1="32.0894775" y1="7.11193848" x2="31.8320312" y2="17.4227295" id="Path"></line>
            <line x1="13.1990967" y1="16.0151978" x2="13.4389038" y2="23.5142822" id="Path-3" stroke-width="2"></line>
        </g>
        <path d="M45.888,18 C46.8266667,18 47.6133333,17.8933333 48.248,17.68 C48.8826667,17.4666667 49.392,17.1946667 49.776,16.864 C50.16,16.5333333 50.432,16.168 50.592,15.768 C50.752,15.368 50.832,14.976 50.832,14.592 C50.832,14.2933333 50.7866667,13.9973333 50.696,13.704 C50.6053333,13.4106667 50.472,13.144 50.296,12.904 C50.12,12.664 49.9093333,12.4586667 49.664,12.288 C49.4186667,12.1173333 49.1466667,12.0053333 48.848,11.952 C49.3813333,11.7386667 49.7573333,11.4186667 49.976,10.992 C50.1946667,10.5653333 50.304,10.1013333 50.304,9.6 C50.304,8.62933333 49.9493333,7.88 49.24,7.352 C48.5306667,6.824 47.4613333,6.56 46.032,6.56 C45.4026667,6.56 44.8986667,6.61066667 44.52,6.712 C44.1413333,6.81333333 43.848,6.96 43.64,7.152 C43.432,7.344 43.2906667,7.57333333 43.216,7.84 C43.1413333,8.10666667 43.088,8.40533333 43.056,8.736 C43.0346667,8.94933333 43.0186667,9.20533333 43.008,9.504 C42.9973333,9.80266667 42.9893333,10.1253333 42.984,10.472 C42.9786667,10.8186667 42.9733333,11.1706667 42.968,11.528 C42.9626667,11.8853333 42.96,12.224 42.96,12.544 C42.96,13.2053333 42.968,13.8426667 42.984,14.456 C43,15.0693333 43.024,15.5626667 43.056,15.936 C43.088,16.256 43.1386667,16.544 43.208,16.8 C43.2773333,17.056 43.4106667,17.272 43.608,17.448 C43.8053333,17.624 44.0853333,17.76 44.448,17.856 C44.8106667,17.952 45.2906667,18 45.888,18 Z M45.584,11.456 L45.112,11.456 C44.9466667,11.456 44.7893333,11.4506667 44.64,11.44 L44.64,11.44 L44.64,9.2 C44.64,9.04 44.6586667,8.89066667 44.696,8.752 C44.7333333,8.61333333 44.808,8.496 44.92,8.4 C45.032,8.304 45.1973333,8.22666667 45.416,8.168 C45.6346667,8.10933333 45.92,8.08 46.272,8.08 C47.1146667,8.08 47.7306667,8.232 48.12,8.536 C48.5093333,8.84 48.704,9.232 48.704,9.712 C48.704,10.064 48.6133333,10.352 48.432,10.576 C48.2506667,10.8 48.0106667,10.976 47.712,11.104 C47.4133333,11.232 47.08,11.3226667 46.712,11.376 C46.344,11.4293333 45.968,11.456 45.584,11.456 L45.584,11.456 Z M46.288,16.512 C45.9466667,16.512 45.6666667,16.488 45.448,16.44 C45.2293333,16.392 45.0613333,16.3093333 44.944,16.192 C44.8266667,16.0746667 44.7466667,15.92 44.704,15.728 C44.6613333,15.536 44.64,15.296 44.64,15.008 L44.64,15.008 L44.6408889,14.5164444 C44.6420741,14.4014815 44.6444444,14.2746667 44.648,14.136 C44.6533333,13.928 44.6613333,13.7066667 44.672,13.472 C44.6826667,13.2373333 44.6933333,13.008 44.704,12.784 C44.9493333,12.7733333 45.216,12.768 45.504,12.768 L45.504,12.768 L46.336,12.768 C46.6773333,12.768 47.0186667,12.7893333 47.36,12.832 C47.7013333,12.8746667 48.0106667,12.9573333 48.288,13.08 C48.5653333,13.2026667 48.792,13.3813333 48.968,13.616 C49.144,13.8506667 49.232,14.16 49.232,14.544 C49.232,15.1946667 48.976,15.6853333 48.464,16.016 C47.952,16.3466667 47.2266667,16.512 46.288,16.512 Z M55.408,18.144 C56.0586667,18.144 56.5946667,18.032 57.016,17.808 C57.4373333,17.584 57.7813333,17.3066667 58.048,16.976 C58.0586667,17.1253333 58.0746667,17.2666667 58.096,17.4 C58.1173333,17.5333333 58.1546667,17.648 58.208,17.744 C58.2613333,17.84 58.3386667,17.9173333 58.44,17.976 C58.5413333,18.0346667 58.6773333,18.064 58.848,18.064 C58.9226667,18.064 58.9973333,18.0533333 59.072,18.032 C59.1466667,18.0106667 59.2106667,17.9653333 59.264,17.896 C59.3173333,17.8266667 59.3626667,17.72 59.4,17.576 C59.4373333,17.432 59.4666667,17.2373333 59.488,16.992 C59.5306667,16.4373333 59.5573333,15.9146667 59.568,15.424 C59.5786667,14.9333333 59.584,14.3946667 59.584,13.808 C59.584,13.328 59.576,12.864 59.56,12.416 C59.544,11.968 59.52,11.4613333 59.488,10.896 C59.4666667,10.4693333 59.3866667,10.192 59.248,10.064 C59.1093333,9.936 58.96,9.872 58.8,9.872 C58.6186667,9.872 58.4746667,9.90666667 58.368,9.976 C58.2613333,10.0453333 58.184,10.136 58.136,10.248 C58.088,10.36 58.0586667,10.4826667 58.048,10.616 C58.0373333,10.7493333 58.032,10.88 58.032,11.008 C57.6906667,10.56 57.3066667,10.2373333 56.88,10.04 C56.4533333,9.84266667 55.968,9.744 55.424,9.744 C54.8053333,9.744 54.2666667,9.86133333 53.808,10.096 C53.3493333,10.3306667 52.968,10.648 52.664,11.048 C52.36,11.448 52.1333333,11.9146667 51.984,12.448 C51.8346667,12.9813333 51.76,13.552 51.76,14.16 C51.76,14.9386667 51.872,15.584 52.096,16.096 C52.32,16.608 52.608,17.016 52.96,17.32 C53.312,17.624 53.704,17.8373333 54.136,17.96 C54.568,18.0826667 54.992,18.144 55.408,18.144 Z M55.648,16.736 C54.944,16.736 54.3866667,16.512 53.976,16.064 C53.5653333,15.616 53.36,14.9226667 53.36,13.984 C53.36,13.6 53.4,13.2453333 53.48,12.92 C53.56,12.5946667 53.6853333,12.312 53.856,12.072 C54.0266667,11.832 54.248,11.6426667 54.52,11.504 C54.792,11.3653333 55.12,11.296 55.504,11.296 C55.7493333,11.296 56.016,11.3333333 56.304,11.408 C56.592,11.4826667 56.8613333,11.6186667 57.112,11.816 C57.3626667,12.0133333 57.5706667,12.288 57.736,12.64 C57.9013333,12.992 57.984,13.4453333 57.984,14 C57.984,14.3733333 57.9386667,14.728 57.848,15.064 C57.7573333,15.4 57.6186667,15.6906667 57.432,15.936 C57.2453333,16.1813333 57.0053333,16.376 56.712,16.52 C56.4186667,16.664 56.064,16.736 55.648,16.736 Z M65.088,18.144 C65.376,18.144 65.6933333,18.112 66.04,18.048 C66.3866667,17.984 66.7093333,17.888 67.008,17.76 C67.3066667,17.632 67.5546667,17.472 67.752,17.28 C67.9493333,17.088 68.048,16.864 68.048,16.608 C68.048,16.3626667 67.992,16.2 67.88,16.12 C67.768,16.04 67.616,16 67.424,16 C67.2853333,16 67.16,16.0373333 67.048,16.112 C66.936,16.1866667 66.792,16.272 66.616,16.368 C66.44,16.464 66.2133333,16.5493333 65.936,16.624 C65.6586667,16.6986667 65.296,16.736 64.848,16.736 C64.1333333,16.736 63.5813333,16.48 63.192,15.968 C62.8026667,15.456 62.608,14.7786667 62.608,13.936 C62.608,13.168 62.8,12.544 63.184,12.064 C63.568,11.584 64.112,11.344 64.816,11.344 C65.1466667,11.344 65.424,11.3626667 65.648,11.4 C65.872,11.4373333 66.0586667,11.4746667 66.208,11.512 C66.3573333,11.5493333 66.488,11.5866667 66.6,11.624 C66.712,11.6613333 66.832,11.68 66.96,11.68 C67.4933333,11.68 67.76,11.4453333 67.76,10.976 C67.76,10.7946667 67.68,10.6346667 67.52,10.496 C67.36,10.3573333 67.152,10.24 66.896,10.144 C66.64,10.048 66.3546667,9.97333333 66.04,9.92 C65.7253333,9.86666667 65.4133333,9.84 65.104,9.84 C64.4213333,9.84 63.8213333,9.952 63.304,10.176 C62.7866667,10.4 62.352,10.704 62,11.088 C61.648,11.472 61.384,11.9173333 61.208,12.424 C61.032,12.9306667 60.944,13.4666667 60.944,14.032 C60.944,15.344 61.312,16.3573333 62.048,17.072 C62.784,17.7866667 63.7973333,18.144 65.088,18.144 Z M75.632,18.08 C75.8666667,18.08 76.0586667,18.0213333 76.208,17.904 C76.3573333,17.7866667 76.432,17.6106667 76.432,17.376 C76.432,17.216 76.384,17.072 76.288,16.944 L76.288,16.944 L73.664,13.136 L75.824,11.36 C75.9413333,11.2746667 76.0186667,11.1813333 76.056,11.08 C76.0933333,10.9786667 76.112,10.8693333 76.112,10.752 C76.112,10.5386667 76.0586667,10.3493333 75.952,10.184 C75.8453333,10.0186667 75.6853333,9.936 75.472,9.936 C75.2906667,9.936 75.1173333,9.98666667 74.952,10.088 C74.7866667,10.1893333 74.6453333,10.2933333 74.528,10.4 L74.528,10.4 L70.976,13.616 L70.976,12.32 C70.976,11.8186667 70.9733333,11.2906667 70.968,10.736 C70.9626667,10.1813333 70.9573333,9.648 70.952,9.136 C70.9466667,8.624 70.936,8.152 70.92,7.72 C70.904,7.288 70.8853333,6.944 70.864,6.688 C70.8213333,6.272 70.7573333,6.00266667 70.672,5.88 C70.5866667,5.75733333 70.448,5.696 70.256,5.696 C70.032,5.696 69.8613333,5.75733333 69.744,5.88 C69.6266667,6.00266667 69.5413333,6.22933333 69.488,6.56 C69.4346667,6.89066667 69.4026667,7.344 69.392,7.92 C69.3813333,8.496 69.376,9.23733333 69.376,10.144 L69.37664,12.83488 C69.3783467,13.40576 69.3834667,13.9408 69.392,14.44 C69.4026667,15.064 69.4133333,15.6133333 69.424,16.088 C69.4346667,16.5626667 69.4506667,16.9173333 69.472,17.152 C69.504,17.5146667 69.5653333,17.7546667 69.656,17.872 C69.7466667,17.9893333 69.9146667,18.048 70.16,18.048 C70.4053333,18.048 70.576,17.9893333 70.672,17.872 C70.768,17.7546667 70.8373333,17.5093333 70.88,17.136 C70.9013333,16.9546667 70.9173333,16.7093333 70.928,16.4 C70.9386667,16.0906667 70.9493333,15.7386667 70.96,15.344 L70.96,15.344 L72.416,14.144 L74.816,17.616 C74.9333333,17.7973333 75.056,17.92 75.184,17.984 C75.312,18.048 75.4613333,18.08 75.632,18.08 Z M83.296,18.016 C83.4026667,18.016 83.496,18.008 83.576,17.992 C83.656,17.976 83.728,17.9306667 83.792,17.856 C83.856,17.7813333 83.9066667,17.6746667 83.944,17.536 C83.9813333,17.3973333 84.0053333,17.2 84.016,16.944 C84.0373333,16.464 84.0533333,16.0106667 84.064,15.584 C84.0746667,15.1573333 84.0853333,14.728 84.096,14.296 C84.1066667,13.864 84.112,13.4133333 84.112,12.944 L84.112,12.944 L84.112,11.392 C84.2293333,11.4133333 84.3573333,11.424 84.496,11.424 L84.496,11.424 L84.864,11.424 C85.056,11.424 85.2346667,11.416 85.4,11.4 C85.5653333,11.384 85.7093333,11.3493333 85.832,11.296 C85.9546667,11.2426667 86.0533333,11.1653333 86.128,11.064 C86.2026667,10.9626667 86.24,10.8266667 86.24,10.656 C86.24,10.3786667 86.1333333,10.1786667 85.92,10.056 C85.7066667,9.93333333 85.4026667,9.872 85.008,9.872 C84.8586667,9.872 84.704,9.87466667 84.544,9.88 C84.384,9.88533333 84.2293333,9.90933333 84.08,9.952 C84.08,9.856 84.0826667,9.74666667 84.088,9.624 C84.0933333,9.50133333 84.096,9.36533333 84.096,9.216 C84.096,9.00266667 84.088,8.784 84.072,8.56 C84.056,8.336 84.0186667,8.13333333 83.96,7.952 C83.9013333,7.77066667 83.8186667,7.62133333 83.712,7.504 C83.6053333,7.38666667 83.4666667,7.328 83.296,7.328 C83.136,7.328 83.0053333,7.35733333 82.904,7.416 C82.8026667,7.47466667 82.7226667,7.59733333 82.664,7.784 C82.6053333,7.97066667 82.5653333,8.23466667 82.544,8.576 C82.5226667,8.91733333 82.512,9.37066667 82.512,9.936 C82.3946667,9.91466667 82.2506667,9.904 82.08,9.904 L82.08,9.904 L81.648,9.904 C80.88,9.904 80.496,10.16 80.496,10.672 C80.496,10.8533333 80.528,10.9946667 80.592,11.096 C80.656,11.1973333 80.7466667,11.2746667 80.864,11.328 C80.9813333,11.3813333 81.1173333,11.4133333 81.272,11.424 C81.4266667,11.4346667 81.6,11.44 81.792,11.44 L81.792,11.44 L82.136,11.44 C82.28,11.44 82.4053333,11.4346667 82.512,11.424 C82.512,12.5973333 82.5146667,13.6453333 82.52,14.568 C82.5253333,15.4906667 82.544,16.288 82.576,16.96 C82.5973333,17.3973333 82.6746667,17.6826667 82.808,17.816 C82.9413333,17.9493333 83.104,18.016 83.296,18.016 Z M91.008,18.192 C91.6053333,18.192 92.1573333,18.0906667 92.664,17.888 C93.1706667,17.6853333 93.608,17.3973333 93.976,17.024 C94.344,16.6506667 94.632,16.1973333 94.84,15.664 C95.048,15.1306667 95.152,14.528 95.152,13.856 C95.152,13.248 95.0613333,12.6986667 94.88,12.208 C94.6986667,11.7173333 94.44,11.3013333 94.104,10.96 C93.768,10.6186667 93.36,10.3546667 92.88,10.168 C92.4,9.98133333 91.856,9.888 91.248,9.888 C90.608,9.888 90.0266667,9.98933333 89.504,10.192 C88.9813333,10.3946667 88.536,10.68 88.168,11.048 C87.8,11.416 87.5173333,11.8533333 87.32,12.36 C87.1226667,12.8666667 87.024,13.424 87.024,14.032 C87.024,14.5866667 87.1093333,15.1146667 87.28,15.616 C87.4506667,16.1173333 87.704,16.56 88.04,16.944 C88.376,17.328 88.792,17.632 89.288,17.856 C89.784,18.08 90.3573333,18.192 91.008,18.192 Z M91.072,16.72 C90.2933333,16.72 89.704,16.4773333 89.304,15.992 C88.904,15.5066667 88.704,14.8746667 88.704,14.096 C88.704,13.712 88.7573333,13.3546667 88.864,13.024 C88.9706667,12.6933333 89.128,12.408 89.336,12.168 C89.544,11.928 89.8026667,11.7386667 90.112,11.6 C90.4213333,11.4613333 90.784,11.392 91.2,11.392 C91.6053333,11.392 91.9546667,11.4586667 92.248,11.592 C92.5413333,11.7253333 92.7813333,11.9093333 92.968,12.144 C93.1546667,12.3786667 93.2933333,12.6533333 93.384,12.968 C93.4746667,13.2826667 93.52,13.6213333 93.52,13.984 C93.52,14.336 93.4746667,14.6746667 93.384,15 C93.2933333,15.3253333 93.1493333,15.616 92.952,15.872 C92.7546667,16.128 92.5013333,16.3333333 92.192,16.488 C91.8826667,16.6426667 91.5093333,16.72 91.072,16.72 Z M109.792,18 C109.973333,18 110.122667,17.9493333 110.24,17.848 C110.357333,17.7466667 110.416,17.6106667 110.416,17.44 C110.416,17.1626667 110.386667,16.7653333 110.328,16.248 C110.269333,15.7306667 110.192,15.152 110.096,14.512 C110,13.872 109.893333,13.2 109.776,12.496 C109.658667,11.792 109.538667,11.1173333 109.416,10.472 C109.293333,9.82666667 109.178667,9.24 109.072,8.712 C108.965333,8.184 108.874667,7.77066667 108.8,7.472 C108.736,7.22666667 108.64,7.04266667 108.512,6.92 C108.384,6.79733333 108.197333,6.736 107.952,6.736 C107.685333,6.736 107.461333,6.86133333 107.28,7.112 C107.098667,7.36266667 106.909333,7.74666667 106.712,8.264 C106.514667,8.78133333 106.274667,9.432 105.992,10.216 C105.709333,11 105.338667,11.9253333 104.88,12.992 C104.410667,11.9253333 104.029333,10.9973333 103.736,10.208 C103.442667,9.41866667 103.192,8.76533333 102.984,8.248 C102.776,7.73066667 102.581333,7.34666667 102.4,7.096 C102.218667,6.84533333 102,6.72 101.744,6.72 C101.317333,6.72 101.034667,6.96533333 100.896,7.456 C100.810667,7.744 100.712,8.15466667 100.6,8.688 C100.488,9.22133333 100.370667,9.816 100.248,10.472 C100.125333,11.128 100.005333,11.808 99.888,12.512 C99.7706667,13.216 99.6666667,13.888 99.576,14.528 C99.4853333,15.168 99.4106667,15.7413333 99.352,16.248 C99.2933333,16.7546667 99.264,17.1306667 99.264,17.376 C99.264,17.5573333 99.32,17.7066667 99.432,17.824 C99.544,17.9413333 99.696,18 99.888,18 C100.005333,18 100.149333,17.9546667 100.32,17.864 C100.490667,17.7733333 100.608,17.5893333 100.672,17.312 C100.928,16.0853333 101.138667,14.8 101.304,13.456 C101.469333,12.112 101.674667,10.7786667 101.92,9.456 C102.186667,10.2453333 102.509333,11.144 102.888,12.152 C103.266667,13.16 103.701333,14.2026667 104.192,15.28 C104.256,15.4293333 104.349333,15.5386667 104.472,15.608 C104.594667,15.6773333 104.725333,15.712 104.864,15.712 C104.992,15.712 105.117333,15.6773333 105.24,15.608 C105.362667,15.5386667 105.461333,15.4346667 105.536,15.296 C105.738667,14.8906667 105.946667,14.4373333 106.16,13.936 C106.373333,13.4346667 106.581333,12.9253333 106.784,12.408 C106.986667,11.8906667 107.178667,11.376 107.36,10.864 C107.541333,10.352 107.701333,9.88266667 107.84,9.456 C107.936,10.1173333 108.026667,10.7813333 108.112,11.448 C108.197333,12.1146667 108.285333,12.7813333 108.376,13.448 C108.466667,14.1146667 108.562667,14.7733333 108.664,15.424 C108.765333,16.0746667 108.88,16.704 109.008,17.312 C109.072,17.5893333 109.189333,17.7733333 109.36,17.864 C109.530667,17.9546667 109.674667,18 109.792,18 Z M114.832,18.144 C115.482667,18.144 116.018667,18.032 116.44,17.808 C116.861333,17.584 117.205333,17.3066667 117.472,16.976 C117.482667,17.1253333 117.498667,17.2666667 117.52,17.4 C117.541333,17.5333333 117.578667,17.648 117.632,17.744 C117.685333,17.84 117.762667,17.9173333 117.864,17.976 C117.965333,18.0346667 118.101333,18.064 118.272,18.064 C118.346667,18.064 118.421333,18.0533333 118.496,18.032 C118.570667,18.0106667 118.634667,17.9653333 118.688,17.896 C118.741333,17.8266667 118.786667,17.72 118.824,17.576 C118.861333,17.432 118.890667,17.2373333 118.912,16.992 C118.954667,16.4373333 118.981333,15.9146667 118.992,15.424 C119.002667,14.9333333 119.008,14.3946667 119.008,13.808 C119.008,13.328 119,12.864 118.984,12.416 C118.968,11.968 118.944,11.4613333 118.912,10.896 C118.890667,10.4693333 118.810667,10.192 118.672,10.064 C118.533333,9.936 118.384,9.872 118.224,9.872 C118.042667,9.872 117.898667,9.90666667 117.792,9.976 C117.685333,10.0453333 117.608,10.136 117.56,10.248 C117.512,10.36 117.482667,10.4826667 117.472,10.616 C117.461333,10.7493333 117.456,10.88 117.456,11.008 C117.114667,10.56 116.730667,10.2373333 116.304,10.04 C115.877333,9.84266667 115.392,9.744 114.848,9.744 C114.229333,9.744 113.690667,9.86133333 113.232,10.096 C112.773333,10.3306667 112.392,10.648 112.088,11.048 C111.784,11.448 111.557333,11.9146667 111.408,12.448 C111.258667,12.9813333 111.184,13.552 111.184,14.16 C111.184,14.9386667 111.296,15.584 111.52,16.096 C111.744,16.608 112.032,17.016 112.384,17.32 C112.736,17.624 113.128,17.8373333 113.56,17.96 C113.992,18.0826667 114.416,18.144 114.832,18.144 Z M115.072,16.736 C114.368,16.736 113.810667,16.512 113.4,16.064 C112.989333,15.616 112.784,14.9226667 112.784,13.984 C112.784,13.6 112.824,13.2453333 112.904,12.92 C112.984,12.5946667 113.109333,12.312 113.28,12.072 C113.450667,11.832 113.672,11.6426667 113.944,11.504 C114.216,11.3653333 114.544,11.296 114.928,11.296 C115.173333,11.296 115.44,11.3333333 115.728,11.408 C116.016,11.4826667 116.285333,11.6186667 116.536,11.816 C116.786667,12.0133333 116.994667,12.288 117.16,12.64 C117.325333,12.992 117.408,13.4453333 117.408,14 C117.408,14.3733333 117.362667,14.728 117.272,15.064 C117.181333,15.4 117.042667,15.6906667 116.856,15.936 C116.669333,16.1813333 116.429333,16.376 116.136,16.52 C115.842667,16.664 115.488,16.736 115.072,16.736 Z M121.776,21.888 C121.978667,21.888 122.136,21.8426667 122.248,21.752 C122.36,21.6613333 122.445333,21.5413333 122.504,21.392 C122.562667,21.2426667 122.597333,21.0746667 122.608,20.888 C122.618667,20.7013333 122.624,20.5066667 122.624,20.304 C122.624,19.792 122.605333,19.28 122.568,18.768 C122.530667,18.256 122.485333,17.7013333 122.432,17.104 C122.602667,17.3493333 122.888,17.576 123.288,17.784 C123.688,17.992 124.138667,18.096 124.64,18.096 C125.226667,18.096 125.778667,18.008 126.296,17.832 C126.813333,17.656 127.264,17.4 127.648,17.064 C128.032,16.728 128.333333,16.3146667 128.552,15.824 C128.770667,15.3333333 128.88,14.768 128.88,14.128 C128.88,13.36 128.773333,12.7013333 128.56,12.152 C128.346667,11.6026667 128.061333,11.1546667 127.704,10.808 C127.346667,10.4613333 126.928,10.2053333 126.448,10.04 C125.968,9.87466667 125.456,9.792 124.912,9.792 C124.229333,9.792 123.629333,9.888 123.112,10.08 C122.594667,10.272 122.16,10.608 121.808,11.088 C121.456,11.568 121.192,12.2133333 121.016,13.024 C120.84,13.8346667 120.752,14.864 120.752,16.112 C120.752,16.4746667 120.76,16.8693333 120.776,17.296 C120.792,17.7226667 120.808,18.1493333 120.824,18.576 C120.84,19.0026667 120.858667,19.408 120.88,19.792 C120.901333,20.176 120.917333,20.5013333 120.928,20.768 C120.949333,21.184 121.037333,21.4746667 121.192,21.64 C121.346667,21.8053333 121.541333,21.888 121.776,21.888 Z M124.768,16.512 C124.384,16.512 124.058667,16.4426667 123.792,16.304 C123.525333,16.1653333 123.312,15.9786667 123.152,15.744 C122.992,15.5093333 122.877333,15.2346667 122.808,14.92 C122.738667,14.6053333 122.704,14.272 122.704,13.92 C122.704,13.5573333 122.744,13.2213333 122.824,12.912 C122.904,12.6026667 123.029333,12.336 123.2,12.112 C123.370667,11.888 123.592,11.712 123.864,11.584 C124.136,11.456 124.458667,11.392 124.832,11.392 C125.098667,11.392 125.368,11.4346667 125.64,11.52 C125.912,11.6053333 126.157333,11.752 126.376,11.96 C126.594667,12.168 126.770667,12.44 126.904,12.776 C127.037333,13.112 127.104,13.5253333 127.104,14.016 C127.104,14.496 127.037333,14.896 126.904,15.216 C126.770667,15.536 126.594667,15.792 126.376,15.984 C126.157333,16.176 125.909333,16.312 125.632,16.392 C125.354667,16.472 125.066667,16.512 124.768,16.512 Z" id="BacktoMap" fill="#FFFFFF" fill-rule="nonzero"></path>
    </g>
</svg>