<svg version="1.2" xmlns="http://www.w3.org/2000/svg" xmlns:xlink="http://www.w3.org/1999/xlink" overflow="visible" preserveAspectRatio="none" viewBox="0 0 78 48" height="62" width="98"><g transform="translate(1, 1)"><desc>Created with Sketch.</desc><g stroke-linejoin="round" stroke-linecap="round" fill-rule="evenodd" fill="none" stroke-width="1" stroke="none" id="Counter_1586820853645"><g stroke="#000000" transform="translate(2.000000, 2.000000)" id="COUNTER_1586820853645"><path stroke-width="2.5" id="STROKE_99fb390a-b112-4495-90fb-e96524237ba6_1586820853645" d="M43.37,0.1575 C24.8575,0.685 -1.3375,-2.3675 0.2,23.87 C2.12,34.845 10.8125,39.5925 21.1375,41.37 C32.62,43.335 45.8675,42.12 54.835,41.48 C69.085,39.4025 76.1325,21.865 69.2625,9.9125 C63.545,2.04 52.5,0.3975 43.37,0.1575 Z" vector-effect="non-scaling-stroke" style="fill: rgb(123, 165, 181);"/><path stroke-width="1.5" id="STROKE_8eb43624-4fd8-4295-b07f-e77d82029ab2_1586820853645" d="M12.75,8.1475 C7.6425,10.075 5.6075,15.2625 5.25,19.4425 C4.89,23.6925 6.96,27.71 9.5775,30.6675 C15.25,35.3775 22.39,37 29.7275,37 C44.25,36.985 64.065,39.6325 67.7625,21.65 C69.7625,8.0175 53.2975,5.3425 43.085,5.2575 C33,5 22.4775,5.3525 12.75,8.1475 Z" vector-effect="non-scaling-stroke" style="fill: rgb(123, 165, 181);"/></g></g></g></svg>