<?xml version="1.0" encoding="UTF-8"?>
<svg width="32px" height="40px" viewBox="0 0 32 40" version="1.1" xmlns="http://www.w3.org/2000/svg" xmlns:xlink="http://www.w3.org/1999/xlink">
    <!-- Generator: Sketch 64 (93537) - https://sketch.com -->
    <title>svg/gemBlueTiny</title>
    <desc>Created with Sketch.</desc>
    <g id="gemBlueTiny" stroke="none" stroke-width="1" fill="none" fill-rule="evenodd">
        <g transform="translate(1.000000, 1.000000)">
            <path d="M7.44269854,37.4373522 C12.5366535,37.4635934 17.5704807,37.6665248 22.6869836,37.701513 C24.355531,35.2068558 27.0894685,33.3279905 29.107509,31.127234 C29.6355065,23.286383 29.819648,15.1638771 29.1413309,7.33527187 C26.6159618,5.06104019 24.385595,2.54888889 21.9316277,0.148699764 C16.9485334,0.197683215 11.8865213,0.335886525 6.89966903,0.306146572 C5.45096401,1.85962175 3.96655809,3.56179669 2.5103371,5.11877069 C1.80195605,5.87801418 1.25328955,6.62326241 0.424652833,7.26004728 C-0.452837755,15.3580615 0.588125383,23.6135225 0.445321776,31.7272813 L0.603157342,31.8777305 C2.70951055,33.7391017 5.34010332,35.5742317 7.44081954,37.4408511" id="STROKE_dbc41132-9eda-410f-bc4a-6271284aa847" stroke="#000000" stroke-width="2" fill="#2FB3CC" stroke-linecap="round" stroke-linejoin="round"></path>
            <path d="M19.6674389,32.5809929 C16.8790106,32.4620331 13.5907696,32.6404728 10.7741564,32.5110165 C9.45885999,31.2601891 8.02706593,30.0408511 6.67794764,28.8250118 C6.62533578,23.1481797 6.17061904,17.2789125 6.39797741,11.5163593 C6.42428334,10.8638298 6.33409159,10.1780615 6.72492251,9.80543735 C7.75273269,8.8222695 10.1071132,6.00921986 10.1071132,6.00921986 C10.1071132,6.00921986 11.999261,6.00921986 13.3483793,5.98997636 C15.6877279,5.96023641 19.5208773,6.02846336 19.5208773,6.02846336 C19.5208773,6.02846336 22.6287348,8.26245863 23.3822117,9.37683215 C24.004159,15.7639243 23.0778146,22.3049645 23.3352368,28.6868085 C22.3280956,30.0775887 20.7798039,31.2636879 19.6749549,32.5809929" id="STROKE_ef3a26b0-d819-4a38-90ef-3be6a7495abf" stroke="#6ECCDE" stroke-width="1.64444444" fill="#49C3DA" stroke-linecap="round" stroke-linejoin="round"></path>
            <g id="Group" transform="translate(1.811148, 1.654563)">
                <path d="M0.327136135,6.42152612 C1.86039592,7.04606512 2.95962,7.06099291 4.35571316,7.92170213" id="STROKE_41d77d90-dfc1-4029-b062-b02827c2157d" stroke="#6ECCDE" stroke-width="1.64444444" stroke-linecap="round" stroke-linejoin="round"></path>
                <path d="M5.86707131,0.212583296 C6.86105958,1.74331616 6.6687558,2.58600473 7.94835128,3.99602837 L5.86707131,0.212583296 Z" id="STROKE_83ebc2b5-c536-4deb-8b08-c5b93d66b053" stroke="#6ECCDE" stroke-width="1.64444444" stroke-linecap="round" stroke-linejoin="round"></path>
                <path d="M19.4383257,0.00388981235 C18.974214,1.49088745 18.3279187,2.93238771 17.6946975,4.37390071" id="STROKE_f3893580-ff6e-4812-97cf-1ffd3b492b60" stroke="#6ECCDE" stroke-width="1.64444444" stroke-linecap="round" stroke-linejoin="round"></path>
                <path d="M21.8153332,7.47735225 C23.2048107,7.10020833 23.9565456,6.88889406 24.070538,6.84340943 C25.171118,6.43944124 25.7401979,6.22812697 25.7777778,6.20946661" id="STROKE_9c892f25-7662-47b1-8287-94e77eff1368" stroke="#6ECCDE" stroke-width="1.64444444" stroke-linecap="round" stroke-linejoin="round"></path>
                <path d="M0.327136135,29.4347824 C1.97125661,28.7542623 2.96337799,28.4352719 4.48160581,27.4975887" id="STROKE_293476dc-d3db-41a5-8361-42ee2a338931" stroke="#6ECCDE" stroke-width="1.64444444" stroke-linecap="round" stroke-linejoin="round"></path>
                <path d="M6.41821271,34.2353559 C7.12875097,32.9159396 7.56147432,32.2641358 8.5233237,31.0908747" id="STROKE_edce934f-2185-49db-b46d-8c732cf1c43a" stroke="#6ECCDE" stroke-width="1.64444444" stroke-linecap="round" stroke-linejoin="round"></path>
                <path d="M17.8450171,31.1940898 C17.8511487,31.2059122 17.8561779,31.2182033 17.860049,31.2308274 L17.9502408,31.383026 C18.0084896,31.4792435 18.0836494,31.5982033 18.1719622,31.7329078 C18.2602749,31.8676123 18.5083023,32.2577305 18.9122861,32.863026 C19.31627,33.4683215 19.9914189,34.5040498 20.0158459,34.5425368" id="STROKE_d08af9a3-ce52-427b-aebe-26afb04ff789" stroke="#6ECCDE" stroke-width="1.64444444" stroke-linecap="round" stroke-linejoin="round"></path>
                <path d="M21.8115752,27.3856265 C21.9042636,27.4492253 23.7676088,28.2673286 23.9705402,28.3600473 C24.1734717,28.452766 25.4660215,28.9874062 25.5430603,29.0171461" id="STROKE_f59ce1e0-d52b-44e3-8d52-e21787c4d453" stroke="#6ECCDE" stroke-width="1.64444444" stroke-linecap="round" stroke-linejoin="round"></path>
                <path d="M2.59113388,5.36406619 C2.59892126,5.34663131 2.60459339,5.3284414 2.60804483,5.30983452 C2.60804483,5.30983452 2.92371596,4.8987234 3.54754225,4.09574468 L4.56971544,2.79243499" id="STROKE_81aa6f71-1cca-4f5f-9ddd-6b1bbd704623" stroke="#6ECCDE" stroke-width="1.64444444" stroke-linecap="round" stroke-linejoin="round"></path>
                <path d="M23.799958,21.976643 C23.799958,21.9958865 23.799958,22.2425532 23.779289,22.7148936 C23.7586201,23.187234 23.779289,24.4538061 23.798079,24.6934752 C23.8129727,24.9372631 23.8073184,25.181763 23.781168,25.4247281 C23.7548621,25.6748936 23.7323142,25.8463357 23.7116452,25.937305" id="STROKE_d81cdd5e-bd38-48ca-bb0a-592f513ab303" stroke="#6ECCDE" stroke-width="1.64444444" stroke-linecap="round" stroke-linejoin="round"></path>
                <ellipse id="Oval" fill="#6ECCDE" cx="6.58156028" cy="9.70212766" rx="1" ry="1"></ellipse>
                <ellipse id="Oval" fill="#6ECCDE" cx="17.3850696" cy="28.9837352" rx="1" ry="1"></ellipse>
                <ellipse id="Oval" fill="#76CFE0" cx="9.70658261" cy="2.94118203" rx="1" ry="1"></ellipse>
            </g>
        </g>
    </g>
</svg>