<?xml version="1.0" encoding="UTF-8"?>
<svg width="63px" height="87px" viewBox="0 0 63 87" version="1.1" xmlns="http://www.w3.org/2000/svg" xmlns:xlink="http://www.w3.org/1999/xlink">
    
    <title>svg/Bronze-shield</title>
    <desc>Created with Sketch.</desc>
    <g id="Bronze-shield" stroke="none" stroke-width="1" fill="none" fill-rule="evenodd" stroke-linecap="round" stroke-linejoin="round">
        <g id="BRONZE-shield" transform="translate(2.000000, 2.000000)">
            <path d="M-4.61852778e-14,14.4685714 L-4.61852778e-14,14.5583333 C1.16243386,22.9557143 2.1086294,28.900213 1.91259766,37.402832 C2.02265057,47.1435463 -2,60.8945313 5.85687831,69.9754762 C11.9854497,76.5930952 22.2031746,78.4069048 29.6145503,83.48 C38.2502646,77.4783333 51.8486772,75.2404762 56.5706349,65.8990476 C61.3544974,56.4338095 58.1539987,44.1816406 57.479248,36.7060547 C56.8044974,29.2304688 57.3485602,24.5517578 58.1732804,14.9854762 C58.1578222,14.8995531 58.152061,14.812443 58.1560847,14.7254762 L56.8044974,14.7904762 L56.7838624,14.8152381 C47.2677249,16.1121429 37.5246032,12.0511905 30.2232804,6.79547619 C28.9232804,5.20452381 27.9362434,7.34952381 26.9835979,8.13261905 C19.6031746,13.5957143 9.38544974,16.2142857 -4.61852778e-14,14.4685714 Z" id="SHADOW" stroke="#000000" stroke-width="2.5" fill="#000000" opacity="0.2" style="mix-blend-mode: multiply;"></path>
            <path d="M0,8.46857143 L0,8.55833333 C1.16243386,16.9557143 2.1086294,22.900213 1.91259766,31.402832 C2.02265057,41.1435463 -2,54.8945313 5.85687831,63.9754762 C11.9854497,70.5930952 22.2031746,72.4069048 29.6145503,77.48 C38.2502646,71.4783333 51.8486772,69.2404762 56.5706349,59.8990476 C61.3544974,50.4338095 58.1539987,38.1816406 57.479248,30.7060547 C56.8044974,23.2304688 57.3485602,18.5517578 58.1732804,8.98547619 C58.1578222,8.89955306 58.152061,8.81244299 58.1560847,8.72547619 L56.8044974,8.79047619 L56.7838624,8.8152381 C47.2677249,10.1121429 37.5246032,6.05119048 30.2232804,0.79547619 C28.9232804,-0.79547619 27.9362434,1.34952381 26.9835979,2.13261905 C19.6031746,7.59571429 9.38544974,10.2142857 0,8.46857143 Z" id="STROKE_76bb0a68-dc04-4bea-850f-99e3047bfe27" stroke="#000000" stroke-width="2.5" fill="#AE6321"></path>
            <path d="M5,13.2521653 C5.3262953,13.196727 5.66159398,13.196727 5.98788928,13.2521653 C10.331749,13.2081402 14.8075651,12.7710332 18.9196096,11.4031087 C22.8711668,10.2993351 26.9297155,8.80247978 29.6580018,5.96285714 C32.1223754,7.29619048 34.8637934,9.36774948 37.520752,10.480957 C42.5136942,12.480957 48.2816763,12.6200898 53.7204169,12.7270081 C52.40442,22.1609704 53.2416992,30.1035156 54.5458984,38.1586914 C55.3994984,43.4308139 55.0399802,55.6672597 51.0919895,59.9471339 C48.6434198,62.6437543 45.5130538,64.7976312 41.9513388,66.236442 C38.9520071,67.5288949 35.6388333,68.1421024 32.8784495,69.7615993 C31.8620292,70.5226056 30.9775651,71.2521653 29.9540119,71.9628571 C28.8341663,71.6295238 27.9318703,70.9628571 27.0759374,70.2836119 C24.8790428,68.9660018 22.5466255,67.7678886 20.2712704,66.5477628 C15.8667821,64.0603414 10.0749691,62.3402156 7.753251,57.8810961 C4.16546537,51.2490207 6.6589689,43.0716606 6.6875,36.059082 C7.25455558,28.1188305 6.22327084,21.0886433 5,13.2521653 Z" id="STROKE_1e1260d5-97d6-460a-8bef-dadc888eb300" stroke="#965922" stroke-width="1.5" fill="#BF712B"></path>
            <path d="M37.520752,10.480957 C42.5136942,12.480957 48.2816763,12.6200898 53.7204169,12.7270081 C52.40442,22.1609704 53.2416992,30.1035156 54.5458984,38.1586914 C55.3994984,43.4308139 55.0399802,55.6672597 51.0919895,59.9471339 C48.6434198,62.6437543 45.5130538,64.7976312 41.9513388,66.236442 C38.9520071,67.5288949 35.6388333,68.1421024 32.8784495,69.7615993" id="Path" stroke="#7D4A1C" stroke-width="1.5"></path>
            <path d="M29.9540119,71.9628571 C28.8341663,71.6295238 27.9318703,70.9628571 27.0759374,70.2836119 C24.8790428,68.9660018 22.5466255,67.7678886 20.2712704,66.5477628 C15.8667821,64.0603414 10.0749691,62.3402156 7.753251,57.8810961 C4.16546537,51.2490207 6.6589689,43.0716606 6.6875,36.059082 C7.25455558,28.1188305 6.22327084,21.0886433 5,13.2521653 C5.3262953,13.196727 5.66159398,13.196727 5.98788928,13.2521653 C10.331749,13.2081402 14.8075651,12.7710332 18.9196096,11.4031087 C22.8711668,10.2993351 26.9297155,8.80247978 29.6580018,5.96285714" id="Path" stroke="#E5934A" stroke-width="1.5"></path>
        </g>
    </g>
</svg>