<svg version="1.2" xmlns="http://www.w3.org/2000/svg" xmlns:xlink="http://www.w3.org/1999/xlink" overflow="visible" preserveAspectRatio="none" viewBox="0 0 241 827" width="241" height="827"><g transform="translate(1, 1)"><defs><path id="path-158715432288723975" d="M3.527440323955669 -3.9903264812575574 C6.173020566922422 -3.9903264812575574 12.734193447591675 -4.832300513421247 14.109761295822675 -4.987908101571946 C20.039227279794776 -5.658663747666815 27.57130958300455 -5.547805108109677 33.51068307757886 -4.987908101571946 C61.00074791894532 -2.3964554797980204 88.92867897263092 -4.349569487468514 116.40553069053708 -5.985489721886337 C129.48299865609695 -6.764097645365006 142.92933228370174 -4.987908101571946 156.08923433503827 -4.987908101571946 C170.78364964098807 -4.987908101571946 185.60217285285623 -6.983071342200726 200.1822383844842 -6.983071342200726 C203.41572534811021 -6.983071342200726 206.6492123117364 -6.983071342200726 209.88269927536226 -6.983071342200726 C211.0585127166808 -6.983071342200726 216.2016625775274 -7.940528971348491 217.0330882352941 -7 C218.28022672194405 -5.589206542977263 215.69931311383215 42.92960855821089 217.0330882352941 55 C218.48928294551132 68.17826362551946 216.15441176470586 271.3422007255139 216.15441176470586 271.3422007255139 C216.15441176470586 271.3422007255139 217.0330882352941 397.03748488512696 217.0330882352941 482.8295042321645 C217.0330882352941 568.621523579202 217.0330882352941 642.1509665224618 217.0330882352941 728 C217.0330882352941 733.9854897218863 217.0330882352941 755.3446191051995 217.0330882352941 760 C217.0330882352941 763.9903264812575 217.0330882352941 790.0241837968559 217.0330882352941 800 C217.0330882352941 803.9778350291919 216.60950215318306 808.1018539377059 212.63970588235293 809 C209.4438023374894 809.7230567990056 208.55506824906053 808.7896898234294 205.4733988704177 809.0386940749698 C198.72468638853013 809.5840017942403 191.92154420794475 809.4505688548472 185.1906170076726 810.0362756952842 C177.81743445862483 810.6778698362211 170.552295848199 812.5360608632506 163.14411498294973 813.0290205562274 C156.4065012377388 813.4773589625986 149.59894686541531 812.5806821498561 142.8613331202046 813.0290205562274 C130.79746504047904 813.8317818295908 118.80049631983105 816.2992080204167 106.705069799659 817.019347037485 C82.63597553914425 818.4523757821581 57.513360938578884 817.9612235813605 33.51068307757886 816.0217654171705 C20.676648924504292 814.984753111218 7.65672077023044 813.0290205562274 -5.291160485933501 813.0290205562274 C-8.524647449559538 813.0290205562274 -11.758134413185557 813.0290205562274 -14.991621376811597 813.0290205562274 C-16.167434818130133 813.0290205562274 -17.993221944038012 814.218706058162 -18.51906170076727 813.0290205562274 C-19.263872451534702 811.3439244018693 -17.949257844587567 810.4507165083938 -17.637201619778345 809.0386940749698 C-17.15049703660335 806.8364057203198 -17.361415416687006 802.2442920216973 -17.637201619778345 800.0604594921404 C-18.523286834412097 793.0439311307271 -19.506338373689026 786.1378998801615 -20.282781862745097 779.1112454655381 C-20.933473094480355 773.2226232020071 -19.80781190204954 767.0650498741858 -20.282781862745097 761.1547762998791 C-23.115216662250532 725.9094641080338 -21.041997147076987 689.6856076091302 -19.400921781756175 654.4135429262394 C-18.58364267581303 636.8475480316865 -20.282781862745097 619.1471410951468 -20.282781862745097 601.5417170495768 C-20.282781862745097 585.6956271069802 -19.460647955558343 569.4681038565462 -20.282781862745097 553.6577992744861 C-21.43951107230972 531.4129545328767 -22.480215770336653 508.14538682002035 -21.164641943734004 485.82224909310764 C-19.20597729344913 452.58691112499304 -18.156601172416835 419.3520072255792 -16.75534153878943 386.0640870616687 C-16.36440198621983 376.77703967762045 -17.211227736391777 367.4145741266929 -16.75534153878943 358.1318016928658 C-16.294927558320644 348.75683436873567 -14.991621376811597 339.5654855954447 -14.991621376811597 330.19951632406287 C-14.991621376811597 317.7009826811114 -14.144392428992438 304.75069324982724 -14.991621376811597 292.2914147521161 C-15.837853592829342 279.84679410944335 -14.207303675062962 221.1230912263042 -13.227901214833754 204.50423216444983 C-12.837667038841342 197.88259597781112 -13.593852632717892 191.17617039081512 -13.227901214833754 184.55259975816205 C-12.783944833090583 176.51717125977052 -11.22527010276736 168.61115789788082 -10.582320971867002 160.6106408706167 C-9.689363944999547 149.4991585546456 -13.889286199555956 139.66138125105903 -11.464181052855926 128.68802902055623 C-11.042315417363792 126.7791302585791 -10.128072152679145 116.26345834799763 -10.582320971867002 114.72188633615478 C-13.196683082662238 105.84959588963292 -10.005941747499108 93.8704747645507 -12.346041133844844 84.7944377267231 C-14.622538635945812 75.96507955238698 -11.464181052855926 4.987908101571946 -11.464181052855926 1.9951632406287787 C-11.464181052855926 -0.9975816203143894 -11.895311366655939 -5.231760661790444 -11.464181052855926 -4.987908101571946 C-9.851187595592657 -4.075579342542074 -7.212881939914252 -6.16422463492524 -6.173020566922422 -4.987908101571946 C-5.732090526427961 -4.48911729141475 0 -3.9903264812575574 3.527440323955669 -3.9903264812575574" vector-effect="non-scaling-stroke"/><filter height="300%" id="filter-158715432292223978" width="300%" x="-100%" y="-100%" vector-effect="non-scaling-stroke"><feFlood flood-opacity="0" result="backgroundFix" vector-effect="non-scaling-stroke"/><feColorMatrix in="SourceAlpha" result="hardAlpha" type="matrix" values="0 0 0 0 0 0 0 0 0 0 0 0 0 0 0 0 0 0 127 0" vector-effect="non-scaling-stroke"/><feOffset dx="-6" dy="1" vector-effect="non-scaling-stroke"/><feGaussianBlur stdDeviation="0.5" vector-effect="non-scaling-stroke"/><feComposite in2="hardAlpha" k2="-1" k3="1" operator="arithmetic" vector-effect="non-scaling-stroke"/><feColorMatrix in="" result="" type="matrix" values="0 0 0 0 0  0 0 0 0 0  0 0 0 0 0  0 0 0 0.2 0" vector-effect="non-scaling-stroke"/><feBlend in2="backgroundFix" mode="normal" result="shadowInner_1" vector-effect="non-scaling-stroke"/></filter></defs><g transform="translate(21.777780805940267, 7.413668658567587)"><path style="stroke: rgb(0, 0, 0); stroke-width: 1px; stroke-linecap: round; stroke-linejoin: miter; fill: rgb(67, 83, 112);" d="M3.527440323955669 -3.9903264812575574 C6.173020566922422 -3.9903264812575574 12.734193447591675 -4.832300513421247 14.109761295822675 -4.987908101571946 C20.039227279794776 -5.658663747666815 27.57130958300455 -5.547805108109677 33.51068307757886 -4.987908101571946 C61.00074791894532 -2.3964554797980204 88.92867897263092 -4.349569487468514 116.40553069053708 -5.985489721886337 C129.48299865609695 -6.764097645365006 142.92933228370174 -4.987908101571946 156.08923433503827 -4.987908101571946 C170.78364964098807 -4.987908101571946 185.60217285285623 -6.983071342200726 200.1822383844842 -6.983071342200726 C203.41572534811021 -6.983071342200726 206.6492123117364 -6.983071342200726 209.88269927536226 -6.983071342200726 C211.0585127166808 -6.983071342200726 216.2016625775274 -7.940528971348491 217.0330882352941 -7 C218.28022672194405 -5.589206542977263 215.69931311383215 42.92960855821089 217.0330882352941 55 C218.48928294551132 68.17826362551946 216.15441176470586 271.3422007255139 216.15441176470586 271.3422007255139 C216.15441176470586 271.3422007255139 217.0330882352941 397.03748488512696 217.0330882352941 482.8295042321645 C217.0330882352941 568.621523579202 217.0330882352941 642.1509665224618 217.0330882352941 728 C217.0330882352941 733.9854897218863 217.0330882352941 755.3446191051995 217.0330882352941 760 C217.0330882352941 763.9903264812575 217.0330882352941 790.0241837968559 217.0330882352941 800 C217.0330882352941 803.9778350291919 216.60950215318306 808.1018539377059 212.63970588235293 809 C209.4438023374894 809.7230567990056 208.55506824906053 808.7896898234294 205.4733988704177 809.0386940749698 C198.72468638853013 809.5840017942403 191.92154420794475 809.4505688548472 185.1906170076726 810.0362756952842 C177.81743445862483 810.6778698362211 170.552295848199 812.5360608632506 163.14411498294973 813.0290205562274 C156.4065012377388 813.4773589625986 149.59894686541531 812.5806821498561 142.8613331202046 813.0290205562274 C130.79746504047904 813.8317818295908 118.80049631983105 816.2992080204167 106.705069799659 817.019347037485 C82.63597553914425 818.4523757821581 57.513360938578884 817.9612235813605 33.51068307757886 816.0217654171705 C20.676648924504292 814.984753111218 7.65672077023044 813.0290205562274 -5.291160485933501 813.0290205562274 C-8.524647449559538 813.0290205562274 -11.758134413185557 813.0290205562274 -14.991621376811597 813.0290205562274 C-16.167434818130133 813.0290205562274 -17.993221944038012 814.218706058162 -18.51906170076727 813.0290205562274 C-19.263872451534702 811.3439244018693 -17.949257844587567 810.4507165083938 -17.637201619778345 809.0386940749698 C-17.15049703660335 806.8364057203198 -17.361415416687006 802.2442920216973 -17.637201619778345 800.0604594921404 C-18.523286834412097 793.0439311307271 -19.506338373689026 786.1378998801615 -20.282781862745097 779.1112454655381 C-20.933473094480355 773.2226232020071 -19.80781190204954 767.0650498741858 -20.282781862745097 761.1547762998791 C-23.115216662250532 725.9094641080338 -21.041997147076987 689.6856076091302 -19.400921781756175 654.4135429262394 C-18.58364267581303 636.8475480316865 -20.282781862745097 619.1471410951468 -20.282781862745097 601.5417170495768 C-20.282781862745097 585.6956271069802 -19.460647955558343 569.4681038565462 -20.282781862745097 553.6577992744861 C-21.43951107230972 531.4129545328767 -22.480215770336653 508.14538682002035 -21.164641943734004 485.82224909310764 C-19.20597729344913 452.58691112499304 -18.156601172416835 419.3520072255792 -16.75534153878943 386.0640870616687 C-16.36440198621983 376.77703967762045 -17.211227736391777 367.4145741266929 -16.75534153878943 358.1318016928658 C-16.294927558320644 348.75683436873567 -14.991621376811597 339.5654855954447 -14.991621376811597 330.19951632406287 C-14.991621376811597 317.7009826811114 -14.144392428992438 304.75069324982724 -14.991621376811597 292.2914147521161 C-15.837853592829342 279.84679410944335 -14.207303675062962 221.1230912263042 -13.227901214833754 204.50423216444983 C-12.837667038841342 197.88259597781112 -13.593852632717892 191.17617039081512 -13.227901214833754 184.55259975816205 C-12.783944833090583 176.51717125977052 -11.22527010276736 168.61115789788082 -10.582320971867002 160.6106408706167 C-9.689363944999547 149.4991585546456 -13.889286199555956 139.66138125105903 -11.464181052855926 128.68802902055623 C-11.042315417363792 126.7791302585791 -10.128072152679145 116.26345834799763 -10.582320971867002 114.72188633615478 C-13.196683082662238 105.84959588963292 -10.005941747499108 93.8704747645507 -12.346041133844844 84.7944377267231 C-14.622538635945812 75.96507955238698 -11.464181052855926 4.987908101571946 -11.464181052855926 1.9951632406287787 C-11.464181052855926 -0.9975816203143894 -11.895311366655939 -5.231760661790444 -11.464181052855926 -4.987908101571946 C-9.851187595592657 -4.075579342542074 -7.212881939914252 -6.16422463492524 -6.173020566922422 -4.987908101571946 C-5.732090526427961 -4.48911729141475 0 -3.9903264812575574 3.527440323955669 -3.9903264812575574" vector-effect="non-scaling-stroke"/><use xlink:href="#path-158715432288723975" xmlns:xlink="http://www.w3.org/1999/xlink" filter="url(#filter-158715432292223978)" vector-effect="non-scaling-stroke"/></g></g></svg>