<?xml version="1.0" encoding="UTF-8" standalone="no"?>
<svg
   
   
   
   
   xmlns="http://www.w3.org/2000/svg"
   
   
   width="115px"
   height="55px"
   viewBox="0 0 115 55"
   version="1.1"
   id="svg13"
   
   >
  <metadata
     id="metadata19">
    
  </metadata>
  <defs
     id="defs17" />
  
  
  <title
     id="title2">svg/nextButton</title>
  <desc
     id="desc4">Created with Sketch.</desc>
  <path
     d="M 69.006087,8.0352734 C 47.913188,8.4403807 19.192114,5.7919012 7.064152,15.817895 2.7094496,19.417858 1.5283992,30.87689 2.1574084,38.111927 3.8687079,50.387672 20.480445,51.770256 34.970502,52.432485 c 18.390509,0.840488 37.753276,0.667985 51.639436,0 14.882992,-1.46249 26.601322,-1.46249 26.387172,-20.937223 -0.05,-4.548352 -0.20322,-10.099496 -3.66623,-14.160494 -8.85354,-8.2167466 -26.187002,-9.049 -40.324793,-9.2994946 z"
     id="SHADOW"
     style="opacity:0.2;mix-blend-mode:multiply;fill:#000000;fill-rule:evenodd;stroke:#000000;stroke-width:2.5;stroke-linecap:round;stroke-linejoin:round"
      />
  <path
     d="M 69.006087,2.0352734 C 47.913188,2.4403807 19.192114,-0.2080988 7.064152,9.8178947 2.7094496,13.417858 1.5283992,24.87689 2.1574084,32.111926 3.8687079,44.387672 20.480445,45.770256 34.970502,46.432485 c 18.390509,0.840488 37.753276,0.667985 51.639436,0 14.882992,-1.46249 26.601322,-1.46249 26.387172,-20.937223 -0.05,-4.548352 -0.20322,-10.099496 -3.66623,-14.160494 -8.85354,-8.2167466 -26.187002,-9.049 -40.324793,-9.2994946 z"
     id="STROKE_99fb390a-b112-4495-90fb-e96524237ba6"
     
     style="fill:#87bc4b;fill-rule:evenodd;stroke:#000000;stroke-width:2.5;stroke-linecap:round;stroke-linejoin:round;fill-opacity:1" />
  <path
     d="m 16,39.486443 c 14.489255,2.75165 73.685161,4.195155 86.20919,-0.774966 C 108.3223,36.285512 109.28873,25.211551 106.54143,17"
     id="Path"
     
     style="fill:none;fill-rule:evenodd;stroke:#6b953b;stroke-width:1.5;stroke-linecap:round;stroke-linejoin:round;stroke-opacity:1" />
  <path
     d="M 102,13.247563 C 93.777577,7.9947442 73.19567,7.1809262 62.128246,7.1189958 45.970647,6.8416326 36.533011,6.8071403 20.948178,9.8177418 12.765239,11.893926 8.6735364,14.817888 7.5972802,22.4836 6.521024,30.149311 6.4606847,34.169938 11.209884,37"
     id="path9"
     
     style="fill:none;fill-rule:evenodd;stroke:#b3d58e;stroke-width:1.5;stroke-linecap:round;stroke-linejoin:round;stroke-opacity:1" />
</svg>
