<?xml version="1.0" encoding="UTF-8" standalone="no"?>
<svg
   xmlns:dc="http://purl.org/dc/elements/1.1/"
   xmlns:cc="http://creativecommons.org/ns#"
   xmlns:rdf="http://www.w3.org/1999/02/22-rdf-syntax-ns#"
   xmlns:svg="http://www.w3.org/2000/svg"
   xmlns="http://www.w3.org/2000/svg"
   xmlns:sodipodi="http://sodipodi.sourceforge.net/DTD/sodipodi-0.dtd"
   xmlns:inkscape="http://www.inkscape.org/namespaces/inkscape"
   width="115px"
   height="55px"
   viewBox="0 0 115 55"
   version="1.1"
   id="svg13"
   sodipodi:docname="continueButton.svg"
   inkscape:version="0.92.3 (2405546, 2018-03-11)">
  <metadata
     id="metadata19">
    <rdf:RDF>
      <cc:Work
         rdf:about="">
        <dc:format>image/svg+xml</dc:format>
        <dc:type
           rdf:resource="http://purl.org/dc/dcmitype/StillImage" />
        <dc:title>svg/nextButton</dc:title>
      </cc:Work>
    </rdf:RDF>
  </metadata>
  <defs
     id="defs17" />
  <sodipodi:namedview
     pagecolor="#ffffff"
     bordercolor="#666666"
     borderopacity="1"
     objecttolerance="10"
     gridtolerance="10"
     guidetolerance="10"
     inkscape:pageopacity="0"
     inkscape:pageshadow="2"
     inkscape:window-width="731"
     inkscape:window-height="480"
     id="namedview15"
     showgrid="false"
     inkscape:zoom="2.973913"
     inkscape:cx="57.5"
     inkscape:cy="27.5"
     inkscape:window-x="67"
     inkscape:window-y="27"
     inkscape:window-maximized="0"
     inkscape:current-layer="svg13" />
  <!-- Generator: Sketch 64 (93537) - https://sketch.com -->
  <title
     id="title2">svg/nextButton</title>
  <desc
     id="desc4">Created with Sketch.</desc>
  <path
     d="M 69.006087,8.0352734 C 47.913188,8.4403807 19.192114,5.7919012 7.064152,15.817895 2.7094496,19.417858 1.5283992,30.87689 2.1574084,38.111927 3.8687079,50.387672 20.480445,51.770256 34.970502,52.432485 c 18.390509,0.840488 37.753276,0.667985 51.639436,0 14.882992,-1.46249 26.601322,-1.46249 26.387172,-20.937223 -0.05,-4.548352 -0.20322,-10.099496 -3.66623,-14.160494 -8.85354,-8.2167466 -26.187002,-9.049 -40.324793,-9.2994946 z"
     id="SHADOW"
     style="opacity:0.2;mix-blend-mode:multiply;fill:#000000;fill-rule:evenodd;stroke:#000000;stroke-width:2.5;stroke-linecap:round;stroke-linejoin:round"
     inkscape:connector-curvature="0" />
  <path
     d="M 69.006087,2.0352734 C 47.913188,2.4403807 19.192114,-0.2080988 7.064152,9.8178947 2.7094496,13.417858 1.5283992,24.87689 2.1574084,32.111926 3.8687079,44.387672 20.480445,45.770256 34.970502,46.432485 c 18.390509,0.840488 37.753276,0.667985 51.639436,0 14.882992,-1.46249 26.601322,-1.46249 26.387172,-20.937223 -0.05,-4.548352 -0.20322,-10.099496 -3.66623,-14.160494 -8.85354,-8.2167466 -26.187002,-9.049 -40.324793,-9.2994946 z"
     id="STROKE_99fb390a-b112-4495-90fb-e96524237ba6"
     inkscape:connector-curvature="0"
     style="fill:#87bc4b;fill-rule:evenodd;stroke:#000000;stroke-width:2.5;stroke-linecap:round;stroke-linejoin:round;fill-opacity:1" />
  <path
     d="m 16,39.486443 c 14.489255,2.75165 73.685161,4.195155 86.20919,-0.774966 C 108.3223,36.285512 109.28873,25.211551 106.54143,17"
     id="Path"
     inkscape:connector-curvature="0"
     style="fill:none;fill-rule:evenodd;stroke:#6b953b;stroke-width:1.5;stroke-linecap:round;stroke-linejoin:round;stroke-opacity:1" />
  <path
     d="M 102,13.247563 C 93.777577,7.9947442 73.19567,7.1809262 62.128246,7.1189958 45.970647,6.8416326 36.533011,6.8071403 20.948178,9.8177418 12.765239,11.893926 8.6735364,14.817888 7.5972802,22.4836 6.521024,30.149311 6.4606847,34.169938 11.209884,37"
     id="path9"
     inkscape:connector-curvature="0"
     style="fill:none;fill-rule:evenodd;stroke:#b3d58e;stroke-width:1.5;stroke-linecap:round;stroke-linejoin:round;stroke-opacity:1" />
</svg>
