<?xml version="1.0" encoding="UTF-8"?>
<svg width="63px" height="87px" viewBox="0 0 63 87" version="1.1" xmlns="http://www.w3.org/2000/svg" xmlns:xlink="http://www.w3.org/1999/xlink">
    
    <title>svg/Gold-shield</title>
    <desc>Created with Sketch.</desc>
    <g id="Gold-shield" stroke="none" stroke-width="1" fill="none" fill-rule="evenodd" stroke-linecap="round" stroke-linejoin="round">
        <g id="GOLD-shield" transform="translate(2.000000, 1.000000)">
            <path d="M3.55271368e-15,18.9756136 L0.0187812642,18.9351427 C8.20484336,28.9572013 1.72094727,37.8968439 1.72094727,50.3557129 C1.72094727,55.2558594 2.80476444,60.2510729 9.83178711,67.8986816 C15.2407912,74.1903599 24.0883129,78.4585911 29.8836744,84 C40.3014323,73.1035156 44.4447115,74.1723972 50.9177246,67.8986816 C54.0138063,64.8979251 58.1897786,60.6242676 59.4046224,51.0527344 C60.8319985,39.7986933 52.3977865,30.2428385 59.4046224,17.767711 C56.7073568,14.9817708 52.4446615,10.4642586 48.5354818,6.58300781 C47.2005857,7.54986397 46.2487356,8.30621163 45.6799316,8.85205078 C33.2115885,18.3449707 20.5104167,13.3372396 12.7766257,7.298184 C11.5056152,6.67333984 9.91114143,9.21588505 8.35766257,10.4642586 C6.03683492,12.9174217 3.41282401,15.376811 1.11346066,17.767711 C1.11346066,17.848653 0.0912232833,18.8822191 0.010732151,18.9600479 L3.55271368e-15,18.9756136 Z" id="SHADOW" stroke="#000000" stroke-width="2.5" fill="#000000" opacity="0.2" style="mix-blend-mode: multiply;"></path>
            <path d="M0,12.9756136 L0.0187812642,12.9351427 C8.20484336,22.9572013 1.72094727,31.8968439 1.72094727,44.3557129 C1.72094727,49.2558594 2.80476444,54.2510729 9.83178711,61.8986816 C15.2407912,68.1903599 24.0883129,72.4585911 29.8836744,78 C40.3014323,67.1035156 44.4447115,68.1723972 50.9177246,61.8986816 C54.0138063,58.8979251 58.1897786,54.6242676 59.4046224,45.0527344 C60.8319985,33.7986933 52.3977865,24.2428385 59.4046224,11.767711 C56.7073568,8.98177083 52.4446615,4.46425863 48.5354818,0.583007812 C47.2005857,1.54986397 46.2487356,2.30621163 45.6799316,2.85205078 C33.2115885,12.3449707 20.5104167,7.33723958 12.7766257,1.298184 C11.5056152,0.673339844 9.91114143,3.21588505 8.35766257,4.46425863 C6.03683492,6.91742167 3.41282401,9.37681102 1.11346066,11.767711 C1.11346066,11.848653 0.0912232833,12.8822191 0.010732151,12.9600479 L0,12.9756136 Z" id="STROKE_88ba1e20-0b02-4d16-9897-15b03ac42f6e" stroke="#000000" stroke-width="2.5" fill="#FFB60A"></path>
            <path d="M29.5,71.668457 C36.7818128,63.5621639 52.6308594,60.1022135 54.2192383,47.2353516 C56.4772683,35.5342292 49.0542996,23.8743764 55,12.8279931 C52.589131,10.7314344 50.3002349,8.45041958 48.1484154,6 C34.3339844,17.1054687 23.5265352,11.9643611 12.7494522,6.27748465 C10.3444498,8.99932847 7.35423013,11.5995779 5,14.3463642 C10.7372668,22.1907617 6.98140043,32.9347993 6.72753906,42.1323242 C5,58.1842448 20.0376516,63.7897636 29.5,71.668457 Z" id="STROKE_03847977-1de8-4795-9dfd-769ea45604ce" stroke="#E68F00" stroke-width="1.5" fill="#FFC341"></path>
            <path d="M48.1484154,6 C34.3339844,17.1054687 23.5265352,11.9643611 12.7494522,6.27748465 C10.3444498,8.99932847 7.35423013,11.5995779 5,14.3463642 C10.7372668,22.1907617 6.98140043,32.9347993 6.72753906,42.1323242 C5,58.1842448 20.0376516,63.7897636 29.5,71.668457" id="Path" stroke="#FFE1A3" stroke-width="1.5"></path>
        </g>
    </g>
</svg>