<?xml version="1.0" encoding="UTF-8"?>
<svg width="309px" height="51px" viewBox="0 0 309 51" version="1.1" xmlns="http://www.w3.org/2000/svg" xmlns:xlink="http://www.w3.org/1999/xlink">
    <!-- Generator: Sketch 64 (93537) - https://sketch.com -->
    <title>svg/headerBar</title>
    <desc>Created with Sketch.</desc>
    <g id="headerBar" stroke="none" stroke-width="1" fill="none" fill-rule="evenodd" stroke-linecap="round" stroke-linejoin="round">
        <g id="header" transform="translate(1.000000, 1.000000)" stroke-width="2">
            <path d="M246.300293,46.7412109 C213.714148,45.6536517 194.134787,47.7147116 161.548642,47.110512 C159.838083,45.9021128 157.956468,44.9035221 155.903798,44.11474 C152.824792,45.7460789 152.673331,45.4187531 150.877245,47.110512 C118.342489,48.3710744 85.1989146,48.1573259 50.9970862,47.9734137 C34.6542959,47.8855342 16.3479299,46.6257097 0.978751464,46.8718886 C0.593875731,46.5697888 0.46558382,41.4658009 0.208999998,41.2241211 C0.208999998,36.813464 3.13567486,40.313171 1.98104767,35.902514 C0.569836647,32.0960565 0.978751464,27.5 0.978751464,24.2414618 C3.67288159,20.7975241 10.4723529,22.0663432 0.208999998,20.1933245 C-0.309760257,14.8380306 0.208999998,10.8572598 0.978751464,5.63043048 C17.7060515,4.746962 40.4462891,5.82411701 52.6816406,5.82411701 C54.8900086,6.2021253 58.0937161,7.97057173 60.1453615,8.47185234 C61.448945,7.340464 61.448945,5.82411701 63.175293,5.1935511 C74.3037109,5.82411701 117.605599,5.48398976 132.630291,4.96749468 C165.601312,4.36329509 201.907923,4.90707472 234.750652,5.02791464 C243.731086,4.72581485 257.762982,5.87211032 267,5.63043048 C277.165225,5.63043048 283.286135,4.96749468 285.362732,4.96749468 C287.439329,4.96749468 294.296934,4.96749468 305.935547,4.96749468 C304.559245,13.6558316 304.559245,19.5 305.935547,22.5 C307.311849,25.5 307.311849,27.9928385 305.935547,29.9785156 L303.62207,33.3115234 L305.935547,35 C305.935547,43.11474 307.311849,46.0326959 305.935547,46.8718886 C302.937012,46.7412109 280.320313,46.110512 275.883789,46.7412109 C275.130392,47.5181206 273.274131,44.9832398 271.72168,44.9584961 C270.265064,44.9352799 269.160061,48.4701607 267,47.7412109 C267,47.7412109 260.100098,47.4078776 246.300293,46.7412109 Z" id="SHADOW" stroke="#000000" fill="#000000" opacity="0.2"></path>
            <path d="M246.300293,42.7412109 C213.714148,41.6536517 194.134787,43.7147116 161.548642,43.110512 C159.838083,41.9021128 157.956468,40.9035221 155.903798,40.11474 C152.824792,41.7460789 152.673331,41.4187531 150.877245,43.110512 C118.342489,44.3710744 85.1989146,44.1573259 50.9970862,43.9734137 C34.6542959,43.8855342 16.3479299,42.6257097 0.978751464,42.8718886 C0.593875731,42.5697888 0.46558382,37.4658009 0.208999998,37.2241211 C0.208999998,32.813464 3.13567486,36.313171 1.98104767,31.902514 C0.569836647,28.0960565 0.978751464,23.5 0.978751464,20.2414618 C3.67288159,16.7975241 10.4723529,18.0663432 0.208999998,16.1933245 C-0.309760257,10.8380306 0.208999998,6.8572598 0.978751464,1.63043048 C17.7060515,0.746961995 40.4462891,1.82411701 52.6816406,1.82411701 C54.8900086,2.2021253 58.0937161,3.97057173 60.1453615,4.47185234 C61.448945,3.340464 61.448945,1.82411701 63.175293,1.1935511 C74.3037109,1.82411701 117.605599,1.48398976 132.630291,0.967494684 C165.601312,0.363295088 201.907923,0.907074725 234.750652,1.02791464 C243.731086,0.725814846 257.762982,1.87211032 267,1.63043048 C277.165225,1.63043048 283.286135,0.967494684 285.362732,0.967494684 C287.439329,0.967494684 294.296934,0.967494684 305.935547,0.967494684 C304.559245,9.65583156 304.559245,15.5 305.935547,18.5 C307.311849,21.5 307.311849,23.9928385 305.935547,25.9785156 L303.62207,29.3115234 L305.935547,31 C305.935547,39.11474 307.311849,42.0326959 305.935547,42.8718886 C302.937012,42.7412109 280.320313,42.110512 275.883789,42.7412109 C275.130392,43.5181206 273.274131,40.9832398 271.72168,40.9584961 C270.265064,40.9352799 269.160061,44.4701607 267,43.7412109 C267,43.7412109 260.100098,43.4078776 246.300293,42.7412109 Z" id="outline" stroke="#A0AEC0" fill="#8A96B4"></path>
        </g>
    </g>
</svg>