<?xml version="1.0" encoding="UTF-8"?>
<svg width="157px" height="193px" viewBox="0 0 157 193" version="1.1" xmlns="http://www.w3.org/2000/svg" xmlns:xlink="http://www.w3.org/1999/xlink">
    <!-- Generator: Sketch 58 (84663) - https://sketch.com -->
    <title>mdpi/Monster3</title>
    <desc>Created with Sketch.</desc>
    <g id="Page-1" stroke="none" stroke-width="1" fill="none" fill-rule="evenodd">
        <g id="storyBackground" transform="translate(-429.000000, -594.000000)">
            <g id="Monster3" transform="translate(431.000000, 596.000000)">
                <path d="M39.5,4.4 C52.95,5.5 57.7,23.55 58.8,34.85 L59.45,35.15 C77.3,29.7 99.95,32.05 113.3,48 C135.95,11.85 185.4,34.1 120.2,58 C128.764215,73.6373393 130.487346,93.7769308 128.141437,112.248738 L129.65,103.35 L129.75,103.25 C133.35,102.65 137.45,107.25 137.05,110.75 C135.461388,116.558363 132.344761,117.388356 127.308601,117.791397 C126.659365,121.526929 125.84839,125.164667 124.9,128.65 C167.25,142.35 150.85,161.55 120.65,140.45 C116.4,151.5 111.75,162.9 105.15,172.75 C115.55,168.5 140.65,161.3 137.1,180.5 C134.35,184.85 129.85,186.35 125.25,186.65 C111.3,187.75 100.45,181.2 88.85,180.7 C89.75,175 91.7,169.15 95.25,163.25 C83.8,168 69.2,167.85 56.1,164.7 C55.092,167.436 53.71536,168.60528 52.8990528,169.667654 L52.8495773,169.733 L53.1716481,169.706755 C57.3493141,169.386077 61.412963,169.75 63.85,170.45 C69.85,172.15 72.65,175.7 69.25,186.35 C53.55,191.55 39.05,186.55 27.7,183.5 C27.6,174.5 41.45,166.35 43.05,158.2 C39.8,151 34.45,143.1 31.95,135.45 C26.15,141 20.35,147.65 13.2,151.55 C1.85,156.25 -4.35,147.7 4.55,138.8 C11.7,132.95 20.35,129.35 27.8,124.05 C23.1241092,103.353434 24.5297,76.9573156 35.6875763,57.563076 L34.7,58.9 C22.2664901,55.4046358 33.370505,36.8991127 43.3104573,47.1590262 C44.9761844,45.3683075 46.7716325,43.692694 48.7,42.15 C42.75,35.2 29.15,11.1 39.5,4.4 Z M52.8495773,169.733 L52.7236737,169.743748 C48.9880658,170.074126 45.2046296,170.960185 42.45,172.65 C46.25,171 50.85,169.85 52.8,169.8 L52.8,169.8 L52.8495773,169.733 Z M23.7727234,110.734343 L24.15,110.75 L26.65,120.1 C16.2055,127.228 11.494585,110.392555 23.7727234,110.734343 Z M25.2921277,88.8416516 L25.65,88.95 L23.5,101 C8.848,105.2075 13.552975,85.50056 25.2921277,88.8416516 Z M129.9,95.55 L128.35,81.15 C141.2,76.75 143.15,98.55 129.9,95.55 Z M30.3306761,67.1396314 L30.6,67.5 L26.3,78.75 C10.0145,81.6705 21.416825,55.629045 30.3306761,67.1396314 Z M129.2,62.85 C134.8,63.95 132.7,73.15 129,75.5 C128.95,75.5 128.75,75.6 128.3,75.75 L124.1,64.85 C125,63.05 127.25,62.4 129.2,62.85 Z M101.45,36.3 L89.4,32.05 C94.25,22.85 107.9,25.75 101.45,36.3 Z M81.9,32.05 L66.25,32.05 C66.8,22.3 80.5,21 81.9,32.05 Z" id="SHADOW" stroke="#000000" stroke-width="3" fill="#000000" opacity="0.3" stroke-linecap="round" stroke-linejoin="round"></path>
                <path d="M59.45,31.15 C77.3,25.7 99.95,28.05 113.3,44 C135.95,7.85 185.4,30.1 120.2,54 C131.4,74.45 130.9,102.6 124.9,124.65 C167.25,138.35 150.85,157.55 120.65,136.45 C116.4,147.5 111.75,158.9 105.15,168.75 C115.55,164.5 140.65,157.3 137.1,176.5 C134.35,180.85 129.85,182.35 125.25,182.65 C111.3,183.75 100.45,177.2 88.85,176.7 C89.75,171 91.7,165.15 95.25,159.25 C83.8,164 69.2,163.85 56.1,160.7 C55.05,163.55 53.6,164.7 52.8,165.8 C50.85,165.85 46.25,167 42.45,168.65 C48.4,165 59.15,165.1 63.85,166.45 C69.85,168.15 72.65,171.7 69.25,182.35 C53.55,187.55 39.05,182.55 27.7,179.5 C27.6,170.5 41.45,162.35 43.05,154.2 C39.8,147 34.45,139.1 31.95,131.45 C26.15,137 20.35,143.65 13.2,147.55 C1.85,152.25 -4.35,143.7 4.55,134.8 C11.7,128.95 20.35,125.35 27.8,120.05 C21.7,93.05 25.95,56.35 48.7,38.15 C42.75,31.2 29.15,7.1 39.5,0.4 C52.95,1.5 57.7,19.55 58.8,30.85" id="outline-bkg" fill="#87BC4B"></path>
                <path d="M63.85,166.45 C69.85,168.15 72.65,171.7 69.25,182.35 C63.6982439,184.188798 58.2965402,184.752152 53.1311125,184.577301 C57.2202516,184.436363 61.4399063,183.777547 65.75,182.35 C69.15,171.7 66.35,168.15 60.35,166.45 C58.8807724,166.027988 56.8203401,165.728125 54.500142,165.626781 C58.1964169,165.467404 61.6725058,165.82455 63.85,166.45 Z M137.1,176.5 C134.35,180.85 129.85,182.35 125.25,182.65 C123.557844,182.783432 121.911302,182.804301 120.303502,182.73706 L120.932958,182.705986 L120.932958,182.705986 L121.75,182.65 C126.35,182.35 130.85,180.85 133.6,176.5 C135.254335,167.552613 130.68689,164.338384 124.284731,163.887063 C132.400873,163.390206 139.043385,165.989297 137.1,176.5 Z M120.2,54 C131.4,74.45 130.9,102.6 124.9,124.65 C167.25,138.35 150.85,157.55 120.65,136.45 C116.643995,146.865612 112.282601,157.59219 106.267743,167.038548 C104.54738,167.615877 102.978716,168.207015 101.65,168.75 C108.25,158.9 114.35359,143.55 118.60359,132.5 C148.80359,153.6 163.75,138.35 121.4,124.65 C127.4,102.6 127.9,74.45 116.7,54 C155.462683,39.7909795 153.701905,26.1651576 141.141283,25.0477043 C156.589645,23.8008294 162.331966,38.5559203 120.2,54 Z M49.3497344,165.732 L49.3,165.8 L49.3,165.8 C47.35,165.85 42.75,167 38.95,168.65 C41.7046296,166.960185 45.4880658,166.074126 49.2236737,165.743748 L49.3497344,165.732 Z M52.6,160.7 C53.6633245,160.955685 54.7365318,161.191604 55.8171351,161.406742 C54.8724758,163.587935 53.7050706,164.644921 52.9590928,165.590565 C51.8914907,165.584414 50.7856228,165.621246 49.6716481,165.706755 L49.3497344,165.732 L49.3990528,165.667654 C50.1813472,164.649546 51.4782528,163.533254 52.4721472,161.033946 Z M91.75,159.25 C91.4401687,159.764931 91.1425248,160.279481 90.8567028,160.793584 C85.2533653,162.436758 79.1014973,163.088953 72.8581661,162.936073 C79.5539111,162.767674 86.0432053,161.617448 91.75,159.25 Z M28.45,131.45 C28.7242607,132.289238 29.0328212,133.131484 29.3691461,133.975485 C24.403377,138.908427 19.2916495,144.227282 13.2,147.55 C10.2226603,148.782907 7.59970318,149.104054 5.51073444,148.746295 C6.80312788,148.557221 8.20700856,148.168243 9.7,147.55 C16.85,143.65 22.65,137 28.45,131.45 Z M111.28651,41.7673302 L111.190028,41.900626 C110.71672,42.57736 110.253,43.277 109.8,44 C101.023915,33.5147154 88.2287936,28.9067324 75.4203282,28.528319 C88.4168721,28.1435597 101.777233,31.9783839 111.28651,41.7673302 Z M39.5,0.4 C52.7611526,1.48455523 57.5648982,19.0464724 58.751493,30.3700938 C57.8055584,30.6081444 56.8713845,30.8686809 55.95,31.15 L55.95,31.15 L55.3,30.85 C54.2803151,20.3750548 50.124172,4.09981027 38.8089293,0.902801671 C39.0248192,0.725931104 39.25574,0.55812 39.5,0.4 Z" id="Combined-Shape" fill="#000000" opacity="0.2"></path>
                <g id="Scales" transform="translate(14.352185, 20.242398)" fill="#82B44A" stroke="#000000" stroke-linecap="round" stroke-linejoin="round" stroke-width="3">
                    <path d="M28.9978148,22.9576024 C19.0478148,12.6076024 7.89781477,31.1576024 20.3478148,34.6576024" id="STROKE_73752eb0-eb27-49b2-8cce-ca40e57989c5_1_"></path>
                    <path d="M16.2478148,43.2576024 C7.29781477,30.8576024 -4.50218523,57.4576024 11.9478148,54.5076024" id="STROKE_8a06c001-47e7-4279-8c67-7d3fb5a8a105_1_"></path>
                    <path d="M11.2978148,64.7076024 C-0.702185234,60.8576024 -5.65218523,81.0076024 9.14781477,76.7576024" id="STROKE_df8dc73c-e7d3-499d-99b5-48b1f72322bd"></path>
                    <path d="M9.79781477,86.5076024 C-2.95218523,85.8076024 1.74781477,103.057602 12.2978148,95.8576024" id="STROKE_e8342454-de43-4574-acca-991b41d337dd"></path>
                    <path d="M51.8978148,7.80760238 C52.4478148,-1.94239762 66.1478148,-3.24239762 67.5478148,7.80760238" id="STROKE_6c4d95a6-db44-4eb3-a72d-f8ae88089eaa_1_"></path>
                    <path d="M75.0478148,7.80760238 C79.8978148,-1.39239762 93.5478148,1.50760238 87.0978148,12.0576024" id="STROKE_a147e558-bac8-4a97-b3d3-a94288a9fd2f"></path>
                    <path d="M109.747815,40.6076024 C110.647815,38.8076024 112.897815,38.1576024 114.847815,38.6076024 C120.447815,39.7076024 118.347815,48.9076024 114.647815,51.2576024 C114.597815,51.2576024 114.397815,51.3576024 113.947815,51.5076024" id="STROKE_5f8ea3d8-eb88-468c-ae62-c34a2857f526"></path>
                    <path d="M113.997815,56.9076024 C126.847815,52.5076024 128.797815,74.3076024 115.547815,71.3076024" id="STROKE_d30e99bd-0dcc-4478-98fe-481df72380d8"></path>
                    <path d="M115.297815,79.1076024 L115.397815,79.0076024 C118.997815,78.4076024 123.097815,83.0076024 122.697815,86.5076024 C121.097815,92.3576024 117.947815,93.1576024 112.847815,93.5576024" id="STROKE_118064da-df9a-4b7c-b0be-1dabbd4c9442"></path>
                </g>
                <path d="M59.45,31.15 C77.3,25.7 99.95,28.05 113.3,44 C135.95,7.85 185.4,30.1 120.2,54 C131.4,74.45 130.9,102.6 124.9,124.65 C167.25,138.35 150.85,157.55 120.65,136.45 C116.4,147.5 111.75,158.9 105.15,168.75 C115.55,164.5 140.65,157.3 137.1,176.5 C134.35,180.85 129.85,182.35 125.25,182.65 C111.3,183.75 100.45,177.2 88.85,176.7 C89.75,171 91.7,165.15 95.25,159.25 C83.8,164 69.2,163.85 56.1,160.7 C55.05,163.55 53.6,164.7 52.8,165.8 C50.85,165.85 46.25,167 42.45,168.65 C48.4,165 59.15,165.1 63.85,166.45 C69.85,168.15 72.65,171.7 69.25,182.35 C53.55,187.55 39.05,182.55 27.7,179.5 C27.6,170.5 41.45,162.35 43.05,154.2 C39.8,147 34.45,139.1 31.95,131.45 C26.15,137 20.35,143.65 13.2,147.55 C1.85,152.25 -4.35,143.7 4.55,134.8 C11.7,128.95 20.35,125.35 27.8,120.05 C21.7,93.05 25.95,56.35 48.7,38.15 C42.75,31.2 29.15,7.1 39.5,0.4 C52.95,1.5 57.7,19.55 58.8,30.85" id="outline" stroke="#000000" stroke-width="3" stroke-linecap="round" stroke-linejoin="round"></path>
                <g id="New_Layer_11" transform="translate(40.500000, 9.000000)" stroke="#000000" stroke-linecap="round" stroke-linejoin="round">
                    <path d="M79.7,34.75 C85.4,29.6 96.35,19.65 104.2,25" id="STROKE_2d1f2bc2-16d0-4929-a198-43a3b971b6f0" stroke-width="3"></path>
                    <path d="M13.75,21.8 C12.8,19.1 2.85,-8.95 0.95,3" id="STROKE_0dda5c46-c37d-4739-ac85-a545bbe39291" stroke-width="3"></path>
                    <path d="M14,42.6 C1.8,47.05 1.25,81.65 18.6,69.6 C31.1,60.55 18.5,28.45 9.15,49.7" id="STROKE_ba44fb7f-99eb-4766-8b4a-89c6d84ed66a" stroke-width="2.5" fill="#FFFFFF"></path>
                    <path d="M4.4,72.65 L4.35,72.8 C8.55,80.75 20.65,76.95 22.65,69.2" id="STROKE_961fff18-9d3b-4f21-aad6-138da76422e0" stroke-width="1.5"></path>
                    <path d="M61.35,43.15 C49.45,41.55 56.8,70.15 67.65,67.65 C77.75,65.65 73.3,40.3 58.95,42.1 C58.7,42.3 58.6,42.4 58.55,42.4 L57.95,43.25" id="STROKE_dbed2dd9-d342-42f8-83a8-4a0370dccff1" stroke-width="2.5" fill="#FFFFFF"></path>
                    <path d="M60.75,69.25 C64.9,74.75 74.55,70.9 75.1,64.45" id="STROKE_474d17ed-9804-4383-8f10-2f6935466565" stroke-width="1.5"></path>
                    <path d="M49.6,41.5 C52.5,38.3 56.15,36.7 60.4,35.1 L60.35,35.1 L60.3,35.15" id="STROKE_6e8d11ec-3a45-41d1-a16d-1358fd2b3b72" stroke-width="3"></path>
                    <path d="M13.5,36.15 L13.55,36.2 L13.7,36.1 C18,36.85 22.35,38.75 25.3,42.25 L25.7,42.35" id="STROKE_f9023376-ea85-4ae2-9c03-cf84443b9383" stroke-width="3"></path>
                    <path d="M17.5,52.45 C17.45,52.15 17.5,51.4 17.3,52.35 C17.25,57.85 20.75,51.85 18.15,50.25 C17.6,50.25 17.7,50.45 17,50.65 C16.95,50.7 16.75,50.95 16.35,51.4" id="STROKE_b5b6b4e4-d006-4fcf-b525-fa5c7b980420" stroke-width="3"></path>
                    <path d="M62,49.65 C58.8,50.4 63.15,56.5 62.35,49.4 L62.25,49.65 C62.25,49.75 61.9,50.75 61.85,50.9" id="STROKE_3ee235b0-eb21-4fcf-b03f-1423e6e787a1" stroke-width="3"></path>
                    <path d="M18.35,147.15 C27.7,146.8 39.7,147.5 49.05,145.45 C49.05,145.5 49.1,145.6 49.2,145.7" id="STROKE_6157055d-a02e-4604-bcc3-200cebaa06f5" stroke-width="1.5"></path>
                    <path d="M25.4,142.3 C28.65,143.5 40.05,142.2 43.3,141.45" id="STROKE_33169e1c-3d81-46c6-a1c5-913703c46177" stroke-width="1.5"></path>
                    <g id="Toenails" transform="translate(5.767222, 162.332699)" fill="#FDDB6E" stroke-width="1.5">
                        <path d="M77.1327784,0.867300569 C75.7327784,3.21730057 77.1827784,6.41730057 78.1327784,8.06730057 C82.4827784,8.11730057 81.0327784,0.517300569 77.1327784,0.867300569 Z" id="STROKE_f1f53f06-cf49-4485-a350-d92af23e9f8c_1_"></path>
                        <path d="M83.5827784,0.167300569 C82.5327784,1.41730057 83.9827784,5.96730057 86.2327784,5.66730057 C89.0327784,4.11730057 86.7327784,-0.982699431 83.5827784,0.167300569 Z" id="STROKE_51b5fbb7-068f-4acb-9ebc-5ddfe6cb669a"></path>
                        <path d="M3.38277841,2.11730057 L3.28277841,2.16730057 C0.832778412,2.36730057 -1.11722159,7.66730057 0.732778412,9.31730057 C3.63277841,9.21730057 4.93277841,4.36730057 3.38277841,2.11730057 Z" id="STROKE_dfe0a2f1-7cab-4b29-aaa8-6cff56d03745_1_"></path>
                        <path d="M15.8327784,1.66730057 C18.2827784,0.267300569 20.6327784,4.11730057 20.6327784,8.06730057 C17.3827784,9.31730057 14.2327784,7.71730057 15.8327784,1.66730057 Z" id="STROKE_1b0d3804-f838-40cb-a949-e4eb23c8bc5d"></path>
                        <path d="M8.23277841,2.76730057 C7.63277841,4.01730057 6.73277841,7.21730057 8.58277841,9.16730057 C11.8327784,8.46730057 11.5327784,5.01730057 11.0827784,3.36730057 C10.2327784,1.41730057 9.43277841,0.867300569 8.23277841,2.76730057 Z" id="STROKE_40bd7785-70ed-4d83-9dd6-b5d27d3185ee_1_"></path>
                    </g>
                    <g id="Mouth" transform="translate(0.000000, 76.499891)">
                        <g id="Teeth" transform="translate(5.277597, -0.000000)" stroke-width="3">
                            <path d="M5.72240288,7.70010909 C10.3724029,9.40010909 13.7724029,14.0001091 17.1724029,17.2501091 L2.07240288,21.2501091 C0.872402884,17.1001091 1.32240288,9.85010909 5.72240288,7.70010909 Z M51.1675034,17.2117201 L51.3138035,16.9932481 C59.1958829,5.35919909 63.5764029,3.37360909 65.3224029,20.3001091 L50.5724029,18.1001091 C50.7559649,17.8231174 50.9377146,17.5509342 51.1176621,17.2836674 L38.3224029,15.7001091 C37.9224029,10.7501091 38.8224029,4.25010909 41.9224029,0.150109094 C46.3328082,-1.6834302 49.1224453,13.8203398 51.1675034,17.2117201 Z" id="shadow" fill="#000000" opacity="0.2"></path>
                            <path d="M4.22240288,8.20010909 C8.87240288,9.90010909 12.2724029,14.5001091 15.6724029,17.7501091 L0.572402884,21.7501091 C-0.627597116,17.6001091 -0.177597116,10.3501091 4.22240288,8.20010909 Z M49.6675034,17.7117201 L49.8138035,17.4932481 C57.6958829,5.85919909 62.0764029,3.87360909 63.8224029,20.8001091 L49.0724029,18.6001091 C49.2559649,18.3231174 49.4377146,18.0509342 49.6176621,17.7836674 L36.8224029,16.2001091 C36.4224029,11.2501091 37.3224029,4.75010909 40.4224029,0.650109094 C44.8328082,-1.1834302 47.6224453,14.3203398 49.6675034,17.7117201 Z" id="Combined-Shape" fill="#FFFFFF"></path>
                        </g>
                        <path d="M0,25.6501091 C20.4,10.8001091 49.9,16.8001091 72.75,22.4001091" id="shadow" stroke-width="3" opacity="0.2"></path>
                        <path d="M0,26.6501091 C20.4,11.8001091 49.9,17.8001091 72.75,23.4001091" id="STROKE_8a27d5a6-d73e-47d0-bcfc-57dcabb213d0_1_" stroke-width="3"></path>
                        <path d="M17.3,29.3501091 C30.35,25.0001091 46.3,26.4501091 59.45,29.9001091" id="STROKE_e3e5c422-a60c-4f76-b022-c7a4c8fb2e6e" stroke-width="1.5"></path>
                    </g>
                </g>
                <path d="M51.2041016,156.15 C54.2596648,160.484896 58.637782,162.652344 64.3384533,162.652344 C72.8894601,162.652344 80.6703125,162.652344 83.8,162.652344 C85.8864583,162.652344 89.8688595,161.56862 95.7472034,159.401172 C104.982401,150.600391 109.6,145.762565 109.6,144.887695 C109.6,143.575391 97.0691406,156.764551 80.4020508,158.363281 C69.2906576,159.429102 59.5580078,158.691341 51.2041016,156.15 Z" id="Path" stroke="#000000" stroke-width="0.5" fill="#000000" opacity="0.2" stroke-linejoin="round"></path>
            </g>
        </g>
    </g>
</svg>