<?xml version="1.0" encoding="UTF-8"?>
<svg width="211px" height="238px" viewBox="0 0 211 238" version="1.1" xmlns="http://www.w3.org/2000/svg" xmlns:xlink="http://www.w3.org/1999/xlink">
    
    <title>mdpi/Monster4</title>
    <desc>Created with Sketch.</desc>
    <g id="Page-1" stroke="none" stroke-width="1" fill="none" fill-rule="evenodd">
        <g id="storyBackground" transform="translate(-928.000000, -11.000000)">
            <g id="Monster4" transform="translate(930.000000, 13.000000)">
                <path d="M41.7509942,225.468394 C40.27627,223.280068 41.1587521,220.788804 43.3118051,218.77556 C37.4618051,204.52556 56.95,205.1 63.1,206.6 C68.7,207.95 79.5,212.55 86.25,215.05 C76.7,192.25 76.05,201.05 91.05,184.5 L93.95,181.15 C82.45,177.15 90.65,180.85 84.9,184.75 C73.65,191.05 60.5,172.45 77.4,171.55 C77.45,171.5 71.4,164.9 69.75,161.35 C65.35,172.55 47.15,163.75 54.25,155.2 C60.55,147.6 63.95,159.85 65.65,142.55 C66.15,137.6 67.1,131.95 60.85,132 C44.65,132.15 26.65,118.75 17.65,105.25 C12.8,85.45 27.55,63.4 26.95,43.5 C24,34.15 10.6,41.4 3.6,38.65 C-2.05,36.9 -0.15,30.7 6.75,29.85 C12.9,29.05 18.5,34.8 24.95,33.15 C24.85,26.2 9,19.05 14.55,13.1 C21.6,5.55 28.6,22.65 31.2,32.7 C32.8,38.9 30.05,15.8 33.25,8.85 C37.75,-0.9 45.5,7.05 43.3,16.8 C41.5,24.7 38.75,34.8 39.15,42.5 C42.35,43 45.7,40.55 47.8,38.35 C49.5,35.9 48.3,33 49.15,30.15 C52.4,19.85 67.75,41.75 51.4,45.5 C47.8,46.35 40.85,48.75 38.35,51.1 C28.95,64.6 25.1,83.65 25.55,99.9 C34.6,115.35 54.9,129 72.45,121.9 C72.2,119.55 71.6,117.2 70.05,115.55 C56.3,128.6 48.4,104.9 66.85,106.15 C64.9,101.45 62.25,96.35 61.85,91.05 C61.1,89.6 54.15,97.2 48.05,91.8 C39.8,85.9 50,70.25 59.1,76.35 C59.2,76.4 61.3,69.3 63,66.1 C39.3,68.75 57.2,38.55 69.45,56.45 C72.45,51.85 78.4,48.7 81.4,45.95 C63,32.55 93.1,24.25 88.1,44 C91.75,43.8 93.5,43.3 96.35,42 L96.35,41.95 C81.95,32.75 107.1,22.1 104.3,40.15 C104.3,41.35 103.8,41.6 105,41.5 C107.85,41.1 111.95,43.4 113.6,40.05 C113.05,36.95 106.7,35.2 109,31.05 C116.65,22.25 126.75,36.85 117.75,42.75 C117.7,42.75 117.65,42.8 117.6,42.85 C121.8,43.8 126.85,42.35 130.15,45.6 C124.25,33.2 144.1,31.35 148.7,40.3 C151.1,47.1 145.9,53.35 139.25,54.3 C141.3,57.35 144.3,60 145.9,63.5 C161.15,43.25 173.8,76.35 150.3,74.4 C150.5,77.15 151,79.5 151.55,83.2 C169.95,69.75 177.5,87.2 169.4,91.75 C159.4,96.45 151.5,83.5 149.95,101.9 C151.4,101.65 154.8,97.95 158.3,98.15 C165.65,98.5 167.7,105.25 160.75,109.15 C155.05,112.6 144.7,103.7 145.05,114.2 C159.4,117.2 175.5,113.1 186.65,103.2 C186.75,84.55 180,63.8 171.25,47.75 C159.55,51.05 155.15,34.3 164.05,32.25 C167.85,32.15 168.2,37.45 171,38.65 C172.3,31.2 170.95,20.95 176.35,14.5 C179.3,11.6 182.75,13.2 182.85,16.4 C183.6,21.35 179,27.1 179.75,32.2 C186.4,29.35 189.85,8.5 198.85,15.1 C204.9,19.5 189.05,28.9 187.45,34.95 C192.2,33.1 197.8,27.3 203.4,28 C209.4,28.7 207.85,35 205.05,36.7 C198.95,40.4 188.25,39.55 181.25,46.65 C187.45,65.65 194.95,87 192.55,107.6 C189.9,112.2 182.6,114.75 177.95,116.95 C170.6,121.25 161.8,122 153.6,122.6 C149.7,122.85 145.95,123.75 147.6,127.35 C149.8,134.3 151.3,129.85 158.1,131.85 C163.95,133.35 164.9,141.15 160.45,144.75 C158.1,146.65 154.55,144.75 151.95,145 C152.45,149.55 153.05,154.1 150.45,158.1 C176.25,164.75 145.75,183.9 142.55,168.75 C142.45,168.2 140.4,169.85 136.95,171.85 C133.55,174.1 126.25,178.85 126.45,178.85 C146.75,195.8 137.8,192.4 135.35,215.95 C142.35,213.95 150.35,209.2 157.75,207.5 C164.6,205.95 186.45,203.85 177.75,216.4 C183.508221,218.844432 186.690505,222.938393 178.8,226.1 C179.518014,228.162809 178.927658,231.127135 176.25,230.75 C161.4,223.4 143.35,226.15 127.45,227.65 L127.45,227.6 L127.4,227.65 C126.6,226.45 125.3,222.05 125.75,217.75 C128.2,197.65 138.6,197.95 118.15,182.85 C114.25,185.1 107.9,185.05 104.15,183.6 L102.4,183.05 C87.25,201.45 88.5,192.55 96.65,214.4 C98.6,218.45 99.35,225.95 96.65,229.9 C82.05,225.35 65.8,226.3 52.1,233.25 C46.8654395,234.814972 44.9361939,231.691347 46.3515516,228.617319 C44.0218956,227.736693 42.5448847,226.64644 41.7509942,225.468394 Z" id="SHADOW" stroke="#000000" stroke-width="3" fill="#000000" opacity="0.3" stroke-linecap="round" stroke-linejoin="round"></path>
                <g id="outline" transform="translate(0.280763, 0.406279)" fill="#8779CD" stroke="#000000" stroke-linecap="round" stroke-linejoin="round" stroke-width="3">
                    <path d="M41.4702314,221.062115 C39.9955072,218.873789 40.8779893,216.382525 43.0310424,214.369281 C37.1810424,200.119281 56.6692372,200.693721 62.8192372,202.193721 C68.4192372,203.543721 79.2192372,208.143721 85.9692372,210.643721 C76.4192372,187.843721 75.7692372,196.643721 90.7692372,180.093721 L93.6692372,176.743721 C82.1692372,172.743721 90.3692372,176.443721 84.6192372,180.343721 C73.3692372,186.643721 60.2192372,168.043721 77.1192372,167.143721 C77.1692372,167.093721 71.1192372,160.493721 69.4692372,156.943721 C65.0692372,168.143721 46.8692372,159.343721 53.9692372,150.793721 C60.2692372,143.193721 63.6692372,155.443721 65.3692372,138.143721 C65.8692372,133.193721 66.8192372,127.543721 60.5692372,127.593721 C44.3692372,127.743721 26.3692372,114.343721 17.3692372,100.843721 C12.5192372,81.0437209 27.2692372,58.9937209 26.6692372,39.0937209 C23.7192372,29.7437209 10.3192372,36.9937209 3.31923722,34.2437209 C-2.33076278,32.4937209 -0.43076278,26.2937209 6.46923722,25.4437209 C12.6192372,24.6437209 18.2192372,30.3937209 24.6692372,28.7437209 C24.5692372,21.7937209 8.71923722,14.6437209 14.2692372,8.69372095 C21.3192372,1.14372095 28.3192372,18.2437209 30.9192372,28.2937209 C32.5192372,34.4937209 29.7692372,11.3937209 32.9692372,4.44372095 C37.4692372,-5.30627905 45.2192372,2.64372095 43.0192372,12.3937209 C41.2192372,20.2937209 38.4692372,30.3937209 38.8692372,38.0937209 C42.0692372,38.5937209 45.4192372,36.1437209 47.5192372,33.9437209 C49.2192372,31.4937209 48.0192372,28.5937209 48.8692372,25.7437209 C52.1192372,15.4437209 67.4692372,37.3437209 51.1192372,41.0937209 C47.5192372,41.9437209 40.5692372,44.3437209 38.0692372,46.6937209 C28.6692372,60.1937209 24.8192372,79.2437209 25.2692372,95.4937209 C34.3192372,110.943721 54.6192372,124.593721 72.1692372,117.493721 C71.9192372,115.143721 71.3192372,112.793721 69.7692372,111.143721 C56.0192372,124.193721 48.1192372,100.493721 66.5692372,101.743721 C64.6192372,97.0437209 61.9692372,91.9437209 61.5692372,86.6437209 C60.8192372,85.1937209 53.8692372,92.7937209 47.7692372,87.3937209 C39.5192372,81.4937209 49.7192372,65.8437209 58.8192372,71.9437209 C58.9192372,71.9937209 61.0192372,64.8937209 62.7192372,61.6937209 C39.0192372,64.3437209 56.9192372,34.1437209 69.1692372,52.0437209 C72.1692372,47.4437209 78.1192372,44.2937209 81.1192372,41.5437209 C62.7192372,28.1437209 92.8192372,19.8437209 87.8192372,39.5937209 C91.4692372,39.3937209 93.2192372,38.8937209 96.0692372,37.5937209 L96.0692372,37.5437209 C81.6692372,28.3437209 106.819237,17.6937209 104.019237,35.7437209 C104.019237,36.9437209 103.519237,37.1937209 104.719237,37.0937209 C107.569237,36.6937209 111.669237,38.9937209 113.319237,35.6437209 C112.769237,32.5437209 106.419237,30.7937209 108.719237,26.6437209 C116.369237,17.8437209 126.469237,32.4437209 117.469237,38.3437209 C117.419237,38.3437209 117.369237,38.3937209 117.319237,38.4437209 C121.519237,39.3937209 126.569237,37.9437209 129.869237,41.1937209 C123.969237,28.7937209 143.819237,26.9437209 148.419237,35.8937209 C150.819237,42.6937209 145.619237,48.9437209 138.969237,49.8937209 C141.019237,52.9437209 144.019237,55.5937209 145.619237,59.0937209 C160.869237,38.8437209 173.519237,71.9437209 150.019237,69.9937209 C150.219237,72.7437209 150.719237,75.0937209 151.269237,78.7937209 C169.669237,65.3437209 177.219237,82.7937209 169.119237,87.3437209 C159.119237,92.0437209 151.219237,79.0937209 149.669237,97.4937209 C151.119237,97.2437209 154.519237,93.5437209 158.019237,93.7437209 C165.369237,94.0937209 167.419237,100.843721 160.469237,104.743721 C154.769237,108.193721 144.419237,99.2937209 144.769237,109.793721 C159.119237,112.793721 175.219237,108.693721 186.369237,98.7937209 C186.469237,80.1437209 179.719237,59.3937209 170.969237,43.3437209 C159.269237,46.6437209 154.869237,29.8937209 163.769237,27.8437209 C167.569237,27.7437209 167.919237,33.0437209 170.719237,34.2437209 C172.019237,26.7937209 170.669237,16.5437209 176.069237,10.0937209 C179.019237,7.19372095 182.469237,8.79372095 182.569237,11.9937209 C183.319237,16.9437209 178.719237,22.6937209 179.469237,27.7937209 C186.119237,24.9437209 189.569237,4.09372095 198.569237,10.6937209 C204.619237,15.0937209 188.769237,24.4937209 187.169237,30.5437209 C191.919237,28.6937209 197.519237,22.8937209 203.119237,23.5937209 C209.119237,24.2937209 207.569237,30.5937209 204.769237,32.2937209 C198.669237,35.9937209 187.969237,35.1437209 180.969237,42.2437209 C187.169237,61.2437209 194.669237,82.5937209 192.269237,103.193721 C189.619237,107.793721 182.319237,110.343721 177.669237,112.543721 C170.319237,116.843721 161.519237,117.593721 153.319237,118.193721 C149.419237,118.443721 145.669237,119.343721 147.319237,122.943721 C149.519237,129.893721 151.019237,125.443721 157.819237,127.443721 C163.669237,128.943721 164.619237,136.743721 160.169237,140.343721 C157.819237,142.243721 154.269237,140.343721 151.669237,140.593721 C152.169237,145.143721 152.769237,149.693721 150.169237,153.693721 C175.969237,160.343721 145.469237,179.493721 142.269237,164.343721 C142.169237,163.793721 140.119237,165.443721 136.669237,167.443721 C133.269237,169.693721 125.969237,174.443721 126.169237,174.443721 C146.469237,191.393721 137.519237,187.993721 135.069237,211.543721 C142.069237,209.543721 150.069237,204.793721 157.469237,203.093721 C164.319237,201.543721 186.169237,199.443721 177.469237,211.993721 C183.227459,214.438153 186.409742,218.532114 178.519237,221.693721 C179.237251,223.75653 178.646896,226.720856 175.969237,226.343721 C161.119237,218.993721 143.069237,221.743721 127.169237,223.243721 L127.169237,223.193721 L127.119237,223.243721 C126.319237,222.043721 125.019237,217.643721 125.469237,213.343721 C127.919237,193.243721 138.319237,193.543721 117.869237,178.443721 C113.969237,180.693721 107.619237,180.643721 103.869237,179.193721 L102.119237,178.643721 C86.9692372,197.043721 88.2192372,188.143721 96.3692372,209.993721 C98.3192372,214.043721 99.0692372,221.543721 96.3692372,225.493721 C81.7692372,220.943721 65.5192372,221.893721 51.8192372,228.843721 C46.5846768,230.408693 44.6554311,227.285068 46.0707889,224.21104 C43.7411328,223.330414 42.2641219,222.24016 41.4702314,221.062115 Z" id="STROKE_2bbbeda9-c4bd-4b47-a5b7-b230b26d49b5-Copy"></path>
                </g>
                <g id="Virus_4">
                    <path d="M130.6,55.8 C112.75,41.8 86.2,44.75 73.25,63.75 C67.95,71.5 67.6,82.85 70.45,91.85 C72.55,97.75 76.8,102.5 77.95,108.7 C84.05,125.6 60.05,144.4 76.55,159.05 C96.9,178.55 136.2,170.95 145.4,143.75 C147.3,133.8 139.7,125.75 136.9,116.95 C135.85,106.95 142.95,99.05 145.4,89.85 C149.55,76.55 140.85,63.85 130.6,55.8 Z" id="STROKE_11afe6b0-fdd9-42a9-851c-092641cfbfa9_2_" stroke="#000000" stroke-width="3" fill-opacity="0.2" fill="#000000" stroke-linecap="round" stroke-linejoin="round"></path>
                    <path d="M128.092156,57.3612935 C111.798276,43.9752132 87.562841,46.7958516 75.7417907,64.9626749 C70.9038319,72.3728265 70.584344,83.2251131 73.1858879,91.8304504 C75.102815,97.4717271 78.9823103,102.013433 80.0320561,107.941554 C85.6002728,124.100466 63.6925348,142.076059 78.7541047,156.083636 C97.3300409,174.728534 133.203962,167.461804 141.601928,141.454563 C143.336291,131.940884 136.39884,124.243888 133.842938,115.82978 C132.884474,106.268294 139.365513,98.7147203 141.601928,89.9181532 C145.390141,77.2013769 137.448586,65.0582897 128.092156,57.3612935 Z" id="shadow" fill="#8779CD"></path>
                    <g id="mouth-2" transform="translate(88.698910, 129.702392)" stroke-linecap="round" stroke-linejoin="round">
                        <path d="M28.9510895,27.0476075 C40.0010895,24.2476075 47.8510895,5.44760754 29.7010895,1.24760754 C19.2010895,-1.05239246 2.95108951,2.94760754 0.401089509,14.7976075 C-3.24891049,30.9476075 18.9510895,30.2476075 28.9510895,27.0476075 Z" id="STROKE_007ac5f2-e433-41b7-9068-c67d1a431b3b" stroke="#BB3E45" stroke-width="0.5" fill="#BB3E45" fill-rule="nonzero"></path>
                        <path d="M19.6010895,18.6476075 C19.7510895,18.6476075 27.3010895,27.5976075 27.3010895,27.5976075 C24.7510895,28.7976075 18.8510895,30.1476075 14.7510895,28.0976075 C16.3010895,25.3476075 18.2510895,21.6476075 19.6010895,18.6476075 Z M12.9510895,16.4476075 C10.7010895,19.2476075 8.45108951,23.4976075 6.20108951,26.6976075 C4.95108951,26.3976075 2.60108951,25.0476075 1.80108951,23.2976075 C0.501089509,20.4476075 0.00108950921,18.1476075 1.00108951,16.7476075 C4.80108951,16.1476075 9.45108951,16.0476075 12.9510895,16.4476075 Z M39.1010895,10.2476075 C40.7510895,15.6976075 40.5010895,19.5476075 35.9010895,22.8976075 C34.2510895,19.7976075 29.7510895,18.4976075 27.9510895,16.0976075 C32.0010895,13.7976075 35.0010895,12.3976075 39.1010895,10.2476075 Z M22.7010895,1.69760754 C22.3010895,6.89760754 19.9010895,10.6476075 19.1010895,15.3976075 C16.4010895,13.0476075 11.3510895,7.09760754 12.4510895,2.94760754 C15.2010895,0.647607545 18.4010895,0.597607545 22.7010895,1.69760754 Z M34.3510895,5.04760754 C29.7010895,9.04760754 28.0010895,10.8976075 26.1510895,12.0476075 C25.5510895,10.9976075 25.4010895,9.14760754 25.4510895,3.34760754 C25.4510895,2.49760754 25.6510895,2.04760754 25.7010895,1.64760754 C25.7010895,1.54760754 34.3510895,5.09760754 34.3510895,5.04760754 Z" id="Combined-Shape-Copy-2" stroke="#000000" stroke-width="2" fill="#000000" fill-rule="nonzero" opacity="0.17"></path>
                        <path d="M19.6010895,17.6476075 C19.7510895,17.6476075 27.3010895,26.5976075 27.3010895,26.5976075 C24.7510895,27.7976075 18.8510895,29.1476075 14.7510895,27.0976075 C16.3010895,24.3476075 18.2510895,20.6476075 19.6010895,17.6476075 Z M12.9510895,15.4476075 C10.7010895,18.2476075 8.45108951,22.4976075 6.20108951,25.6976075 C4.95108951,25.3976075 2.60108951,24.0476075 1.80108951,22.2976075 C0.501089509,19.4476075 0.00108950921,17.1476075 1.00108951,15.7476075 C4.80108951,15.1476075 9.45108951,15.0476075 12.9510895,15.4476075 Z M39.1010895,9.24760754 C40.7510895,14.6976075 40.5010895,18.5476075 35.9010895,21.8976075 C34.2510895,18.7976075 29.7510895,17.4976075 27.9510895,15.0976075 C32.0010895,12.7976075 35.0010895,11.3976075 39.1010895,9.24760754 Z M22.7010895,0.697607545 C22.3010895,5.89760754 19.9010895,9.64760754 19.1010895,14.3976075 C16.4010895,12.0476075 11.3510895,6.09760754 12.4510895,1.94760754 C15.2010895,-0.352392455 18.4010895,-0.402392455 22.7010895,0.697607545 Z M34.3510895,4.04760754 C29.7010895,8.04760754 28.0010895,9.89760754 26.1510895,11.0476075 C25.5510895,9.99760754 25.4010895,8.14760754 25.4510895,2.34760754 C25.4510895,1.49760754 25.6510895,1.04760754 25.7010895,0.647607545 C25.7010895,0.547607545 34.3510895,4.09760754 34.3510895,4.04760754 Z" id="Combined-Shape" stroke="#FFFFFF" stroke-width="0.5" fill="#FFFFFF" fill-rule="nonzero"></path>
                        <path d="M35.2010895,23.4976075 C51.1510895,10.0976075 28.6010895,-3.55239246 14.0510895,0.847607545 C3.40108951,4.09760754 -6.74891049,20.6976075 6.00108951,26.5976075 C15.3010895,29.5976075 27.0010895,29.3476075 35.2010895,23.4976075 Z" id="STROKE_d01d07f4-531f-4bfd-b3a9-49737932e39a_1_" stroke="#000000" stroke-width="3"></path>
                    </g>
                    <g id="Mouth" transform="translate(82.000000, 57.000000)">
                        <path d="M26.05,0.25 C20.65,-0.1 13.6,1.5 8.1,5.05 C1.05,8.7 -0.5,17.4 0.3,24 C0.95,30.95 4.35,33.55 8.55,36.75 C20.8,45.2 46.15,40.1 46.85,22.85 C46.9,18.5 46.9,13.65 44.25,9.55 C40,3.8 32.35,0.1 26.05,0.25 Z" id="STROKE_1ec62fd8-1069-4665-91fc-4163af49bff4_2_" fill="#BB3E45" fill-rule="nonzero"></path>
                        <path d="M23.05,28.2 C23.85,35.65 24.75,39.8456692 24,40.7456692 L23.6930561,40.7452109 C22.1136931,40.7389486 18.0772727,40.6471008 12.3,39.3 C12.5,39.25 19.3,32.15 23.05,28.2 Z M46.4,22.2 C46.5525354,27.2 42.8342285,32.8183594 39.5012677,35.3 C37.7012677,31.85 34.8,25.5 32.5,22.15 C32.5,22.15 32.5,22.1 32.45,22.1 C36.55,22.8 42.55,21.25 46.4,22.2 Z M14.3,18.4 C11.3,22.9 5.9,32.65 5.95,32.7 C5.85,32.65 5.16113281,33.875 5.16113281,33.925 C3.76113281,33.125 2.2,31.6 1.85,29.5 C0.5,26.55 -0.2,23.1 0.45,20.15 C5.1,18 8.55,19.3 14.3,18.4 Z M29.4,1.5 C35.55,2.85 38.7,5.3 42,8.75 C37.45,11.15 32.95,13.6 28.4,16 C28.45,13.75 28.6,11.35 28.75,8.95 C28.9,6.4 29.15,3.9 29.4,1.5 Z M20.85,1.4 L20.85,1.4 C20.95,1.4 21.5,1.45 21.65,1.45 C19.35,5.45 18.95,9.85 18.5,14.15 C18.45,14.1 18.45,14.1 18.45,14.1 C15.85,11.3 11.5,8.3 8,6.4 C11.2941176,3.2 16.7584775,1.4615917 20.2245471,1.39320171 L20.5435096,1.39168914 Z" id="Combined-Shape-Copy" stroke="#000000" stroke-width="2" fill="#000000" fill-rule="nonzero" opacity="0.2" stroke-linecap="round" stroke-linejoin="round"></path>
                        <path d="M23.05,27.2 C23.85,34.65 24.45,39.75 23.7,40.65 C22.0307628,40.65 18.75,40.2758789 12.3,38.3 C12.5,38.25 19.3,31.15 23.05,27.2 Z M46.4,21.2 C47.2,26.1 44.8,33.35 40.45,35.3 C38.65,31.85 34.8,24.5 32.5,21.15 C32.5,21.15 32.5,21.1 32.45,21.1 C36.55,21.8 42.55,20.25 46.4,21.2 Z M14.3,17.4 C11.3,21.9 5.9,31.65 5.95,31.7 C5.85,31.65 4.8,33.65 4.8,33.7 C3.4,32.9 2.2,30.6 1.85,28.5 C0.5,25.55 -0.2,22.1 0.45,19.15 C5.1,17 8.55,18.3 14.3,17.4 Z M29.4,0.5 C35.55,1.85 38.7,4.3 42,7.75 C37.45,10.15 32.95,12.6 28.4,15 C28.45,12.75 28.6,10.35 28.75,7.95 C28.9,5.4 29.15,2.9 29.4,0.5 Z M20.85,0.4 L20.85,0.4 C20.95,0.4 21.5,0.45 21.65,0.45 C19.4384615,4.29615385 18.9835799,8.51213018 18.5518121,12.6534308 L18.5,13.15 L18.4710938,13.1210938 C18.4570313,13.1070313 18.4523438,13.1023438 18.4507813,13.1007813 L18.45,13.1 L18.1160735,12.7490524 C15.4889757,10.0519097 11.3541667,7.22083333 8,5.4 C11.2941176,2.2 16.7584775,0.461591696 20.2245471,0.39320171 L20.5435096,0.391689141 Z" id="Combined-Shape" stroke="#FFFFFF" stroke-width="0.5" fill="#FFFFFF" fill-rule="nonzero" stroke-linecap="round" stroke-linejoin="round"></path>
                        <path d="M26.05,0.25 C20.65,-0.1 13.6,1.5 8.1,5.05 C1.05,8.7 -0.5,17.4 0.3,24 C0.95,30.95 4.35,33.55 8.55,36.75 C20.8,45.2 46.15,40.1 46.85,22.85 C46.9,18.5 46.9,13.65 44.25,9.55 C40,3.8 32.35,0.1 26.05,0.25 Z" id="STROKE_1ec62fd8-1069-4665-91fc-4163af49bff4_1_" stroke="#000000" stroke-width="3" stroke-linecap="round" stroke-linejoin="round"></path>
                    </g>
                    <path d="M111.35,109.1 C116.15,103.85 122.9,101.15 130.05,100.1" id="STROKE_5200d716-f085-4e92-bb30-245ec39ad5f0" stroke="#000000" stroke-width="3" stroke-linecap="round" stroke-linejoin="round"></path>
                    <path d="M85.05,103.05 C91.85,101.45 100.05,104.35 105.4,108.65 C105.4,108.65 105.45,108.6 105.5,108.65" id="STROKE_578117c1-1b16-44c8-a59b-b4d0754c9c29" stroke="#000000" stroke-width="3" stroke-linecap="round" stroke-linejoin="round"></path>
                    <path d="M162.2,210.95 C170.8,207.75 193.4,216.25 178.8,222.1" id="STROKE_f04a224e-75ae-4d61-aa57-76433a44e714" stroke="#000000" stroke-width="3" stroke-linecap="round" stroke-linejoin="round"></path>
                    <path d="M62.3,211.25 C49.95,206.45 31.95,218.85 46.5,224.35" id="STROKE_2bbbeda9-c4bd-4b47-a5b7-b230b26d49b5" stroke="#000000" stroke-width="3" stroke-linecap="round" stroke-linejoin="round"></path>
                    <path d="M43.05,214.95 C37.2,200.7 56.95,201.1 63.1,202.6 C68.7,203.95 79.5,208.55 86.25,211.05 C76.7,188.25 76.05,197.05 91.05,180.5 L93.95,177.15 C82.45,173.15 90.65,176.85 84.9,180.75 C73.65,187.05 60.5,168.45 77.4,167.55 C77.45,167.5 71.4,160.9 69.75,157.35 C65.35,168.55 47.15,159.75 54.25,151.2 C60.55,143.6 63.95,155.85 65.65,138.55 C66.15,133.6 67.1,127.95 60.85,128 C44.65,128.15 26.65,114.75 17.65,101.25 C12.8,81.45 27.55,59.4 26.95,39.5 C24,30.15 10.6,37.4 3.6,34.65 C-2.05,32.9 -0.15,26.7 6.75,25.85 C12.9,25.05 18.5,30.8 24.95,29.15 C24.85,22.2 9,15.05 14.55,9.1 C21.6,1.55 28.6,18.65 31.2,28.7 C32.8,34.9 30.05,11.8 33.25,4.85 C37.75,-4.9 45.5,3.05 43.3,12.8 C41.5,20.7 38.75,30.8 39.15,38.5 C42.35,39 45.7,36.55 47.8,34.35 C49.5,31.9 48.3,29 49.15,26.15 C52.4,15.85 67.75,37.75 51.4,41.5 C47.8,42.35 40.85,44.75 38.35,47.1 C28.95,60.6 25.1,79.65 25.55,95.9 C34.6,111.35 54.9,125 72.45,117.9 C72.2,115.55 71.6,113.2 70.05,111.55 C56.3,124.6 48.4,100.9 66.85,102.15 C64.9,97.45 62.25,92.35 61.85,87.05 C61.1,85.6 54.15,93.2 48.05,87.8 C39.8,81.9 50,66.25 59.1,72.35 C59.2,72.4 61.3,65.3 63,62.1 C39.3,64.75 57.2,34.55 69.45,52.45 C72.45,47.85 78.4,44.7 81.4,41.95 C63,28.55 93.1,20.25 88.1,40 C91.75,39.8 93.5,39.3 96.35,38 L96.35,37.95 C81.95,28.75 107.1,18.1 104.3,36.15 C104.3,37.35 103.8,37.6 105,37.5 C107.85,37.1 111.95,39.4 113.6,36.05 C113.05,32.95 106.7,31.2 109,27.05 C116.65,18.25 126.75,32.85 117.75,38.75 C117.7,38.75 117.65,38.8 117.6,38.85 C121.8,39.8 126.85,38.35 130.15,41.6 C124.25,29.2 144.1,27.35 148.7,36.3 C151.1,43.1 145.9,49.35 139.25,50.3 C141.3,53.35 144.3,56 145.9,59.5 C161.15,39.25 173.8,72.35 150.3,70.4 C150.5,73.15 151,75.5 151.55,79.2 C169.95,65.75 177.5,83.2 169.4,87.75 C159.4,92.45 151.5,79.5 149.95,97.9 C151.4,97.65 154.8,93.95 158.3,94.15 C165.65,94.5 167.7,101.25 160.75,105.15 C155.05,108.6 144.7,99.7 145.05,110.2 C159.4,113.2 175.5,109.1 186.65,99.2 C186.75,80.55 180,59.8 171.25,43.75 C159.55,47.05 155.15,30.3 164.05,28.25 C167.85,28.15 168.2,33.45 171,34.65 C172.3,27.2 170.95,16.95 176.35,10.5 C179.3,7.6 182.75,9.2 182.85,12.4 C183.6,17.35 179,23.1 179.75,28.2 C186.4,25.35 189.85,4.5 198.85,11.1 C204.9,15.5 189.05,24.9 187.45,30.95 C192.2,29.1 197.8,23.3 203.4,24 C209.4,24.7 207.85,31 205.05,32.7 C198.95,36.4 188.25,35.55 181.25,42.65 C187.45,61.65 194.95,83 192.55,103.6 C189.9,108.2 182.6,110.75 177.95,112.95 C170.6,117.25 161.8,118 153.6,118.6 C149.7,118.85 145.95,119.75 147.6,123.35 C149.8,130.3 151.3,125.85 158.1,127.85 C163.95,129.35 164.9,137.15 160.45,140.75 C158.1,142.65 154.55,140.75 151.95,141 C152.45,145.55 153.05,150.1 150.45,154.1 C176.25,160.75 145.75,179.9 142.55,164.75 C142.45,164.2 140.4,165.85 136.95,167.85 C133.55,170.1 126.25,174.85 126.45,174.85 C146.75,191.8 137.8,188.4 135.35,211.95 C142.35,209.95 150.35,205.2 157.75,203.5 C164.6,201.95 186.45,199.85 177.75,212.4" id="STROKE_cc35a933-2b44-4d3a-85c0-a5995e1b8d11_1_" stroke="#000000" stroke-width="3" stroke-linecap="round" stroke-linejoin="round"></path>
                    <path d="M160.2,215.4 C168.35,216.1 172.55,216.35 177.75,220.7 C179.8,222.4 179.8,227.25 176.25,226.75 C161.4,219.4 143.35,222.15 127.45,223.65 L127.45,223.65 L127.45,223.6 L127.45,223.6 L127.4,223.65 C126.6,222.45 125.3,218.05 125.75,213.75 C128.2,193.65 138.6,193.95 118.15,178.85 C114.25,181.1 107.9,181.05 104.15,179.6 L102.4,179.05 C87.25,197.45 88.5,188.55 96.65,210.4 C98.6,214.45 99.35,221.95 96.65,225.9 C82.05,221.35 65.8,222.3 52.1,229.25 C42.4,232.15 44.05,218.95 57.3,219.8" id="STROKE_2f93cfd1-26f4-45cd-8bb7-24bc96d88c4c" stroke="#000000" stroke-width="3" stroke-linecap="round" stroke-linejoin="round"></path>
                </g>
                <g id="eye" transform="translate(85.000000, 102.500000)">
                    <path d="M18.85,18.25 C25.75,11.55 14,1.95 7.7,8.25 C0.6,14.8 12.7,24.45 18.85,18.25 Z" id="STROKE_afe11828-9ab9-45eb-93a6-81a24b87bab5" stroke="#000000" stroke-width="2.5" fill="#FFFFFF" stroke-linecap="round" stroke-linejoin="round"></path>
                    <g id="Group" transform="translate(12.000000, 10.500000)" fill-rule="nonzero">
                        <circle id="Oval" fill="#000000" cx="3.75" cy="3.35" r="2.9"></circle>
                        <ellipse id="Oval" fill="#FFFFFF" cx="2" cy="2" rx="1.7" ry="1.6"></ellipse>
                    </g>
                    <path d="M0.05,0.55 C6.85,-1.05 15.05,1.85 20.4,6.15 C20.4,6.15 20.45,6.1 20.5,6.15" id="STROKE_578117c1-1b16-44c8-a59b-b4d0754c9c29-Copy" stroke="#000000" stroke-width="3" stroke-linecap="round" stroke-linejoin="round"></path>
                </g>
                <g id="eye" transform="translate(111.000000, 100.000000)">
                    <path d="M15,13.15 C11,5.65 0.1,8.65 3.05,17.8 C6.4,24.1 17.6,20.65 15,13.15 Z" id="STROKE_88ab0580-544f-451c-a036-90478ceb67b5" stroke="#000000" stroke-width="2.5" fill="#FFFFFF" stroke-linecap="round" stroke-linejoin="round"></path>
                    <g id="Group" transform="translate(6.500000, 12.500000)" fill-rule="nonzero">
                        <circle id="Oval" fill="#000000" cx="3.9" cy="3.2" r="2.9"></circle>
                        <ellipse id="Oval" fill="#FFFFFF" cx="2.15" cy="1.9" rx="1.7" ry="1.6"></ellipse>
                    </g>
                    <path d="M0.35,9.1 C5.15,3.85 11.9,1.15 19.05,0.1" id="STROKE_5200d716-f085-4e92-bb30-245ec39ad5f0-Copy" stroke="#000000" stroke-width="3" stroke-linecap="round" stroke-linejoin="round"></path>
                </g>
            </g>
        </g>
    </g>
</svg>