<?xml version="1.0" encoding="UTF-8"?>
<svg width="223px" height="194px" viewBox="0 0 223 194" version="1.1" xmlns="http://www.w3.org/2000/svg" xmlns:xlink="http://www.w3.org/1999/xlink">
    
    <title>mdpi/Monster1</title>
    <desc>Created with Sketch.</desc>
    <g id="Page-1" stroke="none" stroke-width="1" fill="none" fill-rule="evenodd">
        <g id="storyBackground" transform="translate(-24.000000, -265.000000)">
            <g id="Monster1" transform="translate(138.500000, 362.000000) rotate(-12.000000) translate(-138.500000, -362.000000) translate(33.000000, 268.000000)">
                <path d="M110.825836,145.418745 C109.754047,145.596181 108.66761,145.746248 107.576663,145.868246 C108.4977,145.771653 109.421692,145.650014 110.346779,145.501409 L110.825836,145.418745 Z M110.825836,145.418745 L110.833832,145.418205 L111.148836,145.363745 L110.825836,145.418745 Z M69.5441274,137.523598 L69.6248414,137.59512 C70.201121,138.0989 71.4151232,138.84293 73.1424957,139.685588 C71.9090218,139.017252 70.7077971,138.296518 69.5441274,137.523598 Z M150.15,27.665 C158.73,28.05 159.28,38.885 150.92,39.765 C148.28,42.79 144.65,48.455 144.87,52.58 L139.645,46.53 C142.12,44.385 146.19,40.26 147.4,37.18 C143.825,34.925 145.585,27.445 150.15,27.665 Z M54.1198363,59.8047453 L54.12,59.95 C54.285,53.075 48.015,48.07 43.78,43.45 C35.75,46.75 34.87,32.285 43.01,34.155 C46.64,34.98 46.915,38.28 46.86,41.91 C48.3189474,44.6117544 51.6890305,47.7382056 60.3603731,50.7156404 L60.83,50.875 L60.0637709,51.9111308 C60.5422544,51.3830129 61.0197018,50.8864863 61.49,50.435 C62.37,49.555 63.47,48.565 63.47,48.565 C64.845,47.41 66.88,45.705 69.465,43.78 C67.4376389,38.9257015 64.5495,34.4431667 60.83,31.185 C57.475,29.15 52.635,30.855 50.985,26.18 C47.85,17.105 64.68,11.77 65.78,23.54 C67.0611458,29.7269966 70.3128515,35.3991622 74.435744,40.4253789 L74.525,40.37 L74.525,40.37 C79.1569195,37.4493808 83.5332566,35.1724507 87.9603233,33.5784805 L87.9588363,33.5957453 L87.9855513,33.2628495 C89.246597,16.778014 82.90535,25.0261 79.475,19.69 C76.835,13.915 85.36,6.71 90.145,11.99 C92.455,14.85 92.51,17.05 90.64,21.56 C91.273724,25.4151544 92.2624029,29.1181853 96.381313,31.4031771 C100.006965,30.8306533 103.781696,30.6970067 107.855,31.02 C109.511066,31.1733395 111.799846,31.5660839 113.929923,32.0456714 L113.52,31.9 C116.105,27.005 118.415,21.395 118.305,15.73 L116.38,14.63 C113.465,12.375 114.07,6.985 117.865,5.005 C123.86,2.145 132.715,11.44 124.135,16.005 C120.89,21.56 121.11,29.315 123.695,35.53 L123.526397,35.4695017 C124.875484,36.0713193 126.127601,36.6696384 127.16,37.235 C134.31,40.92 140.03,46.97 145.2,53.02 C145.323849,53.1799719 145.457624,53.359674 145.60016,53.5573798 C148.767131,51.7379118 151.857875,49.8025918 154.935,48.235 C164.67,28.82 180.785,55.935 162.14,54.175 C158.71665,53.0964104 152.454386,56.0162931 148.569369,58.1957803 C151.584677,63.2819303 155.107898,70.2197773 155.375,73.425 C164.89,71.775 176.11,64.46 178.53,54.725 C177.43,49.5 169.785,41.195 174.295,38.06 C182.38,34.54 177.98,48.51 182.27,50.82 C186.89,49.115 186.67,41.14 191.565,39.105 C200.585,36.465 191.895,47.905 190.465,51.04 C192.83,53.185 198.88,47.685 202.235,48.4 C208.872065,52.5345652 199.688742,54.73194 196.401215,56.1630951 L196.295,56.21 L196.295,56.485 L196.46,56.54 C206.0432,64.3808 198.592262,69.849758 190.330585,63.5543797 L190.08,63.36 L188.98,62.81 C188.265,62.535 187.66,62.315 186.56,62.315 C179.41,72.49 167.42,74.8 157.685,82.225 C156.915,84.535 157.575,87.065 158.565,89.815 L158.571477,89.8330369 C162.406918,89.0587141 166.110442,87.6086891 169.565,85.085 C170.885,82.995 172.15,79.86 174.955,79.695 C182.38,79.915 184.965,92.895 174.075,93.225 C172.92,93.39 172.315,92.235 171.27,92.125 C169.18,92.51 166.485,93.555 163.735,94.545 C162.692444,94.887946 161.092194,95.5661929 159.226951,96.4355232 C159.165225,100.279282 158.646702,104.432269 158.076713,106.140245 L158.015,106.315 L158.279458,106.345115 C167.075464,107.352179 182.62475,109.6271 185.075,99.935 C185.68,96.635 186.285,94.215 187.385,92.62 C190.135,88.605 193.985,89.76 193.545,94.6 C193.38,96.58 192.555,99.165 190.795,102.245 C193.27,104.335 197.45,99.44 199.925,97.295 C203.39,94.27 207.79,98.285 205.535,100.76 C202.785,104.5 198.935,104.555 195.855,107.085 C195.855,107.085 205.48,106.425 208.12,107.69 C212.3,109.78 212.19,114.015 206.085,114.565 C204.105,114.785 199.925,114.29 196.405,113.85 C199.32,116.875 199.925,125.4 194.315,122.87 C191.125,120.725 190.19,115.335 186.395,113.85 C185.24,114.07 182.765,114.29 181.28,114.4 C171.162418,115.161538 158.785325,110.758483 151.970103,120.664474 L151.745,121 L151.442267,121.346975 C155.389109,127.399994 160.855198,132.504032 166.76,136.95 C174.9,130.79 175.285,142.89 170.775,146.74 C164.945,150.37 161.15,145.75 161.37,139.975 C157.597897,134.454012 152.393295,129.766866 146.369401,127.166632 L146.135,127.435 C137.335,136.785 126.775,140.745 121.605,142.615 C120.733241,142.93223 119.851045,143.229041 118.959792,143.505329 C134.04447,139.02405 142.12,131.285 142.12,131.285 C143.99,137.83 150.425,148.72 156.365,152.185 C159.61,154.11 164.175,156.31 167.695,157.685 C172.04,160.105 165.55,169.62 159.005,167.64 C150.04,164.89 149.05,159.005 142.23,155.87 C127.05,149.875 135.355,162.525 139.92,171.38 C143.88,179.08 132.22,186.065 126.72,176.77 C122.595,169.785 121.385,157.74 115.775,158.84 C112.365,159.665 115.5,168.96 116.765,175.725 C119.185,188.705 107.415,188.32 106.04,180.95 C105.05,175.78 106.095,166.76 100.815,161.205 C95.095,163.515 95.15,175.23 94.6,181.06 C93.83,188.87 81.4,189.805 82.665,181.555 C83.38,177.595 85.195,174.79 85.965,171.6 C87.67,165.66 87.78,161.645 84.81,157.355 C82.28,158.565 81.73,161.7 80.52,165.11 C78.21,170.225 72.82,177.65 67.375,175.89 C59.18,171.05 79.035,156.255 70.07,152.68 C65.725,157.795 55.66,168.355 50.985,162.69 C47.8282292,155.832188 68.1006169,148.651214 69.4293854,139.228313 L69.465,138.93 L69.4650869,137.47098 C67.3742088,136.075908 65.405292,134.511834 63.5869408,132.776625 C59.1048851,135.811816 55.2568832,139.605878 53.02,144.43 C55.88,157.135 36.465,154.385 38.06,144.43 C39.7049528,133.937868 48.1779191,144.720389 59.2087093,127.888251 C59.1605262,127.825616 59.1147573,127.76719 59.07,127.71 C58.245,126.445 57.2,125.345 56.43,123.97 C48.62,120.89 38.61,118.25 30.36,120.175 C27.555,123.75 25.465,128.48 22,131.56 C14.355,132 19.195,123.2 21.285,119.845 C18.535,120.89 17.545,125.565 14.905,126.995 C9.405,130.405 7.975,126.775 8.745,123.255 C9.9,118.03 18.26,113.795 18.26,113.685 C12.485,113.19 10.945,116.435 6.6,118.305 C-0.055,120.615 -0.88,112.585 7.92,110.825 C13.75,109.67 21.835,106.92 23.485,106.645 C21.615,105.105 17.82,106.755 15.455,105.82 C9.515,103.455 14.135,97.625 18.975,97.625 C24.365,97.515 27.39,102.41 31.13,105.49 C36.3643396,109.860943 42.2340085,114.125999 50.1934713,113.713991 L50.655,113.685 L50.875,113.63 C49.335,107.635 48.125,100.65 47.795,92.785 L47.7819876,92.4356564 C47.6949684,92.4044422 47.6076411,92.3742137 47.52,92.345 C42.295,90.53 33.165,88.275 27.61,88.11 C24.035,93.83 15.51,89.485 15.785,83.6 C15.125,74.69 27.5,74.965 29.315,82.335 C34.3217731,85.0215612 41.4373731,86.2921957 47.7409834,85.8570514 C47.7399834,85.8556624 47.7399917,85.8553312 47.74,85.855 C48.18,81.015 48.29,76.23 48.84,71.39 C38.61,71.555 27.995,68.75 19.03,63.58 C12.815,82.995 0.935,74.47 13.97,61.82 C10.505,62.37 6.985,65.78 3.63,66.55 C-1.1,66.99 -6.66133815e-16,60.555 5.335,59.125 C8.195,58.355 14.795,55.055 14.74,54.945 C9.735,53.24 3.85,56.815 1.375,54.065 C-1.375,50.325 2.475,48.29 10.065,49.005 C13.97,49.72 18.04,50.93 21.34,51.205 C18.7,50.05 17.325,47.63 16.885,45.375 C16.005,40.865 18.975,36.74 23.54,43.34 C29.975,52.745 38.94,65.89 51.59,63.635 C52.0027989,62.9538818 52.9190612,61.4827134 54.1207841,59.7011007 L54.1198363,59.8047453 Z" id="Combined-Shape" stroke="#000000" stroke-width="3.3" fill="#000000" opacity="0.3" stroke-linecap="round" stroke-linejoin="round"></path>
                <path d="M188.98,58.41 L190.08,58.96 C198.44,65.56 206.14,60.06 196.46,52.14 L196.295,52.085 L196.295,51.81 C199.485,50.38 208.945,48.18 202.235,44 C198.88,43.285 192.83,48.785 190.465,46.64 C191.895,43.505 200.585,32.065 191.565,34.705 C186.67,36.74 186.89,44.715 182.27,46.42 C177.98,44.11 182.38,30.14 174.295,33.66 C169.785,36.795 177.43,45.1 178.53,50.325 C176.11,60.06 164.89,67.375 155.375,69.025 C154.99,64.405 147.84,52.03 145.2,48.62 C140.03,42.57 134.31,36.52 127.16,32.835 C124.85,31.57 121.44,30.14 118.305,28.875 C115.83,27.94 110.825,26.895 107.855,26.62 C95.37,25.63 85.69,28.93 74.525,35.97 C72.545,37.18 70.84,38.335 69.465,39.38 C66.88,41.305 64.845,43.01 63.47,44.165 C63.47,44.165 62.37,45.155 61.49,46.035 C57.365,49.995 52.69,57.42 51.59,59.235 C38.94,61.49 29.975,48.345 23.54,38.94 C18.975,32.34 16.005,36.465 16.885,40.975 C17.325,43.23 18.7,45.65 21.34,46.805 C18.04,46.53 13.97,45.32 10.065,44.605 C2.475,43.89 -1.375,45.925 1.375,49.665 C3.85,52.415 9.735,48.84 14.74,50.545 C14.795,50.655 8.195,53.955 5.335,54.725 C5.55111512e-17,56.155 -1.1,62.59 3.63,62.15 C6.985,61.38 10.505,57.97 13.97,57.42 C0.935,70.07 12.815,78.595 19.03,59.18 C27.995,64.35 38.61,67.155 48.84,66.99 C48.29,71.83 48.18,76.615 47.74,81.455 C47.685,83.655 47.685,85.965 47.795,88.385 C48.125,96.25 49.335,103.235 50.875,109.23 L50.655,109.285 C42.46,109.89 36.465,105.545 31.13,101.09 C27.39,98.01 24.365,93.115 18.975,93.225 C14.135,93.225 9.515,99.055 15.455,101.42 C17.82,102.355 21.615,100.705 23.485,102.245 C21.835,102.52 13.75,105.27 7.92,106.425 C-0.88,108.185 -0.055,116.215 6.6,113.905 C10.945,112.035 12.485,108.79 18.26,109.285 C18.26,109.395 9.9,113.63 8.745,118.855 C7.975,122.375 9.405,126.005 14.905,122.595 C17.545,121.165 18.535,116.49 21.285,115.445 C19.195,118.8 14.355,127.6 22,127.16 C25.465,124.08 27.555,119.35 30.36,115.775 C38.61,113.85 48.62,116.49 56.43,119.57 C57.2,120.945 58.245,122.045 59.07,123.31 C60.06,124.575 61.545,126.445 63.58,128.37 C78.155,142.285 102.41,145.2 121.605,138.215 C126.775,136.345 137.335,132.385 146.135,123.035 L151.745,116.6 C158.51,106.26 171.05,110.77 181.28,110 C182.765,109.89 185.24,109.67 186.395,109.45 C190.19,110.935 191.125,116.325 194.315,118.47 C199.925,121 199.32,112.475 196.405,109.45 C199.925,109.89 204.105,110.385 206.085,110.165 C212.19,109.615 212.3,105.38 208.12,103.29 C205.48,102.025 195.855,102.685 195.855,102.685 C198.935,100.155 202.785,100.1 205.535,96.36 C207.79,93.885 203.39,89.87 199.925,92.895 C197.45,95.04 193.27,99.935 190.795,97.845 C192.555,94.765 193.38,92.18 193.545,90.2 C193.985,85.36 190.135,84.205 187.385,88.22 C186.285,89.815 185.68,92.235 185.075,95.535 C182.6,105.325 166.76,102.905 158.015,101.915 L158.015,101.915 C159.005,99.275 159.885,89.045 158.565,85.415 C157.575,82.665 156.915,80.135 157.685,77.825 C167.42,70.4 179.41,68.09 186.56,57.915 C187.66,57.915 188.265,58.135 188.98,58.41 Z" id="body-bkg" fill="#4A90E2"></path>
                <g id="spines" transform="translate(37.315496, 0.068745)" fill="#4A90E2" stroke="#000000" stroke-linecap="round" stroke-linejoin="round" stroke-width="2.75">
                    <path d="M50.6295035,29.3012547 C52.0595035,12.1412547 45.6245035,20.6112547 42.1595035,15.2212547 C39.5195035,9.44625465 48.0445035,2.24125465 52.8295035,7.52125465 C55.1395035,10.3812547 55.1945035,12.5812547 53.3245035,17.0912547 C53.9845035,21.1062547 55.0295035,24.9562547 59.5945035,27.2112547" id="STROKE_f5153565-8b15-4f2c-a128-8e78a8586d2a"></path>
                    <path d="M23.5145035,46.4062547 L23.5145035,46.4062547 C14.4945035,43.3812547 11.0295035,40.1912547 9.54450353,37.4412547 C9.59950353,33.8112547 9.32450353,30.5112547 5.69450353,29.6862547 C-2.44549647,27.8162547 -1.56549647,42.2812547 6.46450353,38.9812547 C10.6995035,43.6012547 16.9695035,48.6062547 16.8045035,55.4812547" id="STROKE_a7c45538-b7ef-4196-83cd-997c7866a692"></path>
                    <path d="M102.329504,42.0612547 C104.804504,39.9162547 108.874504,35.7912547 110.084504,32.7112547 C106.509504,30.4562547 108.269504,22.9762547 112.834504,23.1962547 C121.414504,23.5812547 121.964504,34.4162547 113.604504,35.2962547 C110.964504,38.3212547 107.334504,43.9862547 107.554504,48.1112547" id="STROKE_8697eea9-4b28-4623-9325-35b15b10866f"></path>
                    <path d="M76.2045035,27.4312547 C78.7895035,22.5362547 81.0995035,16.9262547 80.9895035,11.2612547 L79.0645035,10.1612547 C76.1495035,7.90625465 76.7545035,2.51625465 80.5495035,0.536254653 C86.5445035,-2.32374535 95.3995035,6.97125465 86.8195035,11.5362547 C83.5745035,17.0912547 83.7945035,24.8462547 86.3795035,31.0612547" id="STROKE_2ed7bd07-fe59-4ba1-8dd8-320e269fff26"></path>
                </g>
                <path d="M69.465,133.045 L69.465,134.53 C69.465,134.53 69.465,134.475 69.465,134.53 C68.53,144.1 47.795,151.36 50.985,158.29 C55.66,163.955 65.725,153.395 70.07,148.28 C79.035,151.855 59.18,166.65 67.375,171.49 C72.82,173.25 78.21,165.825 80.52,160.71 C81.73,157.3 82.28,154.165 84.81,152.955 C87.78,157.245 87.67,161.26 85.965,167.2 C85.195,170.39 83.38,173.195 82.665,177.155 C81.4,185.405 93.83,184.47 94.6,176.66 C95.15,170.83 95.095,159.115 100.815,156.805 C106.095,162.36 105.05,171.38 106.04,176.55 C107.415,183.92 119.185,184.305 116.765,171.325 C115.5,164.56 112.365,155.265 115.775,154.44 C121.385,153.34 122.595,165.385 126.72,172.37 C132.22,181.665 143.88,174.68 139.92,166.98 C135.355,158.125 127.05,145.475 142.23,151.47 C149.05,154.605 150.04,160.49 159.005,163.24 C165.55,165.22 172.04,155.705 167.695,153.285 C164.175,151.91 159.61,149.71 156.365,147.785 C150.425,144.32 143.99,133.43 142.12,126.885 C142.12,126.885 131.56,137.005 112.035,140.8 C91.905,144.76 71.775,135.41 69.465,133.045 Z" id="feet" stroke="#000000" stroke-width="3.3" fill="#4A90E2" stroke-linecap="round" stroke-linejoin="round"></path>
                <path d="M69.2688477,136.096533 C67.3017383,137.626758 86.436582,149.839014 105.765,148.558561 C118.650612,147.704926 131.176504,141.992405 143.342676,131.420996 L142.142236,127.381781 C131.073128,135.899005 119.240716,140.726512 106.645,141.864301 C94.0492839,143.002091 81.9244694,140.234628 70.2705566,133.561914 C70.9141569,134.23151 70.5802539,135.076383 69.2688477,136.096533 Z" id="shadow" fill="#000000" opacity="0.2"></path>
                <path d="M188.98,58.41 L190.08,58.96 C198.44,65.56 206.14,60.06 196.46,52.14 L196.295,52.085 L196.295,51.81 C199.485,50.38 208.945,48.18 202.235,44 C198.88,43.285 192.83,48.785 190.465,46.64 C191.895,43.505 200.585,32.065 191.565,34.705 C186.67,36.74 186.89,44.715 182.27,46.42 C177.98,44.11 182.38,30.14 174.295,33.66 C169.785,36.795 177.43,45.1 178.53,50.325 C176.11,60.06 164.89,67.375 155.375,69.025 C154.99,64.405 147.84,52.03 145.2,48.62 C140.03,42.57 134.31,36.52 127.16,32.835 C124.85,31.57 121.44,30.14 118.305,28.875 C115.83,27.94 110.825,26.895 107.855,26.62 C95.37,25.63 85.69,28.93 74.525,35.97 C72.545,37.18 70.84,38.335 69.465,39.38 C66.88,41.305 64.845,43.01 63.47,44.165 C63.47,44.165 62.37,45.155 61.49,46.035 C57.365,49.995 52.69,57.42 51.59,59.235 C38.94,61.49 29.975,48.345 23.54,38.94 C18.975,32.34 16.005,36.465 16.885,40.975 C17.325,43.23 18.7,45.65 21.34,46.805 C18.04,46.53 13.97,45.32 10.065,44.605 C2.475,43.89 -1.375,45.925 1.375,49.665 C3.85,52.415 9.735,48.84 14.74,50.545 C14.795,50.655 8.195,53.955 5.335,54.725 C5.55111512e-17,56.155 -1.1,62.59 3.63,62.15 C6.985,61.38 10.505,57.97 13.97,57.42 C0.935,70.07 12.815,78.595 19.03,59.18 C27.995,64.35 38.61,67.155 48.84,66.99 C48.29,71.83 48.18,76.615 47.74,81.455 C47.685,83.655 47.685,85.965 47.795,88.385 C48.125,96.25 49.335,103.235 50.875,109.23 L50.655,109.285 C42.46,109.89 36.465,105.545 31.13,101.09 C27.39,98.01 24.365,93.115 18.975,93.225 C14.135,93.225 9.515,99.055 15.455,101.42 C17.82,102.355 21.615,100.705 23.485,102.245 C21.835,102.52 13.75,105.27 7.92,106.425 C-0.88,108.185 -0.055,116.215 6.6,113.905 C10.945,112.035 12.485,108.79 18.26,109.285 C18.26,109.395 9.9,113.63 8.745,118.855 C7.975,122.375 9.405,126.005 14.905,122.595 C17.545,121.165 18.535,116.49 21.285,115.445 C19.195,118.8 14.355,127.6 22,127.16 C25.465,124.08 27.555,119.35 30.36,115.775 C38.61,113.85 48.62,116.49 56.43,119.57 C57.2,120.945 58.245,122.045 59.07,123.31 C60.06,124.575 61.545,126.445 63.58,128.37 C78.155,142.285 102.41,145.2 121.605,138.215 C126.775,136.345 137.335,132.385 146.135,123.035 L151.745,116.6 C158.51,106.26 171.05,110.77 181.28,110 C182.765,109.89 185.24,109.67 186.395,109.45 C190.19,110.935 191.125,116.325 194.315,118.47 C199.925,121 199.32,112.475 196.405,109.45 C199.925,109.89 204.105,110.385 206.085,110.165 C212.19,109.615 212.3,105.38 208.12,103.29 C205.48,102.025 195.855,102.685 195.855,102.685 C198.935,100.155 202.785,100.1 205.535,96.36 C207.79,93.885 203.39,89.87 199.925,92.895 C197.45,95.04 193.27,99.935 190.795,97.845 C192.555,94.765 193.38,92.18 193.545,90.2 C193.985,85.36 190.135,84.205 187.385,88.22 C186.285,89.815 185.68,92.235 185.075,95.535 C182.6,105.325 166.76,102.905 158.015,101.915 L158.015,101.915 C159.005,99.275 159.885,89.045 158.565,85.415 C157.575,82.665 156.915,80.135 157.685,77.825 C167.42,70.4 179.41,68.09 186.56,57.915 C187.66,57.915 188.265,58.135 188.98,58.41 Z" id="body" stroke="#000000" stroke-width="3.3" stroke-linecap="round" stroke-linejoin="round"></path>
                <g id="Virus_2" transform="translate(15.400000, 12.100000)">
                    <g id="spines---foreground" transform="translate(0.359540, 0.267817)" fill="#4A90E2" stroke="#000000" stroke-linecap="round" stroke-linejoin="round" stroke-width="3.3">
                        <path d="M119.54046,55.9971834 C122.18046,48.9021834 126.52546,45.4371834 131.03546,42.4671834 C134.44546,40.3771834 142.36546,36.1421834 146.38046,37.4071834 C165.02546,39.1671834 148.91046,12.0521834 139.17546,31.4671834 C130.43046,35.9221834 121.57546,43.3471834 111.18046,42.6871834" id="STROKE_07e51073-4b0a-4ad6-92a7-9596782fcbe7_1_"></path>
                        <path d="M57.1154599,40.4871834 C56.2354599,31.3021834 52.1654599,20.6321834 45.0704599,14.4171834 C41.7154599,12.3821834 36.8754599,14.0871834 35.2254599,9.41218342 C32.0904599,0.337183417 48.9204599,-4.99781658 50.0204599,6.77218342 C52.2754599,17.6621834 60.6354599,26.9571834 69.1054599,33.9421834" id="STROKE_0f8f5398-5723-4d12-852e-d6ad31832322_1_"></path>
                        <path d="M51.6704599,93.8371834 C36.8204599,134.262183 24.3354599,114.682183 22.3004599,127.662183 C20.7054599,137.617183 40.1204599,140.367183 37.2604599,127.662183 C41.8254599,117.817183 53.1004599,112.262183 62.7804599,108.687183" id="STROKE_dadc7b53-3cd0-400e-84c6-41edabe11c82"></path>
                        <path d="M118.93546,108.247183 C129.82546,107.642183 139.56046,114.352183 145.61046,123.207183 C145.39046,128.982183 149.18546,133.602183 155.01546,129.972183 C159.52546,126.122183 159.14046,114.022183 151.00046,120.182183 C141.65046,113.142183 133.40046,104.452183 130.54046,92.9571834" id="STROKE_0068a515-4e7b-404b-bbf4-153ddf6d865f"></path>
                        <path d="M46.0604599,62.2671834 C44.0254599,64.7421834 41.2204599,67.0521834 38.1954599,67.9871834 C30.9354599,70.2421834 20.3204599,69.1971834 13.5554599,65.5671834 C11.7404599,58.1971834 -0.634540063,57.9221834 0.0254599368,66.8321834 C-0.249540063,72.7171834 8.27545994,77.0621834 11.8504599,71.3421834 C17.4054599,71.5071834 26.5354599,73.7621834 31.7604599,75.5771834 C36.5454599,77.1721834 40.3954599,81.7921834 44.1904599,84.7071834" id="STROKE_b614452b-79ae-4a7a-83e6-13ef367ec65d"></path>
                        <path d="M123.17046,73.1571834 C133.67546,74.1471834 144.62046,75.0271834 153.80546,68.3171834 C155.12546,66.2271834 156.39046,63.0921834 159.19546,62.9271834 C166.62046,63.1471834 169.20546,76.1271834 158.31546,76.4571834 C157.16046,76.6221834 156.55546,75.4671834 155.51046,75.3571834 C153.42046,75.7421834 150.72546,76.7871834 147.97546,77.7771834 C143.79546,79.1521834 130.65046,85.9171834 127.40546,88.7771834" id="STROKE_caed0330-75dd-4786-913d-8f84283837ad"></path>
                    </g>
                    <g id="eyes" transform="translate(64.746882, 54.340000)" stroke="#000000" stroke-linecap="round" stroke-linejoin="round">
                        <path d="M28.4781176,16.555 C35.2431176,15.015 40.9081176,8.69 45.4731176,3.85 C51.3581176,29.645 24.6281176,30.25 29.3581176,16.39" id="STROKE_97a1b2ca-a54e-4967-a7da-2bd2fc208453" stroke-width="2.75" fill="#FFFFFF"></path>
                        <path d="M0.91975172,7.22634115 C5.31975172,12.8363411 9.50311761,14.74 16.7081176,17.27 C18.3031176,21.835 12.9681176,24.585 9.06311761,24.42 C2.35311761,24.2 -1.00188239,14.685 0.263117605,9.02 L0.91975172,7.22634115 Z" id="STROKE_2a8ccad9-d38b-43b1-9eb1-e16eec8cb349" stroke-width="2.75" fill="#FFFFFF"></path>
                        <path d="M26.2781176,11.99 L26.4981176,11.77 C32.5481176,10.175 36.5081176,4.29 40.7431176,0" id="STROKE_4fbc4749-1bdb-424e-ab24-9528bec75fbe" stroke-width="3.3"></path>
                        <path d="M18.6331176,12.1 C11.7031176,10.23 6.53311761,7.04 2.84811761,0.165" id="STROKE_10114e09-db71-4aa2-a90d-eb9dccf6a978" stroke-width="3.3"></path>
                        <path d="M39.0341121,15.6807671 C35.211579,15.6475416 37.6910599,20.1662191 39.2062983,16.3452785" id="STROKE_777b726f-e13c-4f47-8096-1e812a79197c" stroke-width="3.3"></path>
                        <path d="M8.07311761,17.435 C7.41311761,17.27 6.64311761,17.49 6.36811761,18.205 C6.09311761,19.525 9.28311761,19.635 8.34811761,18.15" id="STROKE_6076036a-1e77-4a85-801a-6664a388468f" stroke-width="3.3"></path>
                    </g>
                    <g id="mouth" transform="translate(63.800000, 82.500000)">
                        <path d="M43.12,1.1 C35.805,0.605 24.97,4.62 5.665,0.385 C2.31,-0.33 0.44,3.685 0.11,6.435 C1.54,15.895 20.13,21.285 28.6,19.745 C33.55,18.81 38.94,17.71 42.57,13.915 C47.3,10.23 51.04,0.935 41.965,0.99" id="STROKE_9396d6fb-e619-46cb-8d7b-83c3f619002c_1_" fill="#A01A84" fill-rule="nonzero"></path>
                        <path d="M6.81914062,2.53 L6.9553109,2.60474741 C8.57762041,3.44407755 13.145,4.015 13.145,4.015 C13.0461947,4.1508573 12.9387609,4.28640644 12.8239443,4.42183196 C14.178724,4.54959071 17.2781381,4.79781947 18.8707461,4.92526731 L18.865,4.895 C22.165,4.62 27.335,3.905 27.445,3.795 C27.3667423,4.18628862 27.2369505,4.58033799 27.0683615,4.97643391 C28.9932017,4.58013636 33.8910349,4.56872672 35.0235812,4.63845392 C34.6977405,4.0467856 34.5244494,3.70093254 34.595,3.795 C36.135,3.52 42.405,3.245 42.405,3.245 C41.855,5.115 40.26,11.11 40.26,11.44 C39.5154393,12.2672897 36.4998878,7.2771098 35.1908104,4.93912069 L35.255,4.675 C34.705,7.04 33.495,10.395 32.78,13.035 C30.5336681,11.860781 27.6712759,8.0801534 26.744152,5.65207512 C25.5278189,7.97890059 23.2329243,10.3606375 22.3991837,12.6560395 L22.275,13.035 L22.2663281,13.0071801 C22.101502,12.561261 19.8192929,8.31642498 19.0769285,5.82751786 C17.4236691,7.58463331 15.5704041,9.6293914 14.575,11.715 C13.9733692,9.8098357 12.8690166,7.21914175 12.3034468,4.98442262 C10.8486237,6.47123241 8.70949265,7.97326103 7.535,9.735 C7.535,9.68 7.48,9.79 7.37,9.9 C7.15,7.48 6.875,5.06 6.765,2.53 L6.81914062,2.53 Z" id="Combined-Shape" stroke="#000000" stroke-width="1.65" fill="#000000" fill-rule="nonzero" opacity="0.2" stroke-linecap="round" stroke-linejoin="round"></path>
                        <path d="M6.81914062,0.88 L6.9553109,0.954747405 C8.57762041,1.79407755 13.145,2.365 13.145,2.365 C13.0461947,2.5008573 12.9387609,2.63640644 12.8239443,2.77183196 C14.178724,2.89959071 17.2781381,3.14781947 18.8707461,3.27526731 L18.865,3.245 C22.165,2.97 27.335,2.255 27.445,2.145 C27.3667423,2.53628862 27.2369505,2.93033799 27.0683615,3.32643391 C28.9932017,2.93013636 33.8910349,2.91872672 35.0235812,2.98845392 C34.6977405,2.3967856 34.5244494,2.05093254 34.595,2.145 C36.135,1.87 42.405,1.595 42.405,1.595 C41.855,3.465 40.26,9.46 40.26,9.79 C39.5154393,10.6172897 36.4998878,5.6271098 35.1908104,3.28912069 L35.255,3.025 C34.705,5.39 33.495,8.745 32.78,11.385 C30.5336681,10.210781 27.6712759,6.4301534 26.744152,4.00207512 C25.5278189,6.32890059 23.2329243,8.71063752 22.3991837,11.0060395 L22.275,11.385 L22.2663281,11.3571801 C22.101502,10.911261 19.8192929,6.66642498 19.0769285,4.17751786 C17.4236691,5.93463331 15.5704041,7.9793914 14.575,10.065 C13.9733692,8.1598357 12.8690166,5.56914175 12.3034468,3.33442262 C10.8486237,4.82123241 8.70949265,6.32326103 7.535,8.085 C7.535,8.03 7.48,8.14 7.37,8.25 C7.15,5.83 6.875,3.41 6.765,0.88 L6.81914062,0.88 Z" id="Combined-Shape" stroke="#FFFFFF" stroke-width="0.55" fill="#FFFFFF" fill-rule="nonzero" stroke-linecap="round" stroke-linejoin="round"></path>
                        <path d="M43.12,1.1 C35.805,0.605 24.97,4.62 5.665,0.385 C2.31,-0.33 0.44,3.685 0.11,6.435 C1.54,15.895 20.13,21.285 28.6,19.745 C33.55,18.81 38.94,17.71 42.57,13.915 C47.3,10.23 51.04,0.935 41.965,0.99" id="STROKE_9396d6fb-e619-46cb-8d7b-83c3f619002c" stroke="#000000" stroke-width="3.3" stroke-linecap="round" stroke-linejoin="round"></path>
                    </g>
                    <path d="M75.68,109.395 C84.7,113.08 95.48,111.925 104.17,107.965" id="STROKE_0872b399-3531-4864-9ff1-4ca804e1d729" stroke="#000000" stroke-width="1.65" stroke-linecap="round" stroke-linejoin="round"></path>
                </g>
            </g>
        </g>
    </g>
</svg>