<?xml version="1.0" encoding="UTF-8"?>
<svg width="115px" height="55px" viewBox="0 0 115 55" version="1.1" xmlns="http://www.w3.org/2000/svg" xmlns:xlink="http://www.w3.org/1999/xlink">
    <!-- Generator: Sketch 64 (93537) - https://sketch.com -->
    <title>svg/nextButton</title>
    <desc>Created with Sketch.</desc>
    <g id="nextButton" stroke="none" stroke-width="1" fill="none" fill-rule="evenodd" stroke-linecap="round" stroke-linejoin="round">
        <g id="Button" transform="translate(2.000000, 2.000000)">
            <path d="M67.0060869,6.03527338 C45.9131884,6.44038069 17.1921142,3.79190124 5.06415198,13.8178947 C0.70944956,17.4178579 -0.471600769,28.8768902 0.157408379,36.1119265 C1.86870794,48.3876717 18.4804455,49.7702557 32.9705019,50.4324846 C51.3610109,51.2729733 70.7237777,51.1004704 84.6099376,50.4324846 C99.4929306,48.9699948 111.211256,48.9699948 110.997111,29.4952615 C110.947097,24.9469096 110.793894,19.3957662 107.330879,15.3347677 C98.4773387,7.11802143 81.1438778,6.28576802 67.0060869,6.03527338 Z" id="SHADOW" stroke="#000000" stroke-width="2.5" fill="#000000" opacity="0.2" style="mix-blend-mode: multiply;"></path>
            <path d="M67.0060869,0.0352733755 C45.9131884,0.440380687 17.1921142,-2.20809876 5.06415198,7.81789471 C0.70944956,11.4178579 -0.471600769,22.8768902 0.157408379,30.1119265 C1.86870794,42.3876717 18.4804455,43.7702557 32.9705019,44.4324846 C51.3610109,45.2729733 70.7237777,45.1004704 84.6099376,44.4324846 C99.4929306,42.9699948 111.211256,42.9699948 110.997111,23.4952615 C110.947097,18.9469096 110.793894,13.3957662 107.330879,9.33476765 C98.4773387,1.11802143 81.1438778,0.285768021 67.0060869,0.0352733755 Z" id="STROKE_99fb390a-b112-4495-90fb-e96524237ba6" stroke="#000000" stroke-width="2.5" fill="#FAB739"></path>
            <path d="M14,37.4864435 C28.4892555,40.2380932 87.6851613,41.6815984 100.209195,36.7114765 C106.322296,34.2855124 107.288733,23.2115507 104.54143,15" id="Path" stroke="#F5A623" stroke-width="1.5"></path>
            <path d="M100,11.2475627 C91.7775772,5.99474425 71.1956703,5.18092618 60.1282456,5.11899576 C43.970647,4.84163265 34.5330105,4.80714026 18.9481776,7.81774183 C10.7652391,9.89392592 6.67353641,12.8178884 5.5972802,20.4835996 C4.52102399,28.1493107 4.4606847,32.1699379 9.20988427,35" id="Path" stroke="#FBD764" stroke-width="1.5"></path>
        </g>
    </g>
</svg>