<?xml version="1.0" encoding="UTF-8"?>
<svg width="63px" height="87px" viewBox="0 0 63 87" version="1.1" xmlns="http://www.w3.org/2000/svg" xmlns:xlink="http://www.w3.org/1999/xlink">
    
    <title>svg/noShield</title>
    <desc>Created with Sketch.</desc>
    <defs>
        <path d="M7,15.2893082 C7.3262953,15.2338698 7.66159398,15.2338698 7.98788928,15.2893082 C12.331749,15.245283 16.8075651,14.8081761 20.9196096,13.4402516 C24.8711668,12.336478 28.9297155,10.8396226 31.6580018,8 C34.1223754,9.33333333 36.8637934,11.4048923 39.520752,12.5180999 C44.5136942,14.5180999 50.2816763,14.6572327 55.7204169,14.7641509 C54.40442,24.1981132 55.2416992,32.1406585 56.5458984,40.1958343 C57.3994984,45.4679567 57.0399802,57.7044025 53.0919895,61.9842767 C50.6434198,64.6808971 47.5130538,66.834774 43.9513388,68.2735849 C40.9520071,69.5660377 37.6388333,70.1792453 34.8784495,71.7987421 C33.8620292,72.5597484 32.9775651,73.2893082 31.9540119,74 C30.8341663,73.6666667 29.9318703,73 29.0759374,72.3207547 C26.8790428,71.0031447 24.5466255,69.8050314 22.2712704,68.5849057 C17.8667821,66.0974843 12.0749691,64.3773585 9.753251,59.918239 C6.16546537,53.2861635 8.6589689,45.1088035 8.6875,38.0962249 C9.25455558,30.1559733 8.22327084,23.1257862 7,15.2893082 Z" id="path-1"></path>
    </defs>
    <g id="noShield" stroke="none" stroke-width="1" fill="none" fill-rule="evenodd">
        <g id="BRONZE-shield" transform="translate(2.000000, 2.000000)" stroke-linecap="round" stroke-linejoin="round" stroke-width="2.5">
            <path d="M0,8.24600268 L0,8.33576458 C1.16243386,16.7331455 2.1086294,22.6776442 1.91259766,31.1802633 C2.02265057,40.9209776 -2,54.6719625 5.85687831,63.7529074 C11.9854497,70.3705265 22.2031746,72.184336 29.6145503,77.2574313 C38.2502646,71.2557646 51.8486772,69.0179074 56.5706349,59.6764789 C61.3544974,50.2112408 58.1539987,37.9590719 57.479248,30.4834859 C56.8044974,23.0079 57.3485602,18.3291891 58.1732804,8.76290744 C58.1578222,8.67698432 58.152061,8.58987424 58.1560847,8.50290744 L56.8044974,8.56790744 L56.7838624,8.59266935 C47.2677249,9.88957411 37.5246032,5.82862173 30.2232804,0.572907442 C28.9232804,-1.01804494 27.9362434,1.12695506 26.9835979,1.9100503 C19.6031746,7.37314554 9.38544974,9.99171697 0,8.24600268 Z" id="STROKE_76bb0a68-dc04-4bea-850f-99e3047bfe27" stroke="#434F6F" fill="#60729F"></path>
            <path d="M4.07632103,11.9933688 L4.07632103,12.0735368 C5.13749812,19.5733886 6.00127288,24.8825272 5.82231698,32.476369 C5.92278345,41.175976 2.25053615,53.4572277 9.42302099,61.5675828 C15.0177475,67.4778972 24.3454314,69.0978431 31.1112202,73.6287156 C38.9946985,68.2685193 51.4085867,66.2698489 55.7192262,57.9268512 C60.0863781,49.4732769 57.1646671,38.5306448 56.5486923,31.8540646 C55.9327175,25.1774845 56.4293883,20.9988437 57.1822692,12.4550257 C57.1681575,12.3782862 57.1628981,12.3004867 57.1665713,12.222815 L55.9327175,12.2808677 L55.91388,12.302983 C47.2266699,13.461272 38.3322477,9.83436242 31.6669254,5.14038956 C30.4801652,3.7194814 29.5791065,5.63521944 28.7094437,6.33461587 C21.971911,11.2138044 12.6442272,13.5524976 4.07632103,11.9933688 Z" id="Combined-Shape" stroke="#000000" fill="#000000" opacity="0.2" style="mix-blend-mode: multiply;"></path>
        </g>
        <g id="STROKE_1e1260d5-97d6-460a-8bef-dadc888eb300" stroke-linecap="round" stroke-linejoin="round" stroke-dasharray="4">
            <use stroke="#4F5D82" xlink:href="#path-1"></use>
            <use stroke="#B8D2D9" xlink:href="#path-1"></use>
        </g>
        <path d="M32.5220508,47.2871094 C32.7368945,46.5742188 33.0469531,46.0078125 33.4522266,45.5878906 C33.8575,45.1679688 34.3018359,44.8139648 34.7852344,44.5258789 C35.2686328,44.237793 35.7642383,43.9716797 36.2720508,43.7275391 C36.7798633,43.4833984 37.2388477,43.1806641 37.6490039,42.8193359 C38.0591602,42.4580078 38.3960742,41.996582 38.6597461,41.4350586 C38.923418,40.8735352 39.0552539,40.1289062 39.0552539,39.2011719 C39.0552539,37.9804688 38.8208789,36.8989258 38.3521289,35.956543 C37.8833789,35.0141602 37.2486133,34.2207031 36.447832,33.5761719 C35.6470508,32.9316406 34.7119922,32.4433594 33.6426563,32.1113281 C32.5733203,31.7792969 31.4380664,31.6132812 30.2368945,31.6132812 C29.494707,31.6132812 28.8013477,31.671875 28.1568164,31.7890625 C27.5122852,31.90625 26.916582,32.0551758 26.369707,32.2358398 C25.822832,32.4165039 25.3223438,32.621582 24.8682422,32.8510742 C24.4141406,33.0805664 24.0064258,33.3027344 23.6450977,33.5175781 L23.6450977,33.5175781 L24.2896289,39.2597656 C24.6997852,39.015625 25.1612109,38.7983398 25.6739063,38.6079102 C26.1866016,38.4174805 26.7066211,38.2563477 27.2339648,38.1245117 C27.7613086,37.9926758 28.2666797,37.8950195 28.7500781,37.831543 C29.2334766,37.7680664 29.650957,37.7363281 30.0025195,37.7363281 C30.5396289,37.7363281 30.9766406,37.8071289 31.3135547,37.9487305 C31.6504688,38.090332 31.904375,38.2636719 32.0752734,38.46875 C32.2461719,38.6738281 32.3462695,38.8911133 32.3755664,39.1206055 C32.4048633,39.3500977 32.385332,39.5527344 32.3169727,39.7285156 C32.2095508,40.0214844 32.0117969,40.265625 31.7237109,40.4609375 C31.435625,40.65625 31.1035938,40.8588867 30.7276172,41.0688477 C30.3516406,41.2788086 29.9658984,41.527832 29.5703906,41.815918 C29.1748828,42.1040039 28.8184375,42.4799805 28.5010547,42.9438477 C28.1836719,43.4077148 27.932207,43.9887695 27.7466602,44.6870117 C27.5611133,45.3852539 27.5025195,46.2519531 27.5708789,47.2871094 L27.5708789,47.2871094 L32.5220508,47.2871094 Z M30.1783008,54.2304688 C30.5982227,54.2304688 30.9937305,54.1499023 31.3648242,53.9887695 C31.735918,53.8276367 32.060625,53.6079102 32.3389453,53.3295898 C32.6172656,53.0512695 32.8394336,52.7265625 33.0054492,52.3554688 C33.1714648,51.984375 33.2544727,51.5839844 33.2544727,51.1542969 C33.2544727,50.734375 33.1714648,50.3339844 33.0054492,49.953125 C32.8394336,49.5722656 32.6172656,49.2426758 32.3389453,48.9643555 C32.060625,48.6860352 31.735918,48.4638672 31.3648242,48.2978516 C30.9937305,48.1318359 30.5982227,48.0488281 30.1783008,48.0488281 C29.7486133,48.0488281 29.3482227,48.1318359 28.9771289,48.2978516 C28.6060352,48.4638672 28.2813281,48.6860352 28.0030078,48.9643555 C27.7246875,49.2426758 27.5049609,49.5722656 27.3438281,49.953125 C27.1826953,50.3339844 27.1021289,50.734375 27.1021289,51.1542969 C27.1021289,51.5839844 27.1826953,51.984375 27.3438281,52.3554688 C27.5049609,52.7265625 27.7246875,53.0512695 28.0030078,53.3295898 C28.2813281,53.6079102 28.6060352,53.8276367 28.9771289,53.9887695 C29.3482227,54.1499023 29.7486133,54.2304688 30.1783008,54.2304688 Z" id="?" fill="#000000" fill-rule="nonzero" opacity="0.2"></path>
        <path d="M32.5220508,45.2871094 C32.7368945,44.5742188 33.0469531,44.0078125 33.4522266,43.5878906 C33.8575,43.1679688 34.3018359,42.8139648 34.7852344,42.5258789 C35.2686328,42.237793 35.7642383,41.9716797 36.2720508,41.7275391 C36.7798633,41.4833984 37.2388477,41.1806641 37.6490039,40.8193359 C38.0591602,40.4580078 38.3960742,39.996582 38.6597461,39.4350586 C38.923418,38.8735352 39.0552539,38.1289062 39.0552539,37.2011719 C39.0552539,35.9804688 38.8208789,34.8989258 38.3521289,33.956543 C37.8833789,33.0141602 37.2486133,32.2207031 36.447832,31.5761719 C35.6470508,30.9316406 34.7119922,30.4433594 33.6426563,30.1113281 C32.5733203,29.7792969 31.4380664,29.6132812 30.2368945,29.6132812 C29.494707,29.6132812 28.8013477,29.671875 28.1568164,29.7890625 C27.5122852,29.90625 26.916582,30.0551758 26.369707,30.2358398 C25.822832,30.4165039 25.3223438,30.621582 24.8682422,30.8510742 C24.4141406,31.0805664 24.0064258,31.3027344 23.6450977,31.5175781 L23.6450977,31.5175781 L24.2896289,37.2597656 C24.6997852,37.015625 25.1612109,36.7983398 25.6739063,36.6079102 C26.1866016,36.4174805 26.7066211,36.2563477 27.2339648,36.1245117 C27.7613086,35.9926758 28.2666797,35.8950195 28.7500781,35.831543 C29.2334766,35.7680664 29.650957,35.7363281 30.0025195,35.7363281 C30.5396289,35.7363281 30.9766406,35.8071289 31.3135547,35.9487305 C31.6504688,36.090332 31.904375,36.2636719 32.0752734,36.46875 C32.2461719,36.6738281 32.3462695,36.8911133 32.3755664,37.1206055 C32.4048633,37.3500977 32.385332,37.5527344 32.3169727,37.7285156 C32.2095508,38.0214844 32.0117969,38.265625 31.7237109,38.4609375 C31.435625,38.65625 31.1035938,38.8588867 30.7276172,39.0688477 C30.3516406,39.2788086 29.9658984,39.527832 29.5703906,39.815918 C29.1748828,40.1040039 28.8184375,40.4799805 28.5010547,40.9438477 C28.1836719,41.4077148 27.932207,41.9887695 27.7466602,42.6870117 C27.5611133,43.3852539 27.5025195,44.2519531 27.5708789,45.2871094 L27.5708789,45.2871094 L32.5220508,45.2871094 Z M30.1783008,52.2304688 C30.5982227,52.2304688 30.9937305,52.1499023 31.3648242,51.9887695 C31.735918,51.8276367 32.060625,51.6079102 32.3389453,51.3295898 C32.6172656,51.0512695 32.8394336,50.7265625 33.0054492,50.3554688 C33.1714648,49.984375 33.2544727,49.5839844 33.2544727,49.1542969 C33.2544727,48.734375 33.1714648,48.3339844 33.0054492,47.953125 C32.8394336,47.5722656 32.6172656,47.2426758 32.3389453,46.9643555 C32.060625,46.6860352 31.735918,46.4638672 31.3648242,46.2978516 C30.9937305,46.1318359 30.5982227,46.0488281 30.1783008,46.0488281 C29.7486133,46.0488281 29.3482227,46.1318359 28.9771289,46.2978516 C28.6060352,46.4638672 28.2813281,46.6860352 28.0030078,46.9643555 C27.7246875,47.2426758 27.5049609,47.5722656 27.3438281,47.953125 C27.1826953,48.3339844 27.1021289,48.734375 27.1021289,49.1542969 C27.1021289,49.5839844 27.1826953,49.984375 27.3438281,50.3554688 C27.5049609,50.7265625 27.7246875,51.0512695 28.0030078,51.3295898 C28.2813281,51.6079102 28.6060352,51.8276367 28.9771289,51.9887695 C29.3482227,52.1499023 29.7486133,52.2304688 30.1783008,52.2304688 Z" id="?" fill="#FFFFFF" fill-rule="nonzero"></path>
    </g>
</svg>