<svg version="1.2" xmlns="http://www.w3.org/2000/svg" xmlns:xlink="http://www.w3.org/1999/xlink" overflow="visible" preserveAspectRatio="none" viewBox="0 0 1091 773" height="771" width="1089"><g transform="translate(1, 1)"><desc>Created with Sketch.</desc><g fill-rule="evenodd" fill="none" stroke-width="1" stroke="none" id="Parchment-map_1586991843247"><g transform="translate(2.012695, 3.000000)"><g transform="translate(542.987305, 383.000000) scale(1, -1) rotate(90.000000) translate(-542.987305, -383.000000) translate(159.987305, -159.000000)" id="outline_1586991843247"><path fill="#F0EEE9" id="Combined-Shape_1586991843247" d="M490.377009,1.69693105 C563.17565,0.401390452 685.114766,4.82987332 685.114766,4.82987332 C685.114766,4.82987332 703.482787,5.21410209 718.425153,32.8408074 C765.499382,119.87355 746.51914,309.203097 727.434542,443.934393 C716.876513,518.478058 705.152481,631.278758 698.944003,700.306935 C694.089417,754.281661 691.149346,787.134378 690.964759,819.926437 C690.945608,823.328566 674.569336,838.750977 667.501953,840.041016 C679.281758,841.607422 691.33819,845.713759 691.75281,853.937506 C692.591402,870.570449 694.110474,888.782107 696.399112,910.803546 C697.832231,924.586191 704.364628,955.962055 709.631054,969.599417 C722.877443,967.555739 735.806218,966.279309 750.265376,967.323763 C779.408486,1000.58254 763.547788,1053.33354 729.612657,1073.11639 C509.746011,1063.54351 286.949053,1090.62343 66.3157396,1081.64824 L66.3157396,1081.64824 C40.6674156,1081.35985 22.9569505,983.639181 20.1064124,962.114507 C18.3457901,948.81692 17.0421922,943.0028 15.5547116,930.359738 C15.2898545,928.108546 44.28279,920.508168 44.0263672,918.276367 C43.7179333,915.591883 12.6099395,904.758174 12.3135996,902.10109 C11.4810549,894.636214 11.3090741,892.779834 10.5737078,885.538602 C10.4574333,884.393633 27.5211137,877.881815 27.4072266,876.742188 C27.2979147,875.648343 9.15042365,869.658322 9.04330085,868.569336 C-8.40148604,691.22957 3.36219808,582.686909 21.8581993,402.718468 C26.6070862,356.504286 45.6068081,244.422783 54.3671339,198.514013 C54.9878798,195.262214 79.2643806,181.944375 80,178.15625 C80.7742592,174.169147 57.928773,173.076811 58.7764642,168.601562 C63.5209059,143.554051 68.9969621,112.800199 70.3541662,84.987454 C23.6966395,83.8301461 36.8959398,86.6564152 22.012646,83.9768949 C6.41492483,76.2332074 2.06676439,47.3076774 9.04330085,29.5050778 C14.3877118,19.0734309 20.6198432,10.8026603 34.5701333,8.87823244 L34.5701333,8.87823244 L34.590391,8.87803686 C34.5836396,8.87782679 34.576887,8.87761831 34.5701333,8.87741143 C192.449404,3.18787003 329.486724,-1.88756213 490.377009,1.69693105 Z M709.595934,969.604372 L614.396543,980.926402 C629.117316,980.147724 644.077547,979.019324 660.058787,977.305501 C678.839751,975.290328 694.427227,971.945543 709.595934,969.604372 Z M76.071559,976.926612 C75.507112,976.764928 74.9332607,976.713935 74.351268,976.781696 L74.3914911,976.78827 C75.0533147,976.870851 75.7151817,976.952943 76.3770916,977.03455 Z" vector-effect="non-scaling-stroke"/><path stroke-linejoin="round" stroke-linecap="round" stroke-width="4.17549168" stroke="#000000" id="Stroke-1_1586991843247" d="M31,86.98 C41.7804737,86.712 58.6612588,85.02 69,85.02" vector-effect="non-scaling-stroke"/><path stroke-linejoin="round" stroke-linecap="round" stroke-width="4.17549168" stroke="#000000" id="Stroke-5_1586991843247" d="M34.3964412,8.5 C20.3762804,10.4359753 14.1129351,18.7563741 8.74175636,29.2506155 C1.73027756,47.1600387 6.10021598,76.2591347 21.7760591,84.0492877 C37.2169743,93.9075646 57.2627558,72.2897246 53.0690133,50.1135573 C55.1777708,50.4125432 66.1954693,50.8568925 68.5,50.1135573" vector-effect="non-scaling-stroke"/><path stroke-linejoin="round" stroke-linecap="round" stroke-width="4.17549168" stroke="#000000" id="Stroke-7_1586991843247" d="M89.4789692,1043.65597 C83.5814232,1043.92194 77.7938904,1043.5706 73.8584795,1043.5706 C59.0972072,1036.08081 58.5095415,1002.71828 64.5115305,988.566164 C83.8446194,942.97896 101.601316,1046.70475 81.7306938,1069.77827 C47.6753247,1122.69601 23.0309629,988.198406 19.6219446,962.481621 C18.1728357,951.547466 16.8182121,940.84692 15.5547116,930.359738 C14.9383234,925.243652 44.599773,923.293247 44.0263672,918.276367 C43.5246091,913.886352 12.783006,906.418517 12.3135996,902.10109 C11.707032,896.522106 11.1272562,891.002409 10.5737078,885.538602 C10.3393024,883.224899 27.6322687,879.036104 27.4072266,876.742187 C27.0492215,873.092944 9.18034164,871.353525 8.84575182,867.752663 C-7.05767375,696.599682 3.29393012,578.924848 21.3751938,403.162892 C26.1280449,356.955096 45.1436272,244.889083 53.9112659,198.986658 C54.7373533,194.663377 78.9844491,183.40049 80,178.15625 C80.9879797,173.054386 58.7408323,173.992898 59.8041268,168.224018 C71.2692068,106.020493 84.1312038,10.90739 34.0977394,9.37626391 C192.108803,3.68750881 329.260519,-1.38722193 490.28511,2.19677587 C563.144522,0.901414324 685.185429,5.32928517 685.185429,5.32928517 C685.185429,5.32928517 703.568783,5.71346084 718.523623,33.3363481 C765.637148,120.357062 746.641062,309.660444 727.540532,444.37312 C716.97369,518.906483 705.239871,631.691594 699.026211,700.710231 C693.946764,757.130128 690.961549,790.467733 691.032284,824.78505 C691.040235,828.642349 667.415419,836.124792 667.501953,840.041016 C667.582799,843.699797 691.369911,843.786441 691.521654,847.554344 C692.265424,866.022839 693.874222,886.13688 696.479195,911.177751 C697.913545,924.958822 704.451675,956.331527 709.722563,969.966479" vector-effect="non-scaling-stroke"/><path stroke-linejoin="round" stroke-linecap="round" stroke-width="4.17549168" stroke="#000000" id="Stroke-3_1586991843247" d="M67,1082.14107 C287.575169,1091.15101 510.313412,1063.96626 730.122115,1073.5762 C764.048303,1053.71676 779.904821,1000.76156 750.769391,967.374037 C719.749095,965.124026 695.77444,973.603188 660.586575,977.394415 C614.434495,982.364219 576.799782,982.430154 528.849082,983.295543 C377.810844,989.241176 225.327311,995.701097 75.0736232,976.875182" vector-effect="non-scaling-stroke"/></g><g stroke="#000000" transform="translate(10.932617, 14.150391)" id="texture_1586991843247"><ellipse ry="1" rx="1" cy="692.849609" cx="28.5546875" fill="#000000" id="Oval_1586991843247" vector-effect="non-scaling-stroke"/><ellipse ry="1" rx="1" cy="693.349609" cx="41.0546875" fill="#000000" id="Oval_1586991843247" vector-effect="non-scaling-stroke"/><circle r="1" cy="689" cx="32" fill="#000000" id="Oval_1586991843247" vector-effect="non-scaling-stroke"/><circle r="1.5" cy="698.5" cx="72.5" fill="#000000" id="Oval_1586991843247" vector-effect="non-scaling-stroke"/><ellipse ry="1" rx="2.5" cy="692.5" cx="87.5" fill="#000000" id="Oval_1586991843247" vector-effect="non-scaling-stroke"/><circle r="1" cy="680.5" cx="84.5" fill="#000000" id="Oval_1586991843247" vector-effect="non-scaling-stroke"/><ellipse ry="2" rx="1.5" cy="701" cx="50.5" fill="#000000" id="Oval_1586991843247" vector-effect="non-scaling-stroke"/><ellipse ry="1" rx="2.5" cy="698" cx="35.5" fill="#000000" id="Oval_1586991843247" vector-effect="non-scaling-stroke"/><circle r="1" cy="681" cx="18" fill="#000000" id="Oval_1586991843247" vector-effect="non-scaling-stroke"/><path transform="translate(6.500000, 680.460938) scale(-1, 1) translate(-6.500000, -680.460938)" stroke-linecap="round" stroke-width="2" id="Path-10_1586991843247" d="M6.93164062,670.960938 C6.64388021,677.294271 6.35611979,683.627604 6.06835938,689.960938" vector-effect="non-scaling-stroke"/><path transform="translate(0.500000, 682.460938) scale(-1, 1) translate(-0.500000, -682.460938)" stroke-linecap="round" stroke-width="2" id="Path-10-Copy_1586991843247" d="M0.931640625,672.960938 C0.643880208,679.294271 0.356119792,685.627604 0.068359375,691.960938" vector-effect="non-scaling-stroke"/><path stroke-linecap="round" stroke-width="2" id="Path-11_1586991843247" d="M41.6933594,663.841797 C41.6614583,667.884115 41.6295573,671.926432 41.5976562,675.96875" vector-effect="non-scaling-stroke"/><path stroke-linecap="round" stroke-width="2" id="Path-13_1586991843247" d="M55.3867188,663 C55.5976562,669.86849 55.8085938,676.736979 56.0195312,683.605469" vector-effect="non-scaling-stroke"/><path stroke-linecap="round" stroke-width="2" id="Path-8_1586991843247" d="M15.1054688,666.28418 C14.524191,680.635434 15.1054688,678.907151 15.1054688,688.28418" vector-effect="non-scaling-stroke"/><path stroke-linecap="round" stroke-width="2" id="Path-8-Copy_1586991843247" d="M11.1054688,666.28418 C10.524191,682.592423 11.1054688,680.628465 11.1054688,691.28418" vector-effect="non-scaling-stroke"/><path stroke-linecap="round" stroke-width="2" id="Path-9_1586991843247" d="M21.6855469,664.400391 C22.3522135,673.400391 23.0188802,682.400391 23.6855469,691.400391" vector-effect="non-scaling-stroke"/><path stroke-linecap="round" stroke-width="2" id="Path-14_1586991843247" d="M67.6445312,665.564453 C67.953125,671.511068 68.2617188,677.457682 68.5703125,683.404297" vector-effect="non-scaling-stroke"/><path stroke-linecap="round" stroke-width="2" id="Path-14-Copy_1586991843247" d="M49.6445312,663.564453 C49.953125,669.511068 50.2617188,675.457682 50.5703125,681.404297" vector-effect="non-scaling-stroke"/><path stroke-linecap="round" stroke-width="2" id="Path-12_1586991843247" d="M110.390625,53.6367188 C103.881539,88.8361007 107.800693,64.860965 101.992188,126.03125" vector-effect="non-scaling-stroke"/><path stroke-linecap="round" stroke-width="2" id="Path-17_1586991843247" d="M114.992188,57.8769531 C113.563049,94.4171094 114.985701,74.3393175 109.861328,118.042969" vector-effect="non-scaling-stroke"/><path stroke-linecap="round" stroke-width="2" id="Path-18_1586991843247" d="M125.603516,57.5996094 C118.926601,102.673301 120.126847,83.4442692 119.412109,115.066406" vector-effect="non-scaling-stroke"/><path stroke-linecap="round" stroke-width="2" id="Path-19_1586991843247" d="M132.564453,67.4472656 C132.339193,78.061849 132.113932,88.6764323 131.888672,99.2910156" vector-effect="non-scaling-stroke"/><path stroke-linecap="round" stroke-width="2" id="Path-20_1586991843247" d="M143.621094,72.6816406 C143.457682,76.5703125 143.294271,80.4589844 143.130859,84.3476562" vector-effect="non-scaling-stroke"/><path stroke-linecap="round" stroke-width="2" id="Path-21_1586991843247" d="M60.5839844,0.48828125 C37.2786349,2.60058884 17.9350483,7.70964604 8.36914062,29.9335938" vector-effect="non-scaling-stroke"/><path transform="translate(30.379146, 26.497457) rotate(-4.000000) translate(-30.379146, -26.497457)" stroke-linecap="round" stroke-width="2" id="Path-21-Copy_1586991843247" d="M52.3791461,11.7748005 C32.7403748,13.8871081 16.440071,18.9961653 8.3791461,41.220113" vector-effect="non-scaling-stroke"/><path stroke-linecap="round" stroke-width="2" id="Path-22_1586991843247" d="M13.28125,52.2128906 C13.5523025,209.152278 13.7488886,6.89512141 9.88867187,272.615234 C8.55394284,364.492031 6.60742187,333.783203 5.6484375,360.223633" vector-effect="non-scaling-stroke"/><path stroke-linecap="round" stroke-width="2" id="Path-15_1586991843247" d="M77.5683594,669.644531 C77.6458333,673.753255 77.7233073,677.861979 77.8007812,681.970703" vector-effect="non-scaling-stroke"/><path stroke-linecap="round" stroke-width="2" id="Path-16_1586991843247" d="M60.6953125,669.080078 C60.8925781,672.680339 61.0898438,676.280599 61.2871094,679.880859" vector-effect="non-scaling-stroke"/></g><g stroke="#000000" transform="translate(13.000000, 39.639648)" id="texture_1586991843247"><path stroke-linecap="round" stroke-width="2" id="Path-23_1586991843247" d="M3.58105469,339 C2.94173177,342.60612 3.26139323,348.697591 2.62207031,352.303711 L3.58105469,339 Z" vector-effect="non-scaling-stroke"/><path stroke-linecap="round" stroke-width="2" id="Path-24_1586991843247" d="M2,368.932617 C1.86783854,371.899414 1.42122396,378.293945 1.2890625,381.260742 L2,368.932617 Z" vector-effect="non-scaling-stroke"/><path transform="translate(0.500000, 399.616211) scale(-1, 1) translate(-0.500000, -399.616211)" stroke-linecap="round" stroke-width="2" id="Path-25_1586991843247" d="M0.657226562,398.616211 C0.552408854,399.282878 0.447591146,399.949544 0.342773438,400.616211" vector-effect="non-scaling-stroke"/><path stroke-linecap="round" stroke-width="2" id="Path-26_1586991843247" d="M2.73925781,356.594727 C2.74251302,359.435872 2.74576823,362.277018 2.74902344,365.118164" vector-effect="non-scaling-stroke"/><path stroke-linecap="round" stroke-width="2" id="Path-27_1586991843247" d="M1028.39453,661.360352 C1028.45638,667.693685 1028.51823,674.027018 1028.58008,680.360352" vector-effect="non-scaling-stroke"/><path stroke-linecap="round" stroke-width="2" id="Path-29_1586991843247" d="M1001.9873,677.360352 C1001.65397,682.027018 1001.32064,686.693685 1000.9873,691.360352" vector-effect="non-scaling-stroke"/><path stroke-linecap="round" stroke-width="2" id="Path-30_1586991843247" d="M1034.9873,662.360352 C1035.32064,670.360352 1035.65397,678.360352 1035.9873,686.360352" vector-effect="non-scaling-stroke"/><path stroke-linecap="round" stroke-width="2" id="Path-31_1586991843247" d="M1041.25195,664.360352 C1041.40885,673.360352 1041.56576,682.360352 1041.72266,691.360352" vector-effect="non-scaling-stroke"/><path stroke-linecap="round" stroke-width="2" id="Path-33_1586991843247" d="M1012.19922,663.573242 C999.798092,665.370627 995.676615,665.647953 986.955078,673.854492" vector-effect="non-scaling-stroke"/><path stroke-linecap="round" stroke-width="2" id="Path-35_1586991843247" d="M1001.4873,659.55957 C999.207031,659.55957 996.471715,660.02839 995.643311,660.318604 C992.669678,661.360352 989.589844,662.678711 987.594727,665.844727" vector-effect="non-scaling-stroke"/><path stroke-linecap="round" stroke-width="2" id="Path-32_1586991843247" d="M1047.9873,667.360352 C1048.32064,677.360352 1048.65397,687.360352 1048.9873,697.360352" vector-effect="non-scaling-stroke"/><path stroke-linecap="round" stroke-width="2" id="Path-37_1586991843247" d="M1055.18164,675.360352 C1055.38542,682.497721 1055.58919,689.635091 1055.79297,696.772461" vector-effect="non-scaling-stroke"/><ellipse ry="1.5" rx="2" cy="707.860352" cx="1015.9873" fill="#000000" id="Oval_1586991843247" vector-effect="non-scaling-stroke"/><ellipse ry="1" rx="2" cy="696.860352" cx="1017.9873" fill="#000000" id="Oval_1586991843247" vector-effect="non-scaling-stroke"/><ellipse ry="1" rx="3" cy="712.360352" cx="1031.9873" fill="#000000" id="Oval_1586991843247" vector-effect="non-scaling-stroke"/><ellipse ry="1.5" rx="2" cy="707.860352" cx="1045.9873" fill="#000000" id="Oval_1586991843247" vector-effect="non-scaling-stroke"/><ellipse ry="1.5" rx="1" cy="698.860352" cx="1000.9873" fill="#000000" id="Oval_1586991843247" vector-effect="non-scaling-stroke"/><ellipse ry="1" rx="1.5" cy="709.360352" cx="999.487305" fill="#000000" id="Oval_1586991843247" vector-effect="non-scaling-stroke"/><ellipse ry="2" rx="1" cy="646.360352" cx="1046.9873" fill="#000000" id="Oval_1586991843247" vector-effect="non-scaling-stroke"/><ellipse ry="1.5" rx="2.5" cy="634.860352" cx="1053.4873" fill="#000000" id="Oval_1586991843247" vector-effect="non-scaling-stroke"/><ellipse ry="1.5" rx="1" cy="657.860352" cx="1055.4873" fill="#000000" id="Oval_1586991843247" vector-effect="non-scaling-stroke"/><ellipse ry="1" rx="1.5" cy="647.360352" cx="1006.4873" fill="#000000" id="Oval_1586991843247" vector-effect="non-scaling-stroke"/><ellipse ry="1.5" rx="2" cy="698.860352" cx="991.987305" fill="#000000" id="Oval_1586991843247" vector-effect="non-scaling-stroke"/><circle r="1.5" cy="704.860352" cx="1008.4873" fill="#000000" id="Oval_1586991843247" vector-effect="non-scaling-stroke"/><path stroke-linecap="round" stroke-width="2" id="Path-38_1586991843247" d="M994.395508,683.393555 C994.329753,688.060221 994.263997,692.726888 994.198242,697.393555" vector-effect="non-scaling-stroke"/><path stroke-linecap="round" stroke-width="2" id="Path_1586991843247" d="M934.09668,0.614257812 C975.49559,-1.49084844 1023.29996,7.91601936 1053.47168,38.1611328" vector-effect="non-scaling-stroke"/><path stroke-linecap="round" stroke-width="2" id="Path-2_1586991843247" d="M1053.89746,49.3076172 C1053.9248,58.4951172 1053.95215,67.6826172 1053.97949,76.8701172" vector-effect="non-scaling-stroke"/><path stroke-linecap="round" stroke-width="2" id="Path-3_1586991843247" d="M964.700195,10.7509766 C997.235891,13.5316285 1019.05131,20.134165 1043.2373,41.4287109" vector-effect="non-scaling-stroke"/><path stroke-linecap="round" stroke-width="2" id="Path-28_1586991843247" d="M1053.3623,91.5888672 C1053.03223,113.092773 1052.70215,134.59668 1052.37207,156.100586" vector-effect="non-scaling-stroke"/><path stroke-linecap="round" stroke-width="2" id="Path-34_1586991843247" d="M1032.54785,53.2177734 C1027.65322,60.124337 1038.209,55.4884483 1032.03418,53.2802734" vector-effect="non-scaling-stroke"/><path stroke-linecap="round" stroke-width="2" id="Path-36_1586991843247" d="M1043.11426,63.3916016 C1038.03268,67.879823 1049.42756,67.1116315 1042.53809,62.9755859" vector-effect="non-scaling-stroke"/><path stroke-linecap="round" stroke-width="2" id="Path-39_1586991843247" d="M1044.05566,50.8291016 C1043.09264,54.1533947 1046.35366,57.5355481 1045.76465,50.6865234" vector-effect="non-scaling-stroke"/><path stroke-linecap="round" stroke-width="2" id="Path-40_1586991843247" d="M1051.59863,84.3779297 C1048.50257,90.8962626 1059.16674,86.3395638 1052.10254,84.4873047" vector-effect="non-scaling-stroke"/><path stroke-width="2" id="Path-41_1586991843247" d="M1045.79785,48.7841797 C1044.48918,47.0882465 1045.23949,47.2066972 1043.52246,48.6591797" vector-effect="non-scaling-stroke"/></g></g></g></g></svg>