<svg version="1.2" xmlns="http://www.w3.org/2000/svg" xmlns:xlink="http://www.w3.org/1999/xlink" overflow="visible" preserveAspectRatio="none" viewBox="0 0 204 57" height="55" width="202"><g transform="translate(1, 1)"><desc>Created with Sketch.</desc><g stroke-linejoin="round" stroke-linecap="round" fill-rule="evenodd" fill="none" stroke-width="1" stroke="none" id="replaylevelButton_1587581713080"><g transform="translate(2.000000, 1.000000)" id="BUTTON_1587581713080"><path style="mix-blend-mode: overlay;" opacity="0.2" fill="#000000" stroke-width="2.5" stroke="#000000" id="SHADOW_1587581713080" d="M118.802734,7.00341797 C98.6145203,7.21807207 73.8488345,7.30317752 51.7114258,7.68135899 C32.6557614,8.00689389 16.1523997,8.89465337 6.16052941,13.4675759 C-1.5951086,17.0170547 -0.259827445,32.2256903 0.860425281,39.3592654 C3.90821561,51.4628605 14.6550097,50.1917898 43.9443359,51.137207 C75.6112891,52.1593706 125.147933,51.7958252 149.878906,51.137207 C176.385219,49.6952265 197.072733,48.3659039 197.844811,37.0525314 C198.150826,32.5684446 198.624474,17.4716246 192.456913,13.4675759 C176.688936,5.36605795 143.981858,7.25039978 118.802734,7.00341797 Z" vector-effect="non-scaling-stroke"/><path fill="#ABD5D9" stroke-width="2.5" stroke="#5B6680" id="STROKE_99fb390a-b112-4495-90fb-e96524237ba6_1587581713080" d="M118.802734,1.00341797 C98.6145203,1.21807207 73.8488345,1.30317752 51.7114258,1.68135899 C32.6557614,2.00689389 16.1523997,2.89465337 6.16052941,7.46757587 C-1.5951086,11.0170547 -0.259827445,26.2256903 0.860425281,33.3592654 C3.90821561,45.4628605 14.6550097,44.1917898 43.9443359,45.137207 C75.6112891,46.1593706 125.147933,45.7958252 149.878906,45.137207 C176.385219,43.6952265 197.072733,42.3659039 197.844811,31.0525314 C198.150826,26.5684446 198.624474,11.4716246 192.456913,7.46757587 C176.688936,-0.633942047 143.981858,1.25039978 118.802734,1.00341797 Z" vector-effect="non-scaling-stroke"/><path stroke-width="1.5" stroke="#69B4BA" id="Path_1587581713080" d="M14,37.6389711 C22.9154866,39.8413225 33.7317984,39.6455044 44.9780273,40.034668 C54.9789471,40.380739 65.6159929,40.7910156 75.5727539,40.7910156 C104.720516,40.7797916 159.066426,42.1158192 182.079548,36.3016168 C192.121824,33.7644633 193,30.2141885 193,24.564375 C193,21.1629801 192.214926,14.1855159 188.650223,12" vector-effect="non-scaling-stroke"/><path stroke-width="1.5" stroke="#D9ECED" id="Path_1587581713080" d="M182.785645,9.40283203 C181.789144,8.88728124 177.509976,8.1003811 169.948143,7.04213161 C154.359863,5.47400116 136.962601,5.82132648 121.976563,5.7734375 C92.8762177,5.48816406 60.909668,5.48816406 25.5756836,8.07568359 C10.8379532,10.21108 5.00519001,10.3397702 5.00519001,22.3629059 C4.89077331,30.7609035 6.66814382,35.3066015 10.3373016,36" vector-effect="non-scaling-stroke"/></g></g></g></svg>