<?xml version="1.0" encoding="UTF-8"?>
<svg width="63px" height="87px" viewBox="0 0 63 87" version="1.1" xmlns="http://www.w3.org/2000/svg" xmlns:xlink="http://www.w3.org/1999/xlink">
    
    <title>svg/Silver-shield</title>
    <desc>Created with Sketch.</desc>
    <g id="Silver-shield" stroke="none" stroke-width="1" fill="none" fill-rule="evenodd" stroke-linecap="round" stroke-linejoin="round">
        <g id="SILVER-shield" transform="translate(1.000000, 1.000000)">
            <path d="M30.8349754,83.8716883 C49.5654297,74.1335164 57.8962398,58.052348 58.9240723,51.0101588 C60.6339245,40.7510122 60.3731527,20.3979221 56.1305419,11.1358442 C45.6591797,17.1072443 37.8504926,10.60282 30.7229064,6.25397032 C21.773399,13.1707421 13.5091133,17.3440074 3.84236453,10.530705 C2.58719212,24.1165492 -1.26733398,40.076527 1.86674877,51.7334694 C6.35205078,68.3899592 18.2992611,76.2337662 30.8349754,83.8716883 Z" id="SHADOW" stroke="#000000" stroke-width="2.5" fill="#000000" opacity="0.2" style="mix-blend-mode: multiply;"></path>
            <path d="M30.8349754,77.8716883 C49.5654297,68.1335164 57.8962398,52.052348 58.9240723,45.0101588 C60.6339245,34.7510122 60.3731527,14.3979221 56.1305419,5.13584416 C45.6591797,11.1072443 37.8504926,4.60282004 30.7229064,0.253970315 C21.773399,7.17074212 13.5091133,11.3440074 3.84236453,4.53070501 C2.58719212,18.1165492 -1.26733398,34.076527 1.86674877,45.7334694 C6.35205078,62.3899592 18.2992611,70.2337662 30.8349754,77.8716883 Z" id="STROKE_670baedd-cb34-4dae-a153-24fd318e1753" stroke="#000000" stroke-width="2.5" fill="#BAD6DE"></path>
            <path d="M53.6308785,11.2289916 C58.3671875,37.6734223 55.7513637,59.3250948 31.0070794,71.4879406 C3.57727053,56.9373362 2.50115605,39.4243886 7.64365002,11.2738021 C15.5129355,14.6537929 25.1090832,13.4840721 31.0070794,6.3239968 C37.076492,11.483604 46.3171093,15.0282805 53.6308785,11.2289916 Z" id="STROKE_1bb2f6e9-6c2d-4ce7-9b22-3ad4d8eb5f76" stroke="#91BECA" stroke-width="1.5" fill="#D2E5E9"></path>
            <path d="M31.0070794,71.4879406 C3.57727053,56.9373362 2.50115605,39.4243886 7.64365002,11.2738021 C15.5129355,14.6537929 25.1090832,13.4840721 31.0070794,6.3239968" id="Path" stroke="#FFFFFF" stroke-width="1.5"></path>
        </g>
    </g>
</svg>