<?xml version="1.0" encoding="UTF-8"?>
<svg width="88px" height="71px" viewBox="0 0 88 71" version="1.1" xmlns="http://www.w3.org/2000/svg" xmlns:xlink="http://www.w3.org/1999/xlink">
    <!-- Generator: Sketch 64 (93537) - https://sketch.com -->
    <title>svg/stampCounter</title>
    <desc>Created with Sketch.</desc>
    <g id="stampCounter" stroke="none" stroke-width="1" fill="none" fill-rule="evenodd" stroke-linecap="round" stroke-linejoin="round">
        <g id="stampYellow" transform="translate(20.000000, 2.000000)" stroke="#000000" stroke-width="2.5">
            <path d="M3,66.8669562 C22.2006873,46.3965878 45.1585942,23.3091216 65.8621693,6 C66.2508472,26.1076024 65.4734914,47.096208 64.8775187,67.1778985 C44.277591,67.5665764 23.5740158,67.2815459 3,66.8669562 Z" id="SHADOW" fill="#000000" opacity="0.2"></path>
            <path d="M-4.61852778e-14,60.8669562 C19.2006873,40.3965878 42.1585942,17.3091216 62.8621693,1.0658141e-14 C63.2508472,20.1076024 62.4734914,41.096208 61.8775187,61.1778985 C41.277591,61.5665764 20.5740158,61.2815459 -4.61852778e-14,60.8669562 Z" fill="#FABE0A"></path>
        </g>
        <g id="stampPurple" transform="translate(2.000000, 1.792705)" stroke="#000000" stroke-width="2.5">
            <path d="M3,66.8669562 C22.2006873,46.3965878 45.1585942,23.3091216 65.8621693,6 C66.2508472,26.1076024 65.4734914,47.096208 64.8775187,67.1778985 C44.277591,67.5665764 23.5740158,67.2815459 3,66.8669562 Z" id="SHADOW" fill="#000000" opacity="0.2"></path>
            <path d="M-4.61852778e-14,60.8669562 C19.2006873,40.3965878 42.1585942,17.3091216 62.8621693,1.0658141e-14 C63.2508472,20.1076024 62.4734914,41.096208 61.8775187,61.1778985 C41.277591,61.5665764 20.5740158,61.2815459 -4.61852778e-14,60.8669562 Z" fill="#A578CF"></path>
        </g>
        <g id="Group" opacity="0.89" transform="translate(7.000000, 9.000000)" stroke="#000000">
            <path d="M30.1915671,2.87152565 C26.5134808,1.76349098 19.9093566,1.40263677 15.1358493,3.67389559 C6.16603733,7.21026679 -0.735114416,17.0063971 1.38621031,26.8831889 C2.49586709,38.3456166 13.9140914,47.9245805 25.2264189,45.6681804 C31.5040234,44.9358586 37.9437767,41.7949583 41.2258262,35.9597335 C44.3876184,30.5443832 45.2768714,25.5496804 44.9294384,20.9397079 C44.3876184,13.750479 40.0210171,6.24067992 30.1915671,2.87152565 Z" id="SHADOW" stroke-width="2.5" fill="#000000" opacity="0.2"></path>
            <path d="M29.1915671,0.871525654 C25.5134808,-0.236509021 18.9093566,-0.597363225 14.1358493,1.67389559 C5.16603733,5.21026679 -1.73511442,15.0063971 0.386210312,24.8831889 C1.49586709,36.3456166 12.9140914,45.9245805 24.2264189,43.6681804 C30.5040234,42.9358586 36.9437767,39.7949583 40.2258262,33.9597335 C43.3876184,28.5443832 44.2768714,23.5496804 43.9294384,18.9397079 C43.3876184,11.750479 39.0210171,4.24067992 29.1915671,0.871525654 Z" id="miniCounter" stroke-width="1.5" fill="#576891" stroke-dasharray="4"></path>
        </g>
    </g>
</svg>